<svg width="1041" height="220" viewBox="0 0 1041 220" fill="none" xmlns="http://www.w3.org/2000/svg">
<rect width="1041" height="220" fill="white"/>
<path d="M247.188 146.535L263.674 180.466L264.004 180.305L264.33 180.137L247.188 146.535ZM253.357 140.921L221.564 120.761L221.492 120.876L221.421 120.99L253.357 140.921ZM255.767 132.308V94.5546H218.894L218.171 131.568L255.767 132.308ZM281.89 132.308L319.493 132.639L319.826 94.5546H281.89V132.308ZM276.01 151.955L307.079 173.222L307.134 173.141L307.19 173.059L276.01 151.955ZM260.491 165.407L277.174 199.242L277.307 199.175L277.44 199.108L260.491 165.407ZM217.498 166.181L202.021 200.589L202.089 200.62L202.158 200.65L217.498 166.181ZM202.557 154.955L173.574 179.009L173.653 179.105L173.733 179.201L202.557 154.955ZM193.592 138.115L157.674 149.294L157.706 149.397L193.592 138.115ZM193.592 93.8864L229.477 105.168L229.509 105.065L193.592 93.8864ZM202.557 77.0466L231.381 101.293L231.46 101.197L231.539 101.101L202.557 77.0466ZM260.972 66.5942L243.888 100.227L243.955 100.261L244.023 100.295L260.972 66.5942ZM276.203 80.7242L243.958 100.148L244.078 100.349L244.201 100.549L276.203 80.7242ZM281.89 102.306V140.06H319.786L319.493 102.014L281.89 102.306ZM255.767 102.306L218.17 103.005L218.853 140.06H255.767V102.306ZM253.55 92.8217L219.614 109.083L219.762 109.396L219.916 109.706L253.55 92.8217ZM247.573 86.0471L226.535 117.339L226.981 117.641L227.435 117.93L247.573 86.0471ZM228.101 86.0471L248.595 117.701L248.869 117.523L249.14 117.339L228.101 86.0471ZM222.125 93.0153L255.907 109.597L255.978 109.451L256.048 109.304L222.125 93.0153ZM219.137 102.984L181.978 97.1946L181.936 97.4652L181.898 97.7364L219.137 102.984ZM222.029 139.083L188.246 155.665L188.393 155.966L188.545 156.265L222.029 139.083ZM238.127 186.224C246.323 186.224 255.135 184.648 263.674 180.466L230.702 112.603C233.971 111.002 236.742 110.717 238.127 110.717V186.224ZM264.33 180.137C272.678 175.845 280.002 169.4 285.293 160.853L221.421 120.99C223.756 117.219 226.968 114.515 230.045 112.933L264.33 180.137ZM285.15 161.082C290.829 152.055 293.183 142.273 293.363 133.049L218.171 131.568C218.222 128.925 218.97 124.885 221.564 120.761L285.15 161.082ZM255.767 170.061H281.89V94.5546H255.767V170.061ZM244.288 131.977C244.285 132.355 244.242 132.263 244.359 131.872C244.414 131.691 244.488 131.492 244.581 131.296C244.674 131.101 244.764 130.95 244.83 130.85L307.19 173.059C315.432 160.785 319.368 146.918 319.493 132.639L244.288 131.977ZM244.941 130.686C244.892 130.758 244.719 131.109 243.541 131.707L277.44 199.108C289.244 193.124 299.416 184.507 307.079 173.222L244.941 130.686ZM243.807 131.573C243.047 131.95 241.59 132.493 238.705 132.493V208C251.886 208 264.952 205.316 277.174 199.242L243.807 131.573ZM238.705 132.493C234.739 132.493 233.098 131.829 232.838 131.712L202.158 200.65C213.979 205.954 226.477 208 238.705 208V132.493ZM232.975 131.774C231.851 131.264 231.527 130.884 231.381 130.709L173.733 179.201C181.555 188.574 191.192 195.679 202.021 200.589L232.975 131.774ZM231.539 130.901C230.859 130.074 230.111 128.867 229.477 126.833L157.706 149.397C161.057 160.139 166.286 170.158 173.574 179.009L231.539 130.901ZM229.509 126.936C228.729 124.411 228.207 121.304 228.207 117.404H153C153 128.214 154.47 138.915 157.674 149.294L229.509 126.936ZM228.207 117.404V114.597H153V117.404H228.207ZM228.207 114.597C228.207 110.593 228.74 107.532 229.477 105.168L157.706 82.6047C154.459 93.0163 153 103.762 153 114.597H228.207ZM229.509 105.065C230.15 102.991 230.863 101.913 231.381 101.293L173.733 52.8004C166.282 61.7292 161.018 71.878 157.675 82.7075L229.509 105.065ZM231.539 101.101C231.689 100.919 231.967 100.588 232.975 100.131L202.021 31.3157C191.076 36.2782 181.393 43.4957 173.574 52.9919L231.539 101.101ZM232.975 100.131C233.122 100.064 234.644 99.4121 238.512 99.4121V23.9048C226.315 23.9048 213.827 25.9623 202.021 31.3157L232.975 100.131ZM238.512 99.4121C242.212 99.4121 243.646 100.103 243.888 100.227L278.057 32.962C265.446 26.5046 251.906 23.9048 238.512 23.9048V99.4121ZM244.023 100.295C244.103 100.336 244.159 100.367 244.193 100.388C244.21 100.398 244.223 100.406 244.231 100.411C244.239 100.416 244.243 100.419 244.243 100.419C244.243 100.419 244.24 100.417 244.234 100.412C244.228 100.408 244.219 100.401 244.208 100.393C244.187 100.375 244.159 100.352 244.128 100.323C244.061 100.261 244.004 100.199 243.963 100.148C243.923 100.098 243.924 100.091 243.958 100.148L308.448 61.3001C301.05 48.9212 290.609 39.3252 277.922 32.8934L244.023 100.295ZM244.201 100.549C244.04 100.288 244.023 100.154 244.068 100.325C244.121 100.529 244.277 101.231 244.288 102.599L319.493 102.014C319.385 87.9634 316.111 73.7643 308.205 60.8995L244.201 100.549ZM281.89 64.5527H255.767V140.06H281.89V64.5527ZM293.364 101.607C293.206 93.0567 291.34 84.284 287.184 75.9378L219.916 109.706C218.588 107.037 218.199 104.588 218.17 103.005L293.364 101.607ZM287.487 76.5601C283.106 67.3441 276.344 59.6598 267.712 54.1639L227.435 117.93C224.073 115.79 221.296 112.622 219.614 109.083L287.487 76.5601ZM268.612 54.755C258.563 47.945 247.634 45.6804 238.03 45.6804V121.188C236.01 121.188 231.443 120.665 226.535 117.339L268.612 54.755ZM238.03 45.6804C228.748 45.6804 217.492 47.6879 207.063 54.755L249.14 117.339C243.853 120.922 239.215 121.188 238.03 121.188V45.6804ZM207.608 54.3929C198.837 60.1168 192.386 67.9427 188.202 76.7263L256.048 109.304C254.692 112.152 252.225 115.333 248.595 117.701L207.608 54.3929ZM188.343 76.4335C185.013 83.2704 183.039 90.3319 181.978 97.1946L256.296 108.773C256.392 108.151 256.409 108.567 255.907 109.597L188.343 76.4335ZM181.898 97.7364C181.12 103.306 180.762 108.94 180.762 114.597H255.969C255.969 112.125 256.126 110.016 256.375 108.231L181.898 97.7364ZM180.762 114.597V117.404H255.969V114.597H180.762ZM180.762 117.404C180.762 123.065 181.12 128.698 181.886 134.273L256.388 123.956C256.125 122.046 255.969 119.872 255.969 117.404H180.762ZM181.886 134.273C182.855 141.329 184.813 148.614 188.246 155.665L255.811 122.501C256.417 123.745 256.446 124.384 256.388 123.956L181.886 134.273ZM188.545 156.265C192.833 164.688 199.191 172.116 207.608 177.608L248.595 114.3C251.871 116.438 254.18 119.284 255.512 121.901L188.545 156.265ZM207.608 177.608C218.034 184.413 229.162 186.224 238.127 186.224V110.717C238.865 110.717 243.31 110.851 248.595 114.3L207.608 177.608ZM296.832 93.7895L332.434 105.943L332.47 105.835L296.832 93.7895ZM321.798 65.7232L336.698 100.386L336.852 100.32L337.003 100.253L321.798 65.7232ZM363.923 65.7232L348.851 100.311L349.002 100.378L349.154 100.443L363.923 65.7232ZM379.443 76.853L351.191 101.768L351.285 101.876L351.38 101.982L379.443 76.853ZM389.083 93.7895L353.444 105.835L353.481 105.943L389.083 93.7895ZM389.083 138.212L424.685 150.365L424.721 150.257L389.083 138.212ZM379.443 155.149L351.213 130.207L351.191 130.233L379.443 155.149ZM321.895 166.278L306.994 200.941L307.06 200.969L307.125 200.998L321.895 166.278ZM306.375 155.149L277.958 179.875L278.133 180.077L278.311 180.278L306.375 155.149ZM296.832 138.212L261.193 150.257L261.23 150.364L296.832 138.212ZM326.136 139.373L293.576 158.261L293.826 158.693L294.086 159.119L326.136 139.373ZM359.586 139.373L391.959 158.58L392.053 158.42L392.145 158.261L359.586 139.373ZM363.248 129.308L326.526 121.184L326.46 121.483L326.4 121.783L363.248 129.308ZM363.248 102.984L326.4 110.508L326.474 110.875L326.556 111.241L363.248 102.984ZM359.489 92.9186L326.753 111.496L326.993 111.922L327.244 112.343L359.489 92.9186ZM332.788 85.9504L313.331 53.6434L313.162 53.7457L312.995 53.8498L332.788 85.9504ZM326.136 92.9186L293.706 73.8076L293.641 73.9192L293.576 74.0313L326.136 92.9186ZM322.473 102.984L359.297 110.633L359.322 110.508L322.473 102.984ZM331.157 117.017V114.985H255.951V117.017H331.157ZM331.157 114.985C331.157 110.923 331.73 108.019 332.434 105.943L261.23 81.6366C257.563 92.4638 255.951 103.69 255.951 114.985H331.157ZM332.47 105.835C333.197 103.665 333.998 102.487 334.627 101.768L278.123 51.9378C270.397 60.7678 264.836 70.8813 261.193 81.7446L332.47 105.835ZM334.627 101.768C334.942 101.408 335.443 100.93 336.698 100.386L306.898 31.06C295.943 35.8069 286.162 42.7488 278.123 51.9378L334.627 101.768ZM337.003 100.253C337.52 100.024 339.194 99.4121 342.813 99.4121V23.9048C330.622 23.9048 318.287 26.0031 306.593 31.1936L337.003 100.253ZM342.813 99.4121C346.42 99.4121 348.188 100.02 348.851 100.311L378.996 31.1349C367.32 26.0065 355.014 23.9048 342.813 23.9048V99.4121ZM349.154 100.443C350.472 101.008 350.943 101.484 351.191 101.768L407.695 51.9378C399.589 42.6727 389.713 35.7289 378.692 31.0035L349.154 100.443ZM351.38 101.982C351.995 102.676 352.756 103.783 353.444 105.835L424.721 81.7446C421.039 70.7634 415.373 60.5791 407.506 51.7236L351.38 101.982ZM353.481 105.943C354.184 108.019 354.756 110.923 354.756 114.985H429.964C429.964 103.69 428.351 92.4638 424.684 81.6366L353.481 105.943ZM354.756 114.985V117.017H429.964V114.985H354.756ZM354.756 117.017C354.756 120.971 354.196 123.924 353.444 126.167L424.721 150.257C428.339 139.466 429.964 128.29 429.964 117.017H354.756ZM353.481 126.059C352.797 128.076 351.997 129.313 351.213 130.207L407.672 180.09C415.371 171.306 420.998 161.252 424.684 150.364L353.481 126.059ZM351.191 130.233C350.876 130.594 350.374 131.071 349.119 131.615L378.92 200.941C389.875 196.194 399.656 189.253 407.695 180.063L351.191 130.233ZM349.119 131.615C348.521 131.875 346.737 132.493 343.005 132.493V208C355.083 208 367.308 205.973 378.92 200.941L349.119 131.615ZM343.005 132.493C339.285 132.493 337.409 131.877 336.664 131.558L307.125 200.998C318.719 205.969 330.916 208 343.005 208V132.493ZM336.795 131.615C335.492 131.051 334.876 130.512 334.438 130.019L278.311 180.278C286.356 189.334 296.086 196.215 306.994 200.941L336.795 131.615ZM334.792 130.422C333.996 129.501 333.157 128.193 332.434 126.059L261.23 150.364C264.877 161.135 270.399 171.118 277.958 179.875L334.792 130.422ZM332.47 126.167C331.719 123.924 331.157 120.971 331.157 117.017H255.951C255.951 128.29 257.575 139.466 261.193 150.257L332.47 126.167ZM283.713 114.985V117.017H358.92V114.985H283.713ZM283.713 117.017C283.713 123.613 284.291 130.255 285.624 136.833L359.322 121.783C359.112 120.747 358.92 119.196 358.92 117.017H283.713ZM285.624 136.833C287.079 144.014 289.581 151.318 293.576 158.261L358.695 120.486C359.35 121.622 359.41 122.215 359.322 121.783L285.624 136.833ZM294.086 159.119C298.946 167.072 305.635 173.816 313.983 178.689L351.784 113.413C354.606 115.06 356.795 117.352 358.186 119.627L294.086 159.119ZM313.983 178.689C323.741 184.385 334.001 186.224 343.005 186.224V110.717C344.04 110.717 347.553 110.943 351.784 113.413L313.983 178.689ZM343.005 186.224C352.131 186.224 362.253 184.282 371.834 178.689L334.034 113.413C338.089 111.046 341.591 110.717 343.005 110.717V186.224ZM371.834 178.689C380.316 173.738 387.11 166.819 391.959 158.58L327.212 120.167C328.72 117.605 331.077 115.138 334.034 113.413L371.834 178.689ZM392.145 158.261C396.14 151.318 398.643 144.014 400.098 136.833L326.4 121.783C326.312 122.215 326.372 121.622 327.026 120.486L392.145 158.261ZM399.971 137.432C401.46 130.649 402.105 123.801 402.105 117.017H326.898C326.898 119.008 326.708 120.354 326.526 121.184L399.971 137.432ZM402.105 117.017V114.985H326.898V117.017H402.105ZM402.105 114.985C402.105 108.249 401.444 101.458 399.942 94.7266L326.556 111.241C326.723 111.994 326.898 113.203 326.898 114.985H402.105ZM400.098 95.4591C398.598 88.0613 395.962 80.5708 391.734 73.4944L327.244 112.343C326.485 111.073 326.355 110.293 326.4 110.508L400.098 95.4591ZM392.226 74.3416C387.546 66.0298 380.874 58.8515 372.295 53.6434L333.381 118.257C330.328 116.404 328.09 113.871 326.753 111.496L392.226 74.3416ZM372.295 53.6434C362.52 47.7095 352.122 45.6804 342.813 45.6804V121.188C341.343 121.188 337.629 120.836 333.381 118.257L372.295 53.6434ZM342.813 45.6804C333.503 45.6804 323.105 47.7095 313.331 53.6434L352.245 118.257C347.996 120.836 344.282 121.188 342.813 121.188V45.6804ZM312.995 53.8498C304.684 59.0151 298.285 65.9754 293.706 73.8076L358.566 112.029C357.457 113.926 355.493 116.241 352.58 118.051L312.995 53.8498ZM293.576 74.0313C289.581 80.9741 287.079 88.2774 285.624 95.4591L359.322 110.508C359.41 110.077 359.35 110.67 358.695 111.806L293.576 74.0313ZM285.65 95.3346C284.304 101.86 283.713 108.444 283.713 114.985H358.92C358.92 113.008 359.1 111.592 359.297 110.633L285.65 95.3346ZM436.605 85.9504H474.209V84.4817L474.095 83.0174L436.605 85.9504ZM436.605 168.311V206.064H474.209V168.311H436.605ZM408.843 168.311H371.24V206.064H408.843V168.311ZM408.843 63.594V25.8404H371.24V63.594H408.843ZM434.871 63.594L472.361 60.6611L469.658 25.8404H434.871V63.594ZM432.557 112.275V150.028H470.161V112.275H432.557ZM425.038 112.275H387.435V150.028H425.038V112.275ZM428.026 91.37L463.81 102.972L463.845 102.863L428.026 91.37ZM436.412 75.4013L465.44 99.4015L465.525 99.2972L465.611 99.1925L436.412 75.4013ZM449.233 65.2393L465.159 99.4397L465.254 99.395L465.349 99.3498L449.233 65.2393ZM489.816 70.5622L462.382 96.3835L462.524 96.5346L462.666 96.6842L489.816 70.5622ZM496.564 82.8534L460.584 93.8276L460.647 94.0362L460.713 94.244L496.564 82.8534ZM498.973 168.311V206.064H536.577V168.311H498.973ZM471.019 168.311H433.415V206.064H471.019V168.311ZM463.403 85.1761L448.048 119.638L448.586 119.88L449.131 120.105L463.403 85.1761ZM444.606 85.7568L426.871 52.4662L426.707 52.5539L426.544 52.6432L444.606 85.7568ZM437.858 91.9507L406.805 70.6591L406.748 70.7437L406.691 70.8286L437.858 91.9507ZM399.002 85.9504V168.311H474.209V85.9504H399.002ZM436.605 130.557H408.843V206.064H436.605V130.557ZM446.447 168.311V63.594H371.24V168.311H446.447ZM408.843 101.348H434.871V25.8404H408.843V101.348ZM397.381 66.527L399.115 88.8833L474.095 83.0174L472.361 60.6611L397.381 66.527ZM432.557 74.521H425.038V150.028H432.557V74.521ZM462.642 112.275C462.642 107.746 463.227 104.785 463.81 102.972L392.242 79.7686C388.841 90.343 387.435 101.318 387.435 112.275H462.642ZM463.845 102.863C464.609 100.465 465.31 99.5602 465.44 99.4015L407.385 51.401C400.318 60.0171 395.428 69.7579 392.208 79.8771L463.845 102.863ZM465.611 99.1925C465.684 99.1008 465.722 99.0638 465.719 99.0669C465.715 99.0706 465.681 99.1035 465.618 99.1541C465.553 99.2047 465.475 99.2605 465.388 99.3149C465.3 99.3692 465.221 99.4108 465.159 99.4397L433.307 31.039C422.973 35.8899 414.229 42.9328 407.215 51.6101L465.611 99.1925ZM465.349 99.3498C465.25 99.3973 465.16 99.4324 465.09 99.4563C465.019 99.4799 464.988 99.4856 465.007 99.4817C465.037 99.4752 465.344 99.4121 466.006 99.4121V23.9048C454.892 23.9048 443.706 26.0858 433.117 31.1288L465.349 99.3498ZM466.006 99.4121C467.247 99.4121 467.456 99.5876 467.008 99.4305L491.802 28.1447C483.257 25.1487 474.533 23.9048 466.006 23.9048V99.4121ZM467.008 99.4305C466.304 99.1838 465.467 98.796 464.592 98.2269C463.715 97.6566 462.972 97.0145 462.382 96.3835L517.249 44.741C510.146 37.1349 501.494 31.5426 491.802 28.1447L467.008 99.4305ZM462.666 96.6842C460.665 94.5872 460.352 93.0606 460.584 93.8276L532.543 71.8791C529.691 62.4519 524.88 52.7312 516.965 44.4403L462.666 96.6842ZM460.713 94.244C460.813 94.5643 461.37 96.6988 461.37 101.532H536.577C536.577 91.6546 535.527 81.3366 532.415 71.4628L460.713 94.244ZM461.37 101.532V168.311H536.577V101.532H461.37ZM498.973 130.557H471.019V206.064H498.973V130.557ZM508.623 168.311V101.435H433.415V168.311H508.623ZM508.623 101.435C508.623 94.1105 507.742 83.7858 502.724 73.7119L435.457 107.48C434.121 104.795 433.667 102.715 433.519 101.878C433.364 101.007 433.415 100.782 433.415 101.435H508.623ZM502.724 73.7119C497.641 63.5042 489.138 54.9688 477.676 50.2476L449.131 120.105C446.24 118.914 443.366 117.117 440.818 114.688C438.295 112.284 436.575 109.725 435.457 107.48L502.724 73.7119ZM478.76 50.7139C470.125 46.8355 461.504 45.7772 454.343 45.7772V121.284C454.27 121.284 453.652 121.281 452.615 121.093C451.568 120.903 449.967 120.5 448.048 119.638L478.76 50.7139ZM454.343 45.7772C445.596 45.7772 436.036 47.5446 426.871 52.4662L462.342 119.047C458.704 121.001 455.634 121.284 454.343 121.284V45.7772ZM426.544 52.6432C418.454 57.0918 411.82 63.2874 406.805 70.6591L468.911 113.242C467.496 115.323 465.361 117.39 462.668 118.87L426.544 52.6432ZM406.691 70.8286C402.224 77.4719 399.314 84.5727 397.506 91.5734L470.306 110.523C470.298 110.555 470.022 111.591 469.026 113.073L406.691 70.8286ZM397.506 91.5734C395.725 98.4736 394.954 105.428 394.954 112.275H470.161C470.161 111.121 470.289 110.591 470.306 110.523L397.506 91.5734ZM571.174 63.594H608.778V25.8404H571.174V63.594ZM571.174 83.3373V121.091H608.778V83.3373H571.174ZM510.444 83.3373H472.841V121.091H510.444V83.3373ZM510.444 63.594V25.8404H472.841V63.594H510.444ZM525.482 37.7536V0H487.879V37.7536H525.482ZM553.245 37.7536H590.848V0H553.245V37.7536ZM554.401 143.728L520.501 160.065L520.761 160.61L521.038 161.146L554.401 143.728ZM558.065 147.116L544.099 182.169L544.709 182.414L545.327 182.637L558.065 147.116ZM568.764 147.793L572.329 185.377L573.089 185.304L573.845 185.201L568.764 147.793ZM572.33 147.212L609.934 147.035L609.719 101.204L564.956 110.192L572.33 147.212ZM572.427 167.73L584.028 203.642L610.16 195.133L610.03 167.552L572.427 167.73ZM539.556 167.246L523.922 201.582L524.215 201.716L524.509 201.845L539.556 167.246ZM533.571 63.594V83.3373H608.778V63.594H533.571ZM571.174 45.5836H510.444V121.091H571.174V45.5836ZM548.048 83.3373V63.594H472.841V83.3373H548.048ZM510.444 101.348H571.174V25.8404H510.444V101.348ZM525.482 75.5073H553.245V0H525.482V75.5073ZM515.641 37.7536V136.76H590.848V37.7536H515.641ZM515.641 136.76C515.641 142.034 516.156 150.979 520.501 160.065L588.302 127.391C589.846 130.622 590.408 133.259 590.625 134.57C590.854 135.945 590.848 136.756 590.848 136.76H515.641ZM521.038 161.146C525.818 170.373 533.718 178 544.099 182.169L572.03 112.062C575.29 113.372 578.525 115.339 581.419 118.015C584.294 120.674 586.353 123.586 587.764 126.311L521.038 161.146ZM545.327 182.637C552.367 185.182 559.063 185.74 564.138 185.74V110.233C564.365 110.233 565.057 110.244 566.105 110.395C567.144 110.544 568.784 110.865 570.801 111.594L545.327 182.637ZM564.138 185.74C566.752 185.74 569.521 185.645 572.329 185.377L565.199 110.21C565.273 110.202 565.222 110.209 565.03 110.217C564.839 110.225 564.546 110.233 564.138 110.233V185.74ZM573.845 185.201C575.718 184.944 577.727 184.631 579.705 184.233L564.956 110.192C565.011 110.181 564.935 110.197 564.697 110.236C564.466 110.274 564.132 110.324 563.684 110.386L573.845 185.201ZM534.728 147.39L534.824 167.908L610.03 167.552L609.934 147.035L534.728 147.39ZM560.827 131.818C560.466 131.935 559.773 132.126 558.674 132.306L570.758 206.832C575.185 206.109 579.633 205.073 584.028 203.642L560.827 131.818ZM558.674 132.306C558.246 132.376 557.25 132.493 555.558 132.493V208C560.548 208 565.658 207.665 570.758 206.832L558.674 132.306ZM555.558 132.493C553.489 132.493 553.475 132.152 554.603 132.647L524.509 201.845C534.764 206.34 545.416 208 555.558 208V132.493ZM555.19 132.91C556.552 133.535 558.03 134.484 559.4 135.782C560.757 137.07 561.655 138.365 562.193 139.362L496.098 175.387C502.283 186.826 511.738 195.99 523.922 201.582L555.19 132.91ZM562.193 139.362C563.014 140.881 563.219 141.873 563.225 141.899C563.229 141.922 563.193 141.749 563.156 141.35C563.119 140.951 563.086 140.363 563.086 139.567H487.879C487.879 150.669 489.653 163.469 496.098 175.387L562.193 139.362ZM563.086 139.567V37.7536H487.879V139.567H563.086ZM641.639 89.4345L607.314 104.852L607.391 105.025L607.47 105.197L641.639 89.4345ZM636.53 83.7244L617.184 116.098L617.382 116.218L617.583 116.335L636.53 83.7244ZM619.758 83.3373L635.392 117.673L635.791 117.49L636.187 117.297L619.758 83.3373ZM614.552 87.8859L646.32 108.086L646.469 107.851L646.612 107.615L614.552 87.8859ZM612.72 94.7574V132.511H650.324V94.7574H612.72ZM584.959 94.7574H547.355V132.511H584.959V94.7574ZM597.008 71.53L619.959 101.436L620.111 101.319L620.262 101.2L597.008 71.53ZM610.985 64.2715L599.601 28.2893L599.478 28.329L610.985 64.2715ZM665.739 77.9175L634.451 98.8595L634.536 98.9882L634.623 99.1163L665.739 77.9175ZM672.293 157.181L635.371 164.335L635.394 164.458L672.293 157.181ZM675.378 166.665H712.982V157.753L709.012 149.781L675.378 166.665ZM675.378 168.311V206.064H712.982V168.311H675.378ZM647.327 168.311L613.39 184.572L623.607 206.064H647.327V168.311ZM644.242 157.665L607.051 163.237L607.098 163.556L607.15 163.872L644.242 157.665ZM646.941 104.532L684.542 104.069L684.086 66.7786H646.941V104.532ZM647.134 120.307V158.061H685.201L684.735 119.844L647.134 120.307ZM615.419 125.146L639.804 153.886L640.106 153.628L640.402 153.364L615.419 125.146ZM611.564 130.373L576.886 115.772L576.684 116.255L576.496 116.744L611.564 130.373ZM612.045 143.438L579.33 162.051L579.466 162.292L579.605 162.53L612.045 143.438ZM616.769 147.89L599.128 181.231L599.538 181.45L599.952 181.657L616.769 147.89ZM642.025 140.728L611.371 118.861L611.179 119.133L610.991 119.409L642.025 140.728ZM644.724 133.76L676.641 113.798L617.583 23.9048L607.136 132.65L644.724 133.76ZM652.05 145.567L687.08 159.292L693.932 141.665L683.967 125.605L652.05 145.567ZM647.808 153.793L616.084 133.524L615.919 133.785L615.758 134.047L647.808 153.793ZM641.157 161.826L666.386 189.822L666.567 189.658L666.744 189.492L641.157 161.826ZM631.422 167.924L645.591 202.895L645.842 202.792L646.093 202.685L631.422 167.924ZM599.899 166.278L582.921 199.964L583.163 200.087L583.406 200.206L599.899 166.278ZM587.175 155.149L555.628 175.693L555.789 175.942L555.953 176.19L587.175 155.149ZM594.694 113.533L616.783 144.087L616.869 144.024L594.694 113.533ZM609.829 106.855L618.766 143.527L618.948 143.482L619.131 143.435L609.829 106.855ZM680.881 144.696V98.0479H605.674V144.696H680.881ZM680.881 98.0479C680.881 90.706 679.699 82.1737 675.809 73.6723L607.47 105.197C605.765 101.47 605.674 98.6797 605.674 98.0479H680.881ZM675.965 74.0171C671.658 64.3524 664.573 56.4402 655.477 51.1136L617.583 116.335C613.115 113.718 609.436 109.613 607.314 104.852L675.965 74.0171ZM655.877 51.3509C646 45.4006 635.737 43.9384 627.758 43.9384V119.446C626.977 119.446 622.563 119.338 617.184 116.098L655.877 51.3509ZM627.758 43.9384C620.283 43.9384 611.752 45.2697 603.328 49.3776L636.187 117.297C632.261 119.211 629.064 119.446 627.758 119.446V43.9384ZM604.123 49.0013C595.492 52.9626 587.853 59.3737 582.491 68.1574L646.612 107.615C643.693 112.398 639.524 115.777 635.392 117.673L604.123 49.0013ZM582.784 67.6858C577.191 76.5521 575.117 86.0891 575.117 94.7574H650.324C650.324 98.1349 649.471 103.091 646.32 108.086L582.784 67.6858ZM612.72 57.0037H584.959V132.511H612.72V57.0037ZM622.562 94.7574C622.562 95.4792 622.475 96.3204 622.259 97.2078C622.044 98.0934 621.746 98.8349 621.458 99.3945L554.628 64.7637C549.851 74.0553 547.355 84.2111 547.355 94.7574H622.562ZM621.458 99.3945C621.129 100.036 620.761 100.56 620.433 100.946C620.112 101.323 619.912 101.472 619.959 101.436L574.057 41.6238C566.229 47.6791 559.463 55.3573 554.628 64.7637L621.458 99.3945ZM620.262 101.2C620.262 101.2 620.391 101.096 620.719 100.926C621.052 100.752 621.621 100.495 622.493 100.214L599.478 28.329C590.4 31.2587 581.634 35.6361 573.755 41.8606L620.262 101.2ZM622.369 100.253C623.565 99.8722 625.749 99.4121 629.301 99.4121V23.9048C619.356 23.9048 609.33 25.1865 599.601 28.2893L622.369 100.253ZM629.301 99.4121C633.217 99.4121 635.235 100.06 636.081 100.424L665.706 31.0221C653.956 25.9666 641.579 23.9048 629.301 23.9048V99.4121ZM636.081 100.424C636.22 100.484 635.959 100.388 635.516 100.024C635.06 99.6495 634.689 99.2194 634.451 98.8595L697.027 56.9756C689.149 45.1126 678.313 36.4468 665.706 31.0221L636.081 100.424ZM634.623 99.1163C634.305 98.6472 634.061 98.1962 633.881 97.7972C633.703 97.4014 633.61 97.1066 633.569 96.9529C633.488 96.6555 633.629 97.0029 633.629 98.2415H708.836C708.836 84.3871 705.666 69.7561 696.854 56.7189L634.623 99.1163ZM633.629 98.2415V143.051H708.836V98.2415H633.629ZM633.629 143.051C633.629 150.07 634.039 157.406 635.371 164.335L709.216 150.027C709.133 149.601 708.836 147.517 708.836 143.051H633.629ZM635.394 164.458C636.619 170.716 638.596 177.229 641.744 183.549L709.012 149.781C709.243 150.245 709.333 150.522 709.341 150.543C709.347 150.563 709.282 150.365 709.191 149.904L635.394 164.458ZM637.775 166.665V168.311H712.982V166.665H637.775ZM675.378 130.557H647.327V206.064H675.378V130.557ZM681.263 152.049C681.436 152.413 681.543 152.682 681.599 152.832C681.654 152.982 681.667 153.035 681.65 152.974C681.611 152.838 681.483 152.36 681.334 151.458L607.15 163.872C608.236 170.416 610.081 177.611 613.39 184.572L681.263 152.049ZM681.433 152.092C681.062 149.593 680.881 147.133 680.881 144.696H605.674C605.674 150.905 606.137 157.09 607.051 163.237L681.433 152.092ZM609.341 104.995L609.533 120.771L684.735 119.844L684.542 104.069L609.341 104.995ZM647.134 82.5538H631.614V158.061H647.134V82.5538ZM631.614 82.5538C625.235 82.5538 618.137 83.2674 610.952 85.5001L633.19 157.631C632.256 157.921 631.618 158.023 631.376 158.054C631.136 158.086 631.195 158.061 631.614 158.061V82.5538ZM610.952 85.5001C604.216 87.5932 596.956 91.1117 590.437 96.929L640.402 153.364C637.353 156.084 634.528 157.216 633.19 157.631L610.952 85.5001ZM591.035 96.4067C585.067 101.511 580.127 108.013 576.886 115.772L646.241 144.973C644.671 148.732 642.302 151.75 639.804 153.886L591.035 96.4067ZM576.496 116.744C573.869 123.555 572.803 130.431 572.803 136.953H648.01C648.01 138.702 647.715 141.19 646.631 144.001L576.496 116.744ZM572.803 136.953C572.803 145.373 574.8 154.026 579.33 162.051L644.761 124.825C647.106 128.979 648.01 133.309 648.01 136.953H572.803ZM579.605 162.53C584.496 170.906 591.417 177.118 599.128 181.231L634.411 114.549C638.009 116.468 641.781 119.712 644.486 124.345L579.605 162.53ZM599.952 181.657C608.182 185.789 616.563 187.192 623.999 187.192V111.685C625.907 111.685 629.47 112.056 633.586 114.122L599.952 181.657ZM623.999 187.192C633.24 187.192 643.258 185.309 652.801 180.119L616.982 113.726C620.356 111.891 623.112 111.685 623.999 111.685V187.192ZM652.801 180.119C660.168 176.112 667.443 170.288 673.059 162.047L610.991 119.409C613.265 116.072 615.784 114.377 616.982 113.726L652.801 180.119ZM672.678 162.596C677.169 156.25 681.962 146.811 682.311 134.87L607.136 132.65C607.358 125.097 610.351 120.303 611.371 118.861L672.678 162.596ZM612.807 153.722L620.133 165.529L683.967 125.605L676.641 113.798L612.807 153.722ZM617.019 131.842C617.024 131.83 616.805 132.386 616.084 133.524L679.533 174.062C682.411 169.522 685.02 164.595 687.08 159.292L617.019 131.842ZM615.758 134.047C615.871 133.863 615.941 133.781 615.928 133.796C615.914 133.813 615.808 133.939 615.57 134.161L666.744 189.492C671.674 184.896 676.154 179.602 679.859 173.539L615.758 134.047ZM615.929 133.83C616.728 133.104 617.173 132.982 616.751 133.162L646.093 202.685C653.253 199.639 660.189 195.452 666.386 189.822L615.929 133.83ZM617.253 132.952C618.142 132.589 618.723 132.477 618.85 132.455C618.967 132.434 618.69 132.493 617.926 132.493V208C626.723 208 636.258 206.706 645.591 202.895L617.253 132.952ZM617.926 132.493C617.121 132.493 616.675 132.413 616.508 132.377C616.354 132.343 616.343 132.325 616.394 132.35L583.406 200.206C594.446 205.617 606.181 208 617.926 208V132.493ZM616.878 132.592C616.817 132.561 617.049 132.673 617.42 132.998C617.799 133.329 618.141 133.724 618.398 134.108L555.953 176.19C562.903 186.583 572.185 194.51 582.921 199.964L616.878 132.592ZM618.724 134.603C619.192 135.328 619.598 136.204 619.862 137.131C620.121 138.04 620.152 138.679 620.152 138.889H544.945C544.945 151.744 548.327 164.394 555.628 175.693L618.724 134.603ZM620.152 138.889C620.152 138.515 620.187 138.567 620.107 138.95C620.022 139.349 619.837 139.985 619.469 140.747L551.797 107.805C546.896 117.953 544.945 128.604 544.945 138.889H620.152ZM619.469 140.747C619.134 141.441 618.682 142.148 618.137 142.794C617.598 143.435 617.101 143.855 616.783 144.087L572.607 82.9788C563.841 89.3658 556.677 97.7003 551.797 107.805L619.469 140.747ZM616.869 144.024C616.12 144.573 616.386 144.111 618.766 143.527L600.891 70.1831C591.19 72.5664 581.367 76.557 572.52 83.042L616.869 144.024ZM619.131 143.435C621.427 142.847 625.19 142.286 630.843 142.286V66.7786C620.559 66.7786 610.312 67.7663 600.526 70.2748L619.131 143.435ZM630.843 142.286H646.941V66.7786H630.843V142.286ZM743.723 63.594H781.326V25.8404H743.723V63.594ZM743.723 83.3373V121.091H781.326V83.3373H743.723ZM682.993 83.3373H645.389V121.091H682.993V83.3373ZM682.993 63.594V25.8404H645.389V63.594H682.993ZM698.031 37.7536V0H660.427V37.7536H698.031ZM725.793 37.7536H763.397V0H725.793V37.7536ZM726.95 143.728L693.049 160.065L693.309 160.61L693.587 161.146L726.95 143.728ZM730.612 147.116L716.647 182.169L717.257 182.414L717.876 182.637L730.612 147.116ZM741.312 147.793L744.878 185.377L745.638 185.304L746.393 185.201L741.312 147.793ZM744.879 147.212L782.482 147.035L782.267 101.204L737.505 110.192L744.879 147.212ZM744.976 167.73L756.576 203.642L782.708 195.133L782.578 167.552L744.976 167.73ZM712.105 167.246L696.471 201.582L696.763 201.716L697.058 201.845L712.105 167.246ZM706.119 63.594V83.3373H781.326V63.594H706.119ZM743.723 45.5836H682.993V121.091H743.723V45.5836ZM720.596 83.3373V63.594H645.389V83.3373H720.596ZM682.993 101.348H743.723V25.8404H682.993V101.348ZM698.031 75.5073H725.793V0H698.031V75.5073ZM688.19 37.7536V136.76H763.397V37.7536H688.19ZM688.19 136.76C688.19 142.034 688.705 150.979 693.049 160.065L760.85 127.391C762.395 130.622 762.956 133.259 763.174 134.57C763.402 135.945 763.397 136.756 763.397 136.76H688.19ZM693.587 161.146C698.366 170.373 706.267 178 716.647 182.169L744.578 112.062C747.838 113.372 751.072 115.339 753.968 118.015C756.842 120.674 758.901 123.586 760.312 126.311L693.587 161.146ZM717.876 182.637C724.915 185.182 731.611 185.74 736.685 185.74V110.233C736.914 110.233 737.605 110.244 738.654 110.395C739.691 110.544 741.333 110.865 743.349 111.594L717.876 182.637ZM736.685 185.74C739.3 185.74 742.07 185.645 744.878 185.377L737.747 110.21C737.822 110.202 737.771 110.209 737.578 110.217C737.387 110.225 737.094 110.233 736.685 110.233V185.74ZM746.393 185.201C748.266 184.944 750.275 184.631 752.254 184.233L737.505 110.192C737.559 110.181 737.483 110.197 737.245 110.236C737.013 110.274 736.68 110.324 736.232 110.386L746.393 185.201ZM707.276 147.39L707.372 167.908L782.578 167.552L782.482 147.035L707.276 147.39ZM733.375 131.818C733.014 131.935 732.321 132.126 731.222 132.306L743.306 206.832C747.733 206.109 752.182 205.073 756.576 203.642L733.375 131.818ZM731.222 132.306C730.794 132.376 729.799 132.493 728.106 132.493V208C733.097 208 738.206 207.665 743.306 206.832L731.222 132.306ZM728.106 132.493C726.038 132.493 726.024 132.152 727.152 132.647L697.058 201.845C707.311 206.34 717.964 208 728.106 208V132.493ZM727.738 132.91C729.1 133.535 730.578 134.484 731.947 135.782C733.305 137.07 734.202 138.365 734.742 139.362L668.646 175.387C674.831 186.826 684.286 195.99 696.471 201.582L727.738 132.91ZM734.742 139.362C735.563 140.881 735.768 141.873 735.773 141.899C735.778 141.922 735.741 141.749 735.705 141.35C735.668 140.951 735.634 140.363 735.634 139.567H660.427C660.427 150.669 662.202 163.469 668.646 175.387L734.742 139.362ZM735.634 139.567V37.7536H660.427V139.567H735.634ZM755.868 93.7895L791.471 105.943L791.506 105.835L755.868 93.7895ZM780.834 65.7232L795.735 100.386L795.888 100.32L796.039 100.253L780.834 65.7232ZM822.96 65.7232L807.887 100.311L808.039 100.378L808.19 100.443L822.96 65.7232ZM838.48 76.853L810.227 101.768L810.321 101.876L810.416 101.982L838.48 76.853ZM848.119 93.7895L812.481 105.835L812.517 105.943L848.119 93.7895ZM848.119 138.212L883.721 150.365L883.757 150.257L848.119 138.212ZM838.48 155.149L810.25 130.207L810.227 130.233L838.48 155.149ZM780.931 166.278L766.031 200.941L766.097 200.969L766.162 200.998L780.931 166.278ZM765.411 155.149L736.994 179.875L737.17 180.077L737.348 180.278L765.411 155.149ZM755.868 138.212L720.23 150.257L720.266 150.364L755.868 138.212ZM785.173 139.373L752.613 158.261L752.862 158.693L753.123 159.119L785.173 139.373ZM818.622 139.373L850.996 158.58L851.089 158.42L851.181 158.261L818.622 139.373ZM822.285 129.308L785.562 121.184L785.496 121.483L785.436 121.783L822.285 129.308ZM822.285 102.984L785.436 110.508L785.51 110.875L785.592 111.241L822.285 102.984ZM818.525 92.9186L785.79 111.496L786.029 111.922L786.28 112.343L818.525 92.9186ZM791.824 85.9504L772.367 53.6434L772.199 53.7457L772.031 53.8498L791.824 85.9504ZM785.173 92.9186L752.743 73.8076L752.678 73.9192L752.613 74.0313L785.173 92.9186ZM781.509 102.984L818.334 110.633L818.359 110.508L781.509 102.984ZM790.194 117.017V114.985H714.987V117.017H790.194ZM790.194 114.985C790.194 110.923 790.766 108.019 791.471 105.943L720.266 81.6366C716.599 92.4638 714.987 103.69 714.987 114.985H790.194ZM791.506 105.835C792.234 103.665 793.035 102.487 793.664 101.768L737.159 51.9378C729.434 60.7678 723.873 70.8813 720.23 81.7446L791.506 105.835ZM793.664 101.768C793.979 101.408 794.48 100.93 795.735 100.386L765.934 31.06C754.979 35.8069 745.199 42.7488 737.159 51.9378L793.664 101.768ZM796.039 100.253C796.556 100.024 798.231 99.4121 801.849 99.4121V23.9048C789.659 23.9048 777.323 26.0031 765.629 31.1936L796.039 100.253ZM801.849 99.4121C805.456 99.4121 807.225 100.02 807.887 100.311L838.032 31.1349C826.356 26.0065 814.051 23.9048 801.849 23.9048V99.4121ZM808.19 100.443C809.509 101.008 809.979 101.484 810.227 101.768L866.731 51.9378C858.626 42.6727 848.749 35.7289 837.729 31.0035L808.19 100.443ZM810.416 101.982C811.032 102.676 811.793 103.783 812.481 105.835L883.757 81.7446C880.076 70.7634 874.41 60.5791 866.542 51.7236L810.416 101.982ZM812.517 105.943C813.22 108.019 813.793 110.923 813.793 114.985H889C889 103.69 887.388 92.4638 883.72 81.6366L812.517 105.943ZM813.793 114.985V117.017H889V114.985H813.793ZM813.793 117.017C813.793 120.971 813.233 123.924 812.481 126.167L883.757 150.257C887.375 139.466 889 128.29 889 117.017H813.793ZM812.517 126.059C811.834 128.076 811.034 129.313 810.25 130.207L866.709 180.09C874.408 171.306 880.034 161.252 883.72 150.364L812.517 126.059ZM810.227 130.233C809.912 130.594 809.41 131.071 808.155 131.615L837.956 200.941C848.912 196.194 858.693 189.253 866.731 180.063L810.227 130.233ZM808.155 131.615C807.557 131.875 805.773 132.493 802.042 132.493V208C814.12 208 826.345 205.973 837.956 200.941L808.155 131.615ZM802.042 132.493C798.322 132.493 796.446 131.877 795.7 131.558L766.162 200.998C777.756 205.969 789.952 208 802.042 208V132.493ZM795.832 131.615C794.529 131.051 793.913 130.512 793.475 130.019L737.348 180.278C745.392 189.334 755.123 196.215 766.031 200.941L795.832 131.615ZM793.828 130.422C793.033 129.501 792.194 128.193 791.471 126.059L720.266 150.364C723.913 161.135 729.436 171.118 736.994 179.875L793.828 130.422ZM791.506 126.167C790.755 123.924 790.194 120.971 790.194 117.017H714.987C714.987 128.29 716.611 139.466 720.23 150.257L791.506 126.167ZM742.75 114.985V117.017H817.957V114.985H742.75ZM742.75 117.017C742.75 123.613 743.328 130.255 744.661 136.833L818.359 121.783C818.148 120.747 817.957 119.196 817.957 117.017H742.75ZM744.661 136.833C746.115 144.014 748.618 151.318 752.613 158.261L817.732 120.486C818.386 121.622 818.446 122.215 818.359 121.783L744.661 136.833ZM753.123 159.119C757.983 167.072 764.671 173.816 773.019 178.689L810.82 113.413C813.643 115.06 815.832 117.352 817.222 119.627L753.123 159.119ZM773.019 178.689C782.778 184.385 793.038 186.224 802.042 186.224V110.717C803.077 110.717 806.59 110.943 810.82 113.413L773.019 178.689ZM802.042 186.224C811.167 186.224 821.289 184.282 830.871 178.689L793.071 113.413C797.125 111.046 800.628 110.717 802.042 110.717V186.224ZM830.871 178.689C839.353 173.738 846.146 166.819 850.996 158.58L786.248 120.167C787.756 117.605 790.114 115.138 793.071 113.413L830.871 178.689ZM851.181 158.261C855.177 151.318 857.679 144.014 859.134 136.833L785.436 121.783C785.349 122.215 785.409 121.622 786.062 120.486L851.181 158.261ZM859.007 137.432C860.497 130.649 861.141 123.801 861.141 117.017H785.934C785.934 119.008 785.745 120.354 785.562 121.184L859.007 137.432ZM861.141 117.017V114.985H785.934V117.017H861.141ZM861.141 114.985C861.141 108.249 860.481 101.458 858.978 94.7266L785.592 111.241C785.76 111.994 785.934 113.203 785.934 114.985H861.141ZM859.134 95.4591C857.635 88.0613 854.999 80.5708 850.77 73.4944L786.28 112.343C785.522 111.073 785.392 110.293 785.436 110.508L859.134 95.4591ZM851.262 74.3416C846.582 66.0298 839.91 58.8515 831.331 53.6434L792.417 118.257C789.365 116.404 787.126 113.871 785.79 111.496L851.262 74.3416ZM831.331 53.6434C821.556 47.7095 811.159 45.6804 801.849 45.6804V121.188C800.38 121.188 796.665 120.836 792.417 118.257L831.331 53.6434ZM801.849 45.6804C792.539 45.6804 782.141 47.7095 772.367 53.6434L811.281 118.257C807.033 120.836 803.318 121.188 801.849 121.188V45.6804ZM772.031 53.8498C763.72 59.0151 757.322 65.9754 752.743 73.8076L817.602 112.029C816.494 113.926 814.529 116.241 811.617 118.051L772.031 53.8498ZM752.613 74.0313C748.618 80.9741 746.115 88.2774 744.661 95.4591L818.359 110.508C818.446 110.077 818.386 110.67 817.732 111.806L752.613 74.0313ZM744.686 95.3346C743.341 101.86 742.75 108.444 742.75 114.985H817.957C817.957 113.008 818.135 111.592 818.334 110.633L744.686 95.3346Z" fill="url(#paint0_linear_249_224)"/>
<path d="M237.61 148.14C241.022 148.14 244.048 147.493 246.688 146.198C249.327 144.838 251.388 142.96 252.868 140.563C254.413 138.102 255.218 135.22 255.283 131.916H281.453C281.389 139.3 279.426 145.874 275.563 151.638C271.7 157.338 266.517 161.84 260.015 165.142C253.512 168.381 246.237 170 238.189 170C230.077 170 222.995 168.639 216.944 165.919C210.956 163.199 205.967 159.443 201.975 154.65C197.983 149.793 194.99 144.157 192.994 137.746C190.998 131.269 190 124.339 190 116.955V114.138C190 106.69 190.998 99.7595 192.994 93.3477C194.99 86.8709 197.983 81.2362 201.975 76.4434C205.967 71.5858 210.956 67.7969 216.944 65.0767C222.931 62.3564 229.949 60.9964 237.996 60.9964C246.559 60.9964 254.059 62.6479 260.497 65.951C267 69.2542 272.086 73.9822 275.756 80.135C279.49 86.2232 281.389 93.4448 281.453 101.8H255.283C255.218 98.3024 254.478 95.1287 253.061 92.2789C251.709 89.4292 249.714 87.1623 247.074 85.4784C244.499 83.7297 241.312 82.8553 237.513 82.8553C233.457 82.8553 230.142 83.7297 227.566 85.4784C224.991 87.1623 222.995 89.494 221.579 92.4732C220.163 95.3878 219.165 98.7233 218.585 102.48C218.07 106.172 217.813 110.058 217.813 114.138V116.955C217.813 121.036 218.07 124.954 218.585 128.711C219.1 132.468 220.066 135.803 221.482 138.717C222.963 141.631 224.991 143.931 227.566 145.614C230.142 147.299 233.49 148.14 237.61 148.14ZM293.138 116.567V114.527C293.138 106.819 294.233 99.7272 296.422 93.2504C298.611 86.7089 301.798 81.0418 305.983 76.249C310.167 71.4563 315.318 67.7321 321.434 65.0767C327.55 62.3564 334.568 60.9964 342.487 60.9964C350.406 60.9964 357.455 62.3564 363.636 65.0767C369.816 67.7321 374.999 71.4563 379.185 76.249C383.433 81.0418 386.652 86.7089 388.842 93.2504C391.031 99.7272 392.125 106.819 392.125 114.527V116.567C392.125 124.209 391.031 131.301 388.842 137.842C386.652 144.319 383.433 149.987 379.185 154.845C374.999 159.637 369.849 163.361 363.732 166.017C357.616 168.672 350.599 170 342.68 170C334.761 170 327.711 168.672 321.531 166.017C315.415 163.361 310.232 159.637 305.983 154.845C301.798 149.987 298.611 144.319 296.422 137.842C294.233 131.301 293.138 124.209 293.138 116.567ZM320.952 114.527V116.567C320.952 120.971 321.338 125.084 322.11 128.905C322.882 132.726 324.106 136.094 325.78 139.009C327.518 141.859 329.772 144.093 332.54 145.712C335.309 147.331 338.689 148.14 342.68 148.14C346.543 148.14 349.859 147.331 352.627 145.712C355.395 144.093 357.616 141.859 359.291 139.009C360.964 136.094 362.188 132.726 362.96 128.905C363.797 125.084 364.216 120.971 364.216 116.567V114.527C364.216 110.252 363.797 106.236 362.96 102.48C362.188 98.6585 360.932 95.2906 359.194 92.3761C357.52 89.3968 355.298 87.0652 352.531 85.3813C349.762 83.6973 346.414 82.8553 342.487 82.8553C338.56 82.8553 335.212 83.6973 332.444 85.3813C329.74 87.0652 327.518 89.3968 325.78 92.3761C324.106 95.2906 322.882 98.6585 322.11 102.48C321.338 106.236 320.952 110.252 320.952 114.527ZM436.451 85.3813V168.057H408.639V62.9393H434.713L436.451 85.3813ZM432.396 111.806H424.863C424.863 104.034 425.86 97.0393 427.856 90.8216C429.852 84.5393 432.653 79.1959 436.258 74.7918C439.863 70.3228 444.145 66.9225 449.102 64.5909C454.124 62.1945 459.725 60.9964 465.906 60.9964C470.799 60.9964 475.273 61.7088 479.33 63.1336C483.385 64.5585 486.862 66.8254 489.759 69.9342C492.72 73.043 494.974 77.1558 496.519 82.2724C498.129 87.389 498.933 93.6391 498.933 101.023V168.057H470.928V100.925C470.928 96.2621 470.284 92.6352 468.996 90.0444C467.709 87.4538 465.809 85.6403 463.298 84.604C460.852 83.5029 457.826 82.9525 454.221 82.9525C450.487 82.9525 447.236 83.6973 444.467 85.1869C441.763 86.6765 439.509 88.7491 437.706 91.4046C435.969 93.9953 434.648 97.0393 433.747 100.537C432.846 104.034 432.396 107.791 432.396 111.806ZM571.266 62.9393V82.7581H510.425V62.9393H571.266ZM525.49 37H553.304V136.385C553.304 139.429 553.69 141.761 554.462 143.38C555.299 145 556.523 146.133 558.132 146.781C559.742 147.363 561.77 147.655 564.216 147.655C565.954 147.655 567.499 147.59 568.851 147.461C570.267 147.267 571.459 147.073 572.424 146.877L572.521 167.474C570.139 168.251 567.564 168.866 564.796 169.32C562.027 169.774 558.969 170 555.621 170C549.504 170 544.162 168.996 539.59 166.988C535.083 164.916 531.606 161.612 529.16 157.079C526.714 152.545 525.49 146.587 525.49 139.203V37ZM643.501 144.351V97.5251C643.501 94.1572 642.954 91.2751 641.86 88.8787C640.765 86.4175 639.059 84.5069 636.741 83.1468C634.488 81.7866 631.558 81.1065 627.953 81.1065C624.863 81.1065 622.191 81.6571 619.938 82.7581C617.685 83.7945 615.946 85.3165 614.723 87.3242C613.5 89.2673 612.888 91.5665 612.888 94.222H585.075C585.075 89.753 586.106 85.5108 588.166 81.4952C590.226 77.4796 593.219 73.9498 597.147 70.9057C601.074 67.7969 605.741 65.3681 611.149 63.6194C616.622 61.8707 622.738 60.9964 629.499 60.9964C637.61 60.9964 644.821 62.3564 651.131 65.0767C657.44 67.7969 662.398 71.8772 666.003 77.3177C669.672 82.7581 671.507 89.5587 671.507 97.7194V142.7C671.507 148.464 671.861 153.193 672.569 156.884C673.277 160.511 674.308 163.685 675.66 166.405V168.057H647.558C646.205 165.207 645.175 161.644 644.467 157.37C643.823 153.031 643.501 148.692 643.501 144.351ZM647.172 104.034L647.365 119.87H631.816C628.146 119.87 624.96 120.291 622.255 121.133C619.551 121.975 617.33 123.173 615.592 124.727C613.854 126.217 612.566 127.966 611.729 129.974C610.956 131.982 610.57 134.183 610.57 136.58C610.57 138.977 611.117 141.146 612.212 143.089C613.307 144.967 614.884 146.457 616.944 147.558C619.004 148.594 621.419 149.112 624.187 149.112C628.372 149.112 632.009 148.27 635.099 146.587C638.189 144.903 640.572 142.83 642.246 140.368C643.984 137.908 644.886 135.576 644.95 133.374L652.289 145.226C651.259 147.882 649.842 150.634 648.04 153.484C646.302 156.334 644.08 159.022 641.377 161.548C638.673 164.009 635.422 166.049 631.623 167.668C627.825 169.222 623.317 170 618.103 170C611.471 170 605.452 168.672 600.044 166.017C594.701 163.297 590.451 159.572 587.296 154.845C584.206 150.051 582.661 144.611 582.661 138.523C582.661 133.018 583.691 128.128 585.752 123.853C587.811 119.578 590.837 115.984 594.829 113.069C598.885 110.09 603.939 107.856 609.991 106.366C616.043 104.811 623.06 104.034 631.044 104.034H647.172ZM744.129 62.9393V82.7581H683.289V62.9393H744.129ZM698.354 37H726.167V136.385C726.167 139.429 726.553 141.761 727.326 143.38C728.163 145 729.385 146.133 730.995 146.781C732.605 147.363 734.633 147.655 737.079 147.655C738.818 147.655 740.363 147.59 741.715 147.461C743.131 147.267 744.323 147.073 745.288 146.877L745.385 167.474C743.002 168.251 740.427 168.866 737.659 169.32C734.89 169.774 731.832 170 728.484 170C722.368 170 717.024 168.996 712.454 166.988C707.947 164.916 704.47 161.612 702.024 157.079C699.577 152.545 698.354 146.587 698.354 139.203V37ZM753.013 116.567V114.527C753.013 106.819 754.108 99.7272 756.298 93.2504C758.486 86.7089 761.673 81.0418 765.858 76.249C770.042 71.4563 775.193 67.7321 781.309 65.0767C787.425 62.3564 794.443 60.9964 802.362 60.9964C810.281 60.9964 817.33 62.3564 823.511 65.0767C829.692 67.7321 834.874 71.4563 839.06 76.249C843.308 81.0418 846.527 86.7089 848.717 93.2504C850.906 99.7272 852 106.819 852 114.527V116.567C852 124.209 850.906 131.301 848.717 137.842C846.527 144.319 843.308 149.987 839.06 154.845C834.874 159.637 829.724 163.361 823.607 166.017C817.491 168.672 810.474 170 802.555 170C794.637 170 787.586 168.672 781.406 166.017C775.29 163.361 770.107 159.637 765.858 154.845C761.673 149.987 758.486 144.319 756.298 137.842C754.108 131.301 753.013 124.209 753.013 116.567ZM780.827 114.527V116.567C780.827 120.971 781.213 125.084 781.985 128.905C782.758 132.726 783.981 136.094 785.655 139.009C787.393 141.859 789.647 144.093 792.415 145.712C795.184 147.331 798.564 148.14 802.555 148.14C806.418 148.14 809.734 147.331 812.502 145.712C815.271 144.093 817.491 141.859 819.166 139.009C820.839 136.094 822.063 132.726 822.835 128.905C823.672 125.084 824.091 120.971 824.091 116.567V114.527C824.091 110.252 823.672 106.236 822.835 102.48C822.063 98.6585 820.807 95.2906 819.069 92.3761C817.395 89.3968 815.174 87.0652 812.406 85.3813C809.637 83.6973 806.29 82.8553 802.362 82.8553C798.435 82.8553 795.087 83.6973 792.319 85.3813C789.615 87.0652 787.393 89.3968 785.655 92.3761C783.981 95.2906 782.758 98.6585 781.985 102.48C781.213 106.236 780.827 110.252 780.827 114.527Z" fill="white"/>
<defs>
<linearGradient id="paint0_linear_249_224" x1="521.926" y1="-48.7728" x2="521.925" y2="262.695" gradientUnits="userSpaceOnUse">
<stop stop-color="#0078D6"/>
<stop offset="1" stop-color="#00A4EB"/>
</linearGradient>
</defs>
</svg>
