<svg width="1041" height="266" viewBox="0 0 1041 266" fill="none" xmlns="http://www.w3.org/2000/svg">
<rect width="1041" height="266" fill="white"/>
<path d="M223.378 174.013L241.298 207.128L241.656 206.971L242.011 206.807L223.378 174.013ZM230.084 168.534L195.526 148.859L195.448 148.97L195.371 149.082L230.084 168.534ZM232.703 160.127V123.282H192.624L191.838 159.405L232.703 160.127ZM261.098 160.127L301.97 160.451L302.332 123.282H261.098V160.127ZM254.707 179.302L288.477 200.058L288.537 199.979L288.598 199.899L254.707 179.302ZM237.838 192.431L255.971 225.453L256.117 225.387L256.261 225.322L237.838 192.431ZM191.106 193.187L174.284 226.767L174.358 226.798L174.433 226.827L191.106 193.187ZM174.866 182.23L143.363 205.706L143.449 205.8L143.536 205.893L174.866 182.23ZM165.122 165.795L126.081 176.705L126.116 176.806L165.122 165.795ZM165.122 122.629L204.127 133.64L204.162 133.54L165.122 122.629ZM174.866 106.194L206.196 129.858L206.283 129.765L206.369 129.671L174.866 106.194ZM238.361 95.9934L219.792 128.817L219.865 128.851L219.938 128.884L238.361 95.9934ZM254.916 109.784L219.868 128.741L219.998 128.937L220.132 129.132L254.916 109.784ZM261.098 130.847V167.693H302.289L301.97 130.561L261.098 130.847ZM232.703 130.847L191.837 131.529L192.58 167.693H232.703V130.847ZM230.293 121.59L193.406 137.461L193.568 137.766L193.735 138.069L230.293 121.59ZM223.797 114.979L200.93 145.518L201.414 145.813L201.908 146.095L223.797 114.979ZM202.632 114.979L224.908 145.872L225.205 145.698L225.5 145.518L202.632 114.979ZM196.136 121.779L232.856 137.963L232.933 137.82L233.009 137.677L196.136 121.779ZM192.888 131.508L152.498 125.858L152.452 126.122L152.411 126.387L192.888 131.508ZM196.031 166.739L159.311 182.923L159.471 183.217L159.636 183.509L196.031 166.739ZM213.529 212.747C222.438 212.747 232.016 211.21 241.298 207.128L205.458 140.896C209.012 139.334 212.024 139.055 213.529 139.055V212.747ZM242.011 206.807C251.084 202.618 259.045 196.328 264.797 187.987L195.371 149.082C197.909 145.401 201.4 142.762 204.745 141.218L242.011 206.807ZM264.642 188.21C270.814 179.4 273.373 169.853 273.569 160.85L191.838 159.405C191.894 156.826 192.707 152.883 195.526 148.859L264.642 188.21ZM232.703 196.973H261.098V123.282H232.703V196.973ZM220.226 159.805C220.223 160.173 220.176 160.084 220.304 159.702C220.363 159.525 220.444 159.331 220.545 159.14C220.645 158.949 220.743 158.802 220.816 158.705L288.598 199.899C297.556 187.92 301.835 174.387 301.97 160.451L220.226 159.805ZM220.936 158.545C220.883 158.615 220.695 158.957 219.414 159.541L256.261 225.322C269.091 219.482 280.148 211.072 288.477 200.058L220.936 158.545ZM219.704 159.41C218.878 159.778 217.294 160.308 214.158 160.308V234C228.485 234 242.687 231.38 255.971 225.453L219.704 159.41ZM214.158 160.308C209.847 160.308 208.063 159.66 207.78 159.546L174.433 226.827C187.282 232.003 200.866 234 214.158 234V160.308ZM207.929 159.606C206.708 159.108 206.356 158.738 206.196 158.567L143.536 205.893C152.038 215.041 162.513 221.975 174.284 226.767L207.929 159.606ZM206.369 158.754C205.629 157.947 204.817 156.769 204.127 154.785L126.116 176.806C129.757 187.289 135.441 197.067 143.363 205.706L206.369 158.754ZM204.162 154.885C203.315 152.42 202.747 149.388 202.747 145.582H121C121 156.132 122.598 166.575 126.081 176.705L204.162 154.885ZM202.747 145.582V142.843H121V145.582H202.747ZM202.747 142.843C202.747 138.934 203.326 135.947 204.127 133.64L126.116 111.619C122.586 121.78 121 132.268 121 142.843H202.747ZM204.162 133.54C204.858 131.515 205.634 130.463 206.196 129.858L143.536 82.5312C135.437 91.2453 129.716 101.15 126.081 111.719L204.162 133.54ZM206.369 129.671C206.532 129.493 206.833 129.17 207.929 128.724L174.284 61.5629C162.387 66.4061 151.862 73.4502 143.363 82.7181L206.369 129.671ZM207.929 128.724C208.089 128.659 209.743 128.022 213.948 128.022V54.3302C200.69 54.3302 187.117 56.3382 174.284 61.5629L207.929 128.724ZM213.948 128.022C217.97 128.022 219.529 128.696 219.792 128.817L256.931 63.1696C243.224 56.8675 228.507 54.3302 213.948 54.3302V128.022ZM219.938 128.884C220.025 128.924 220.086 128.955 220.123 128.974C220.142 128.985 220.155 128.992 220.164 128.997C220.172 129.002 220.177 129.005 220.177 129.005C220.177 129.005 220.174 129.003 220.167 128.998C220.16 128.994 220.151 128.988 220.14 128.979C220.116 128.962 220.086 128.939 220.052 128.911C219.98 128.851 219.918 128.79 219.873 128.74C219.83 128.692 219.83 128.684 219.868 128.741L289.965 90.8265C281.924 78.7453 270.575 69.3799 256.785 63.1026L219.938 128.884ZM220.132 129.132C219.957 128.877 219.938 128.746 219.986 128.913C220.045 129.112 220.215 129.797 220.226 131.133L301.97 130.561C301.853 116.849 298.295 102.991 289.701 90.4356L220.132 129.132ZM261.098 94.0009H232.703V167.693H261.098V94.0009ZM273.57 130.165C273.398 121.82 271.37 113.258 266.852 105.112L193.735 138.069C192.291 135.464 191.869 133.073 191.837 131.529L273.57 130.165ZM267.181 105.72C262.419 96.7252 255.069 89.2257 245.687 83.8619L201.908 146.095C198.253 144.006 195.234 140.914 193.406 137.461L267.181 105.72ZM246.665 84.4388C235.742 77.7925 223.863 75.5823 213.424 75.5823V149.274C211.228 149.274 206.264 148.765 200.93 145.518L246.665 84.4388ZM213.424 75.5823C203.335 75.5823 191.1 77.5416 179.765 84.4388L225.5 145.518C219.753 149.015 214.712 149.274 213.424 149.274V75.5823ZM180.357 84.0854C170.823 89.6717 163.811 97.3094 159.263 105.882L233.009 137.677C231.535 140.456 228.853 143.56 224.908 145.872L180.357 84.0854ZM159.416 105.596C155.797 112.269 153.651 119.16 152.498 125.858L233.278 137.158C233.382 136.551 233.401 136.957 232.856 137.963L159.416 105.596ZM152.411 126.387C151.565 131.823 151.176 137.321 151.176 142.843H232.923C232.923 140.43 233.093 138.372 233.364 136.629L152.411 126.387ZM151.176 142.843V145.582H232.923V142.843H151.176ZM151.176 145.582C151.176 151.107 151.565 156.604 152.398 162.045L233.378 151.976C233.093 150.113 232.923 147.991 232.923 145.582H151.176ZM152.398 162.045C153.451 168.932 155.579 176.041 159.311 182.923L232.751 150.556C233.41 151.771 233.442 152.394 233.378 151.976L152.398 162.045ZM159.636 183.509C164.297 191.729 171.208 198.979 180.357 204.339L224.908 142.552C228.468 144.639 230.978 147.417 232.426 149.97L159.636 183.509ZM180.357 204.339C191.689 210.979 203.785 212.747 213.529 212.747V139.055C214.332 139.055 219.163 139.186 224.908 142.552L180.357 204.339ZM277.339 122.535L316.037 134.396L316.076 134.29L277.339 122.535ZM304.476 95.1433L320.672 128.973L320.839 128.909L321.003 128.843L304.476 95.1433ZM350.264 95.1433L333.881 128.9L334.046 128.965L334.21 129.028L350.264 95.1433ZM367.134 106.006L336.425 130.322L336.527 130.427L336.63 130.531L367.134 106.006ZM377.612 122.535L338.874 134.29L338.914 134.396L377.612 122.535ZM377.612 165.889L416.31 177.751L416.348 177.645L377.612 165.889ZM367.134 182.419L336.449 158.077L336.425 158.103L367.134 182.419ZM304.581 193.281L288.385 227.111L288.457 227.138L288.527 227.166L304.581 193.281ZM287.712 182.419L256.824 206.551L257.015 206.749L257.208 206.944L287.712 182.419ZM277.339 165.889L238.601 177.645L238.641 177.75L277.339 165.889ZM309.192 167.023L273.8 185.456L274.071 185.878L274.354 186.294L309.192 167.023ZM345.55 167.023L380.739 185.768L380.84 185.612L380.94 185.456L345.55 167.023ZM349.531 157.2L309.615 149.271L309.543 149.563L309.478 149.856L349.531 157.2ZM349.531 131.508L309.478 138.852L309.559 139.21L309.647 139.567L349.531 131.508ZM345.444 121.685L309.862 139.815L310.123 140.232L310.395 140.642L345.444 121.685ZM316.421 114.884L295.272 83.3539L295.089 83.4537L294.908 83.5553L316.421 114.884ZM309.192 121.685L273.942 103.033L273.871 103.142L273.8 103.252L309.192 121.685ZM305.21 131.508L345.236 138.973L345.264 138.852L305.21 131.508ZM314.649 145.204V143.22H232.903V145.204H314.649ZM314.649 143.22C314.649 139.256 315.272 136.423 316.037 134.396L238.641 110.674C234.656 121.241 232.903 132.198 232.903 143.22H314.649ZM316.076 134.29C316.867 132.173 317.737 131.024 318.421 130.322L257.003 81.6893C248.606 90.307 242.561 100.177 238.601 110.78L316.076 134.29ZM318.421 130.322C318.763 129.97 319.308 129.504 320.672 128.973L288.28 61.3134C276.372 65.9461 265.741 72.7212 257.003 81.6893L318.421 130.322ZM321.003 128.843C321.565 128.619 323.385 128.022 327.318 128.022V54.3302C314.068 54.3302 300.659 56.378 287.949 61.4437L321.003 128.843ZM327.318 128.022C331.239 128.022 333.161 128.616 333.881 128.9L366.647 61.3865C353.956 56.3813 340.58 54.3302 327.318 54.3302V128.022ZM334.21 129.028C335.644 129.58 336.155 130.045 336.425 130.322L397.842 81.6893C389.032 72.6469 378.296 65.87 366.317 61.2582L334.21 129.028ZM336.63 130.531C337.299 131.208 338.126 132.288 338.874 134.29L416.348 110.78C412.347 100.062 406.188 90.1229 397.637 81.4802L336.63 130.531ZM338.914 134.396C339.678 136.423 340.3 139.256 340.3 143.22H422.047C422.047 132.198 420.295 121.241 416.309 110.674L338.914 134.396ZM340.3 143.22V145.204H422.047V143.22H340.3ZM340.3 145.204C340.3 149.063 339.691 151.946 338.874 154.134L416.348 177.645C420.282 167.113 422.047 156.206 422.047 145.204H340.3ZM338.914 154.029C338.171 155.997 337.301 157.204 336.449 158.077L397.818 206.761C406.186 198.188 412.302 188.375 416.309 177.75L338.914 154.029ZM336.425 158.103C336.082 158.454 335.537 158.921 334.173 159.451L366.565 227.111C378.473 222.478 389.104 215.703 397.842 206.735L336.425 158.103ZM334.173 159.451C333.523 159.704 331.583 160.308 327.528 160.308V234C340.655 234 353.944 232.021 366.565 227.111L334.173 159.451ZM327.528 160.308C323.484 160.308 321.445 159.707 320.634 159.396L288.527 227.166C301.129 232.018 314.387 234 327.528 234V160.308ZM320.777 159.451C319.361 158.9 318.692 158.375 318.216 157.894L257.208 206.944C265.952 215.782 276.529 222.498 288.385 227.111L320.777 159.451ZM318.6 158.287C317.735 157.388 316.823 156.112 316.037 154.029L238.641 177.75C242.605 188.261 248.608 198.004 256.824 206.551L318.6 158.287ZM316.076 154.134C315.259 151.946 314.649 149.063 314.649 145.204H232.903C232.903 156.206 234.669 167.113 238.601 177.645L316.076 154.134ZM263.079 143.22V145.204H344.826V143.22H263.079ZM263.079 145.204C263.079 151.641 263.708 158.124 265.157 164.543L345.264 149.856C345.035 148.845 344.826 147.331 344.826 145.204H263.079ZM265.157 164.543C266.738 171.552 269.458 178.68 273.8 185.456L344.582 148.59C345.293 149.698 345.359 150.277 345.264 149.856L265.157 164.543ZM274.354 186.294C279.637 194.056 286.908 200.638 295.981 205.394L337.069 141.686C340.137 143.294 342.517 145.531 344.028 147.752L274.354 186.294ZM295.981 205.394C306.588 210.953 317.74 212.747 327.528 212.747V139.055C328.653 139.055 332.471 139.276 337.069 141.686L295.981 205.394ZM327.528 212.747C337.447 212.747 348.449 210.852 358.863 205.394L317.776 141.686C322.183 139.377 325.991 139.055 327.528 139.055V212.747ZM358.863 205.394C368.083 200.561 375.467 193.809 380.739 185.768L310.361 148.278C312 145.778 314.562 143.37 317.776 141.686L358.863 205.394ZM380.94 185.456C385.283 178.68 388.003 171.552 389.585 164.543L309.478 149.856C309.383 150.277 309.448 149.698 310.158 148.59L380.94 185.456ZM389.447 165.128C391.065 158.508 391.766 151.825 391.766 145.204H310.019C310.019 147.147 309.813 148.461 309.615 149.271L389.447 165.128ZM391.766 145.204V143.22H310.019V145.204H391.766ZM391.766 143.22C391.766 136.647 391.048 130.019 389.415 123.449L309.647 139.567C309.829 140.302 310.019 141.482 310.019 143.22H391.766ZM389.585 124.164C387.955 116.944 385.09 109.634 380.493 102.728L310.395 140.642C309.571 139.403 309.43 138.642 309.478 138.852L389.585 124.164ZM381.028 103.555C375.941 95.4425 368.689 88.4368 359.364 83.3539L317.066 146.415C313.748 144.606 311.315 142.134 309.862 139.815L381.028 103.555ZM359.364 83.3539C348.739 77.5627 337.437 75.5823 327.318 75.5823V149.274C325.721 149.274 321.684 148.931 317.066 146.415L359.364 83.3539ZM327.318 75.5823C317.199 75.5823 305.896 77.5627 295.272 83.3539L337.57 146.415C332.952 148.931 328.915 149.274 327.318 149.274V75.5823ZM294.908 83.5553C285.873 88.5964 278.919 95.3895 273.942 103.033L344.441 140.336C343.236 142.187 341.101 144.446 337.935 146.213L294.908 83.5553ZM273.8 103.252C269.458 110.028 266.738 117.155 265.157 124.164L345.264 138.852C345.359 138.43 345.293 139.01 344.582 140.118L273.8 103.252ZM265.184 124.043C263.722 130.411 263.079 136.837 263.079 143.22H344.826C344.826 141.292 345.021 139.909 345.236 138.973L265.184 124.043ZM429.267 114.884H470.14V113.451L470.016 112.022L429.267 114.884ZM429.267 195.265V232.111H470.14V195.265H429.267ZM399.091 195.265H358.217V232.111H399.091V195.265ZM399.091 93.0653V56.2192H358.217V93.0653H399.091ZM427.381 93.0653L468.131 90.2029L465.193 56.2192H427.381V93.0653ZM424.867 140.576V177.422H465.74V140.576H424.867ZM416.694 140.576H375.82V177.422H416.694V140.576ZM419.941 120.174L458.837 131.496L458.875 131.39L419.941 120.174ZM429.057 104.589L460.608 128.012L460.701 127.91L460.794 127.808L429.057 104.589ZM442.993 94.6711L460.304 128.049L460.407 128.006L460.51 127.962L442.993 94.6711ZM487.104 99.866L457.285 125.067L457.44 125.214L457.594 125.36L487.104 99.866ZM494.439 111.862L455.33 122.572L455.399 122.776L455.47 122.979L494.439 111.862ZM497.058 195.265V232.111H537.932V195.265H497.058ZM466.673 195.265H425.799V232.111H466.673V195.265ZM458.395 114.129L441.704 147.762L442.289 147.998L442.881 148.217L458.395 114.129ZM437.963 114.695L418.685 82.205L418.508 82.2906L418.331 82.3777L437.963 114.695ZM430.629 120.74L396.875 99.9606L396.813 100.043L396.751 100.126L430.629 120.74ZM388.393 114.884V195.265H470.14V114.884H388.393ZM429.267 158.419H399.091V232.111H429.267V158.419ZM439.964 195.265V93.0653H358.217V195.265H439.964ZM399.091 129.911H427.381V56.2192H399.091V129.911ZM386.632 95.9278L388.517 117.747L470.016 112.022L468.131 90.2029L386.632 95.9278ZM424.867 103.73H416.694V177.422H424.867V103.73ZM457.567 140.576C457.567 136.156 458.203 133.266 458.837 131.496L381.046 108.851C377.349 119.171 375.82 129.882 375.82 140.576H457.567ZM458.875 131.39C459.705 129.05 460.467 128.167 460.608 128.012L397.506 81.1654C389.824 89.5744 384.509 99.081 381.008 108.957L458.875 131.39ZM460.794 127.808C460.874 127.719 460.915 127.682 460.912 127.686C460.908 127.689 460.871 127.721 460.802 127.771C460.732 127.82 460.647 127.874 460.552 127.928C460.456 127.981 460.37 128.021 460.304 128.049L425.682 61.2928C414.449 66.0272 404.945 72.9008 397.321 81.3694L460.794 127.808ZM460.51 127.962C460.402 128.008 460.305 128.042 460.228 128.065C460.151 128.089 460.118 128.094 460.138 128.09C460.171 128.084 460.504 128.022 461.224 128.022V54.3302C449.143 54.3302 436.984 56.4587 425.476 61.3805L460.51 127.962ZM461.224 128.022C462.573 128.022 462.8 128.194 462.313 128.04L489.264 58.4681C479.975 55.5442 470.492 54.3302 461.224 54.3302V128.022ZM462.313 128.04C461.548 127.8 460.638 127.421 459.687 126.866C458.734 126.309 457.926 125.682 457.285 125.067L516.923 74.6655C509.203 67.2423 499.798 61.7843 489.264 58.4681L462.313 128.04ZM457.594 125.36C455.418 123.313 455.078 121.824 455.33 122.572L533.547 101.151C530.447 91.9506 525.217 82.4637 516.614 74.372L457.594 125.36ZM455.47 122.979C455.58 123.291 456.185 125.374 456.185 130.091H537.932C537.932 120.451 536.79 110.381 533.408 100.745L455.47 122.979ZM456.185 130.091V195.265H537.932V130.091H456.185ZM497.058 158.419H466.673V232.111H497.058V158.419ZM507.546 195.265V129.997H425.799V195.265H507.546ZM507.546 129.997C507.546 122.848 506.589 112.772 501.135 102.94L428.019 135.896C426.566 133.276 426.073 131.246 425.912 130.429C425.743 129.579 425.799 129.359 425.799 129.997H507.546ZM501.135 102.94C495.61 92.9776 486.368 84.6474 473.908 80.0397L442.881 148.217C439.739 147.056 436.616 145.301 433.845 142.931C431.104 140.585 429.234 138.087 428.019 135.896L501.135 102.94ZM475.087 80.4948C465.701 76.7097 456.331 75.6768 448.547 75.6768V149.369C448.468 149.369 447.795 149.366 446.668 149.182C445.53 148.997 443.79 148.604 441.704 147.762L475.087 80.4948ZM448.547 75.6768C439.039 75.6768 428.647 77.4017 418.685 82.205L457.241 147.186C453.287 149.092 449.949 149.369 448.547 149.369V75.6768ZM418.331 82.3777C409.537 86.7194 402.326 92.766 396.875 99.9606L464.382 141.52C462.844 143.551 460.522 145.568 457.596 147.013L418.331 82.3777ZM396.751 100.126C391.896 106.61 388.732 113.54 386.767 120.372L465.898 138.866C465.889 138.898 465.59 139.909 464.507 141.355L396.751 100.126ZM386.767 120.372C384.831 127.106 383.993 133.894 383.993 140.576H465.74C465.74 139.449 465.879 138.932 465.898 138.866L386.767 120.372ZM575.537 93.0653H616.41V56.2192H575.537V93.0653ZM575.537 112.334V149.18H616.41V112.334H575.537ZM509.527 112.334H468.653V149.18H509.527V112.334ZM509.527 93.0653V56.2192H468.653V93.0653H509.527ZM525.872 67.8461V31H484.998V67.8461H525.872ZM556.049 67.8461H596.922V31H556.049V67.8461ZM557.306 171.273L520.457 187.217L520.74 187.749L521.042 188.272L557.306 171.273ZM561.288 174.579L546.107 208.79L546.77 209.029L547.443 209.247L561.288 174.579ZM572.917 175.241L576.793 211.921L577.619 211.85L578.44 211.749L572.917 175.241ZM576.794 174.673L617.667 174.5L617.433 129.771L568.779 138.543L576.794 174.673ZM576.899 194.698L589.509 229.747L617.913 221.442L617.772 194.524L576.899 194.698ZM541.17 194.226L524.177 227.736L524.494 227.867L524.814 227.993L541.17 194.226ZM534.664 93.0653V112.334H616.41V93.0653H534.664ZM575.537 75.4879H509.527V149.18H575.537V75.4879ZM550.4 112.334V93.0653H468.653V112.334H550.4ZM509.527 129.911H575.537V56.2192H509.527V129.911ZM525.872 104.692H556.049V31H525.872V104.692ZM515.175 67.8461V164.472H596.922V67.8461H515.175ZM515.175 164.472C515.175 169.62 515.735 178.35 520.457 187.217L594.154 155.329C595.833 158.482 596.444 161.056 596.68 162.335C596.928 163.677 596.922 164.469 596.922 164.472H515.175ZM521.042 188.272C526.237 197.277 534.824 204.721 546.107 208.79L576.467 140.368C580.011 141.646 583.527 143.566 586.673 146.178C589.798 148.773 592.036 151.615 593.569 154.274L521.042 188.272ZM547.443 209.247C555.094 211.73 562.373 212.276 567.889 212.276V138.583C568.136 138.583 568.888 138.594 570.027 138.741C571.156 138.886 572.94 139.2 575.131 139.911L547.443 209.247ZM567.889 212.276C570.73 212.276 573.741 212.183 576.793 211.921L569.042 138.56C569.123 138.553 569.068 138.56 568.858 138.568C568.651 138.576 568.332 138.583 567.889 138.583V212.276ZM578.44 211.749C580.476 211.498 582.659 211.192 584.81 210.804L568.779 138.543C568.838 138.532 568.755 138.548 568.497 138.586C568.245 138.623 567.883 138.672 567.395 138.732L578.44 211.749ZM535.922 174.847L536.026 194.871L617.772 194.524L617.667 174.5L535.922 174.847ZM564.29 159.649C563.897 159.763 563.144 159.95 561.95 160.125L575.084 232.86C579.896 232.154 584.732 231.144 589.509 229.747L564.29 159.649ZM561.95 160.125C561.485 160.194 560.403 160.308 558.563 160.308V234C563.987 234 569.541 233.673 575.084 232.86L561.95 160.125ZM558.563 160.308C556.314 160.308 556.299 159.975 557.525 160.458L524.814 227.993C535.96 232.38 547.539 234 558.563 234V160.308ZM558.163 160.715C559.643 161.325 561.25 162.251 562.739 163.518C564.214 164.775 565.19 166.039 565.776 167.012L493.932 202.171C500.655 213.335 510.933 222.278 524.177 227.736L558.163 160.715ZM565.776 167.012C566.668 168.494 566.89 169.462 566.896 169.488C566.902 169.51 566.862 169.342 566.822 168.952C566.782 168.562 566.745 167.989 566.745 167.212H484.998C484.998 178.047 486.928 190.539 493.932 202.171L565.776 167.012ZM566.745 167.212V67.8461H484.998V167.212H566.745ZM652.13 118.285L614.819 133.331L614.903 133.5L614.989 133.668L652.13 118.285ZM646.576 112.712L625.548 144.307L625.763 144.424L625.981 144.539L646.576 112.712ZM628.346 112.334L645.339 145.845L645.773 145.665L646.203 145.477L628.346 112.334ZM622.687 116.773L657.217 136.488L657.379 136.259L657.535 136.028L622.687 116.773ZM620.696 123.48V160.325H661.569V123.48H620.696ZM590.52 123.48H549.647V160.325H590.52V123.48ZM603.617 100.811L628.564 129.998L628.73 129.883L628.893 129.767L603.617 100.811ZM618.81 93.7265L606.436 58.6093L606.302 58.648L618.81 93.7265ZM678.325 107.045L644.316 127.483L644.409 127.609L644.503 127.734L678.325 107.045ZM685.449 184.402L645.316 191.385L645.342 191.505L685.449 184.402ZM688.802 193.659H729.676V184.961L725.361 177.181L688.802 193.659ZM688.802 195.265V232.111H729.676V195.265H688.802ZM658.312 195.265L621.424 211.135L632.529 232.111H658.312V195.265ZM654.958 184.875L614.533 190.313L614.584 190.624L614.642 190.932L654.958 184.875ZM657.893 133.019L698.763 132.567L698.268 96.1734H657.893V133.019ZM658.102 148.415V185.262H699.48L698.973 147.963L658.102 148.415ZM623.63 153.138L650.135 181.187L650.463 180.935L650.785 180.677L623.63 153.138ZM619.439 158.239L581.746 143.989L581.526 144.461L581.322 144.937L619.439 158.239ZM619.962 170.99L584.403 189.156L584.55 189.39L584.701 189.623L619.962 170.99ZM625.097 175.335L605.921 207.874L606.367 208.088L606.817 208.291L625.097 175.335ZM652.549 168.345L619.23 147.004L619.02 147.27L618.816 147.539L652.549 168.345ZM655.482 161.545L690.175 142.062L626.354 54.3302L614.626 160.462L655.482 161.545ZM663.446 173.068L701.522 186.463L708.969 169.26L698.138 153.586L663.446 173.068ZM658.835 181.096L624.352 161.315L624.172 161.569L623.998 161.825L658.835 181.096ZM651.606 188.936L679.029 216.259L679.225 216.099L679.418 215.937L651.606 188.936ZM641.023 194.887L656.425 229.017L656.698 228.917L656.97 228.813L641.023 194.887ZM606.76 193.281L588.306 226.157L588.569 226.277L588.832 226.393L606.76 193.281ZM592.93 182.419L558.639 202.47L558.814 202.713L558.993 202.954L592.93 182.419ZM601.102 141.804L625.111 171.623L625.205 171.562L601.102 141.804ZM617.553 135.286L627.267 171.077L627.466 171.033L627.664 170.987L617.553 135.286ZM694.784 172.217V126.691H613.037V172.217H694.784ZM694.784 126.691C694.784 119.526 693.499 111.198 689.27 102.901L614.989 133.668C613.136 130.03 613.037 127.308 613.037 126.691H694.784ZM689.44 103.238C684.759 93.8054 677.057 86.0834 667.171 80.8849L625.981 144.539C621.125 141.985 617.126 137.978 614.819 133.331L689.44 103.238ZM667.605 81.1165C656.869 75.3093 645.715 73.8822 637.041 73.8822V147.574C636.192 147.574 631.395 147.47 625.548 144.307L667.605 81.1165ZM637.041 73.8822C628.917 73.8822 619.644 75.1815 610.487 79.1906L646.203 145.477C641.936 147.345 638.461 147.574 637.041 147.574V73.8822ZM611.351 78.8234C601.97 82.6894 593.666 88.9465 587.838 97.519L657.535 136.028C654.361 140.696 649.831 143.993 645.339 145.845L611.351 78.8234ZM588.157 97.0588C582.077 105.712 579.823 115.02 579.823 123.48H661.569C661.569 126.776 660.643 131.613 657.217 136.488L588.157 97.0588ZM620.696 86.6334H590.52V160.325H620.696V86.6334ZM631.394 123.48C631.394 124.184 631.299 125.005 631.065 125.871C630.831 126.735 630.507 127.459 630.194 128.005L557.552 94.2069C552.36 103.275 549.647 113.187 549.647 123.48H631.394ZM630.194 128.005C629.835 128.632 629.436 129.143 629.079 129.52C628.731 129.887 628.513 130.033 628.564 129.998L578.671 71.6233C570.162 77.5329 562.808 85.0266 557.552 94.2069L630.194 128.005ZM628.893 129.767C628.893 129.767 629.033 129.666 629.39 129.5C629.753 129.331 630.371 129.079 631.318 128.805L606.302 58.648C596.435 61.5073 586.906 65.7795 578.342 71.8543L628.893 129.767ZM631.184 128.843C632.484 128.471 634.858 128.022 638.718 128.022V54.3302C627.909 54.3302 617.011 55.581 606.436 58.6093L631.184 128.843ZM638.718 128.022C642.975 128.022 645.168 128.655 646.088 129.01L678.289 61.2764C665.518 56.3424 652.064 54.3302 638.718 54.3302V128.022ZM646.088 129.01C646.239 129.069 645.956 128.975 645.474 128.619C644.978 128.254 644.575 127.834 644.316 127.483L712.333 86.606C703.77 75.0281 691.993 66.5707 678.289 61.2764L646.088 129.01ZM644.503 127.734C644.157 127.276 643.893 126.836 643.697 126.446C643.503 126.06 643.402 125.772 643.357 125.622C643.269 125.332 643.423 125.671 643.423 126.88H725.169C725.169 113.359 721.724 99.0793 712.146 86.3554L644.503 127.734ZM643.423 126.88V170.612H725.169V126.88H643.423ZM643.423 170.612C643.423 177.462 643.868 184.623 645.316 191.385L725.582 177.421C725.492 177.005 725.169 174.971 725.169 170.612H643.423ZM645.342 191.505C646.673 197.613 648.822 203.969 652.243 210.137L725.361 177.181C725.612 177.634 725.71 177.904 725.718 177.924C725.725 177.943 725.654 177.751 725.556 177.3L645.342 191.505ZM647.929 193.659V195.265H729.676V193.659H647.929ZM688.802 158.419H658.312V232.111H688.802V158.419ZM695.199 179.394C695.387 179.75 695.504 180.011 695.564 180.158C695.624 180.304 695.638 180.356 695.62 180.297C695.577 180.164 695.438 179.697 695.276 178.817L614.642 190.932C615.822 197.32 617.827 204.342 621.424 211.135L695.199 179.394ZM695.384 179.436C694.98 176.997 694.784 174.596 694.784 172.217H613.037C613.037 178.278 613.54 184.314 614.533 190.313L695.384 179.436ZM617.023 133.471L617.232 148.867L698.973 147.963L698.763 132.567L617.023 133.471ZM658.102 111.569H641.233V185.262H658.102V111.569ZM641.233 111.569C634.299 111.569 626.584 112.266 618.774 114.445L642.945 184.842C641.931 185.125 641.237 185.224 640.974 185.254C640.713 185.286 640.777 185.262 641.233 185.262V111.569ZM618.774 114.445C611.453 116.488 603.561 119.921 596.476 125.599L650.785 180.677C647.471 183.332 644.4 184.436 642.945 184.842L618.774 114.445ZM597.125 125.089C590.638 130.071 585.268 136.417 581.746 143.989L657.132 172.488C655.425 176.156 652.85 179.102 650.135 181.187L597.125 125.089ZM581.322 144.937C578.467 151.585 577.308 158.295 577.308 164.661H659.055C659.055 166.368 658.734 168.796 657.556 171.539L581.322 144.937ZM577.308 164.661C577.308 172.879 579.478 181.324 584.403 189.156L655.523 152.824C658.072 156.878 659.055 161.105 659.055 164.661H577.308ZM584.701 189.623C590.018 197.798 597.54 203.861 605.921 207.874L644.273 142.795C648.183 144.668 652.284 147.834 655.224 152.356L584.701 189.623ZM606.817 208.291C615.763 212.323 624.873 213.692 632.955 213.692V140C635.029 140 638.902 140.362 643.376 142.379L606.817 208.291ZM632.955 213.692C643 213.692 653.889 211.855 664.262 206.789L625.328 141.992C628.995 140.201 631.991 140 632.955 140V213.692ZM664.262 206.789C672.27 202.879 680.177 197.194 686.282 189.152L618.816 147.539C621.288 144.281 624.026 142.627 625.328 141.992L664.262 206.789ZM685.868 189.687C690.749 183.494 695.958 174.282 696.338 162.628L614.626 160.462C614.868 153.089 618.121 148.411 619.23 147.004L685.868 189.687ZM620.79 181.026L628.753 192.55L698.138 153.586L690.175 142.062L620.79 181.026ZM625.369 159.673C625.374 159.661 625.136 160.204 624.352 161.315L693.319 200.878C696.447 196.447 699.282 191.638 701.522 186.463L625.369 159.673ZM623.998 161.825C624.12 161.645 624.197 161.565 624.183 161.58C624.167 161.597 624.052 161.719 623.793 161.936L679.418 215.937C684.776 211.451 689.645 206.284 693.672 200.368L623.998 161.825ZM624.184 161.613C625.052 160.905 625.535 160.785 625.077 160.961L656.97 228.813C664.753 225.84 672.293 221.753 679.029 216.259L624.184 161.613ZM625.622 160.756C626.589 160.402 627.22 160.292 627.358 160.271C627.486 160.251 627.185 160.308 626.354 160.308V234C635.916 234 646.281 232.737 656.425 229.017L625.622 160.756ZM626.354 160.308C625.479 160.308 624.995 160.23 624.813 160.195C624.645 160.161 624.633 160.144 624.689 160.169L588.832 226.393C600.833 231.674 613.588 234 626.354 234V160.308ZM625.216 160.405C625.149 160.374 625.402 160.484 625.804 160.801C626.216 161.124 626.588 161.509 626.867 161.884L558.993 202.954C566.547 213.098 576.636 220.834 588.306 226.157L625.216 160.405ZM627.221 162.368C627.73 163.075 628.172 163.93 628.459 164.834C628.74 165.721 628.774 166.345 628.774 166.55H547.027C547.027 179.097 550.703 191.442 558.639 202.47L627.221 162.368ZM628.774 166.55C628.774 166.186 628.811 166.236 628.725 166.609C628.633 166.999 628.431 167.62 628.032 168.363L554.475 136.213C549.148 146.118 547.027 156.513 547.027 166.55H628.774ZM628.032 168.363C627.667 169.041 627.177 169.731 626.584 170.361C625.997 170.987 625.458 171.397 625.111 171.623L577.094 111.984C567.567 118.218 559.779 126.352 554.475 136.213L628.032 168.363ZM625.205 171.562C624.391 172.098 624.68 171.647 627.267 171.077L607.838 99.496C597.293 101.822 586.616 105.717 577 112.046L625.205 171.562ZM627.664 170.987C630.159 170.413 634.25 169.866 640.395 169.866V96.1734C629.216 96.1734 618.078 97.1373 607.442 99.5855L627.664 170.987ZM640.395 169.866H657.893V96.1734H640.395V169.866ZM763.09 93.0653H803.963V56.2192H763.09V93.0653ZM763.09 112.334V149.18H803.963V112.334H763.09ZM697.079 112.334H656.206V149.18H697.079V112.334ZM697.079 93.0653V56.2192H656.206V93.0653H697.079ZM713.424 67.8461V31H672.551V67.8461H713.424ZM743.601 67.8461H784.475V31H743.601V67.8461ZM744.858 171.273L708.01 187.217L708.293 187.749L708.594 188.272L744.858 171.273ZM748.839 174.579L733.66 208.79L734.323 209.029L734.995 209.247L748.839 174.579ZM760.47 175.241L764.346 211.921L765.171 211.85L765.993 211.749L760.47 175.241ZM764.347 174.673L805.22 174.5L804.986 129.771L756.331 138.543L764.347 174.673ZM764.452 194.698L777.061 229.747L805.465 221.442L805.324 194.524L764.452 194.698ZM728.722 194.226L711.729 227.736L712.047 227.867L712.367 227.993L728.722 194.226ZM722.216 93.0653V112.334H803.963V93.0653H722.216ZM763.09 75.4879H697.079V149.18H763.09V75.4879ZM737.953 112.334V93.0653H656.206V112.334H737.953ZM697.079 129.911H763.09V56.2192H697.079V129.911ZM713.424 104.692H743.601V31H713.424V104.692ZM702.728 67.8461V164.472H784.475V67.8461H702.728ZM702.728 164.472C702.728 169.62 703.288 178.35 708.01 187.217L781.707 155.329C783.385 158.482 783.995 161.056 784.233 162.335C784.481 163.677 784.475 164.469 784.475 164.472H702.728ZM708.594 188.272C713.789 197.277 722.377 204.721 733.66 208.79L764.02 140.368C767.563 141.646 771.078 143.566 774.226 146.178C777.35 148.773 779.588 151.615 781.122 154.274L708.594 188.272ZM734.995 209.247C742.647 211.73 749.925 212.276 755.44 212.276V138.583C755.689 138.583 756.441 138.594 757.58 138.741C758.708 138.886 760.492 139.2 762.684 139.911L734.995 209.247ZM755.44 212.276C758.283 212.276 761.293 212.183 764.346 211.921L756.595 138.56C756.676 138.553 756.621 138.56 756.411 138.568C756.204 138.576 755.885 138.583 755.44 138.583V212.276ZM765.993 211.749C768.028 211.498 770.212 211.192 772.363 210.804L756.331 138.543C756.391 138.532 756.308 138.548 756.049 138.586C755.797 138.623 755.435 138.672 754.948 138.732L765.993 211.749ZM723.474 174.847L723.578 194.871L805.324 194.524L805.22 174.5L723.474 174.847ZM751.842 159.649C751.45 159.763 750.697 159.95 749.502 160.125L762.637 232.86C767.449 232.154 772.284 231.144 777.061 229.747L751.842 159.649ZM749.502 160.125C749.037 160.194 747.955 160.308 746.115 160.308V234C751.54 234 757.094 233.673 762.637 232.86L749.502 160.125ZM746.115 160.308C743.867 160.308 743.852 159.975 745.078 160.458L712.367 227.993C723.512 232.38 735.091 234 746.115 234V160.308ZM745.715 160.715C747.196 161.325 748.802 162.251 750.29 163.518C751.767 164.775 752.742 166.039 753.328 167.012L681.485 202.171C688.208 213.335 698.485 222.278 711.729 227.736L745.715 160.715ZM753.328 167.012C754.22 168.494 754.443 169.462 754.449 169.488C754.454 169.51 754.414 169.342 754.375 168.952C754.335 168.562 754.298 167.989 754.298 167.212H672.551C672.551 178.047 674.48 190.539 681.485 202.171L753.328 167.012ZM754.298 167.212V67.8461H672.551V167.212H754.298ZM776.292 122.535L814.99 134.396L815.029 134.29L776.292 122.535ZM803.429 95.1433L819.625 128.973L819.791 128.909L819.956 128.843L803.429 95.1433ZM849.217 95.1433L832.834 128.9L832.999 128.965L833.163 129.028L849.217 95.1433ZM866.087 106.006L835.377 130.322L835.48 130.427L835.583 130.531L866.087 106.006ZM876.565 122.535L837.827 134.29L837.867 134.396L876.565 122.535ZM876.565 165.889L915.262 177.751L915.301 177.645L876.565 165.889ZM866.087 182.419L835.402 158.077L835.377 158.103L866.087 182.419ZM803.534 193.281L787.338 227.111L787.409 227.138L787.48 227.166L803.534 193.281ZM786.664 182.419L755.776 206.551L755.968 206.749L756.161 206.944L786.664 182.419ZM776.292 165.889L737.554 177.645L737.594 177.75L776.292 165.889ZM808.145 167.023L772.753 185.456L773.024 185.878L773.307 186.294L808.145 167.023ZM844.502 167.023L879.691 185.768L879.792 185.612L879.893 185.456L844.502 167.023ZM848.483 157.2L808.568 149.271L808.496 149.563L808.431 149.856L848.483 157.2ZM848.483 131.508L808.431 138.852L808.511 139.21L808.6 139.567L848.483 131.508ZM844.397 121.685L808.815 139.815L809.075 140.232L809.348 140.642L844.397 121.685ZM815.374 114.884L794.225 83.3539L794.042 83.4537L793.86 83.5553L815.374 114.884ZM808.145 121.685L772.894 103.033L772.824 103.142L772.753 103.252L808.145 121.685ZM804.162 131.508L844.189 138.973L844.216 138.852L804.162 131.508ZM813.602 145.204V143.22H731.855V145.204H813.602ZM813.602 143.22C813.602 139.256 814.224 136.423 814.99 134.396L737.594 110.674C733.608 121.241 731.855 132.198 731.855 143.22H813.602ZM815.029 134.29C815.819 132.173 816.69 131.024 817.374 130.322L755.955 81.6893C747.559 90.307 741.514 100.177 737.554 110.78L815.029 134.29ZM817.374 130.322C817.716 129.97 818.261 129.504 819.625 128.973L787.233 61.3134C775.325 65.9461 764.694 72.7212 755.955 81.6893L817.374 130.322ZM819.956 128.843C820.518 128.619 822.338 128.022 826.271 128.022V54.3302C813.021 54.3302 799.612 56.378 786.902 61.4437L819.956 128.843ZM826.271 128.022C830.192 128.022 832.114 128.616 832.834 128.9L865.6 61.3865C852.909 56.3813 839.533 54.3302 826.271 54.3302V128.022ZM833.163 129.028C834.597 129.58 835.108 130.045 835.377 130.322L896.795 81.6893C887.984 72.6469 877.249 65.87 865.27 61.2582L833.163 129.028ZM835.583 130.531C836.252 131.208 837.079 132.288 837.827 134.29L915.301 110.78C911.3 100.062 905.141 90.1229 896.589 81.4802L835.583 130.531ZM837.867 134.396C838.631 136.423 839.253 139.256 839.253 143.22H921C921 132.198 919.248 121.241 915.261 110.674L837.867 134.396ZM839.253 143.22V145.204H921V143.22H839.253ZM839.253 145.204C839.253 149.063 838.644 151.946 837.827 154.134L915.301 177.645C919.234 167.113 921 156.206 921 145.204H839.253ZM837.867 154.029C837.124 155.997 836.254 157.204 835.402 158.077L896.77 206.761C905.139 198.188 911.255 188.375 915.261 177.75L837.867 154.029ZM835.377 158.103C835.035 158.454 834.489 158.921 833.125 159.451L865.517 227.111C877.426 222.478 888.057 215.703 896.795 206.735L835.377 158.103ZM833.125 159.451C832.475 159.704 830.536 160.308 826.48 160.308V234C839.609 234 852.897 232.021 865.517 227.111L833.125 159.451ZM826.48 160.308C822.437 160.308 820.397 159.707 819.587 159.396L787.48 227.166C800.082 232.018 813.339 234 826.48 234V160.308ZM819.73 159.451C818.314 158.9 817.644 158.375 817.168 157.894L756.161 206.944C764.905 215.782 775.482 222.498 787.338 227.111L819.73 159.451ZM817.553 158.287C816.688 157.388 815.776 156.112 814.99 154.029L737.594 177.75C741.558 188.261 747.561 198.004 755.776 206.551L817.553 158.287ZM815.029 154.134C814.212 151.946 813.602 149.063 813.602 145.204H731.855C731.855 156.206 733.621 167.113 737.554 177.645L815.029 154.134ZM762.032 143.22V145.204H843.779V143.22H762.032ZM762.032 145.204C762.032 151.641 762.661 158.124 764.11 164.543L844.216 149.856C843.987 148.845 843.779 147.331 843.779 145.204H762.032ZM764.11 164.543C765.69 171.552 768.41 178.68 772.753 185.456L843.535 148.59C844.246 149.698 844.311 150.277 844.216 149.856L764.11 164.543ZM773.307 186.294C778.59 194.056 785.86 200.638 794.934 205.394L836.022 141.686C839.09 143.294 841.47 145.531 842.981 147.752L773.307 186.294ZM794.934 205.394C805.541 210.953 816.693 212.747 826.48 212.747V139.055C827.605 139.055 831.424 139.276 836.022 141.686L794.934 205.394ZM826.48 212.747C836.399 212.747 847.401 210.852 857.816 205.394L816.729 141.686C821.136 139.377 824.943 139.055 826.48 139.055V212.747ZM857.816 205.394C867.036 200.561 874.42 193.809 879.691 185.768L809.313 148.278C810.952 145.778 813.515 143.37 816.729 141.686L857.816 205.394ZM879.893 185.456C884.235 178.68 886.956 171.552 888.537 164.543L808.431 149.856C808.336 150.277 808.401 149.698 809.111 148.59L879.893 185.456ZM888.399 165.128C890.018 158.508 890.719 151.825 890.719 145.204H808.972C808.972 147.147 808.766 148.461 808.568 149.271L888.399 165.128ZM890.719 145.204V143.22H808.972V145.204H890.719ZM890.719 143.22C890.719 136.647 890.001 130.019 888.368 123.449L808.6 139.567C808.782 140.302 808.972 141.482 808.972 143.22H890.719ZM888.537 124.164C886.908 116.944 884.042 109.634 879.446 102.728L809.348 140.642C808.524 139.403 808.383 138.642 808.431 138.852L888.537 124.164ZM879.98 103.555C874.894 95.4425 867.642 88.4368 858.317 83.3539L816.019 146.415C812.701 144.606 810.268 142.134 808.815 139.815L879.98 103.555ZM858.317 83.3539C847.691 77.5627 836.39 75.5823 826.271 75.5823V149.274C824.674 149.274 820.636 148.931 816.019 146.415L858.317 83.3539ZM826.271 75.5823C816.152 75.5823 804.849 77.5627 794.225 83.3539L836.523 146.415C831.905 148.931 827.868 149.274 826.271 149.274V75.5823ZM793.86 83.5553C784.826 88.5964 777.872 95.3895 772.894 103.033L843.394 140.336C842.189 142.187 840.053 144.446 836.888 146.213L793.86 83.5553ZM772.753 103.252C768.41 110.028 765.69 117.155 764.11 124.164L844.216 138.852C844.311 138.43 844.246 139.01 843.535 140.118L772.753 103.252ZM764.137 124.043C762.675 130.411 762.032 136.837 762.032 143.22H843.779C843.779 141.292 843.973 139.909 844.189 138.973L764.137 124.043Z" fill="url(#paint0_linear_242_215)"/>
<path d="M213.853 175.126C217.569 175.126 220.865 174.509 223.74 173.272C226.615 171.973 228.859 170.18 230.471 167.891C232.154 165.541 233.031 162.789 233.101 159.634H261.604C261.534 166.685 259.395 172.962 255.188 178.467C250.981 183.909 245.337 188.208 238.255 191.362C231.173 194.454 223.249 196 214.484 196C205.649 196 197.936 194.701 191.345 192.103C184.824 189.506 179.39 185.919 175.042 181.343C170.695 176.704 167.434 171.323 165.261 165.201C163.087 159.016 162 152.399 162 145.348V142.658C162 135.546 163.087 128.928 165.261 122.806C167.434 116.621 170.695 111.241 175.042 106.664C179.39 102.026 184.824 98.4076 191.345 95.81C197.866 93.2125 205.509 91.9138 214.274 91.9138C223.6 91.9138 231.769 93.4908 238.78 96.6449C245.862 99.7991 251.402 104.314 255.399 110.189C259.466 116.003 261.534 122.898 261.604 130.877H233.101C233.031 127.537 232.224 124.506 230.682 121.785C229.209 119.064 227.036 116.899 224.161 115.291C221.356 113.622 217.885 112.787 213.748 112.787C209.33 112.787 205.719 113.622 202.914 115.291C200.11 116.899 197.936 119.126 196.393 121.971C194.851 124.754 193.764 127.939 193.133 131.526C192.572 135.051 192.291 138.762 192.291 142.658V145.348C192.291 149.245 192.572 152.986 193.133 156.573C193.694 160.161 194.746 163.345 196.288 166.128C197.901 168.911 200.11 171.107 202.914 172.715C205.719 174.323 209.365 175.126 213.853 175.126ZM274.33 144.977V143.029C274.33 135.669 275.522 128.897 277.907 122.713C280.291 116.466 283.762 111.055 288.32 106.478C292.877 101.902 298.487 98.3457 305.148 95.81C311.809 93.2125 319.453 91.9138 328.077 91.9138C336.702 91.9138 344.379 93.2125 351.111 95.81C357.842 98.3457 363.487 101.902 368.045 106.478C372.673 111.055 376.179 116.466 378.563 122.713C380.947 128.897 382.139 135.669 382.139 143.029V144.977C382.139 152.275 380.947 159.047 378.563 165.293C376.179 171.478 372.673 176.89 368.045 181.528C363.487 186.104 357.878 189.661 351.216 192.197C344.555 194.732 336.912 196 328.288 196C319.663 196 311.984 194.732 305.254 192.197C298.592 189.661 292.948 186.104 288.32 181.528C283.762 176.89 280.291 171.478 277.907 165.293C275.522 159.047 274.33 152.275 274.33 144.977ZM304.623 143.029V144.977C304.623 149.183 305.043 153.11 305.884 156.759C306.725 160.408 308.058 163.624 309.882 166.407C311.774 169.128 314.229 171.262 317.243 172.808C320.259 174.354 323.941 175.126 328.288 175.126C332.494 175.126 336.106 174.354 339.12 172.808C342.136 171.262 344.555 169.128 346.379 166.407C348.201 163.624 349.534 160.408 350.375 156.759C351.287 153.11 351.742 149.183 351.742 144.977V143.029C351.742 138.947 351.287 135.113 350.375 131.526C349.534 127.877 348.167 124.661 346.273 121.878C344.45 119.033 342.031 116.807 339.016 115.199C336 113.591 332.355 112.787 328.077 112.787C323.8 112.787 320.153 113.591 317.139 115.199C314.194 116.807 311.774 119.033 309.882 121.878C308.058 124.661 306.725 127.877 305.884 131.526C305.043 135.113 304.623 138.947 304.623 143.029ZM430.416 115.199V194.144H400.124V93.7691H428.523L430.416 115.199ZM425.999 140.432H417.795C417.795 133.01 418.881 126.331 421.055 120.394C423.228 114.395 426.279 109.292 430.205 105.087C434.132 100.82 438.795 97.5726 444.194 95.3462C449.664 93.0579 455.764 91.9138 462.496 91.9138C467.825 91.9138 472.698 92.5941 477.116 93.9547C481.533 95.3153 485.32 97.4799 488.475 100.448C491.7 103.417 494.154 107.344 495.838 112.23C497.591 117.116 498.467 123.084 498.467 130.134V194.144H467.965V130.042C467.965 125.589 467.263 122.125 465.861 119.651C464.459 117.178 462.39 115.446 459.656 114.456C456.992 113.405 453.696 112.879 449.769 112.879C445.702 112.879 442.161 113.591 439.146 115.013C436.201 116.435 433.746 118.415 431.783 120.95C429.891 123.424 428.452 126.331 427.471 129.671C426.489 133.01 425.999 136.597 425.999 140.432ZM577.246 93.7691V112.694H510.983V93.7691H577.246ZM527.39 69H557.683V163.902C557.683 166.809 558.103 169.035 558.944 170.581C559.856 172.127 561.189 173.209 562.942 173.828C564.695 174.385 566.903 174.663 569.568 174.663C571.46 174.663 573.144 174.601 574.616 174.478C576.158 174.292 577.456 174.107 578.507 173.921L578.613 193.588C576.019 194.33 573.213 194.917 570.199 195.35C567.183 195.784 563.852 196 560.207 196C553.545 196 547.726 195.041 542.747 193.124C537.839 191.145 534.052 187.991 531.388 183.662C528.723 179.332 527.39 173.643 527.39 166.592V69ZM655.919 171.509V126.795C655.919 123.579 655.323 120.827 654.131 118.538C652.939 116.188 651.081 114.364 648.556 113.065C646.103 111.766 642.912 111.117 638.985 111.117C635.62 111.117 632.71 111.643 630.256 112.694C627.801 113.683 625.908 115.137 624.575 117.054C623.244 118.909 622.577 121.105 622.577 123.641H592.286C592.286 119.373 593.408 115.322 595.652 111.488C597.896 107.653 601.156 104.283 605.433 101.376C609.71 98.4076 614.794 96.0883 620.684 94.4185C626.644 92.7487 633.306 91.9138 640.668 91.9138C649.503 91.9138 657.356 93.2125 664.229 95.81C671.1 98.4076 676.5 102.304 680.426 107.499C684.422 112.694 686.421 119.188 686.421 126.98V169.932C686.421 175.436 686.806 179.951 687.578 183.476C688.349 186.939 689.471 189.97 690.944 192.568V194.144H660.337C658.864 191.423 657.742 188.021 656.97 183.94C656.27 179.797 655.919 175.653 655.919 171.509ZM659.916 133.01L660.127 148.131H643.193C639.195 148.131 635.725 148.533 632.779 149.337C629.834 150.141 627.416 151.286 625.522 152.77C623.63 154.192 622.226 155.862 621.316 157.779C620.473 159.697 620.053 161.799 620.053 164.087C620.053 166.376 620.649 168.448 621.841 170.303C623.034 172.097 624.751 173.519 626.995 174.57C629.238 175.56 631.868 176.055 634.883 176.055C639.442 176.055 643.403 175.25 646.768 173.643C650.134 172.035 652.729 170.056 654.552 167.705C656.445 165.356 657.427 163.129 657.497 161.027L665.49 172.344C664.368 174.88 662.825 177.508 660.862 180.229C658.97 182.95 656.55 185.517 653.605 187.929C650.66 190.28 647.119 192.227 642.982 193.774C638.846 195.257 633.936 196 628.257 196C621.035 196 614.479 194.732 608.588 192.197C602.769 189.599 598.141 186.043 594.705 181.528C591.339 176.951 589.656 171.756 589.656 165.943C589.656 160.686 590.778 156.017 593.023 151.935C595.266 147.853 598.562 144.421 602.909 141.638C607.327 138.793 612.831 136.659 619.422 135.237C626.014 133.752 633.656 133.01 642.352 133.01H659.916ZM765.516 93.7691V112.694H699.253V93.7691H765.516ZM715.66 69H745.953V163.902C745.953 166.809 746.373 169.035 747.214 170.581C748.126 172.127 749.458 173.209 751.211 173.828C752.964 174.385 755.173 174.663 757.837 174.663C759.73 174.663 761.414 174.601 762.886 174.478C764.428 174.292 765.726 174.107 766.777 173.921L766.883 193.588C764.288 194.33 761.483 194.917 758.469 195.35C755.453 195.784 752.122 196 748.476 196C741.815 196 735.995 195.041 731.017 193.124C726.109 191.145 722.322 187.991 719.658 183.662C716.993 179.332 715.66 173.643 715.66 166.592V69ZM775.191 144.977V143.029C775.191 135.669 776.383 128.897 778.768 122.713C781.152 116.466 784.623 111.055 789.18 106.478C793.738 101.902 799.348 98.3457 806.009 95.81C812.67 93.2125 820.314 91.9138 828.938 91.9138C837.563 91.9138 845.24 93.2125 851.972 95.81C858.703 98.3457 864.348 101.902 868.906 106.478C873.533 111.055 877.039 116.466 879.424 122.713C881.808 128.897 883 135.669 883 143.029V144.977C883 152.275 881.808 159.047 879.424 165.293C877.039 171.478 873.533 176.89 868.906 181.528C864.348 186.104 858.739 189.661 852.077 192.197C845.416 194.732 837.773 196 829.148 196C820.524 196 812.845 194.732 806.114 192.197C799.453 189.661 793.809 186.104 789.18 181.528C784.623 176.89 781.152 171.478 778.768 165.293C776.383 159.047 775.191 152.275 775.191 144.977ZM805.484 143.029V144.977C805.484 149.183 805.904 153.11 806.745 156.759C807.586 160.408 808.919 163.624 810.743 166.407C812.635 169.128 815.09 171.262 818.104 172.808C821.12 174.354 824.801 175.126 829.148 175.126C833.355 175.126 836.967 174.354 839.981 172.808C842.997 171.262 845.416 169.128 847.24 166.407C849.062 163.624 850.395 160.408 851.236 156.759C852.148 153.11 852.603 149.183 852.603 144.977V143.029C852.603 138.947 852.148 135.113 851.236 131.526C850.395 127.877 849.027 124.661 847.134 121.878C845.311 119.033 842.891 116.807 839.877 115.199C836.861 113.591 833.216 112.787 828.938 112.787C824.661 112.787 821.014 113.591 818 115.199C815.055 116.807 812.635 119.033 810.743 121.878C808.919 124.661 807.586 127.877 806.745 131.526C805.904 135.113 805.484 138.947 805.484 143.029Z" fill="white"/>
<defs>
<linearGradient id="paint0_linear_242_215" x1="521" y1="31" x2="521" y2="234" gradientUnits="userSpaceOnUse">
<stop stop-color="#0078D6"/>
<stop offset="1" stop-color="#00A4EB"/>
</linearGradient>
</defs>
</svg>
