<svg width="71" height="15" viewBox="0 0 71 15" fill="none" xmlns="http://www.w3.org/2000/svg">
<path d="M5.41504 11.8979C5.77734 11.8979 6.09863 11.8296 6.37891 11.6929C6.65918 11.5493 6.87793 11.3511 7.03516 11.0981C7.19922 10.8384 7.28467 10.5342 7.2915 10.1855H10.0703C10.0635 10.9648 9.85498 11.6587 9.44482 12.2671C9.03467 12.8687 8.48438 13.3438 7.79395 13.6924C7.10352 14.0342 6.33105 14.2051 5.47656 14.2051C4.61523 14.2051 3.86328 14.0615 3.2207 13.7744C2.58496 13.4873 2.05518 13.0908 1.63135 12.585C1.20752 12.0723 0.889648 11.4775 0.677734 10.8008C0.46582 10.1172 0.359863 9.38574 0.359863 8.60645V8.30908C0.359863 7.52295 0.46582 6.7915 0.677734 6.11475C0.889648 5.43115 1.20752 4.83643 1.63135 4.33057C2.05518 3.81787 2.58496 3.41797 3.2207 3.13086C3.85645 2.84375 4.60156 2.7002 5.45605 2.7002C6.36523 2.7002 7.16162 2.87451 7.84521 3.22314C8.53564 3.57178 9.07568 4.0708 9.46533 4.72021C9.86182 5.36279 10.0635 6.125 10.0703 7.00684H7.2915C7.28467 6.6377 7.20605 6.30273 7.05566 6.00195C6.91211 5.70117 6.7002 5.46191 6.41992 5.28418C6.14648 5.09961 5.80811 5.00732 5.40479 5.00732C4.97412 5.00732 4.62207 5.09961 4.34863 5.28418C4.0752 5.46191 3.86328 5.70801 3.71289 6.02246C3.5625 6.33008 3.45654 6.68213 3.39502 7.07861C3.34033 7.46826 3.31299 7.87842 3.31299 8.30908V8.60645C3.31299 9.03711 3.34033 9.45068 3.39502 9.84717C3.44971 10.2437 3.55225 10.5957 3.70264 10.9033C3.85986 11.2109 4.0752 11.4536 4.34863 11.6313C4.62207 11.8091 4.97754 11.8979 5.41504 11.8979ZM11.311 8.56543V8.3501C11.311 7.53662 11.4272 6.78809 11.6597 6.10449C11.8921 5.41406 12.2305 4.81592 12.6748 4.31006C13.1191 3.8042 13.666 3.41113 14.3154 3.13086C14.9648 2.84375 15.71 2.7002 16.5508 2.7002C17.3916 2.7002 18.1401 2.84375 18.7964 3.13086C19.4526 3.41113 20.0029 3.8042 20.4473 4.31006C20.8984 4.81592 21.2402 5.41406 21.4727 6.10449C21.7051 6.78809 21.8213 7.53662 21.8213 8.3501V8.56543C21.8213 9.37207 21.7051 10.1206 21.4727 10.811C21.2402 11.4946 20.8984 12.0928 20.4473 12.6055C20.0029 13.1113 19.4561 13.5044 18.8066 13.7847C18.1572 14.0649 17.4121 14.2051 16.5713 14.2051C15.7305 14.2051 14.9819 14.0649 14.3257 13.7847C13.6763 13.5044 13.126 13.1113 12.6748 12.6055C12.2305 12.0928 11.8921 11.4946 11.6597 10.811C11.4272 10.1206 11.311 9.37207 11.311 8.56543ZM14.2642 8.3501V8.56543C14.2642 9.03027 14.3052 9.46436 14.3872 9.86768C14.4692 10.271 14.5991 10.6265 14.7769 10.9341C14.9614 11.2349 15.2007 11.4707 15.4946 11.6416C15.7886 11.8125 16.1475 11.8979 16.5713 11.8979C16.9814 11.8979 17.3335 11.8125 17.6274 11.6416C17.9214 11.4707 18.1572 11.2349 18.335 10.9341C18.5127 10.6265 18.6426 10.271 18.7246 9.86768C18.8135 9.46436 18.8579 9.03027 18.8579 8.56543V8.3501C18.8579 7.89893 18.8135 7.4751 18.7246 7.07861C18.6426 6.67529 18.5093 6.31982 18.3247 6.01221C18.147 5.69775 17.9111 5.45166 17.6172 5.27393C17.3232 5.09619 16.9678 5.00732 16.5508 5.00732C16.1338 5.00732 15.7783 5.09619 15.4844 5.27393C15.1973 5.45166 14.9614 5.69775 14.7769 6.01221C14.5991 6.31982 14.4692 6.67529 14.3872 7.07861C14.3052 7.4751 14.2642 7.89893 14.2642 8.3501ZM26.5278 5.27393V14H23.5747V2.90527H26.3433L26.5278 5.27393ZM26.0972 8.06299H25.2974C25.2974 7.24268 25.4033 6.50439 25.6152 5.84814C25.8271 5.18506 26.1245 4.62109 26.5073 4.15625C26.8901 3.68457 27.3447 3.32568 27.8711 3.07959C28.4043 2.82666 28.999 2.7002 29.6553 2.7002C30.1748 2.7002 30.6499 2.77539 31.0806 2.92578C31.5112 3.07617 31.8804 3.31543 32.188 3.64355C32.5024 3.97168 32.7417 4.40576 32.9058 4.9458C33.0767 5.48584 33.1621 6.14551 33.1621 6.9248V14H30.1885V6.91455C30.1885 6.42236 30.1201 6.03955 29.9834 5.76611C29.8467 5.49268 29.645 5.30127 29.3784 5.19189C29.1187 5.07568 28.7974 5.01758 28.4146 5.01758C28.0181 5.01758 27.6729 5.09619 27.3789 5.25342C27.0918 5.41064 26.8525 5.62939 26.6611 5.90967C26.4766 6.18311 26.3364 6.50439 26.2407 6.87354C26.145 7.24268 26.0972 7.63916 26.0972 8.06299ZM40.8423 2.90527V4.99707H34.3823V2.90527H40.8423ZM35.9819 0.16748H38.9351V10.6572C38.9351 10.9785 38.9761 11.2246 39.0581 11.3955C39.147 11.5664 39.2769 11.686 39.4478 11.7544C39.6187 11.8159 39.834 11.8467 40.0938 11.8467C40.2783 11.8467 40.4424 11.8398 40.5859 11.8262C40.7363 11.8057 40.8628 11.7852 40.9653 11.7646L40.9756 13.9385C40.7227 14.0205 40.4492 14.0854 40.1553 14.1333C39.8613 14.1812 39.5366 14.2051 39.1812 14.2051C38.5317 14.2051 37.9644 14.0991 37.479 13.8872C37.0005 13.6685 36.6313 13.3198 36.3716 12.8413C36.1118 12.3628 35.9819 11.7339 35.9819 10.9546V0.16748ZM48.5122 11.498V6.55566C48.5122 6.2002 48.4541 5.896 48.3379 5.64307C48.2217 5.3833 48.0405 5.18164 47.7944 5.03809C47.5552 4.89453 47.2441 4.82275 46.8613 4.82275C46.5332 4.82275 46.2495 4.88086 46.0103 4.99707C45.771 5.10645 45.5864 5.26709 45.4565 5.479C45.3267 5.68408 45.2617 5.92676 45.2617 6.20703H42.3086C42.3086 5.73535 42.418 5.2876 42.6367 4.86377C42.8555 4.43994 43.1733 4.06738 43.5903 3.74609C44.0073 3.41797 44.5029 3.16162 45.0771 2.97705C45.6582 2.79248 46.3076 2.7002 47.0254 2.7002C47.8867 2.7002 48.6523 2.84375 49.3223 3.13086C49.9922 3.41797 50.5186 3.84863 50.9014 4.42285C51.291 4.99707 51.4858 5.71484 51.4858 6.57617V11.3237C51.4858 11.9321 51.5234 12.4312 51.5986 12.8208C51.6738 13.2036 51.7832 13.5386 51.9268 13.8257V14H48.9429C48.7993 13.6992 48.6899 13.3232 48.6147 12.8721C48.5464 12.4141 48.5122 11.9561 48.5122 11.498ZM48.9019 7.24268L48.9224 8.91406H47.2715C46.8818 8.91406 46.5435 8.9585 46.2563 9.04736C45.9692 9.13623 45.7334 9.2627 45.5488 9.42676C45.3643 9.58398 45.2275 9.76855 45.1387 9.98047C45.0566 10.1924 45.0156 10.4248 45.0156 10.6777C45.0156 10.9307 45.0737 11.1597 45.1899 11.3647C45.3062 11.563 45.4736 11.7202 45.6924 11.8364C45.9111 11.9458 46.1675 12.0005 46.4614 12.0005C46.9058 12.0005 47.292 11.9116 47.6201 11.7339C47.9482 11.5562 48.2012 11.3374 48.3789 11.0776C48.5635 10.8179 48.6592 10.5718 48.666 10.3394L49.4453 11.5903C49.3359 11.8706 49.1855 12.1611 48.9941 12.4619C48.8096 12.7627 48.5737 13.0464 48.2866 13.313C47.9995 13.5728 47.6543 13.7881 47.251 13.959C46.8477 14.123 46.3691 14.2051 45.8154 14.2051C45.1113 14.2051 44.4722 14.0649 43.8979 13.7847C43.3306 13.4976 42.8794 13.1045 42.5444 12.6055C42.2163 12.0996 42.0522 11.5254 42.0522 10.8828C42.0522 10.3018 42.1616 9.78564 42.3804 9.33447C42.5991 8.8833 42.9204 8.50391 43.3442 8.19629C43.7749 7.88184 44.3115 7.646 44.9541 7.48877C45.5967 7.32471 46.3418 7.24268 47.1895 7.24268H48.9019ZM59.1968 2.90527V4.99707H52.7368V2.90527H59.1968ZM54.3364 0.16748H57.2896V10.6572C57.2896 10.9785 57.3306 11.2246 57.4126 11.3955C57.5015 11.5664 57.6313 11.686 57.8022 11.7544C57.9731 11.8159 58.1885 11.8467 58.4482 11.8467C58.6328 11.8467 58.7969 11.8398 58.9404 11.8262C59.0908 11.8057 59.2173 11.7852 59.3198 11.7646L59.3301 13.9385C59.0771 14.0205 58.8037 14.0854 58.5098 14.1333C58.2158 14.1812 57.8911 14.2051 57.5356 14.2051C56.8862 14.2051 56.3188 14.0991 55.8335 13.8872C55.355 13.6685 54.9858 13.3198 54.7261 12.8413C54.4663 12.3628 54.3364 11.7339 54.3364 10.9546V0.16748ZM60.1401 8.56543V8.3501C60.1401 7.53662 60.2563 6.78809 60.4888 6.10449C60.7212 5.41406 61.0596 4.81592 61.5039 4.31006C61.9482 3.8042 62.4951 3.41113 63.1445 3.13086C63.7939 2.84375 64.5391 2.7002 65.3799 2.7002C66.2207 2.7002 66.9692 2.84375 67.6255 3.13086C68.2817 3.41113 68.832 3.8042 69.2764 4.31006C69.7275 4.81592 70.0693 5.41406 70.3018 6.10449C70.5342 6.78809 70.6504 7.53662 70.6504 8.3501V8.56543C70.6504 9.37207 70.5342 10.1206 70.3018 10.811C70.0693 11.4946 69.7275 12.0928 69.2764 12.6055C68.832 13.1113 68.2852 13.5044 67.6357 13.7847C66.9863 14.0649 66.2412 14.2051 65.4004 14.2051C64.5596 14.2051 63.811 14.0649 63.1548 13.7847C62.5054 13.5044 61.9551 13.1113 61.5039 12.6055C61.0596 12.0928 60.7212 11.4946 60.4888 10.811C60.2563 10.1206 60.1401 9.37207 60.1401 8.56543ZM63.0933 8.3501V8.56543C63.0933 9.03027 63.1343 9.46436 63.2163 9.86768C63.2983 10.271 63.4282 10.6265 63.606 10.9341C63.7905 11.2349 64.0298 11.4707 64.3237 11.6416C64.6177 11.8125 64.9766 11.8979 65.4004 11.8979C65.8105 11.8979 66.1626 11.8125 66.4565 11.6416C66.7505 11.4707 66.9863 11.2349 67.1641 10.9341C67.3418 10.6265 67.4717 10.271 67.5537 9.86768C67.6426 9.46436 67.687 9.03027 67.687 8.56543V8.3501C67.687 7.89893 67.6426 7.4751 67.5537 7.07861C67.4717 6.67529 67.3384 6.31982 67.1538 6.01221C66.9761 5.69775 66.7402 5.45166 66.4463 5.27393C66.1523 5.09619 65.7969 5.00732 65.3799 5.00732C64.9629 5.00732 64.6074 5.09619 64.3135 5.27393C64.0264 5.45166 63.7905 5.69775 63.606 6.01221C63.4282 6.31982 63.2983 6.67529 63.2163 7.07861C63.1343 7.4751 63.0933 7.89893 63.0933 8.3501Z" fill="white"/>
<path d="M6.37891 11.6929L8.1326 15.2879L8.16768 15.2708L8.20241 15.253L6.37891 11.6929ZM7.03516 11.0981L3.6532 8.96217L3.64556 8.97426L3.63801 8.98641L7.03516 11.0981ZM7.2915 10.1855V6.18555H3.36917L3.29227 10.1071L7.2915 10.1855ZM10.0703 10.1855L14.0702 10.2206L14.1056 6.18555H10.0703V10.1855ZM9.44482 12.2671L12.7497 14.5204L12.7556 14.5118L12.7615 14.5031L9.44482 12.2671ZM7.79395 13.6924L9.56859 17.2772L9.58279 17.2701L9.59693 17.263L7.79395 13.6924ZM3.2207 13.7744L1.57436 17.4199L1.58164 17.4232L1.58894 17.4264L3.2207 13.7744ZM1.63135 12.585L-1.45162 15.1335L-1.44321 15.1437L-1.43473 15.1538L1.63135 12.585ZM0.677734 10.8008L-3.14291 11.9852L-3.1395 11.9961L0.677734 10.8008ZM0.677734 6.11475L4.49498 7.31005L4.49836 7.29914L0.677734 6.11475ZM1.63135 4.33057L4.69743 6.89945L4.70591 6.88933L4.71432 6.87915L1.63135 4.33057ZM7.84521 3.22314L6.02791 6.78649L6.03506 6.79013L6.04223 6.79375L7.84521 3.22314ZM9.46533 4.72021L6.03536 6.7782L6.04814 6.7995L6.06119 6.82064L9.46533 4.72021ZM10.0703 7.00684V11.0068H14.1014L14.0702 6.97583L10.0703 7.00684ZM7.2915 7.00684L3.29219 7.0809L3.36489 11.0068H7.2915V7.00684ZM7.05566 6.00195L3.44574 7.72487L3.46155 7.75799L3.47796 7.79081L7.05566 6.00195ZM6.41992 5.28418L4.18203 8.59957L4.22944 8.63158L4.27775 8.66221L6.41992 5.28418ZM4.34863 5.28418L6.52859 8.63795L6.55772 8.61902L6.58652 8.59957L4.34863 5.28418ZM3.71289 6.02246L7.30643 7.7793L7.31399 7.76382L7.32143 7.74828L3.71289 6.02246ZM3.39502 7.07861L-0.557676 6.46526L-0.562124 6.49393L-0.566156 6.52266L3.39502 7.07861ZM3.70264 10.9033L0.109099 12.6602L0.124716 12.6921L0.140898 12.7238L3.70264 10.9033ZM5.41504 15.8979C6.28695 15.8979 7.22428 15.731 8.1326 15.2879L4.62521 8.0978C4.97299 7.92815 5.26774 7.89795 5.41504 7.89795V15.8979ZM8.20241 15.253C9.09034 14.7983 9.86943 14.1154 10.4323 13.2099L3.63801 8.98641C3.88643 8.58679 4.22802 8.30038 4.5554 8.1327L8.20241 15.253ZM10.4171 13.2341C11.0211 12.2777 11.2716 11.2413 11.2907 10.264L3.29227 10.1071C3.29776 9.82707 3.3773 9.39901 3.6532 8.96217L10.4171 13.2341ZM7.2915 14.1855H10.0703V6.18555H7.2915V14.1855ZM6.07047 10.1505C6.07012 10.1905 6.06554 10.1808 6.07803 10.1393C6.08381 10.1201 6.09173 10.0991 6.10161 10.0783C6.11147 10.0576 6.12106 10.0416 6.12813 10.0311L12.7615 14.5031C13.6382 13.2027 14.0569 11.7335 14.0702 10.2206L6.07047 10.1505ZM6.13991 10.0137C6.13474 10.0213 6.11629 10.0585 5.99096 10.1218L9.59693 17.263C10.8525 16.629 11.9346 15.716 12.7497 14.5204L6.13991 10.0137ZM6.0193 10.1076C5.93848 10.1476 5.78347 10.2051 5.47656 10.2051V18.2051C6.87864 18.2051 8.26855 17.9207 9.56859 17.2772L6.0193 10.1076ZM5.47656 10.2051C5.05467 10.2051 4.88017 10.1348 4.85246 10.1224L1.58894 17.4264C2.84639 17.9883 4.1758 18.2051 5.47656 18.2051V10.2051ZM4.86705 10.1289C4.74747 10.0749 4.71304 10.0347 4.69743 10.0161L-1.43473 15.1538C-0.602686 16.1469 0.422451 16.8997 1.57436 17.4199L4.86705 10.1289ZM4.71432 10.0364C4.64195 9.94883 4.56242 9.82091 4.49497 9.60549L-3.1395 11.9961C-2.78313 13.1342 -2.22691 14.1957 -1.45162 15.1335L4.71432 10.0364ZM4.49836 9.61639C4.41543 9.34884 4.35986 9.01968 4.35986 8.60645H-3.64014C-3.64014 9.75181 -3.48378 10.8855 -3.14289 11.9852L4.49836 9.61639ZM4.35986 8.60645V8.30908H-3.64014V8.60645H4.35986ZM4.35986 8.30908C4.35986 7.88478 4.41656 7.56045 4.49497 7.31004L-3.1395 4.91945C-3.48492 6.02256 -3.64014 7.16112 -3.64014 8.30908H4.35986ZM4.49836 7.29914C4.5665 7.07935 4.64237 6.96516 4.69743 6.89945L-1.43473 1.76169C-2.22733 2.70769 -2.7872 3.78296 -3.14289 4.93035L4.49836 7.29914ZM4.71432 6.87915C4.73025 6.85989 4.75979 6.82478 4.86705 6.77634L1.57436 -0.514623C0.410136 0.0111539 -0.619894 0.775857 -1.45162 1.78198L4.71432 6.87915ZM4.86705 6.77634C4.88263 6.76931 5.04453 6.7002 5.45605 6.7002V-1.2998C4.15859 -1.2998 2.83026 -1.08181 1.57436 -0.514623L4.86705 6.77634ZM5.45605 6.7002C5.84966 6.7002 6.0022 6.77337 6.02791 6.78649L9.66252 -0.340197C8.32104 -1.02435 6.88081 -1.2998 5.45605 -1.2998V6.7002ZM6.04223 6.79375C6.05077 6.79807 6.05669 6.80141 6.06034 6.80356C6.06217 6.80465 6.0635 6.80547 6.06434 6.80601C6.06519 6.80655 6.0656 6.80684 6.06562 6.80685C6.06564 6.80686 6.0653 6.80663 6.06466 6.80616C6.06402 6.80568 6.06311 6.80499 6.06198 6.80408C6.05965 6.80222 6.05672 6.79974 6.0534 6.79667C6.04634 6.79015 6.04027 6.78352 6.03592 6.77815C6.03164 6.77286 6.03169 6.77208 6.03536 6.7782L12.8953 2.66223C12.1084 1.35069 10.9977 0.333986 9.6482 -0.347466L6.04223 6.79375ZM6.06119 6.82064C6.04411 6.79296 6.04221 6.77881 6.04699 6.7969C6.05272 6.81854 6.06931 6.8929 6.07043 7.03784L14.0702 6.97583C14.0587 5.48721 13.7105 3.98281 12.8695 2.61979L6.06119 6.82064ZM10.0703 3.00684H7.2915V11.0068H10.0703V3.00684ZM11.2908 6.93277C11.274 6.02685 11.0755 5.09738 10.6334 4.2131L3.47796 7.79081C3.3366 7.50809 3.29529 7.24854 3.29219 7.0809L11.2908 6.93277ZM10.6656 4.27903C10.1996 3.30259 9.48032 2.48844 8.56209 1.90615L4.27775 8.66221C3.92007 8.43539 3.62466 8.09976 3.44574 7.72487L10.6656 4.27903ZM8.65781 1.96878C7.58889 1.24726 6.42632 1.00732 5.40479 1.00732V9.00732C5.18989 9.00732 4.70408 8.95196 4.18203 8.59957L8.65781 1.96878ZM5.40479 1.00732C4.4174 1.00732 3.22002 1.22002 2.11074 1.96878L6.58652 8.59957C6.02412 8.9792 5.53084 9.00732 5.40479 9.00732V1.00732ZM2.16868 1.93041C1.23567 2.53686 0.549436 3.36601 0.104354 4.29664L7.32143 7.74828C7.17713 8.05 6.91472 8.38697 6.52859 8.63795L2.16868 1.93041ZM0.119353 4.26562C-0.234778 4.98998 -0.444848 5.73815 -0.557676 6.46526L7.34772 7.69196C7.35793 7.62611 7.35978 7.67018 7.30643 7.7793L0.119353 4.26562ZM-0.566156 6.52266C-0.648984 7.11281 -0.687012 7.70965 -0.687012 8.30908H7.31299C7.31299 8.04718 7.32965 7.82372 7.3562 7.63457L-0.566156 6.52266ZM-0.687012 8.30908V8.60645H7.31299V8.30908H-0.687012ZM-0.687012 8.60645C-0.687012 9.20625 -0.648936 9.80305 -0.567465 10.3937L7.3575 9.30062C7.3296 9.09831 7.31299 8.86797 7.31299 8.60645H-0.687012ZM-0.567465 10.3937C-0.464347 11.1413 -0.256139 11.9131 0.109099 12.6602L7.29617 9.14648C7.36063 9.27832 7.36376 9.34598 7.3575 9.30062L-0.567465 10.3937ZM0.140898 12.7238C0.597044 13.6162 1.27335 14.4032 2.16868 14.9851L6.52859 8.27757C6.87704 8.50407 7.12268 8.80565 7.26438 9.08288L0.140898 12.7238ZM2.16868 14.9851C3.27774 15.706 4.46148 15.8979 5.41504 15.8979V7.89795C5.4936 7.89795 5.9664 7.91215 6.52859 8.27757L2.16868 14.9851ZM11.6597 6.10449L15.4468 7.39211L15.4506 7.38066L11.6597 6.10449ZM14.3154 3.13086L15.9004 6.80343L15.9167 6.79642L15.9328 6.78927L14.3154 3.13086ZM18.7964 3.13086L17.1931 6.79549L17.2092 6.80252L17.2253 6.80942L18.7964 3.13086ZM20.4473 4.31006L17.442 6.94982L17.452 6.96121L17.4621 6.97252L20.4473 4.31006ZM21.4727 6.10449L17.6817 7.38066L17.6856 7.3921L21.4727 6.10449ZM21.4727 10.811L25.2598 12.0987L25.2636 12.0872L21.4727 10.811ZM20.4473 12.6055L17.4444 9.96296L17.442 9.9657L20.4473 12.6055ZM14.3257 13.7847L12.7407 17.4572L12.7477 17.4602L12.7546 17.4632L14.3257 13.7847ZM12.6748 12.6055L9.65205 15.2252L9.67068 15.2467L9.68962 15.2679L12.6748 12.6055ZM11.6597 10.811L7.86869 12.0872L7.87258 12.0986L11.6597 10.811ZM14.7769 10.9341L11.3134 12.9352L11.3399 12.981L11.3676 13.0261L14.7769 10.9341ZM18.335 10.9341L21.7787 12.969L21.7886 12.9521L21.7984 12.9352L18.335 10.9341ZM18.7246 9.86768L14.8183 9.00697L14.8113 9.03865L14.8049 9.07044L18.7246 9.86768ZM18.7246 7.07861L14.8049 7.87585L14.8128 7.91474L14.8215 7.95346L18.7246 7.07861ZM18.3247 6.01221L14.8425 7.98044L14.868 8.02565L14.8947 8.07019L18.3247 6.01221ZM15.4844 5.27393L13.4147 1.851L13.3968 1.86184L13.379 1.87287L15.4844 5.27393ZM14.7769 6.01221L11.3272 3.9874L11.3203 3.99923L11.3134 4.0111L14.7769 6.01221ZM14.3872 7.07861L18.3043 7.88904L18.307 7.87585L14.3872 7.07861ZM15.311 8.56543V8.3501H7.31104V8.56543H15.311ZM15.311 8.3501C15.311 7.91977 15.3719 7.61214 15.4468 7.3921L7.87258 4.81688C7.48255 5.96403 7.31104 7.15347 7.31104 8.3501H15.311ZM15.4506 7.38066C15.528 7.15077 15.6132 7.02601 15.6801 6.94982L9.66953 1.67029C8.84778 2.60583 8.25616 3.67736 7.8687 4.82833L15.4506 7.38066ZM15.6801 6.94982C15.7136 6.91167 15.7669 6.86104 15.9004 6.80343L12.7304 -0.54171C11.5651 -0.0387787 10.5247 0.696724 9.66953 1.67029L15.6801 6.94982ZM15.9328 6.78927C15.9878 6.76499 16.1659 6.7002 16.5508 6.7002V-1.2998C15.2541 -1.2998 13.9419 -1.07749 12.698 -0.527556L15.9328 6.78927ZM16.5508 6.7002C16.9345 6.7002 17.1226 6.76463 17.1931 6.79549L20.3997 -0.53377C19.1577 -1.07713 17.8487 -1.2998 16.5508 -1.2998V6.7002ZM17.2253 6.80942C17.3656 6.86931 17.4156 6.91974 17.442 6.94982L23.4525 1.67029C22.5903 0.688656 21.5397 -0.0470399 20.3674 -0.5477L17.2253 6.80942ZM17.4621 6.97252C17.5276 7.04599 17.6085 7.16326 17.6817 7.38066L25.2636 4.82833C24.872 3.66487 24.2693 2.58584 23.4324 1.6476L17.4621 6.97252ZM17.6856 7.3921C17.7604 7.61214 17.8213 7.91977 17.8213 8.3501H25.8213C25.8213 7.15347 25.6498 5.96403 25.2597 4.81688L17.6856 7.3921ZM17.8213 8.3501V8.56543H25.8213V8.3501H17.8213ZM17.8213 8.56543C17.8213 8.98436 17.7617 9.29729 17.6817 9.53487L25.2636 12.0872C25.6485 10.9439 25.8213 9.75978 25.8213 8.56543H17.8213ZM17.6856 9.52342C17.6129 9.73712 17.5278 9.86818 17.4444 9.96296L23.4501 15.248C24.2691 14.3174 24.8676 13.2521 25.2597 12.0986L17.6856 9.52342ZM17.442 9.9657C17.4085 10.0039 17.3551 10.0545 17.2216 10.1121L20.3916 17.4572C21.557 16.9543 22.5974 16.2188 23.4525 15.2452L17.442 9.9657ZM17.2216 10.1121C17.158 10.1396 16.9682 10.2051 16.5713 10.2051V18.2051C17.856 18.2051 19.1565 17.9903 20.3916 17.4572L17.2216 10.1121ZM16.5713 10.2051C16.1756 10.2051 15.976 10.1399 15.8967 10.1061L12.7546 17.4632C13.9879 17.9899 15.2853 18.2051 16.5713 18.2051V10.2051ZM15.9107 10.1121C15.7721 10.0523 15.7066 9.99528 15.66 9.94301L9.68962 15.2679C10.5453 16.2274 11.5804 16.9565 12.7407 17.4572L15.9107 10.1121ZM15.6976 9.98575C15.613 9.88816 15.5237 9.74958 15.4468 9.52342L7.87258 12.0986C8.26053 13.2397 8.84795 14.2974 9.65205 15.2252L15.6976 9.98575ZM15.4506 9.53487C15.3707 9.29729 15.311 8.98436 15.311 8.56543H7.31104C7.31104 9.75978 7.48384 10.9439 7.8687 12.0872L15.4506 9.53487ZM10.2642 8.3501V8.56543H18.2642V8.3501H10.2642ZM10.2642 8.56543C10.2642 9.26424 10.3257 9.96804 10.4675 10.6649L18.307 9.07044C18.2846 8.96067 18.2642 8.7963 18.2642 8.56543H10.2642ZM10.4675 10.6649C10.6222 11.4258 10.8884 12.1996 11.3134 12.9352L18.2403 8.93297C18.3099 9.05333 18.3163 9.11618 18.307 9.07044L10.4675 10.6649ZM11.3676 13.0261C11.8846 13.8688 12.5961 14.5833 13.4841 15.0996L17.5051 8.18357C17.8053 8.35811 18.0382 8.60095 18.1861 8.84202L11.3676 13.0261ZM13.4841 15.0996C14.5221 15.7031 15.6135 15.8979 16.5713 15.8979V7.89795C16.6814 7.89795 17.0551 7.92191 17.5051 8.18357L13.4841 15.0996ZM16.5713 15.8979C17.542 15.8979 18.6187 15.6922 19.6379 15.0996L15.617 8.18357C16.0483 7.93281 16.4209 7.89795 16.5713 7.89795V15.8979ZM19.6379 15.0996C20.5402 14.575 21.2628 13.842 21.7787 12.969L14.8913 8.89916C15.0517 8.6277 15.3025 8.36638 15.617 8.18357L19.6379 15.0996ZM21.7984 12.9352C22.2234 12.1996 22.4896 11.4258 22.6444 10.6649L14.8049 9.07044C14.7956 9.11618 14.802 9.05333 14.8715 8.93297L21.7984 12.9352ZM22.6309 10.7284C22.7893 10.0097 22.8579 9.28421 22.8579 8.56543H14.8579C14.8579 8.77634 14.8377 8.91901 14.8183 9.00697L22.6309 10.7284ZM22.8579 8.56543V8.3501H14.8579V8.56543H22.8579ZM22.8579 8.3501C22.8579 7.63652 22.7876 6.91694 22.6278 6.20377L14.8215 7.95346C14.8393 8.03326 14.8579 8.16134 14.8579 8.3501H22.8579ZM22.6444 6.28138C22.4849 5.49758 22.2045 4.70396 21.7547 3.95422L14.8947 8.07019C14.814 7.93569 14.8002 7.85301 14.8049 7.87585L22.6444 6.28138ZM21.807 4.04398C21.3092 3.16334 20.5995 2.4028 19.6869 1.851L15.5475 8.69685C15.2228 8.50052 14.9847 8.23217 14.8425 7.98044L21.807 4.04398ZM19.6869 1.851C18.6471 1.22231 17.5411 1.00732 16.5508 1.00732V9.00732C16.3945 9.00732 15.9994 8.97007 15.5475 8.69685L19.6869 1.851ZM16.5508 1.00732C15.5605 1.00732 14.4544 1.22231 13.4147 1.851L17.5541 8.69685C17.1022 8.97007 16.7071 9.00732 16.5508 9.00732V1.00732ZM13.379 1.87287C12.4949 2.42013 11.8143 3.15758 11.3272 3.9874L18.2265 8.03701C18.1086 8.23793 17.8996 8.48319 17.5898 8.67499L13.379 1.87287ZM11.3134 4.0111C10.8884 4.74669 10.6222 5.52048 10.4675 6.28138L18.307 7.87585C18.3163 7.8301 18.3099 7.89296 18.2403 8.01332L11.3134 4.0111ZM10.4702 6.26819C10.3271 6.95956 10.2642 7.65714 10.2642 8.3501H18.2642C18.2642 8.14071 18.2832 7.99063 18.3042 7.88904L10.4702 6.26819ZM26.5278 5.27393H30.5278V5.11832L30.5157 4.96318L26.5278 5.27393ZM26.5278 14V18H30.5278V14H26.5278ZM23.5747 14H19.5747V18H23.5747V14ZM23.5747 2.90527V-1.09473H19.5747V2.90527H23.5747ZM26.3433 2.90527L30.3312 2.59453L30.0437 -1.09473H26.3433V2.90527ZM26.0972 8.06299V12.063H30.0972V8.06299H26.0972ZM25.2974 8.06299H21.2974V12.063H25.2974V8.06299ZM25.6152 5.84814L29.4217 7.07732L29.4254 7.06582L25.6152 5.84814ZM26.5073 4.15625L29.595 6.69908L29.6041 6.68803L29.6132 6.67693L26.5073 4.15625ZM27.8711 3.07959L29.5652 6.70312L29.5753 6.69839L29.5854 6.6936L27.8711 3.07959ZM32.188 3.64355L29.2698 6.37932L29.2849 6.39533L29.3 6.41118L32.188 3.64355ZM32.9058 4.9458L29.0785 6.10852L29.0852 6.13062L29.0922 6.15264L32.9058 4.9458ZM33.1621 14V18H37.1621V14H33.1621ZM30.1885 14H26.1885V18H30.1885V14ZM29.3784 5.19189L27.745 8.84317L27.8022 8.86877L27.8602 8.89257L29.3784 5.19189ZM27.3789 5.25342L25.4923 1.72628L25.4749 1.73557L25.4576 1.74503L27.3789 5.25342ZM26.6611 5.90967L23.3579 3.65382L23.3518 3.66278L23.3457 3.67178L26.6611 5.90967ZM22.5278 5.27393V14H30.5278V5.27393H22.5278ZM26.5278 10H23.5747V18H26.5278V10ZM27.5747 14V2.90527H19.5747V14H27.5747ZM23.5747 6.90527H26.3433V-1.09473H23.5747V6.90527ZM22.3554 3.21602L22.5399 5.58467L30.5157 4.96318L30.3312 2.59453L22.3554 3.21602ZM26.0972 4.06299H25.2974V12.063H26.0972V4.06299ZM29.2974 8.06299C29.2974 7.58323 29.3596 7.26946 29.4217 7.07731L21.8088 4.61897C21.447 5.73933 21.2974 6.90213 21.2974 8.06299H29.2974ZM29.4254 7.06582C29.5066 6.81179 29.5812 6.71589 29.595 6.69908L23.4196 1.61342C22.6678 2.5263 22.1477 3.55833 21.8051 4.63047L29.4254 7.06582ZM29.6132 6.67693C29.621 6.66722 29.625 6.6633 29.6247 6.66363C29.6243 6.66402 29.6207 6.6675 29.614 6.67286C29.6071 6.67823 29.5988 6.68414 29.5895 6.6899C29.5801 6.69566 29.5717 6.70006 29.5652 6.70312L26.177 -0.54394C25.0777 -0.0299791 24.1476 0.716218 23.4015 1.63557L29.6132 6.67693ZM29.5854 6.6936C29.5748 6.69863 29.5653 6.70235 29.5578 6.70488C29.5503 6.70738 29.547 6.70799 29.549 6.70757C29.5522 6.70688 29.5848 6.7002 29.6553 6.7002V-1.2998C28.473 -1.2998 27.2831 -1.06873 26.1568 -0.534418L29.5854 6.6936ZM29.6553 6.7002C29.7873 6.7002 29.8095 6.71879 29.7618 6.70215L32.3993 -0.850586C31.4903 -1.16801 30.5623 -1.2998 29.6553 -1.2998V6.7002ZM29.7618 6.70215C29.687 6.67601 29.5979 6.63492 29.5048 6.57463C29.4116 6.5142 29.3325 6.44617 29.2698 6.37932L35.1061 0.90779C34.3506 0.101929 33.4302 -0.490582 32.3993 -0.850586L29.7618 6.70215ZM29.3 6.41118C29.0871 6.189 29.0538 6.02726 29.0785 6.10852L36.733 3.78308C36.4296 2.78426 35.9178 1.75436 35.0759 0.875933L29.3 6.41118ZM29.0922 6.15264C29.1029 6.18658 29.1621 6.41273 29.1621 6.9248H37.1621C37.1621 5.87829 37.0504 4.7851 36.7194 3.73897L29.0922 6.15264ZM29.1621 6.9248V14H37.1621V6.9248H29.1621ZM33.1621 10H30.1885V18H33.1621V10ZM34.1885 14V6.91455H26.1885V14H34.1885ZM34.1885 6.91455C34.1885 6.1385 34.0948 5.04459 33.5611 3.97726L26.4057 7.55497C26.2635 7.27055 26.2153 7.05011 26.1995 6.96146C26.183 6.86923 26.1885 6.84534 26.1885 6.91455H34.1885ZM33.5611 3.97726C33.0204 2.89575 32.1159 1.99143 30.8966 1.49122L27.8602 8.89257C27.5527 8.76643 27.247 8.57599 26.9759 8.31871C26.7076 8.06401 26.5246 7.79281 26.4057 7.55497L33.5611 3.97726ZM31.0119 1.54062C30.0934 1.12971 29.1764 1.01758 28.4146 1.01758V9.01758C28.4069 9.01758 28.3411 9.01725 28.2308 8.99731C28.1194 8.97717 27.9491 8.93451 27.745 8.84317L31.0119 1.54062ZM28.4146 1.01758C27.4842 1.01758 26.4672 1.20483 25.4923 1.72628L29.2655 8.78056C28.8785 8.98755 28.5519 9.01758 28.4146 9.01758V1.01758ZM25.4576 1.74503C24.597 2.21636 23.8913 2.87278 23.3579 3.65382L29.9643 8.16551C29.8138 8.38601 29.5866 8.60493 29.3002 8.7618L25.4576 1.74503ZM23.3457 3.67178C22.8706 4.37563 22.561 5.12796 22.3687 5.86969L30.1127 7.87738C30.1118 7.88083 30.0825 7.99058 29.9765 8.14756L23.3457 3.67178ZM22.3687 5.86969C22.1792 6.60077 22.0972 7.3376 22.0972 8.06299H30.0972C30.0972 7.94072 30.1108 7.88458 30.1127 7.87738L22.3687 5.86969ZM40.8423 2.90527H44.8423V-1.09473H40.8423V2.90527ZM40.8423 4.99707V8.99707H44.8423V4.99707H40.8423ZM34.3823 4.99707H30.3823V8.99707H34.3823V4.99707ZM34.3823 2.90527V-1.09473H30.3823V2.90527H34.3823ZM35.9819 0.16748V-3.83252H31.9819V0.16748H35.9819ZM38.9351 0.16748H42.9351V-3.83252H38.9351V0.16748ZM39.0581 11.3955L35.452 13.1264L35.4797 13.1841L35.5092 13.2409L39.0581 11.3955ZM39.4478 11.7544L37.9622 15.4683L38.0271 15.4943L38.0929 15.5179L39.4478 11.7544ZM40.5859 11.8262L40.9652 15.8082L41.046 15.8005L41.1264 15.7895L40.5859 11.8262ZM40.9653 11.7646L44.9653 11.7458L44.9424 6.89002L40.1809 7.84233L40.9653 11.7646ZM40.9756 13.9385L42.2096 17.7434L44.9893 16.8418L44.9755 13.9196L40.9756 13.9385ZM37.479 13.8872L35.816 17.5251L35.8471 17.5393L35.8784 17.553L37.479 13.8872ZM36.8423 2.90527V4.99707H44.8423V2.90527H36.8423ZM40.8423 0.99707H34.3823V8.99707H40.8423V0.99707ZM38.3823 4.99707V2.90527H30.3823V4.99707H38.3823ZM34.3823 6.90527H40.8423V-1.09473H34.3823V6.90527ZM35.9819 4.16748H38.9351V-3.83252H35.9819V4.16748ZM34.9351 0.16748V10.6572H42.9351V0.16748H34.9351ZM34.9351 10.6572C34.9351 11.216 34.9899 12.1637 35.452 13.1264L42.6642 9.66458C42.8285 10.0069 42.8883 10.2863 42.9114 10.4252C42.9357 10.5709 42.9351 10.6568 42.9351 10.6572H34.9351ZM35.5092 13.2409C36.0176 14.2185 36.858 15.0266 37.9622 15.4683L40.9333 8.04049C41.2801 8.1792 41.6242 8.38761 41.9321 8.67122C42.2379 8.95292 42.4569 9.26146 42.607 9.5501L35.5092 13.2409ZM38.0929 15.5179C38.8417 15.7875 39.554 15.8467 40.0938 15.8467V7.84668C40.118 7.84668 40.1916 7.84788 40.3031 7.86381C40.4136 7.87959 40.5881 7.91362 40.8026 7.99084L38.0929 15.5179ZM40.0938 15.8467C40.3719 15.8467 40.6665 15.8366 40.9652 15.8082L40.2067 7.84419C40.2146 7.84344 40.2092 7.84417 40.1887 7.84502C40.1684 7.84586 40.1372 7.84668 40.0938 7.84668V15.8467ZM41.1264 15.7895C41.3256 15.7623 41.5393 15.7291 41.7498 15.687L40.1809 7.84233C40.1867 7.84116 40.1786 7.84289 40.1533 7.84699C40.1287 7.85098 40.0932 7.85634 40.0455 7.86285L41.1264 15.7895ZM36.9654 11.7835L36.9756 13.9573L44.9755 13.9196L44.9653 11.7458L36.9654 11.7835ZM39.7416 10.1336C39.7032 10.146 39.6295 10.1662 39.5126 10.1853L40.798 18.0813C41.2689 18.0047 41.7421 17.895 42.2096 17.7434L39.7416 10.1336ZM39.5126 10.1853C39.4671 10.1927 39.3612 10.2051 39.1812 10.2051V18.2051C39.712 18.2051 40.2555 18.1696 40.798 18.0813L39.5126 10.1853ZM39.1812 10.2051C38.9611 10.2051 38.9596 10.169 39.0796 10.2214L35.8784 17.553C36.9692 18.0292 38.1023 18.2051 39.1812 18.2051V10.2051ZM39.142 10.2493C39.2869 10.3155 39.4441 10.4161 39.5898 10.5536C39.7342 10.6901 39.8297 10.8273 39.887 10.9329L32.8562 14.7497C33.5141 15.9617 34.5199 16.9326 35.816 17.5251L39.142 10.2493ZM39.887 10.9329C39.9743 11.0938 39.9961 11.1989 39.9967 11.2017C39.9972 11.2041 39.9933 11.1858 39.9894 11.1435C39.9855 11.1012 39.9819 11.039 39.9819 10.9546H31.9819C31.9819 12.1309 32.1707 13.487 32.8562 14.7497L39.887 10.9329ZM39.9819 10.9546V0.16748H31.9819V10.9546H39.9819ZM48.3379 5.64307L44.6866 7.27653L44.6948 7.29484L44.7032 7.31307L48.3379 5.64307ZM47.7944 5.03809L45.7365 8.46806L45.7576 8.48076L45.7789 8.4932L47.7944 5.03809ZM46.0103 4.99707L47.6733 8.63497L47.7158 8.61553L47.7579 8.5951L46.0103 4.99707ZM45.4565 5.479L48.8358 7.61921L48.8516 7.59435L48.8669 7.56925L45.4565 5.479ZM45.2617 6.20703V10.207H49.2617V6.20703H45.2617ZM42.3086 6.20703H38.3086V10.207H42.3086V6.20703ZM43.5903 3.74609L46.0317 6.91466L46.0479 6.9022L46.0639 6.88958L43.5903 3.74609ZM45.0771 2.97705L43.8662 -0.835263L43.8531 -0.831063L45.0771 2.97705ZM50.9014 4.42285L47.5732 6.64165L47.5823 6.65529L47.5915 6.66886L50.9014 4.42285ZM51.5986 12.8208L47.6711 13.5788L47.6736 13.5918L51.5986 12.8208ZM51.9268 13.8257H55.9268V12.8814L55.5045 12.0368L51.9268 13.8257ZM51.9268 14V18H55.9268V14H51.9268ZM48.9429 14L45.3329 15.7229L46.4197 18H48.9429V14ZM48.6147 12.8721L44.6586 13.4625L44.6636 13.4962L44.6692 13.5297L48.6147 12.8721ZM48.9019 7.24268L52.9016 7.1936L52.8531 3.24268H48.9019V7.24268ZM48.9224 8.91406V12.9141H52.9717L52.9221 8.86499L48.9224 8.91406ZM45.5488 9.42676L48.1427 12.4717L48.1748 12.4444L48.2063 12.4164L45.5488 9.42676ZM45.1387 9.98047L41.4499 8.43356L41.4284 8.48474L41.4084 8.53649L45.1387 9.98047ZM45.1899 11.3647L41.7099 13.3368L41.7243 13.3623L41.7391 13.3876L45.1899 11.3647ZM45.6924 11.8364L43.8158 15.3689L43.8594 15.3921L43.9035 15.4141L45.6924 11.8364ZM48.3789 11.0776L45.1182 8.76081L45.0977 8.78968L45.0777 8.8189L48.3789 11.0776ZM48.666 10.3394L52.0611 8.22436L45.0572 -3.01883L44.6677 10.2218L48.666 10.3394ZM49.4453 11.5903L53.1716 13.0445L53.9004 11.1769L52.8404 9.47534L49.4453 11.5903ZM48.9941 12.4619L45.6195 10.3144L45.6019 10.342L45.5848 10.3698L48.9941 12.4619ZM48.2866 13.313L50.9703 16.2791L50.9895 16.2618L51.0084 16.2442L48.2866 13.313ZM47.251 13.959L48.7582 17.6642L48.785 17.6533L48.8116 17.642L47.251 13.959ZM43.8979 13.7847L42.0919 17.3537L42.1176 17.3667L42.1434 17.3793L43.8979 13.7847ZM42.5444 12.6055L39.1886 14.7822L39.2057 14.8086L39.2232 14.8348L42.5444 12.6055ZM43.3442 8.19629L45.6938 11.4335L45.703 11.4268L43.3442 8.19629ZM44.9541 7.48877L45.9048 11.3742L45.9242 11.3694L45.9436 11.3644L44.9541 7.48877ZM52.5122 11.498V6.55566H44.5122V11.498H52.5122ZM52.5122 6.55566C52.5122 5.77779 52.3864 4.87379 51.9726 3.97307L44.7032 7.31307C44.5218 6.9182 44.5122 6.6226 44.5122 6.55566H52.5122ZM51.9892 4.0096C51.5311 2.98562 50.7774 2.14732 49.8099 1.58297L45.7789 8.4932C45.3037 8.21596 44.9123 7.78098 44.6866 7.27653L51.9892 4.0096ZM49.8524 1.60811C48.8017 0.977682 47.7101 0.822754 46.8613 0.822754V8.82275C46.7782 8.82275 46.3087 8.81138 45.7365 8.46806L49.8524 1.60811ZM46.8613 0.822754C46.0662 0.822754 45.1587 0.963806 44.2626 1.39904L47.7579 8.5951C47.3403 8.79791 47.0002 8.82275 46.8613 8.82275V0.822754ZM44.3472 1.35917C43.4291 1.77887 42.6165 2.45813 42.0461 3.38876L48.8669 7.56925C48.5563 8.07605 48.1129 8.43402 47.6733 8.63497L44.3472 1.35917ZM42.0773 3.3388C41.4823 4.27818 41.2617 5.28863 41.2617 6.20703H49.2617C49.2617 6.56488 49.171 7.08999 48.8358 7.61921L42.0773 3.3388ZM45.2617 2.20703H42.3086V10.207H45.2617V2.20703ZM46.3086 6.20703C46.3086 6.28351 46.2993 6.37263 46.2764 6.46665C46.2535 6.56048 46.2218 6.63905 46.1912 6.69834L39.0822 3.0292C38.5741 4.01364 38.3086 5.08965 38.3086 6.20703H46.3086ZM46.1912 6.69834C46.1561 6.76634 46.117 6.82186 46.0821 6.86274C46.048 6.90267 46.0267 6.91847 46.0317 6.91466L41.149 0.57753C40.3163 1.21908 39.5966 2.03259 39.0822 3.0292L46.1912 6.69834ZM46.0639 6.88958C46.0639 6.88956 46.0776 6.87866 46.1125 6.86061C46.148 6.84221 46.2085 6.81495 46.3012 6.78517L43.8531 -0.831063C42.8874 -0.520661 41.9549 -0.0568712 41.1168 0.602609L46.0639 6.88958ZM46.2881 6.78934C46.4153 6.74895 46.6476 6.7002 47.0254 6.7002V-1.2998C45.9676 -1.2998 44.9011 -1.16399 43.8662 -0.835241L46.2881 6.78934ZM47.0254 6.7002C47.442 6.7002 47.6566 6.76886 47.7466 6.80744L50.8979 -0.545721C49.6481 -1.08136 48.3315 -1.2998 47.0254 -1.2998V6.7002ZM47.7466 6.80744C47.7614 6.81381 47.7337 6.80359 47.6865 6.76502C47.638 6.72535 47.5986 6.67978 47.5732 6.64165L54.2296 2.20405C53.3916 0.947162 52.239 0.0290225 50.8979 -0.545721L47.7466 6.80744ZM47.5915 6.66886C47.5577 6.61916 47.5318 6.57138 47.5126 6.5291C47.4937 6.48717 47.4838 6.45593 47.4794 6.43965C47.4708 6.40814 47.4858 6.44495 47.4858 6.57617H55.4858C55.4858 5.1083 55.1486 3.55815 54.2113 2.17685L47.5915 6.66886ZM47.4858 6.57617V11.3237H55.4858V6.57617H47.4858ZM47.4858 11.3237C47.4858 12.0674 47.5294 12.8446 47.6711 13.5787L55.5262 12.0629C55.5174 12.0177 55.4858 11.7969 55.4858 11.3237H47.4858ZM47.6736 13.5918C47.8039 14.2549 48.0142 14.9449 48.349 15.6145L55.5045 12.0368C55.5291 12.086 55.5387 12.1153 55.5395 12.1175C55.5402 12.1196 55.5332 12.0987 55.5236 12.0498L47.6736 13.5918ZM47.9268 13.8257V14H55.9268V13.8257H47.9268ZM51.9268 10H48.9429V18H51.9268V10ZM52.5528 12.2771C52.5712 12.3157 52.5826 12.3441 52.5885 12.36C52.5944 12.3759 52.5958 12.3815 52.594 12.3751C52.5898 12.3607 52.5762 12.31 52.5603 12.2145L44.6692 13.5297C44.7847 14.2231 44.9809 14.9854 45.3329 15.7229L52.5528 12.2771ZM52.5709 12.2816C52.5314 12.0169 52.5122 11.7562 52.5122 11.498H44.5122C44.5122 12.1559 44.5614 12.8112 44.6586 13.4625L52.5709 12.2816ZM44.9022 7.29175L44.9227 8.96314L52.9221 8.86499L52.9016 7.1936L44.9022 7.29175ZM48.9224 4.91406H47.2715V12.9141H48.9224V4.91406ZM47.2715 4.91406C46.5929 4.91406 45.8379 4.98967 45.0736 5.22622L47.4391 12.8685C47.3398 12.8992 47.2719 12.91 47.2462 12.9133C47.2206 12.9167 47.2269 12.9141 47.2715 12.9141V4.91406ZM45.0736 5.22622C44.3571 5.44799 43.5848 5.82077 42.8914 6.43712L48.2063 12.4164C47.882 12.7046 47.5814 12.8245 47.4391 12.8685L45.0736 5.22622ZM42.955 6.38178C42.3201 6.9226 41.7946 7.61147 41.4499 8.43356L48.8274 11.5274C48.6604 11.9256 48.4084 12.2454 48.1427 12.4717L42.955 6.38178ZM41.4084 8.53649C41.129 9.25817 41.0156 9.98663 41.0156 10.6777H49.0156C49.0156 10.863 48.9842 11.1266 48.8689 11.4244L41.4084 8.53649ZM41.0156 10.6777C41.0156 11.5698 41.228 12.4866 41.7099 13.3368L48.67 9.3927C48.9194 9.83278 49.0156 10.2916 49.0156 10.6777H41.0156ZM41.7391 13.3876C42.2594 14.275 42.9956 14.9332 43.8158 15.3689L47.569 8.30396C47.9517 8.50726 48.353 8.85094 48.6407 9.34187L41.7391 13.3876ZM43.9035 15.4141C44.7789 15.8518 45.6705 16.0005 46.4614 16.0005V8.00049C46.6644 8.00049 47.0434 8.03978 47.4812 8.25872L43.9035 15.4141ZM46.4614 16.0005C47.4444 16.0005 48.5101 15.801 49.5252 15.2511L45.715 8.21672C46.0739 8.02229 46.3671 8.00049 46.4614 8.00049V16.0005ZM49.5252 15.2511C50.3089 14.8266 51.0827 14.2095 51.6801 13.3364L45.0777 8.8189C45.3196 8.46527 45.5876 8.28571 45.715 8.21672L49.5252 15.2511ZM51.6396 13.3945C52.1173 12.7222 52.6271 11.7221 52.6643 10.457L44.6677 10.2218C44.6913 9.42148 45.0097 8.91355 45.1182 8.76081L51.6396 13.3945ZM45.2709 12.4543L46.0502 13.7053L52.8404 9.47534L52.0611 8.22436L45.2709 12.4543ZM45.719 10.1362C45.7195 10.1349 45.6962 10.1938 45.6195 10.3144L52.3688 14.6094C52.6749 14.1284 52.9524 13.6063 53.1716 13.0445L45.719 10.1362ZM45.5848 10.3698C45.5968 10.3503 45.6043 10.3416 45.6029 10.3432C45.6014 10.345 45.5901 10.3583 45.5648 10.3818L51.0084 16.2442C51.5328 15.7572 52.0093 15.1963 52.4034 14.554L45.5848 10.3698ZM45.603 10.3468C45.688 10.2699 45.7353 10.2569 45.6904 10.276L48.8116 17.642C49.5733 17.3192 50.3111 16.8756 50.9703 16.2791L45.603 10.3468ZM45.7438 10.2538C45.8384 10.2153 45.9002 10.2034 45.9137 10.2011C45.9262 10.1989 45.8967 10.2051 45.8154 10.2051V18.2051C46.7512 18.2051 47.7655 18.068 48.7582 17.6642L45.7438 10.2538ZM45.8154 10.2051C45.7298 10.2051 45.6824 10.1967 45.6646 10.1928C45.6482 10.1892 45.647 10.1873 45.6525 10.19L42.1434 17.3793C43.3178 17.9526 44.5661 18.2051 45.8154 18.2051V10.2051ZM45.704 10.2156C45.6975 10.2123 45.7222 10.2242 45.7616 10.2586C45.8019 10.2937 45.8383 10.3355 45.8656 10.3762L39.2232 14.8348C39.9625 15.936 40.9498 16.7758 42.0919 17.3537L45.704 10.2156ZM45.9003 10.4287C45.9501 10.5055 45.9933 10.5983 46.0214 10.6965C46.0489 10.7928 46.0522 10.8605 46.0522 10.8828H38.0522C38.0522 12.2448 38.412 13.585 39.1886 14.7822L45.9003 10.4287ZM46.0522 10.8828C46.0522 10.8432 46.0559 10.8487 46.0474 10.8892C46.0384 10.9315 46.0187 10.9989 45.9796 11.0796L38.7811 7.58938C38.2598 8.66462 38.0522 9.7931 38.0522 10.8828H46.0522ZM45.9796 11.0796C45.9439 11.1532 45.8959 11.2281 45.8379 11.2965C45.7805 11.3644 45.7277 11.4089 45.6938 11.4335L40.9947 4.95909C40.0623 5.63579 39.3002 6.51884 38.7811 7.58938L45.9796 11.0796ZM45.703 11.4268C45.6233 11.485 45.6516 11.4361 45.9048 11.3742L44.0034 3.60339C42.9714 3.8559 41.9265 4.2787 40.9855 4.96579L45.703 11.4268ZM45.9436 11.3644C46.1878 11.3021 46.5881 11.2427 47.1895 11.2427V3.24268C46.0955 3.24268 45.0055 3.34732 43.9646 3.6131L45.9436 11.3644ZM47.1895 11.2427H48.9019V3.24268H47.1895V11.2427ZM59.1968 2.90527H63.1968V-1.09473H59.1968V2.90527ZM59.1968 4.99707V8.99707H63.1968V4.99707H59.1968ZM52.7368 4.99707H48.7368V8.99707H52.7368V4.99707ZM52.7368 2.90527V-1.09473H48.7368V2.90527H52.7368ZM54.3364 0.16748V-3.83252H50.3364V0.16748H54.3364ZM57.2896 0.16748H61.2896V-3.83252H57.2896V0.16748ZM57.4126 11.3955L53.8065 13.1264L53.8342 13.1841L53.8637 13.2409L57.4126 11.3955ZM57.8022 11.7544L56.3167 15.4683L56.3816 15.4943L56.4474 15.5179L57.8022 11.7544ZM58.9404 11.8262L59.3197 15.8082L59.4005 15.8005L59.4809 15.7895L58.9404 11.8262ZM59.3198 11.7646L63.3198 11.7458L63.2969 6.89002L58.5354 7.84233L59.3198 11.7646ZM59.3301 13.9385L60.5641 17.7434L63.3438 16.8418L63.33 13.9196L59.3301 13.9385ZM55.8335 13.8872L54.1705 17.5251L54.2016 17.5393L54.2329 17.553L55.8335 13.8872ZM55.1968 2.90527V4.99707H63.1968V2.90527H55.1968ZM59.1968 0.99707H52.7368V8.99707H59.1968V0.99707ZM56.7368 4.99707V2.90527H48.7368V4.99707H56.7368ZM52.7368 6.90527H59.1968V-1.09473H52.7368V6.90527ZM54.3364 4.16748H57.2896V-3.83252H54.3364V4.16748ZM53.2896 0.16748V10.6572H61.2896V0.16748H53.2896ZM53.2896 10.6572C53.2896 11.216 53.3444 12.1637 53.8065 13.1264L61.0187 9.66458C61.183 10.0069 61.2427 10.2863 61.2659 10.4252C61.2902 10.5709 61.2896 10.6568 61.2896 10.6572H53.2896ZM53.8637 13.2409C54.3721 14.2185 55.2125 15.0266 56.3167 15.4683L59.2878 8.04049C59.6346 8.1792 59.9786 8.38761 60.2866 8.67122C60.5924 8.95292 60.8114 9.26146 60.9615 9.5501L53.8637 13.2409ZM56.4474 15.5179C57.1962 15.7875 57.9085 15.8467 58.4482 15.8467V7.84668C58.4725 7.84668 58.5461 7.84788 58.6576 7.86381C58.768 7.87959 58.9426 7.91362 59.1571 7.99084L56.4474 15.5179ZM58.4482 15.8467C58.7264 15.8467 59.021 15.8366 59.3197 15.8082L58.5612 7.84419C58.5691 7.84344 58.5637 7.84417 58.5432 7.84502C58.5229 7.84586 58.4917 7.84668 58.4482 7.84668V15.8467ZM59.4809 15.7895C59.6801 15.7623 59.8938 15.7291 60.1043 15.687L58.5354 7.84233C58.5412 7.84116 58.5331 7.84289 58.5078 7.84699C58.4831 7.85098 58.4477 7.85634 58.4 7.86285L59.4809 15.7895ZM55.3199 11.7835L55.3301 13.9573L63.33 13.9196L63.3198 11.7458L55.3199 11.7835ZM58.0961 10.1336C58.0577 10.146 57.984 10.1662 57.8671 10.1853L59.1525 18.0813C59.6234 18.0047 60.0966 17.895 60.5641 17.7434L58.0961 10.1336ZM57.8671 10.1853C57.8216 10.1927 57.7157 10.2051 57.5356 10.2051V18.2051C58.0665 18.2051 58.61 18.1696 59.1525 18.0813L57.8671 10.1853ZM57.5356 10.2051C57.3156 10.2051 57.3141 10.169 57.4341 10.2214L54.2329 17.553C55.3236 18.0292 56.4568 18.2051 57.5356 18.2051V10.2051ZM57.4965 10.2493C57.6414 10.3155 57.7986 10.4161 57.9442 10.5536C58.0887 10.6901 58.1841 10.8273 58.2415 10.9329L51.2107 14.7497C51.8686 15.9617 52.8744 16.9326 54.1705 17.5251L57.4965 10.2493ZM58.2415 10.9329C58.3288 11.0938 58.3506 11.1989 58.3512 11.2017C58.3517 11.2041 58.3478 11.1858 58.3439 11.1435C58.34 11.1012 58.3364 11.039 58.3364 10.9546H50.3364C50.3364 12.1309 50.5252 13.487 51.2107 14.7497L58.2415 10.9329ZM58.3364 10.9546V0.16748H50.3364V10.9546H58.3364ZM60.4888 6.10449L64.2759 7.39211L64.2797 7.38066L60.4888 6.10449ZM63.1445 3.13086L64.7295 6.80343L64.7458 6.79642L64.7619 6.78927L63.1445 3.13086ZM67.6255 3.13086L66.0222 6.79549L66.0383 6.80252L66.0544 6.80942L67.6255 3.13086ZM69.2764 4.31006L66.2711 6.94982L66.2811 6.96121L66.2912 6.97252L69.2764 4.31006ZM70.3018 6.10449L66.5108 7.38066L66.5147 7.3921L70.3018 6.10449ZM70.3018 10.811L74.0889 12.0987L74.0927 12.0872L70.3018 10.811ZM69.2764 12.6055L66.2735 9.96296L66.2711 9.9657L69.2764 12.6055ZM63.1548 13.7847L61.5698 17.4572L61.5768 17.4602L61.5837 17.4632L63.1548 13.7847ZM61.5039 12.6055L58.4811 15.2252L58.4998 15.2467L58.5187 15.2679L61.5039 12.6055ZM60.4888 10.811L56.6978 12.0872L56.7017 12.0986L60.4888 10.811ZM63.606 10.9341L60.1425 12.9352L60.169 12.981L60.1967 13.0261L63.606 10.9341ZM67.1641 10.9341L70.6078 12.969L70.6177 12.9521L70.6275 12.9352L67.1641 10.9341ZM67.5537 9.86768L63.6474 9.00697L63.6404 9.03865L63.634 9.07044L67.5537 9.86768ZM67.5537 7.07861L63.634 7.87585L63.6419 7.91474L63.6506 7.95346L67.5537 7.07861ZM67.1538 6.01221L63.6716 7.98044L63.6971 8.02565L63.7238 8.07019L67.1538 6.01221ZM64.3135 5.27393L62.2438 1.851L62.2259 1.86184L62.2081 1.87287L64.3135 5.27393ZM63.606 6.01221L60.1563 3.9874L60.1494 3.99923L60.1425 4.0111L63.606 6.01221ZM63.2163 7.07861L67.1334 7.88904L67.1361 7.87585L63.2163 7.07861ZM64.1401 8.56543V8.3501H56.1401V8.56543H64.1401ZM64.1401 8.3501C64.1401 7.91977 64.201 7.61214 64.2759 7.3921L56.7017 4.81688C56.3116 5.96403 56.1401 7.15347 56.1401 8.3501H64.1401ZM64.2797 7.38066C64.3571 7.15077 64.4423 7.02601 64.5092 6.94982L58.4986 1.67029C57.6769 2.60583 57.0853 3.67736 56.6978 4.82833L64.2797 7.38066ZM64.5092 6.94982C64.5427 6.91167 64.596 6.86104 64.7295 6.80343L61.5595 -0.54171C60.3942 -0.0387787 59.3538 0.696724 58.4986 1.67029L64.5092 6.94982ZM64.7619 6.78927C64.8169 6.76499 64.995 6.7002 65.3799 6.7002V-1.2998C64.0832 -1.2998 62.771 -1.07749 61.5271 -0.527556L64.7619 6.78927ZM65.3799 6.7002C65.7636 6.7002 65.9517 6.76463 66.0222 6.79549L69.2288 -0.53377C67.9868 -1.07713 66.6778 -1.2998 65.3799 -1.2998V6.7002ZM66.0544 6.80942C66.1947 6.86931 66.2447 6.91974 66.2711 6.94982L72.2816 1.67029C71.4194 0.688656 70.3688 -0.0470399 69.1965 -0.5477L66.0544 6.80942ZM66.2912 6.97252C66.3567 7.04599 66.4376 7.16326 66.5108 7.38066L74.0927 4.82833C73.7011 3.66487 73.0984 2.58584 72.2615 1.6476L66.2912 6.97252ZM66.5147 7.3921C66.5895 7.61214 66.6504 7.91977 66.6504 8.3501H74.6504C74.6504 7.15347 74.4789 5.96403 74.0888 4.81688L66.5147 7.3921ZM66.6504 8.3501V8.56543H74.6504V8.3501H66.6504ZM66.6504 8.56543C66.6504 8.98436 66.5908 9.29729 66.5108 9.53487L74.0927 12.0872C74.4776 10.9439 74.6504 9.75978 74.6504 8.56543H66.6504ZM66.5147 9.52342C66.442 9.73712 66.3569 9.86818 66.2735 9.96296L72.2792 15.248C73.0982 14.3174 73.6967 13.2521 74.0888 12.0986L66.5147 9.52342ZM66.2711 9.9657C66.2376 10.0039 66.1842 10.0545 66.0507 10.1121L69.2207 17.4572C70.3861 16.9543 71.4265 16.2188 72.2816 15.2452L66.2711 9.9657ZM66.0507 10.1121C65.9871 10.1396 65.7973 10.2051 65.4004 10.2051V18.2051C66.6852 18.2051 67.9856 17.9903 69.2207 17.4572L66.0507 10.1121ZM65.4004 10.2051C65.0047 10.2051 64.8051 10.1399 64.7258 10.1061L61.5837 17.4632C62.817 17.9899 64.1144 18.2051 65.4004 18.2051V10.2051ZM64.7398 10.1121C64.6012 10.0523 64.5357 9.99528 64.4891 9.94301L58.5187 15.2679C59.3744 16.2274 60.4095 16.9565 61.5698 17.4572L64.7398 10.1121ZM64.5267 9.98575C64.4421 9.88816 64.3528 9.74958 64.2759 9.52342L56.7017 12.0986C57.0896 13.2397 57.6771 14.2974 58.4811 15.2252L64.5267 9.98575ZM64.2797 9.53487C64.1998 9.29729 64.1401 8.98436 64.1401 8.56543H56.1401C56.1401 9.75978 56.3129 10.9439 56.6978 12.0872L64.2797 9.53487ZM59.0933 8.3501V8.56543H67.0933V8.3501H59.0933ZM59.0933 8.56543C59.0933 9.26424 59.1548 9.96804 59.2966 10.6649L67.1361 9.07044C67.1137 8.96067 67.0933 8.7963 67.0933 8.56543H59.0933ZM59.2966 10.6649C59.4513 11.4258 59.7175 12.1996 60.1425 12.9352L67.0694 8.93297C67.139 9.05333 67.1454 9.11618 67.1361 9.07044L59.2966 10.6649ZM60.1967 13.0261C60.7137 13.8688 61.4252 14.5833 62.3132 15.0996L66.3342 8.18357C66.6344 8.35811 66.8673 8.60095 67.0152 8.84202L60.1967 13.0261ZM62.3132 15.0996C63.3512 15.7031 64.4426 15.8979 65.4004 15.8979V7.89795C65.5105 7.89795 65.8842 7.92191 66.3342 8.18357L62.3132 15.0996ZM65.4004 15.8979C66.3711 15.8979 67.4478 15.6922 68.467 15.0996L64.4461 8.18357C64.8774 7.93281 65.25 7.89795 65.4004 7.89795V15.8979ZM68.467 15.0996C69.3693 14.575 70.0919 13.842 70.6078 12.969L63.7204 8.89916C63.8808 8.6277 64.1316 8.36638 64.4461 8.18357L68.467 15.0996ZM70.6275 12.9352C71.0525 12.1996 71.3187 11.4258 71.4735 10.6649L63.634 9.07044C63.6247 9.11618 63.6311 9.05333 63.7006 8.93297L70.6275 12.9352ZM71.46 10.7284C71.6184 10.0097 71.687 9.28421 71.687 8.56543H63.687C63.687 8.77634 63.6668 8.91901 63.6474 9.00697L71.46 10.7284ZM71.687 8.56543V8.3501H63.687V8.56543H71.687ZM71.687 8.3501C71.687 7.63652 71.6167 6.91694 71.4569 6.20377L63.6506 7.95346C63.6684 8.03326 63.687 8.16134 63.687 8.3501H71.687ZM71.4735 6.28138C71.314 5.49758 71.0336 4.70396 70.5838 3.95422L63.7238 8.07019C63.6431 7.93569 63.6293 7.85301 63.634 7.87585L71.4735 6.28138ZM70.6361 4.04398C70.1383 3.16334 69.4286 2.4028 68.516 1.851L64.3766 8.69685C64.0519 8.50052 63.8138 8.23217 63.6716 7.98044L70.6361 4.04398ZM68.516 1.851C67.4762 1.22231 66.3702 1.00732 65.3799 1.00732V9.00732C65.2236 9.00732 64.8285 8.97007 64.3766 8.69685L68.516 1.851ZM65.3799 1.00732C64.3896 1.00732 63.2835 1.22231 62.2438 1.851L66.3832 8.69685C65.9313 8.97007 65.5362 9.00732 65.3799 9.00732V1.00732ZM62.2081 1.87287C61.324 2.42013 60.6434 3.15758 60.1563 3.9874L67.0556 8.03701C66.9377 8.23793 66.7287 8.48319 66.4189 8.67499L62.2081 1.87287ZM60.1425 4.0111C59.7175 4.74669 59.4513 5.52048 59.2966 6.28138L67.1361 7.87585C67.1454 7.8301 67.139 7.89296 67.0694 8.01332L60.1425 4.0111ZM59.2993 6.26819C59.1562 6.95956 59.0933 7.65714 59.0933 8.3501H67.0933C67.0933 8.14071 67.1123 7.99063 67.1334 7.88904L59.2993 6.26819Z" fill="url(#paint0_linear_154_127)"/>
<defs>
<linearGradient id="paint0_linear_154_127" x1="35.6036" y1="-9" x2="35.6035" y2="24" gradientUnits="userSpaceOnUse">
<stop stop-color="#0078D6"/>
<stop offset="1" stop-color="#00A4EB"/>
</linearGradient>
</defs>
</svg>
