<svg width="169" height="39" viewBox="0 0 169 39" fill="none" xmlns="http://www.w3.org/2000/svg">
<g filter="url(#filter0_d_217_492)">
<path d="M15.581 20.1172H8.43256V15.1758H15.581C16.6357 15.1758 17.482 15 18.1201 14.6484C18.7711 14.2969 19.2464 13.8151 19.5458 13.2031C19.8583 12.5781 20.0146 11.875 20.0146 11.0938C20.0146 10.2865 19.8583 9.53776 19.5458 8.84766C19.2464 8.14453 18.7711 7.57812 18.1201 7.14844C17.482 6.71875 16.6357 6.50391 15.581 6.50391H10.7372V30H4.37006V1.5625H15.581C17.8466 1.5625 19.7867 1.97266 21.4013 2.79297C23.0289 3.61328 24.2724 4.73958 25.1318 6.17188C26.0042 7.59115 26.4404 9.21875 26.4404 11.0547C26.4404 12.8906 26.0042 14.4857 25.1318 15.8398C24.2724 17.194 23.0289 18.2487 21.4013 19.0039C19.7867 19.7461 17.8466 20.1172 15.581 20.1172ZM36.1083 13.7891V30H30.0146V8.86719H35.7372L36.1083 13.7891ZM42.4169 8.71094L42.3193 14.3945C42.0589 14.3555 41.7203 14.3229 41.3036 14.2969C40.887 14.2578 40.5289 14.2383 40.2294 14.2383C39.4482 14.2383 38.7711 14.3359 38.1982 14.5312C37.6383 14.7135 37.1695 14.987 36.7919 15.3516C36.4273 15.7161 36.1539 16.1719 35.9716 16.7188C35.7893 17.2526 35.6982 17.8711 35.6982 18.5742L34.5458 18.0078C34.5458 16.6146 34.6826 15.3385 34.956 14.1797C35.2294 13.0208 35.6266 12.0182 36.1474 11.1719C36.6682 10.3125 37.3063 9.64844 38.0615 9.17969C38.8167 8.71094 39.676 8.47656 40.6396 8.47656C40.9521 8.47656 41.2711 8.49609 41.5966 8.53516C41.9221 8.57422 42.1956 8.63281 42.4169 8.71094ZM43.374 19.6484V19.2383C43.374 17.6888 43.5953 16.263 44.038 14.9609C44.4807 13.6458 45.1318 12.5065 45.9911 11.543C46.8505 10.5794 47.9052 9.83073 49.1552 9.29688C50.4052 8.75 51.8375 8.47656 53.4521 8.47656C55.0927 8.47656 56.538 8.75 57.788 9.29688C59.051 9.83073 60.1122 10.5794 60.9716 11.543C61.831 12.5065 62.482 13.6458 62.9247 14.9609C63.3675 16.263 63.5888 17.6888 63.5888 19.2383V19.6484C63.5888 21.1849 63.3675 22.6107 62.9247 23.9258C62.482 25.2279 61.831 26.3672 60.9716 27.3438C60.1122 28.3073 59.0576 29.056 57.8076 29.5898C56.5576 30.1237 55.1188 30.3906 53.4911 30.3906C51.8766 30.3906 50.4378 30.1237 49.1747 29.5898C47.9117 29.056 46.8505 28.3073 45.9911 27.3438C45.1318 26.3672 44.4807 25.2279 44.038 23.9258C43.5953 22.6107 43.374 21.1849 43.374 19.6484ZM49.4872 19.2383V19.6484C49.4872 20.4818 49.5523 21.263 49.6826 21.9922C49.8258 22.7214 50.0536 23.3594 50.3661 23.9062C50.6786 24.4531 51.0888 24.8828 51.5966 25.1953C52.1175 25.4948 52.749 25.6445 53.4911 25.6445C54.2333 25.6445 54.8583 25.4948 55.3661 25.1953C55.874 24.8828 56.2841 24.4531 56.5966 23.9062C56.9091 23.3594 57.1305 22.7214 57.2607 21.9922C57.4039 21.263 57.4755 20.4818 57.4755 19.6484V19.2383C57.4755 18.418 57.4039 17.6497 57.2607 16.9336C57.1305 16.2044 56.9091 15.5599 56.5966 15C56.2841 14.4401 55.8675 14.0039 55.3466 13.6914C54.8388 13.3789 54.2073 13.2227 53.4521 13.2227C52.7229 13.2227 52.1044 13.3789 51.5966 13.6914C51.0888 14.0039 50.6786 14.4401 50.3661 15C50.0536 15.5599 49.8258 16.2044 49.6826 16.9336C49.5523 17.6497 49.4872 18.418 49.4872 19.2383ZM79.0966 25.2734V0H85.2294V30H79.7216L79.0966 25.2734ZM65.9326 19.6875V19.2773C65.9326 17.6758 66.1083 16.2174 66.4599 14.9023C66.8245 13.5742 67.3518 12.4349 68.0419 11.4844C68.7451 10.5208 69.6109 9.77865 70.6396 9.25781C71.6682 8.73698 72.8466 8.47656 74.1747 8.47656C75.3987 8.47656 76.4664 8.75 77.3779 9.29688C78.2893 9.83073 79.0641 10.5859 79.7021 11.5625C80.3531 12.526 80.8805 13.6654 81.2841 14.9805C81.6878 16.2826 81.9938 17.6953 82.2021 19.2188V19.9219C82.0068 21.3802 81.7008 22.7409 81.2841 24.0039C80.8805 25.2669 80.3531 26.3802 79.7021 27.3438C79.0641 28.2943 78.2828 29.043 77.3583 29.5898C76.4469 30.1237 75.3727 30.3906 74.1357 30.3906C72.8076 30.3906 71.6292 30.1237 70.6005 29.5898C69.5849 29.056 68.732 28.3073 68.0419 27.3438C67.3518 26.3802 66.8245 25.2474 66.4599 23.9453C66.1083 22.6432 65.9326 21.224 65.9326 19.6875ZM72.0263 19.2773V19.6875C72.0263 20.5208 72.0849 21.2956 72.2021 22.0117C72.3323 22.7279 72.5406 23.3594 72.8271 23.9062C73.1135 24.4531 73.4911 24.8828 73.9599 25.1953C74.4286 25.4948 75.0016 25.6445 75.6786 25.6445C76.5901 25.6445 77.3388 25.4362 77.9247 25.0195C78.5107 24.5898 78.9534 23.9974 79.2529 23.2422C79.5523 22.487 79.7086 21.6081 79.7216 20.6055V18.5547C79.7216 17.7214 79.637 16.9727 79.4677 16.3086C79.2984 15.6445 79.0445 15.0846 78.706 14.6289C78.3805 14.1732 77.9703 13.8281 77.4755 13.5938C76.9807 13.3464 76.3948 13.2227 75.7177 13.2227C75.0536 13.2227 74.4872 13.3789 74.0185 13.6914C73.5497 13.9909 73.1656 14.4141 72.8661 14.9609C72.5797 15.5078 72.3648 16.1523 72.2216 16.8945C72.0914 17.6237 72.0263 18.418 72.0263 19.2773ZM101.694 24.9023V8.86719H107.827V30H102.085L101.694 24.9023ZM102.339 20.5859L104.018 20.5469C104.018 21.9661 103.849 23.2747 103.511 24.4727C103.185 25.6706 102.69 26.7122 102.026 27.5977C101.375 28.4831 100.561 29.1732 99.5849 29.668C98.6214 30.1497 97.4951 30.3906 96.206 30.3906C95.1643 30.3906 94.2073 30.2474 93.3349 29.9609C92.4755 29.6615 91.7333 29.1992 91.1083 28.5742C90.4833 27.9362 90.0016 27.1224 89.663 26.1328C89.3245 25.1302 89.1552 23.9323 89.1552 22.5391V8.86719H95.249V22.5781C95.249 23.125 95.3141 23.5938 95.4443 23.9844C95.5875 24.362 95.7763 24.6745 96.0107 24.9219C96.2581 25.1693 96.5576 25.3516 96.9091 25.4688C97.2737 25.5859 97.6708 25.6445 98.1005 25.6445C99.1813 25.6445 100.028 25.4232 100.64 24.9805C101.265 24.5247 101.701 23.9193 101.948 23.1641C102.209 22.3958 102.339 21.5365 102.339 20.5859ZM122.534 8.86719V13.1445H109.995V8.86719H122.534ZM112.866 3.63281H118.979V23.3789C118.979 23.9648 119.051 24.4141 119.194 24.7266C119.338 25.0391 119.572 25.2604 119.897 25.3906C120.223 25.5078 120.64 25.5664 121.147 25.5664C121.512 25.5664 121.824 25.5534 122.085 25.5273C122.345 25.5013 122.586 25.4688 122.808 25.4297V29.8438C122.287 30.013 121.733 30.1432 121.147 30.2344C120.561 30.3385 119.923 30.3906 119.233 30.3906C117.918 30.3906 116.779 30.1758 115.815 29.7461C114.865 29.3164 114.136 28.6393 113.628 27.7148C113.12 26.7773 112.866 25.5599 112.866 24.0625V3.63281ZM124.038 19.6484V19.2383C124.038 17.6888 124.259 16.263 124.702 14.9609C125.145 13.6458 125.796 12.5065 126.655 11.543C127.515 10.5794 128.569 9.83073 129.819 9.29688C131.069 8.75 132.502 8.47656 134.116 8.47656C135.757 8.47656 137.202 8.75 138.452 9.29688C139.715 9.83073 140.776 10.5794 141.636 11.543C142.495 12.5065 143.146 13.6458 143.589 14.9609C144.032 16.263 144.253 17.6888 144.253 19.2383V19.6484C144.253 21.1849 144.032 22.6107 143.589 23.9258C143.146 25.2279 142.495 26.3672 141.636 27.3438C140.776 28.3073 139.722 29.056 138.472 29.5898C137.222 30.1237 135.783 30.3906 134.155 30.3906C132.541 30.3906 131.102 30.1237 129.839 29.5898C128.576 29.056 127.515 28.3073 126.655 27.3438C125.796 26.3672 125.145 25.2279 124.702 23.9258C124.259 22.6107 124.038 21.1849 124.038 19.6484ZM130.151 19.2383V19.6484C130.151 20.4818 130.216 21.263 130.347 21.9922C130.49 22.7214 130.718 23.3594 131.03 23.9062C131.343 24.4531 131.753 24.8828 132.261 25.1953C132.782 25.4948 133.413 25.6445 134.155 25.6445C134.897 25.6445 135.522 25.4948 136.03 25.1953C136.538 24.8828 136.948 24.4531 137.261 23.9062C137.573 23.3594 137.795 22.7214 137.925 21.9922C138.068 21.263 138.14 20.4818 138.14 19.6484V19.2383C138.14 18.418 138.068 17.6497 137.925 16.9336C137.795 16.2044 137.573 15.5599 137.261 15C136.948 14.4401 136.532 14.0039 136.011 13.6914C135.503 13.3789 134.871 13.2227 134.116 13.2227C133.387 13.2227 132.768 13.3789 132.261 13.6914C131.753 14.0039 131.343 14.4401 131.03 15C130.718 15.5599 130.49 16.2044 130.347 16.9336C130.216 17.6497 130.151 18.418 130.151 19.2383ZM158.706 24.1211C158.706 23.7305 158.582 23.3854 158.335 23.0859C158.101 22.7865 157.671 22.513 157.046 22.2656C156.434 22.0182 155.568 21.7708 154.448 21.5234C153.393 21.3021 152.41 21.0156 151.499 20.6641C150.588 20.2995 149.793 19.8633 149.116 19.3555C148.439 18.8346 147.912 18.2227 147.534 17.5195C147.157 16.8034 146.968 15.9896 146.968 15.0781C146.968 14.1927 147.157 13.3529 147.534 12.5586C147.925 11.7643 148.485 11.0612 149.214 10.4492C149.956 9.83724 150.854 9.35547 151.909 9.00391C152.977 8.65234 154.188 8.47656 155.542 8.47656C157.404 8.47656 159.012 8.76953 160.366 9.35547C161.72 9.92839 162.762 10.7357 163.491 11.7773C164.22 12.806 164.585 13.9844 164.585 15.3125H158.491C158.491 14.7656 158.387 14.2904 158.179 13.8867C157.97 13.4831 157.651 13.1706 157.222 12.9492C156.792 12.7148 156.226 12.5977 155.522 12.5977C154.976 12.5977 154.494 12.6953 154.077 12.8906C153.673 13.0729 153.354 13.3268 153.12 13.6523C152.899 13.9779 152.788 14.3555 152.788 14.7852C152.788 15.0846 152.853 15.3581 152.983 15.6055C153.127 15.8398 153.341 16.0612 153.628 16.2695C153.927 16.4648 154.311 16.6406 154.78 16.7969C155.262 16.9531 155.848 17.1029 156.538 17.2461C158.009 17.5195 159.351 17.9036 160.561 18.3984C161.785 18.8932 162.762 19.5768 163.491 20.4492C164.233 21.3216 164.604 22.474 164.604 23.9062C164.604 24.8438 164.39 25.7031 163.96 26.4844C163.543 27.2656 162.938 27.9492 162.143 28.5352C161.349 29.1211 160.399 29.5768 159.292 29.9023C158.185 30.2279 156.935 30.3906 155.542 30.3906C153.55 30.3906 151.864 30.0326 150.483 29.3164C149.103 28.6003 148.061 27.7018 147.358 26.6211C146.668 25.5273 146.323 24.4076 146.323 23.2617H152.046C152.072 23.9648 152.248 24.5378 152.573 24.9805C152.912 25.4232 153.348 25.7487 153.882 25.957C154.416 26.1523 155.015 26.25 155.679 26.25C156.343 26.25 156.896 26.1589 157.339 25.9766C157.782 25.7943 158.12 25.5469 158.354 25.2344C158.589 24.9089 158.706 24.5378 158.706 24.1211Z" fill="white"/>
<path d="M8.43256 20.1172H3.43256V25.1172H8.43256V20.1172ZM8.43256 15.1758V10.1758H3.43256V15.1758H8.43256ZM18.1201 14.6484L15.7443 10.2489L15.7256 10.259L15.707 10.2692L18.1201 14.6484ZM19.5458 13.2031L15.0737 10.9671L15.0641 10.9862L15.0548 11.0054L19.5458 13.2031ZM19.5458 8.84766L14.9457 10.807L14.9678 10.8588L14.9911 10.9102L19.5458 8.84766ZM18.1201 7.14844L15.3271 11.2956L15.3464 11.3086L15.3658 11.3215L18.1201 7.14844ZM10.7372 6.50391V1.50391H5.73724V6.50391H10.7372ZM10.7372 30V35H15.7372V30H10.7372ZM4.37006 30H-0.629944V35H4.37006V30ZM4.37006 1.5625V-3.4375H-0.629944V1.5625H4.37006ZM21.4013 2.79297L19.1365 7.25063L19.1437 7.2543L19.151 7.25794L21.4013 2.79297ZM25.1318 6.17188L20.8443 8.74435L20.8581 8.76734L20.8721 8.79018L25.1318 6.17188ZM25.1318 15.8398L20.9285 13.132L20.9193 13.1463L20.9101 13.1607L25.1318 15.8398ZM21.4013 19.0039L23.4896 23.5469L23.4977 23.5432L23.5058 23.5394L21.4013 19.0039ZM15.581 15.1172H8.43256V25.1172H15.581V15.1172ZM13.4326 20.1172V15.1758H3.43256V20.1172H13.4326ZM8.43256 20.1758H15.581V10.1758H8.43256V20.1758ZM15.581 20.1758C17.1263 20.1758 18.8984 19.9283 20.5331 19.0276L15.707 10.2692C15.8977 10.1642 16.013 10.1436 15.99 10.1484C15.98 10.1505 15.9424 10.1576 15.8726 10.1641C15.8029 10.1705 15.7067 10.1758 15.581 10.1758V20.1758ZM20.4958 19.048C21.9812 18.2458 23.2393 17.0308 24.0369 15.4009L15.0548 11.0054C15.1409 10.8294 15.2608 10.6585 15.4053 10.512C15.5469 10.3685 15.6738 10.287 15.7443 10.2489L20.4958 19.048ZM24.018 15.4392C24.7168 14.0416 25.0146 12.5586 25.0146 11.0938H15.0146C15.0146 11.1501 15.0091 11.1555 15.0165 11.1224C15.0243 11.0872 15.0416 11.0313 15.0737 10.9671L24.018 15.4392ZM25.0146 11.0938C25.0146 9.62263 24.7255 8.16518 24.1006 6.78512L14.9911 10.9102C14.9911 10.9103 15.0146 10.9503 15.0146 11.0938H25.0146ZM24.146 6.88835C23.4535 5.26247 22.3266 3.93392 20.8743 2.97539L15.3658 11.3215C15.3105 11.2849 15.224 11.2161 15.1345 11.1094C15.0445 11.0021 14.9827 10.8939 14.9457 10.807L24.146 6.88835ZM20.9131 3.00125C19.1952 1.84436 17.272 1.50391 15.581 1.50391V11.5039C15.7762 11.5039 15.8285 11.5245 15.7766 11.5113C15.7169 11.4962 15.5447 11.4422 15.3271 11.2956L20.9131 3.00125ZM15.581 1.50391H10.7372V11.5039H15.581V1.50391ZM5.73724 6.50391V30H15.7372V6.50391H5.73724ZM10.7372 25H4.37006V35H10.7372V25ZM9.37006 30V1.5625H-0.629944V30H9.37006ZM4.37006 6.5625H15.581V-3.4375H4.37006V6.5625ZM15.581 6.5625C17.2527 6.5625 18.3777 6.86511 19.1365 7.25063L23.6661 -1.6647C21.1957 -2.91979 18.4405 -3.4375 15.581 -3.4375V6.5625ZM19.151 7.25794C20.0142 7.693 20.5155 8.19629 20.8443 8.74435L29.4192 3.5994C28.0293 1.28288 26.0436 -0.466438 23.6517 -1.672L19.151 7.25794ZM20.8721 8.79018C21.2119 9.34287 21.4404 10.0458 21.4404 11.0547H31.4404C31.4404 8.39171 30.7965 5.83942 29.3914 3.55357L20.8721 8.79018ZM21.4404 11.0547C21.4404 12.0681 21.2108 12.6937 20.9285 13.132L29.335 18.5477C30.7975 16.2776 31.4404 13.7132 31.4404 11.0547H21.4404ZM20.9101 13.1607C20.6236 13.6123 20.162 14.0669 19.2968 14.4684L23.5058 23.5394C25.8958 22.4305 27.9212 20.7757 29.3534 18.519L20.9101 13.1607ZM19.313 14.4609C18.5075 14.8312 17.3171 15.1172 15.581 15.1172V25.1172C18.3762 25.1172 21.066 24.661 23.4896 23.5469L19.313 14.4609ZM36.1083 13.7891H41.1083V13.6008L41.0942 13.4131L36.1083 13.7891ZM36.1083 30V35H41.1083V30H36.1083ZM30.0146 30H25.0146V35H30.0146V30ZM30.0146 8.86719V3.86719H25.0146V8.86719H30.0146ZM35.7372 8.86719L40.7231 8.49127L40.3745 3.86719H35.7372V8.86719ZM42.4169 8.71094L47.4162 8.79684L47.4781 5.19494L44.081 3.99599L42.4169 8.71094ZM42.3193 14.3945L41.5776 19.3392L47.2205 20.1857L47.3185 14.4804L42.3193 14.3945ZM41.3036 14.2969L40.8369 19.275L40.9143 19.2823L40.9918 19.2871L41.3036 14.2969ZM38.1982 14.5312L39.7461 19.2856L39.7789 19.2749L39.8116 19.2638L38.1982 14.5312ZM36.7919 15.3516L33.319 11.7546L33.2874 11.785L33.2564 11.816L36.7919 15.3516ZM35.9716 16.7188L40.7034 18.3345L40.7093 18.3172L40.715 18.2999L35.9716 16.7188ZM35.6982 18.5742L33.4926 23.0615L40.6982 26.6032V18.5742H35.6982ZM34.5458 18.0078H29.5458V21.1215L32.3402 22.4951L34.5458 18.0078ZM36.1474 11.1719L40.4057 13.7924L40.4146 13.7779L40.4234 13.7634L36.1474 11.1719ZM38.0615 9.17969L40.6983 13.4279L40.6983 13.4279L38.0615 9.17969ZM31.1083 13.7891V30H41.1083V13.7891H31.1083ZM36.1083 25H30.0146V35H36.1083V25ZM35.0146 30V8.86719H25.0146V30H35.0146ZM30.0146 13.8672H35.7372V3.86719H30.0146V13.8672ZM30.7514 9.2431L31.1225 14.165L41.0942 13.4131L40.7231 8.49127L30.7514 9.2431ZM37.4177 8.62504L37.32 14.3086L47.3185 14.4804L47.4162 8.79684L37.4177 8.62504ZM43.061 9.44985C42.6007 9.38081 42.1034 9.33711 41.6155 9.30661L40.9918 19.2871C41.3372 19.3087 41.517 19.3301 41.5776 19.3392L43.061 9.44985ZM41.7704 9.3187C41.2543 9.27033 40.7322 9.23828 40.2294 9.23828V19.2383C40.3256 19.2383 40.5196 19.2453 40.8369 19.275L41.7704 9.3187ZM40.2294 9.23828C39.0505 9.23828 37.8032 9.38334 36.5848 9.7987L39.8116 19.2638C39.739 19.2885 39.8459 19.2383 40.2294 19.2383V9.23828ZM36.6503 9.77689C35.4578 10.1651 34.3054 10.8021 33.319 11.7546L40.2649 18.9486C40.0337 19.1718 39.8188 19.2619 39.7461 19.2856L36.6503 9.77689ZM33.2564 11.816C32.281 12.7914 31.6267 13.9422 31.2282 15.1376L40.715 18.2999C40.6812 18.4015 40.5737 18.6409 40.3275 18.8871L33.2564 11.816ZM31.2399 15.103C30.8424 16.2671 30.6982 17.4512 30.6982 18.5742H40.6982C40.6982 18.291 40.7363 18.2381 40.7034 18.3345L31.2399 15.103ZM37.9038 14.087L36.7514 13.5206L32.3402 22.4951L33.4926 23.0615L37.9038 14.087ZM39.5458 18.0078C39.5458 16.9376 39.6512 16.0532 39.8224 15.3279L30.0896 13.0314C29.7139 14.6238 29.5458 16.2916 29.5458 18.0078H39.5458ZM39.8224 15.3279C39.9966 14.5893 40.2141 14.1037 40.4057 13.7924L31.8891 8.55139C31.0391 9.93271 30.4622 11.4524 30.0896 13.0314L39.8224 15.3279ZM40.4234 13.7634C40.5897 13.4889 40.6952 13.4298 40.6983 13.4279L35.4246 4.93149C33.9173 5.86709 32.7467 7.13607 31.8714 8.58037L40.4234 13.7634ZM40.6983 13.4279C40.6839 13.4368 40.6653 13.4468 40.6437 13.4562C40.6222 13.4656 40.6028 13.4721 40.588 13.4762C40.5733 13.4802 40.5678 13.4805 40.5741 13.4797C40.5806 13.4789 40.6016 13.4766 40.6396 13.4766V3.47656C38.8255 3.47656 37.0379 3.93015 35.4246 4.93149L40.6983 13.4279ZM40.6396 13.4766C40.7435 13.4766 40.8634 13.483 41.0009 13.4995L42.1923 3.57077C41.6788 3.50914 41.1607 3.47656 40.6396 3.47656V13.4766ZM41.0009 13.4995C41.037 13.5039 41.0337 13.505 40.9982 13.4974C40.9641 13.4901 40.8775 13.4699 40.7528 13.4259L44.081 3.99599C43.4078 3.75838 42.7504 3.63773 42.1923 3.57077L41.0009 13.4995ZM44.038 14.9609L48.7719 16.5705L48.7743 16.5633L48.7767 16.5561L44.038 14.9609ZM49.1552 9.29688L51.119 13.8951L51.1392 13.8865L51.1593 13.8777L49.1552 9.29688ZM57.788 9.29688L55.7839 13.8777L55.8126 13.8902L55.8414 13.9024L57.788 9.29688ZM62.9247 14.9609L58.186 16.5561L58.1884 16.5633L58.1909 16.5705L62.9247 14.9609ZM62.9247 23.9258L67.6586 25.5353L67.661 25.5281L67.6634 25.521L62.9247 23.9258ZM60.9716 27.3438L64.7031 30.6718L64.7142 30.6594L64.7252 30.6469L60.9716 27.3438ZM45.9911 27.3438L42.2376 30.6469L42.2486 30.6594L42.2597 30.6718L45.9911 27.3438ZM44.038 23.9258L39.2993 25.521L39.3017 25.5281L39.3042 25.5353L44.038 23.9258ZM49.6826 21.9922L44.7604 22.8711L44.768 22.9136L44.7763 22.9559L49.6826 21.9922ZM51.5966 25.1953L48.9761 29.4536L49.0396 29.4927L49.1043 29.5298L51.5966 25.1953ZM55.3661 25.1953L57.9061 29.5021L57.9466 29.4783L57.9866 29.4536L55.3661 25.1953ZM57.2607 21.9922L52.3544 21.0285L52.3461 21.0708L52.3385 21.1132L57.2607 21.9922ZM57.2607 16.9336L52.3385 17.8125L52.3476 17.8635L52.3578 17.9142L57.2607 16.9336ZM55.3466 13.6914L52.7261 17.9497L52.7501 17.9644L52.7741 17.9789L55.3466 13.6914ZM49.6826 16.9336L44.7763 15.9699L44.7695 16.0045L44.7632 16.0392L49.6826 16.9336ZM48.374 19.6484V19.2383H38.374V19.6484H48.374ZM48.374 19.2383C48.374 18.1677 48.5262 17.2931 48.7719 16.5705L39.3042 13.3514C38.6644 15.2329 38.374 17.2099 38.374 19.2383H48.374ZM48.7767 16.5561C49.0204 15.8323 49.3453 15.2941 49.7226 14.871L42.2597 8.21489C40.9182 9.71891 39.9411 11.4593 39.2993 13.3657L48.7767 16.5561ZM49.7226 14.871C50.0675 14.4844 50.5079 14.1561 51.119 13.8951L47.1914 4.69868C45.3025 5.50538 43.6336 6.67446 42.2597 8.21489L49.7226 14.871ZM51.1593 13.8777C51.6723 13.6532 52.4026 13.4766 53.4521 13.4766V3.47656C51.2724 3.47656 49.1381 3.84679 47.1511 4.71609L51.1593 13.8777ZM53.4521 13.4766C54.5399 13.4766 55.2803 13.6573 55.7839 13.8777L59.7921 4.71609C57.7957 3.84266 55.6456 3.47656 53.4521 3.47656V13.4766ZM55.8414 13.9024C56.4654 14.1661 56.9041 14.4942 57.2401 14.871L64.7031 8.21489C63.3204 6.66461 61.6367 5.49531 59.7347 4.69138L55.8414 13.9024ZM57.2401 14.871C57.6175 15.2941 57.9424 15.8323 58.186 16.5561L67.6634 13.3657C67.0217 11.4593 66.0445 9.71891 64.7031 8.21489L57.2401 14.871ZM58.1909 16.5705C58.4366 17.2931 58.5888 18.1677 58.5888 19.2383H68.5888C68.5888 17.2099 68.2983 15.2329 67.6586 13.3514L58.1909 16.5705ZM58.5888 19.2383V19.6484H68.5888V19.2383H58.5888ZM58.5888 19.6484C58.5888 20.7003 58.4382 21.5815 58.186 22.3306L67.6634 25.521C68.2967 23.6398 68.5888 21.6695 68.5888 19.6484H58.5888ZM58.1909 22.3163C57.9479 23.031 57.6177 23.5864 57.2181 24.0406L64.7252 30.6469C66.0443 29.1479 67.0162 27.4248 67.6586 25.5353L58.1909 22.3163ZM57.2401 24.0157C56.8953 24.4023 56.4549 24.7306 55.8437 24.9916L59.7714 34.188C61.6602 33.3813 63.3292 32.2123 64.7031 30.6718L57.2401 24.0157ZM55.8437 24.9916C55.3244 25.2135 54.5744 25.3906 53.4911 25.3906V35.3906C55.6631 35.3906 57.7907 35.0339 59.7714 34.188L55.8437 24.9916ZM53.4911 25.3906C52.4284 25.3906 51.6692 25.2159 51.1214 24.9844L47.2281 34.1953C49.2064 35.0315 51.3248 35.3906 53.4911 35.3906V25.3906ZM51.1214 24.9844C50.4973 24.7206 50.0587 24.3925 49.7226 24.0157L42.2597 30.6718C43.6424 32.2221 45.3261 33.3914 47.2281 34.1953L51.1214 24.9844ZM49.7447 24.0406C49.3451 23.5864 49.0149 23.031 48.7719 22.3163L39.3042 25.5353C39.9466 27.4248 40.9185 29.1479 42.2376 30.6469L49.7447 24.0406ZM48.7767 22.3306C48.5246 21.5815 48.374 20.7003 48.374 19.6484H38.374C38.374 21.6695 38.6661 23.6398 39.2993 25.521L48.7767 22.3306ZM44.4872 19.2383V19.6484H54.4872V19.2383H44.4872ZM44.4872 19.6484C44.4872 20.7406 44.5725 21.8185 44.7604 22.8711L54.6047 21.1132C54.5322 20.7075 54.4872 20.223 54.4872 19.6484H44.4872ZM44.7763 22.9559C45.0059 24.1247 45.3995 25.2924 46.0249 26.3869L54.7074 21.4256C54.7073 21.4255 54.6921 21.3989 54.6696 21.3359C54.6468 21.2722 54.6171 21.1723 54.5888 21.0285L44.7763 22.9559ZM46.0249 26.3869C46.7288 27.6188 47.7145 28.6772 48.9761 29.4536L54.2171 20.937C54.3271 21.0047 54.4327 21.0897 54.5249 21.1863C54.6162 21.2819 54.6745 21.3681 54.7074 21.4256L46.0249 26.3869ZM49.1043 29.5298C50.5426 30.3569 52.0784 30.6445 53.4911 30.6445V20.6445C53.4196 20.6445 53.6923 20.6327 54.089 20.8608L49.1043 29.5298ZM53.4911 30.6445C54.8983 30.6445 56.4533 30.3589 57.9061 29.5021L52.8262 20.8885C53.2634 20.6307 53.5684 20.6445 53.4911 20.6445V30.6445ZM57.9866 29.4536C59.2483 28.6772 60.2339 27.6188 60.9378 26.3869L52.2554 21.4256C52.2882 21.3681 52.3466 21.2819 52.4378 21.1863C52.5301 21.0897 52.6357 21.0047 52.7457 20.937L57.9866 29.4536ZM60.9378 26.3869C61.5792 25.2645 61.9693 24.0666 62.1828 22.8711L52.3385 21.1132C52.2916 21.3761 52.239 21.4542 52.2554 21.4256L60.9378 26.3869ZM62.1669 22.9559C62.3795 21.8737 62.4755 20.7669 62.4755 19.6484H52.4755C52.4755 20.1966 52.4283 20.6523 52.3544 21.0285L62.1669 22.9559ZM62.4755 19.6484V19.2383H52.4755V19.6484H62.4755ZM62.4755 19.2383C62.4755 18.1283 62.3787 17.0287 62.1636 15.953L52.3578 17.9142C52.4291 18.2708 52.4755 18.7076 52.4755 19.2383H62.4755ZM62.1828 16.0546C61.9699 14.8622 61.5841 13.6766 60.9626 12.5632L52.2306 17.4368C52.2342 17.4432 52.2911 17.5467 52.3385 17.8125L62.1828 16.0546ZM60.9626 12.5632C60.2489 11.2844 59.2314 10.1913 57.9191 9.40394L52.7741 17.9789C52.6538 17.9067 52.5369 17.8141 52.4342 17.7066C52.3326 17.6002 52.2676 17.503 52.2306 17.4368L60.9626 12.5632ZM57.9671 9.43311C56.4865 8.52196 54.8885 8.22266 53.4521 8.22266V18.2227C53.5261 18.2227 53.1911 18.2359 52.7261 17.9497L57.9671 9.43311ZM53.4521 8.22266C52.004 8.22266 50.431 8.53781 48.9761 9.43311L54.2171 17.9497C53.7779 18.22 53.4418 18.2227 53.4521 18.2227V8.22266ZM48.9761 9.43311C47.6858 10.2272 46.6969 11.3149 46.0002 12.5632L54.7321 17.4368C54.7027 17.4895 54.6455 17.5773 54.5507 17.6781C54.4547 17.7802 54.3408 17.8736 54.2171 17.9497L48.9761 9.43311ZM46.0002 12.5632C45.3941 13.649 45.0052 14.8046 44.7763 15.9699L54.5888 17.8973C54.6464 17.6043 54.7132 17.4708 54.7321 17.4368L46.0002 12.5632ZM44.7632 16.0392C44.5731 17.0848 44.4872 18.1551 44.4872 19.2383H54.4872C54.4872 18.6808 54.5316 18.2147 54.6019 17.828L44.7632 16.0392ZM79.0966 25.2734H74.0966V25.6026L74.1398 25.9289L79.0966 25.2734ZM79.0966 0V-5H74.0966V0H79.0966ZM85.2294 0H90.2294V-5H85.2294V0ZM85.2294 30V35H90.2294V30H85.2294ZM79.7216 30L74.7648 30.6555L75.3393 35H79.7216V30ZM66.4599 14.9023L61.6383 13.5788L61.6338 13.5949L61.6295 13.6111L66.4599 14.9023ZM68.0419 11.4844L64.003 8.53702L63.9959 8.54681L68.0419 11.4844ZM70.6396 9.25781L68.381 4.79703L70.6396 9.25781ZM77.3779 9.29688L74.8054 13.5843L74.8281 13.5979L74.8509 13.6113L77.3779 9.29688ZM79.7021 11.5625L75.5163 14.2972L75.5374 14.3297L75.5591 14.3618L79.7021 11.5625ZM81.2841 14.9805L76.5042 16.4476L76.5083 16.461L81.2841 14.9805ZM82.2021 19.2188H87.2021V18.8785L87.156 18.5413L82.2021 19.2188ZM82.2021 19.9219L87.1578 20.5856L87.2021 20.2552V19.9219H82.2021ZM81.2841 24.0039L76.5358 22.4375L76.5285 22.4596L76.5214 22.4818L81.2841 24.0039ZM79.7021 27.3438L75.5591 24.5445L75.5549 24.5508L75.5506 24.5571L79.7021 27.3438ZM77.3583 29.5898L79.8854 33.9043L79.8947 33.8988L79.904 33.8933L77.3583 29.5898ZM70.6005 29.5898L68.2741 34.0157L68.2857 34.0217L68.2973 34.0278L70.6005 29.5898ZM68.0419 27.3438L63.977 30.2551L68.0419 27.3438ZM66.4599 23.9453L61.6328 25.2486L61.6388 25.2711L61.6451 25.2935L66.4599 23.9453ZM72.2021 22.0117L67.2677 22.8192L67.2748 22.8627L67.2827 22.9061L72.2021 22.0117ZM73.9599 25.1953L71.1864 29.3556L71.2269 29.3826L71.268 29.4088L73.9599 25.1953ZM77.9247 25.0195L80.8224 29.0943L80.8521 29.0731L80.8816 29.0516L77.9247 25.0195ZM79.7216 20.6055L84.7212 20.6704L84.7216 20.6379V20.6055H79.7216ZM78.706 14.6289L74.6373 17.5351L74.6644 17.5731L74.6923 17.6105L78.706 14.6289ZM77.4755 13.5938L75.2395 18.0659L75.287 18.0897L75.3351 18.1124L77.4755 13.5938ZM74.0185 13.6914L76.7104 17.9049L76.7515 17.8787L76.792 17.8517L74.0185 13.6914ZM72.8661 14.9609L68.4807 12.5594L68.4585 12.5999L68.437 12.6409L72.8661 14.9609ZM72.2216 16.8945L67.3122 15.9471L67.3056 15.9813L67.2995 16.0156L72.2216 16.8945ZM84.0966 25.2734V0H74.0966V25.2734H84.0966ZM79.0966 5H85.2294V-5H79.0966V5ZM80.2294 0V30H90.2294V0H80.2294ZM85.2294 25H79.7216V35H85.2294V25ZM84.6785 29.3445L84.0535 24.618L74.1398 25.9289L74.7648 30.6555L84.6785 29.3445ZM70.9326 19.6875V19.2773H60.9326V19.6875H70.9326ZM70.9326 19.2773C70.9326 18.0372 71.0691 17.0212 71.2903 16.1936L61.6295 13.6111C61.1476 15.4137 60.9326 17.3143 60.9326 19.2773H70.9326ZM71.2815 16.2259C71.5138 15.3799 71.8067 14.8094 72.088 14.4219L63.9959 8.54681C62.897 10.0604 62.1352 11.7685 61.6383 13.5788L71.2815 16.2259ZM72.0809 14.4317C72.3351 14.0834 72.599 13.8701 72.8982 13.7186L68.381 4.79703C66.6229 5.68717 65.1551 6.95826 64.003 8.53703L72.0809 14.4317ZM72.8982 13.7186C73.1273 13.6026 73.5118 13.4766 74.1747 13.4766V3.47656C72.1814 3.47656 70.2091 3.87137 68.381 4.79703L72.8982 13.7186ZM74.1747 13.4766C74.6321 13.4766 74.7826 13.5707 74.8054 13.5843L79.9503 5.00941C78.1502 3.92933 76.1653 3.47656 74.1747 3.47656V13.4766ZM74.8509 13.6113C75.0273 13.7147 75.2567 13.9 75.5163 14.2972L83.8879 8.82776C82.8714 7.27192 81.5513 5.9468 79.9049 4.98246L74.8509 13.6113ZM75.5591 14.3618C75.8879 14.8483 76.22 15.5216 76.5042 16.4476L86.064 13.5134C85.541 11.8091 84.8184 10.2038 83.845 8.76321L75.5591 14.3618ZM76.5083 16.461C76.8211 17.47 77.0724 18.611 77.2482 19.8962L87.156 18.5413C86.9151 16.7796 86.5544 15.0951 86.0599 13.5L76.5083 16.461ZM77.2021 19.2188V19.9219H87.2021V19.2188H77.2021ZM77.2463 19.2582C77.0878 20.4418 76.846 21.4974 76.5358 22.4375L86.0324 25.5704C86.5556 23.9844 86.9257 22.3187 87.1578 20.5856L77.2463 19.2582ZM76.5214 22.4818C76.2427 23.354 75.9096 24.0257 75.5591 24.5445L83.845 30.143C84.7966 28.7347 85.5183 27.1798 86.0468 25.526L76.5214 22.4818ZM75.5506 24.5571C75.3002 24.9303 75.0537 25.1438 74.8126 25.2864L79.904 33.8933C81.5119 32.9421 82.828 31.6583 83.8536 30.1304L75.5506 24.5571ZM74.8313 25.2754C74.8087 25.2887 74.6378 25.3906 74.1357 25.3906V35.3906C76.1075 35.3906 78.085 34.9587 79.8854 33.9043L74.8313 25.2754ZM74.1357 25.3906C73.4915 25.3906 73.1231 25.2658 72.9038 25.1519L68.2973 34.0278C70.1352 34.9816 72.1236 35.3906 74.1357 35.3906V25.3906ZM72.9269 25.164C72.624 25.0048 72.3588 24.7841 72.1069 24.4324L63.977 30.2551C65.1053 31.8305 66.5458 33.1072 68.2741 34.0157L72.9269 25.164ZM72.1069 24.4324C71.8 24.0039 71.5041 23.4165 71.2747 22.5972L61.6451 25.2935C62.1448 27.0783 62.9036 28.7565 63.977 30.2551L72.1069 24.4324ZM71.287 22.642C71.0649 21.819 70.9326 20.8437 70.9326 19.6875H60.9326C60.9326 21.6042 61.1518 23.4674 61.6328 25.2486L71.287 22.642ZM67.0263 19.2773V19.6875H77.0263V19.2773H67.0263ZM67.0263 19.6875C67.0263 20.7525 67.101 21.8003 67.2677 22.8192L77.1365 21.2043C77.0688 20.7908 77.0263 20.2892 77.0263 19.6875H67.0263ZM67.2827 22.9061C67.4876 24.033 67.8394 25.1599 68.3979 26.2263L77.2562 21.5862C77.2419 21.5588 77.177 21.4227 77.1214 21.1173L67.2827 22.9061ZM68.3979 26.2263C69.0352 27.4428 69.9549 28.5346 71.1864 29.3556L76.7334 21.0351C76.8682 21.1249 76.9858 21.2298 77.081 21.3381C77.1747 21.4447 77.2293 21.5349 77.2562 21.5862L68.3979 26.2263ZM71.268 29.4088C72.6999 30.3236 74.2561 30.6445 75.6786 30.6445V20.6445C75.7471 20.6445 76.1574 20.6659 76.6518 20.9818L71.268 29.4088ZM75.6786 30.6445C77.3495 30.6445 79.1879 30.2566 80.8224 29.0943L75.0271 20.9448C75.2431 20.7911 75.4448 20.7098 75.5834 20.6713C75.7131 20.6352 75.7573 20.6445 75.6786 20.6445V30.6445ZM80.8816 29.0516C82.3131 28.0018 83.2968 26.6083 83.9008 25.0853L74.605 21.3991C74.602 21.4066 74.6238 21.3498 74.691 21.26C74.7604 21.167 74.8548 21.0705 74.9679 20.9875L80.8816 29.0516ZM83.9008 25.0853C84.4706 23.6484 84.7021 22.1444 84.7212 20.6704L74.722 20.5405C74.7151 21.0717 74.6341 21.3256 74.605 21.3991L83.9008 25.0853ZM84.7216 20.6055V18.5547H74.7216V20.6055H84.7216ZM84.7216 18.5547C84.7216 17.391 84.6042 16.217 84.3128 15.0736L74.6226 17.5436C74.6697 17.7283 74.7216 18.0517 74.7216 18.5547H84.7216ZM84.3128 15.0736C84.0152 13.9063 83.5179 12.7217 82.7197 11.6473L74.6923 17.6105C74.5712 17.4476 74.5816 17.3828 74.6226 17.5436L84.3128 15.0736ZM82.7747 11.7227C81.966 10.5906 80.8985 9.6826 79.616 9.07506L75.3351 18.1124C75.2032 18.05 75.0656 17.964 74.9354 17.8545C74.8057 17.7453 74.7072 17.633 74.6373 17.5351L82.7747 11.7227ZM79.7116 9.12161C78.3842 8.45794 77 8.22266 75.7177 8.22266V18.2227C75.7896 18.2227 75.5772 18.2348 75.2395 18.0659L79.7116 9.12161ZM75.7177 8.22266C74.2466 8.22266 72.6731 8.57909 71.245 9.53115L76.792 17.8517C76.3014 18.1787 75.8607 18.2227 75.7177 18.2227V8.22266ZM71.3265 9.47792C70.0679 10.2821 69.1339 11.3665 68.4807 12.5594L77.2516 17.3625C77.2292 17.4035 77.1765 17.4888 77.0811 17.5939C76.9839 17.7011 76.8593 17.8098 76.7104 17.9049L71.3265 9.47792ZM68.437 12.6409C67.8804 13.7035 67.5279 14.8295 67.3122 15.9471L77.131 17.842C77.2018 17.4752 77.279 17.3121 77.2953 17.281L68.437 12.6409ZM67.2995 16.0156C67.11 17.0765 67.0263 18.1689 67.0263 19.2773H77.0263C77.0263 18.6671 77.0728 18.1709 77.1438 17.7735L67.2995 16.0156ZM101.694 24.9023H96.6943V25.0936L96.7089 25.2844L101.694 24.9023ZM101.694 8.86719V3.86719H96.6943V8.86719H101.694ZM107.827 8.86719H112.827V3.86719H107.827V8.86719ZM107.827 30V35H112.827V30H107.827ZM102.085 30L97.0995 30.382L97.4534 35H102.085V30ZM102.339 20.5859L102.223 15.5873L97.3388 15.7009V20.5859H102.339ZM104.018 20.5469H109.018V15.4292L103.902 15.5482L104.018 20.5469ZM103.511 24.4727L98.6991 23.1129L98.6923 23.1372L98.6857 23.1615L103.511 24.4727ZM102.026 27.5977L98.0263 24.5977L98.0121 24.6166L97.9981 24.6357L102.026 27.5977ZM99.5849 29.668L101.821 34.1401L101.833 34.1342L101.845 34.1281L99.5849 29.668ZM93.3349 29.9609L91.6895 34.6825L91.7322 34.6973L91.775 34.7114L93.3349 29.9609ZM91.1083 28.5742L87.5365 32.0731L87.5546 32.0915L87.5728 32.1098L91.1083 28.5742ZM89.663 26.1328L84.9258 27.7324L84.929 27.7418L84.9322 27.7513L89.663 26.1328ZM89.1552 8.86719V3.86719H84.1552V8.86719H89.1552ZM95.249 8.86719H100.249V3.86719H95.249V8.86719ZM95.4443 23.9844L90.7009 25.5655L90.7331 25.6623L90.7693 25.7576L95.4443 23.9844ZM96.0107 24.9219L92.3809 28.3606L92.4274 28.4096L92.4751 28.4574L96.0107 24.9219ZM96.9091 25.4688L95.328 30.2122L95.3535 30.2207L95.3791 30.2289L96.9091 25.4688ZM100.64 24.9805L103.57 29.0316L103.578 29.0261L103.585 29.0205L100.64 24.9805ZM101.948 23.1641L97.2129 21.5589L97.2046 21.5832L97.1966 21.6075L101.948 23.1641ZM106.694 24.9023V8.86719H96.6943V24.9023H106.694ZM101.694 13.8672H107.827V3.86719H101.694V13.8672ZM102.827 8.86719V30H112.827V8.86719H102.827ZM107.827 25H102.085V35H107.827V25ZM107.07 29.618L106.68 24.5203L96.7089 25.2844L97.0995 30.382L107.07 29.618ZM102.455 25.5846L104.135 25.5455L103.902 15.5482L102.223 15.5873L102.455 25.5846ZM99.0185 20.5469C99.0185 21.5694 98.8966 22.4142 98.6991 23.1129L108.322 25.8324C108.802 24.1352 109.018 22.3628 109.018 20.5469H99.0185ZM98.6857 23.1615C98.5058 23.8233 98.2677 24.2758 98.0263 24.5977L106.026 30.5977C107.113 29.1487 107.864 27.5179 108.336 25.7838L98.6857 23.1615ZM97.9981 24.6357C97.8091 24.8926 97.6001 25.0684 97.3251 25.2078L101.845 34.1281C103.523 33.2779 104.941 32.0735 106.055 30.5596L97.9981 24.6357ZM97.3488 25.1958C97.2032 25.2687 96.87 25.3906 96.206 25.3906V35.3906C98.1201 35.3906 100.04 35.0308 101.821 34.1401L97.3488 25.1958ZM96.206 25.3906C95.624 25.3906 95.2011 25.3111 94.8948 25.2105L91.775 34.7114C93.2135 35.1837 94.7046 35.3906 96.206 35.3906V25.3906ZM94.9803 25.2394C94.8105 25.1803 94.7202 25.115 94.6439 25.0387L87.5728 32.1098C88.7465 33.2835 90.1405 34.1427 91.6895 34.6825L94.9803 25.2394ZM94.6801 25.0753C94.6588 25.0536 94.5321 24.9185 94.3938 24.5144L84.9322 27.7513C85.471 29.3263 86.3079 30.8188 87.5365 32.0731L94.6801 25.0753ZM94.4003 24.5332C94.2809 24.1798 94.1552 23.5503 94.1552 22.5391H84.1552C84.1552 24.3142 84.368 26.0806 84.9258 27.7324L94.4003 24.5332ZM94.1552 22.5391V8.86719H84.1552V22.5391H94.1552ZM89.1552 13.8672H95.249V3.86719H89.1552V13.8672ZM90.249 8.86719V22.5781H100.249V8.86719H90.249ZM90.249 22.5781C90.249 23.4971 90.3553 24.5289 90.7009 25.5655L100.188 22.4032C100.233 22.5379 100.247 22.6268 100.25 22.652C100.254 22.6774 100.249 22.656 100.249 22.5781H90.249ZM90.7693 25.7576C91.1046 26.6416 91.6153 27.5524 92.3809 28.3606L99.6404 21.4832C99.9373 21.7965 100.07 22.0824 100.119 22.2111L90.7693 25.7576ZM92.4751 28.4574C93.3038 29.2861 94.2848 29.8644 95.328 30.2122L98.4903 20.7253C98.8304 20.8387 99.2123 21.0525 99.5462 21.3863L92.4751 28.4574ZM95.3791 30.2289C96.2944 30.5231 97.214 30.6445 98.1005 30.6445V20.6445C98.1276 20.6445 98.253 20.6488 98.4392 20.7086L95.3791 30.2289ZM98.1005 30.6445C99.7966 30.6445 101.809 30.3056 103.57 29.0316L97.709 20.9293C97.9774 20.7352 98.1983 20.6628 98.2807 20.6412C98.354 20.6221 98.3098 20.6445 98.1005 20.6445V30.6445ZM103.585 29.0205C105.082 27.929 106.135 26.4433 106.7 24.7206L97.1966 21.6075C97.2225 21.5285 97.2774 21.4024 97.3786 21.2619C97.4807 21.1203 97.5949 21.0125 97.6937 20.9404L103.585 29.0205ZM106.684 24.7693C107.146 23.4038 107.339 21.9908 107.339 20.5859H97.3388C97.3388 21.0821 97.2708 21.3878 97.2129 21.5589L106.684 24.7693ZM122.534 8.86719H127.534V3.86719H122.534V8.86719ZM122.534 13.1445V18.1445H127.534V13.1445H122.534ZM109.995 13.1445H104.995V18.1445H109.995V13.1445ZM109.995 8.86719V3.86719H104.995V8.86719H109.995ZM112.866 3.63281V-1.36719H107.866V3.63281H112.866ZM118.979 3.63281H123.979V-1.36719H118.979V3.63281ZM119.897 25.3906L118.04 30.033L118.122 30.0655L118.204 30.0951L119.897 25.3906ZM122.808 25.4297H127.808V19.4701L121.939 20.5058L122.808 25.4297ZM122.808 29.8438L124.353 34.5989L127.808 33.4762V29.8438H122.808ZM121.147 30.2344L120.379 25.2938L120.325 25.3021L120.272 25.3116L121.147 30.2344ZM115.815 29.7461L113.756 34.3022L113.767 34.3074L113.779 34.3126L115.815 29.7461ZM113.628 27.7148L109.231 30.0963L109.238 30.1092L109.245 30.1221L113.628 27.7148ZM117.534 8.86719V13.1445H127.534V8.86719H117.534ZM122.534 8.14453H109.995V18.1445H122.534V8.14453ZM114.995 13.1445V8.86719H104.995V13.1445H114.995ZM109.995 13.8672H122.534V3.86719H109.995V13.8672ZM112.866 8.63281H118.979V-1.36719H112.866V8.63281ZM113.979 3.63281V23.3789H123.979V3.63281H113.979ZM113.979 23.3789C113.979 24.2462 114.066 25.5374 114.649 26.8098L123.74 22.6433C123.907 23.0075 123.957 23.28 123.971 23.3681C123.986 23.4655 123.979 23.4791 123.979 23.3789H113.979ZM114.649 26.8098C115.338 28.3143 116.55 29.4368 118.04 30.033L121.754 20.7482C122.124 20.8962 122.532 21.1342 122.911 21.4919C123.291 21.8509 123.562 22.2548 123.74 22.6433L114.649 26.8098ZM118.204 30.0951C119.263 30.4764 120.307 30.5664 121.147 30.5664V20.5664C121.081 20.5664 121.087 20.5622 121.15 20.5712C121.212 20.5798 121.37 20.6067 121.591 20.6862L118.204 30.0951ZM121.147 30.5664C121.619 30.5664 122.107 30.5501 122.582 30.5025L121.587 20.5522C121.542 20.5567 121.405 20.5664 121.147 20.5664V30.5664ZM122.582 30.5025C122.948 30.466 123.314 30.4176 123.676 30.3536L121.939 20.5058C121.858 20.5199 121.743 20.5366 121.587 20.5522L122.582 30.5025ZM117.808 25.4297V29.8438H127.808V25.4297H117.808ZM121.262 25.0886C121.015 25.169 120.723 25.2403 120.379 25.2938L121.916 35.175C122.744 35.0462 123.559 34.8571 124.353 34.5989L121.262 25.0886ZM120.272 25.3116C120.017 25.357 119.675 25.3906 119.233 25.3906V35.3906C120.172 35.3906 121.106 35.3201 122.023 35.1572L120.272 25.3116ZM119.233 25.3906C118.452 25.3906 118.037 25.2622 117.852 25.1796L113.779 34.3126C115.521 35.0894 117.384 35.3906 119.233 35.3906V25.3906ZM117.875 25.19C117.869 25.1871 117.877 25.1904 117.895 25.2023C117.913 25.2144 117.935 25.2312 117.958 25.252C117.98 25.2729 117.997 25.2919 118.007 25.3055C118.018 25.3188 118.018 25.3213 118.01 25.3076L109.245 30.1221C110.268 31.984 111.807 33.4212 113.756 34.3022L117.875 25.19ZM118.024 25.3334C118.04 25.3631 117.866 25.0458 117.866 24.0625H107.866C107.866 26.074 108.2 28.1916 109.231 30.0963L118.024 25.3334ZM117.866 24.0625V3.63281H107.866V24.0625H117.866ZM124.702 14.9609L129.436 16.5705L129.438 16.5633L129.441 16.5561L124.702 14.9609ZM129.819 9.29688L131.783 13.8951L131.803 13.8865L131.823 13.8777L129.819 9.29688ZM138.452 9.29688L136.448 13.8777L136.477 13.8902L136.505 13.9024L138.452 9.29688ZM143.589 14.9609L138.85 16.5561L138.853 16.5633L138.855 16.5705L143.589 14.9609ZM143.589 23.9258L148.323 25.5353L148.325 25.5281L148.328 25.521L143.589 23.9258ZM141.636 27.3438L145.367 30.6718L145.378 30.6594L145.389 30.6469L141.636 27.3438ZM126.655 27.3438L122.902 30.6469L122.913 30.6594L122.924 30.6718L126.655 27.3438ZM124.702 23.9258L119.963 25.521L119.966 25.5281L119.968 25.5353L124.702 23.9258ZM130.347 21.9922L125.424 22.8711L125.432 22.9136L125.44 22.9559L130.347 21.9922ZM132.261 25.1953L129.64 29.4536L129.704 29.4927L129.768 29.5298L132.261 25.1953ZM136.03 25.1953L138.57 29.5021L138.611 29.4783L138.651 29.4536L136.03 25.1953ZM137.925 21.9922L133.018 21.0285L133.01 21.0708L133.003 21.1132L137.925 21.9922ZM137.925 16.9336L133.003 17.8125L133.012 17.8635L133.022 17.9142L137.925 16.9336ZM136.011 13.6914L133.39 17.9497L133.414 17.9644L133.438 17.9789L136.011 13.6914ZM130.347 16.9336L125.44 15.9699L125.434 16.0045L125.427 16.0392L130.347 16.9336ZM129.038 19.6484V19.2383H119.038V19.6484H129.038ZM129.038 19.2383C129.038 18.1677 129.19 17.2931 129.436 16.5705L119.968 13.3514C119.329 15.2329 119.038 17.2099 119.038 19.2383H129.038ZM129.441 16.5561C129.684 15.8323 130.009 15.2941 130.387 14.871L122.924 8.21489C121.582 9.71891 120.605 11.4593 119.963 13.3657L129.441 16.5561ZM130.387 14.871C130.732 14.4844 131.172 14.1561 131.783 13.8951L127.855 4.69868C125.967 5.50538 124.298 6.67446 122.924 8.21489L130.387 14.871ZM131.823 13.8777C132.336 13.6532 133.067 13.4766 134.116 13.4766V3.47656C131.936 3.47656 129.802 3.84679 127.815 4.71609L131.823 13.8777ZM134.116 13.4766C135.204 13.4766 135.944 13.6573 136.448 13.8777L140.456 4.71609C138.46 3.84266 136.31 3.47656 134.116 3.47656V13.4766ZM136.505 13.9024C137.129 14.1661 137.568 14.4942 137.904 14.871L145.367 8.21489C143.984 6.66461 142.301 5.49531 140.399 4.69138L136.505 13.9024ZM137.904 14.871C138.282 15.2941 138.606 15.8323 138.85 16.5561L148.328 13.3657C147.686 11.4593 146.709 9.71891 145.367 8.21489L137.904 14.871ZM138.855 16.5705C139.101 17.2931 139.253 18.1677 139.253 19.2383H149.253C149.253 17.2099 148.962 15.2329 148.323 13.3514L138.855 16.5705ZM139.253 19.2383V19.6484H149.253V19.2383H139.253ZM139.253 19.6484C139.253 20.7003 139.102 21.5815 138.85 22.3306L148.328 25.521C148.961 23.6398 149.253 21.6695 149.253 19.6484H139.253ZM138.855 22.3163C138.612 23.031 138.282 23.5864 137.882 24.0406L145.389 30.6469C146.708 29.1479 147.68 27.4248 148.323 25.5353L138.855 22.3163ZM137.904 24.0157C137.559 24.4023 137.119 24.7306 136.508 24.9916L140.435 34.188C142.324 33.3813 143.993 32.2123 145.367 30.6718L137.904 24.0157ZM136.508 24.9916C135.988 25.2135 135.238 25.3906 134.155 25.3906V35.3906C136.327 35.3906 138.455 35.0339 140.435 34.188L136.508 24.9916ZM134.155 25.3906C133.092 25.3906 132.333 25.2159 131.785 24.9844L127.892 34.1953C129.87 35.0315 131.989 35.3906 134.155 35.3906V25.3906ZM131.785 24.9844C131.161 24.7206 130.723 24.3925 130.387 24.0157L122.924 30.6718C124.306 32.2221 125.99 33.3914 127.892 34.1953L131.785 24.9844ZM130.409 24.0406C130.009 23.5864 129.679 23.031 129.436 22.3163L119.968 25.5353C120.611 27.4248 121.583 29.1479 122.902 30.6469L130.409 24.0406ZM129.441 22.3306C129.189 21.5815 129.038 20.7003 129.038 19.6484H119.038C119.038 21.6695 119.33 23.6398 119.963 25.521L129.441 22.3306ZM125.151 19.2383V19.6484H135.151V19.2383H125.151ZM125.151 19.6484C125.151 20.7406 125.237 21.8185 125.424 22.8711L135.269 21.1132C135.196 20.7075 135.151 20.223 135.151 19.6484H125.151ZM125.44 22.9559C125.67 24.1247 126.064 25.2924 126.689 26.3869L135.371 21.4256C135.371 21.4255 135.356 21.3989 135.334 21.3359C135.311 21.2722 135.281 21.1723 135.253 21.0285L125.44 22.9559ZM126.689 26.3869C127.393 27.6188 128.379 28.6772 129.64 29.4536L134.881 20.937C134.991 21.0047 135.097 21.0897 135.189 21.1863C135.28 21.2819 135.339 21.3681 135.371 21.4256L126.689 26.3869ZM129.768 29.5298C131.207 30.3569 132.742 30.6445 134.155 30.6445V20.6445C134.084 20.6445 134.356 20.6327 134.753 20.8608L129.768 29.5298ZM134.155 30.6445C135.562 30.6445 137.117 30.3589 138.57 29.5021L133.49 20.8885C133.927 20.6307 134.232 20.6445 134.155 20.6445V30.6445ZM138.651 29.4536C139.912 28.6772 140.898 27.6188 141.602 26.3869L132.919 21.4256C132.952 21.3681 133.011 21.2819 133.102 21.1863C133.194 21.0897 133.3 21.0047 133.41 20.937L138.651 29.4536ZM141.602 26.3869C142.243 25.2645 142.633 24.0666 142.847 22.8711L133.003 21.1132C132.956 21.3761 132.903 21.4542 132.919 21.4256L141.602 26.3869ZM142.831 22.9559C143.044 21.8737 143.14 20.7669 143.14 19.6484H133.14C133.14 20.1966 133.092 20.6523 133.018 21.0285L142.831 22.9559ZM143.14 19.6484V19.2383H133.14V19.6484H143.14ZM143.14 19.2383C143.14 18.1283 143.043 17.0287 142.828 15.953L133.022 17.9142C133.093 18.2708 133.14 18.7076 133.14 19.2383H143.14ZM142.847 16.0546C142.634 14.8622 142.248 13.6766 141.627 12.5632L132.895 17.4368C132.898 17.4432 132.955 17.5467 133.003 17.8125L142.847 16.0546ZM141.627 12.5632C140.913 11.2844 139.895 10.1913 138.583 9.40394L133.438 17.9789C133.318 17.9067 133.201 17.8141 133.098 17.7066C132.997 17.6002 132.932 17.503 132.895 17.4368L141.627 12.5632ZM138.631 9.43311C137.151 8.52196 135.553 8.22266 134.116 8.22266V18.2227C134.19 18.2227 133.855 18.2359 133.39 17.9497L138.631 9.43311ZM134.116 8.22266C132.668 8.22266 131.095 8.53781 129.64 9.43311L134.881 17.9497C134.442 18.22 134.106 18.2227 134.116 18.2227V8.22266ZM129.64 9.43311C128.35 10.2272 127.361 11.3149 126.664 12.5632L135.396 17.4368C135.367 17.4895 135.31 17.5773 135.215 17.6781C135.119 17.7802 135.005 17.8736 134.881 17.9497L129.64 9.43311ZM126.664 12.5632C126.058 13.649 125.669 14.8046 125.44 15.9699L135.253 17.8973C135.31 17.6043 135.377 17.4708 135.396 17.4368L126.664 12.5632ZM125.427 16.0392C125.237 17.0848 125.151 18.1551 125.151 19.2383H135.151C135.151 18.6808 135.196 18.2147 135.266 17.828L125.427 16.0392ZM158.335 23.0859L154.397 26.1675L154.438 26.2195L154.48 26.2703L158.335 23.0859ZM157.046 22.2656L155.172 26.9012L155.189 26.908L155.206 26.9147L157.046 22.2656ZM154.448 21.5234L155.527 16.6412L155.501 16.6355L155.475 16.63L154.448 21.5234ZM151.499 20.6641L149.642 25.3064L149.671 25.3179L149.7 25.3291L151.499 20.6641ZM149.116 19.3555L146.068 23.3186L146.092 23.3372L146.116 23.3555L149.116 19.3555ZM147.534 17.5195L143.111 19.8516L143.12 19.8684L143.129 19.8852L147.534 17.5195ZM147.534 12.5586L143.047 10.352L143.033 10.3818L143.018 10.4118L147.534 12.5586ZM149.214 10.4492L146.033 6.59152L146.016 6.60536L145.999 6.61935L149.214 10.4492ZM151.909 9.00391L150.345 4.25473L150.337 4.25759L150.328 4.26049L151.909 9.00391ZM160.366 9.35547L158.381 13.9443L158.399 13.9524L158.418 13.9603L160.366 9.35547ZM163.491 11.7773L159.395 14.6447L159.403 14.6568L159.412 14.6689L163.491 11.7773ZM164.585 15.3125V20.3125H169.585V15.3125H164.585ZM158.491 15.3125H153.491V20.3125H158.491V15.3125ZM157.222 12.9492L154.827 17.3387L154.879 17.367L154.932 17.3941L157.222 12.9492ZM154.077 12.8906L156.135 17.4475L156.167 17.4329L156.199 17.4179L154.077 12.8906ZM153.12 13.6523L149.062 10.7308L149.023 10.7853L148.985 10.8408L153.12 13.6523ZM152.983 15.6055L148.559 17.9342L148.633 18.076L148.717 18.2127L152.983 15.6055ZM153.628 16.2695L150.687 20.3132L150.79 20.3881L150.897 20.4576L153.628 16.2695ZM154.78 16.7969L153.199 21.5403L153.218 21.5467L153.238 21.553L154.78 16.7969ZM156.538 17.2461L155.522 22.1418L155.573 22.1524L155.624 22.1619L156.538 17.2461ZM160.561 18.3984L158.67 23.027L158.679 23.0305L158.688 23.034L160.561 18.3984ZM163.491 20.4492L159.655 23.6558L159.669 23.6725L159.683 23.6891L163.491 20.4492ZM163.96 26.4844L159.579 24.0748L159.563 24.103L159.548 24.1314L163.96 26.4844ZM147.358 26.6211L143.13 29.2892L143.148 29.3186L143.167 29.3478L147.358 26.6211ZM146.323 23.2617V18.2617H141.323V23.2617H146.323ZM152.046 23.2617L157.042 23.0767L156.864 18.2617H152.046V23.2617ZM152.573 24.9805L148.545 27.9424L148.573 27.9803L148.601 28.0177L152.573 24.9805ZM153.882 25.957L152.064 30.6149L152.114 30.6343L152.164 30.6526L153.882 25.957ZM158.354 25.2344L162.354 28.2344L162.384 28.1954L162.412 28.1559L158.354 25.2344ZM163.706 24.1211C163.706 22.5753 163.182 21.1026 162.19 19.9015L154.48 26.2703C154.258 26.0009 154.051 25.6605 153.907 25.2566C153.762 24.8531 153.706 24.4629 153.706 24.1211H163.706ZM162.272 20.0044C161.215 18.6538 159.788 17.9737 158.886 17.6166L155.206 26.9147C155.311 26.9564 155.274 26.9517 155.152 26.8746C155.04 26.8032 154.727 26.5881 154.397 26.1675L162.272 20.0044ZM158.92 17.6301C157.929 17.2296 156.751 16.9117 155.527 16.6412L153.37 26.4057C154.385 26.63 154.938 26.8068 155.172 26.9012L158.92 17.6301ZM155.475 16.63C154.657 16.4584 153.935 16.2445 153.298 15.9991L149.7 25.3291C150.886 25.7867 152.13 26.1458 153.421 26.4168L155.475 16.63ZM153.356 16.0217C152.789 15.7948 152.391 15.5619 152.116 15.3555L146.116 23.3555C147.195 24.1647 148.386 24.8042 149.642 25.3064L153.356 16.0217ZM152.165 15.3923C152.008 15.2714 151.959 15.1917 151.939 15.1539L143.129 19.8852C143.864 21.2536 144.871 22.3978 146.068 23.3186L152.165 15.3923ZM151.957 15.1875C151.965 15.2026 151.971 15.2167 151.975 15.2282C151.98 15.2396 151.981 15.2449 151.98 15.2421C151.979 15.2376 151.968 15.1877 151.968 15.0781H141.968C141.968 16.6987 142.309 18.3302 143.111 19.8516L151.957 15.1875ZM151.968 15.0781C151.968 14.9302 151.993 14.8242 152.05 14.7054L143.018 10.4118C142.32 11.8815 141.968 13.4552 141.968 15.0781H151.968ZM152.021 14.7652C152.082 14.6406 152.191 14.4785 152.428 14.2791L145.999 6.61935C144.779 7.64392 143.767 8.88807 143.047 10.352L152.021 14.7652ZM152.395 14.3069C152.595 14.1419 152.929 13.9343 153.49 13.7473L150.328 4.26049C148.78 4.7766 147.317 5.53262 146.033 6.59152L152.395 14.3069ZM153.473 13.7531C153.945 13.5977 154.614 13.4766 155.542 13.4766V3.47656C153.762 3.47656 152.009 3.70703 150.345 4.25473L153.473 13.7531ZM155.542 13.4766C156.894 13.4766 157.794 13.6907 158.381 13.9443L162.352 4.76662C160.23 3.8484 157.914 3.47656 155.542 3.47656V13.4766ZM158.418 13.9603C159.045 14.2257 159.284 14.4866 159.395 14.6447L167.587 8.91003C166.24 6.9848 164.395 5.63112 162.314 4.75063L158.418 13.9603ZM159.412 14.6689C159.509 14.8057 159.585 14.9617 159.585 15.3125H169.585C169.585 13.007 168.932 10.8062 167.57 8.88582L159.412 14.6689ZM164.585 10.3125H158.491V20.3125H164.585V10.3125ZM163.491 15.3125C163.491 14.129 163.263 12.8368 162.622 11.5935L153.736 16.1799C153.511 15.7439 153.491 15.4023 153.491 15.3125H163.491ZM162.622 11.5935C161.905 10.2055 160.802 9.16938 159.511 8.50435L154.932 17.3941C154.739 17.2946 154.51 17.1426 154.284 16.9214C154.056 16.6981 153.872 16.4437 153.736 16.1799L162.622 11.5935ZM159.616 8.55974C158.201 7.78786 156.72 7.59766 155.522 7.59766V17.5977C155.604 17.5977 155.574 17.6051 155.462 17.5818C155.347 17.5582 155.116 17.496 154.827 17.3387L159.616 8.55974ZM155.522 7.59766C154.379 7.59766 153.149 7.8035 151.955 8.36333L156.199 17.4179C155.838 17.5871 155.572 17.5977 155.522 17.5977V7.59766ZM152.019 8.33377C150.902 8.83807 149.861 9.62214 149.062 10.7308L157.178 16.5739C156.848 17.0315 156.444 17.3078 156.135 17.4475L152.019 8.33377ZM148.985 10.8408C148.149 12.0715 147.788 13.4487 147.788 14.7852H157.788C157.788 15.2622 157.649 15.8842 157.255 16.4639L148.985 10.8408ZM147.788 14.7852C147.788 15.8367 148.024 16.918 148.559 17.9342L157.408 13.2767C157.682 13.7981 157.788 14.3325 157.788 14.7852H147.788ZM148.717 18.2127C149.287 19.1454 150.016 19.825 150.687 20.3132L156.569 12.2259C156.667 12.2973 156.966 12.5343 157.25 12.9982L148.717 18.2127ZM150.897 20.4576C151.661 20.9562 152.467 21.2963 153.199 21.5403L156.361 12.0535C156.316 12.0385 156.282 12.026 156.258 12.0167C156.234 12.0073 156.223 12.0019 156.221 12.0013C156.22 12.0007 156.231 12.0059 156.254 12.0181C156.276 12.0303 156.312 12.0509 156.359 12.0815L150.897 20.4576ZM153.238 21.553C153.944 21.7822 154.717 21.9747 155.522 22.1418L157.554 12.3504C156.979 12.231 156.58 12.1241 156.323 12.0408L153.238 21.553ZM155.624 22.1619C156.808 22.3818 157.816 22.6778 158.67 23.027L162.453 13.7699C160.885 13.1294 159.211 12.6572 157.452 12.3303L155.624 22.1619ZM158.688 23.034C159.273 23.2707 159.532 23.5084 159.655 23.6558L167.328 17.2427C165.992 15.6453 164.298 14.5157 162.435 13.7629L158.688 23.034ZM159.683 23.6891C159.648 23.6481 159.619 23.605 159.597 23.5651C159.586 23.546 159.579 23.5301 159.574 23.5184C159.569 23.5067 159.567 23.5004 159.567 23.5004C159.567 23.5006 159.569 23.5078 159.573 23.5231C159.576 23.5385 159.581 23.5622 159.586 23.5951C159.595 23.6615 159.604 23.7633 159.604 23.9062H169.604C169.604 21.5935 168.989 19.195 167.299 17.2093L159.683 23.6891ZM159.604 23.9062C159.604 23.99 159.595 24.0306 159.593 24.0412C159.59 24.0506 159.588 24.0588 159.579 24.0748L168.341 28.894C169.198 27.3361 169.604 25.6414 169.604 23.9062H159.604ZM159.548 24.1314C159.521 24.1831 159.439 24.3168 159.175 24.5115L165.112 32.5588C166.436 31.5817 167.566 30.3481 168.372 28.8373L159.548 24.1314ZM159.175 24.5115C158.923 24.6977 158.52 24.9175 157.881 25.1055L160.703 34.6992C162.277 34.2361 163.776 33.5445 165.112 32.5588L159.175 24.5115ZM157.881 25.1055C157.316 25.2718 156.553 25.3906 155.542 25.3906V35.3906C157.317 35.3906 159.054 35.184 160.703 34.6992L157.881 25.1055ZM155.542 25.3906C154.132 25.3906 153.283 25.1361 152.786 24.8783L148.181 33.7545C150.444 34.929 152.967 35.3906 155.542 35.3906V25.3906ZM152.786 24.8783C152.015 24.4782 151.693 24.1156 151.549 23.8944L143.167 29.3478C144.43 31.2881 146.191 32.7224 148.181 33.7545L152.786 24.8783ZM151.587 23.953C151.334 23.5523 151.323 23.3456 151.323 23.2617H141.323C141.323 25.4695 142.002 27.5024 143.13 29.2892L151.587 23.953ZM146.323 28.2617H152.046V18.2617H146.323V28.2617ZM147.049 23.4468C147.102 24.8719 147.479 26.4927 148.545 27.9424L156.601 22.0185C157.016 22.5829 157.042 23.0578 157.042 23.0767L147.049 23.4468ZM148.601 28.0177C149.512 29.209 150.703 30.0836 152.064 30.6149L155.699 21.2991C155.829 21.3496 155.984 21.4298 156.145 21.5495C156.306 21.6697 156.44 21.8063 156.545 21.9432L148.601 28.0177ZM152.164 30.6526C153.332 31.08 154.525 31.25 155.679 31.25V21.25C155.591 21.25 155.546 21.2435 155.536 21.2419C155.527 21.2405 155.551 21.2437 155.6 21.2614L152.164 30.6526ZM155.679 31.25C156.76 31.25 158.011 31.1071 159.243 30.6L155.435 21.3532C155.618 21.2778 155.744 21.254 155.779 21.2481C155.815 21.2423 155.787 21.25 155.679 21.25V31.25ZM159.243 30.6C160.33 30.1521 161.47 29.4131 162.354 28.2344L154.354 22.2344C154.77 21.6806 155.233 21.4364 155.435 21.3532L159.243 30.6ZM162.412 28.1559C163.284 26.9449 163.706 25.543 163.706 24.1211H153.706C153.706 23.8547 153.744 23.5411 153.85 23.2063C153.957 22.8696 154.113 22.5679 154.297 22.3129L162.412 28.1559Z" fill="url(#paint0_linear_217_492)"/>
</g>
<defs>
<filter id="filter0_d_217_492" x="0.370056" y="0" width="168.234" height="38.3906" filterUnits="userSpaceOnUse" color-interpolation-filters="sRGB">
<feFlood flood-opacity="0" result="BackgroundImageFix"/>
<feColorMatrix in="SourceAlpha" type="matrix" values="0 0 0 0 0 0 0 0 0 0 0 0 0 0 0 0 0 0 127 0" result="hardAlpha"/>
<feOffset dy="4"/>
<feGaussianBlur stdDeviation="2"/>
<feComposite in2="hardAlpha" operator="out"/>
<feColorMatrix type="matrix" values="0 0 0 0 0 0 0 0 0 0 0 0 0 0 0 0 0 0 0.25 0"/>
<feBlend mode="normal" in2="BackgroundImageFix" result="effect1_dropShadow_217_492"/>
<feBlend mode="normal" in="SourceGraphic" in2="effect1_dropShadow_217_492" result="shape"/>
</filter>
<linearGradient id="paint0_linear_217_492" x1="84.2087" y1="2.55225e-07" x2="84.2087" y2="33" gradientUnits="userSpaceOnUse">
<stop stop-color="#0078D6"/>
<stop offset="1" stop-color="#00A4EB"/>
</linearGradient>
</defs>
</svg>
