<svg width="1244" height="305" viewBox="0 0 1244 305" fill="none" xmlns="http://www.w3.org/2000/svg">
<g filter="url(#filter0_i_238_202)">
<path d="M66.2183 189.619H29.6841V227.366H66.2183V189.619ZM66.2183 152.314V114.568H29.6841V152.314H66.2183ZM137.004 148.333L119.644 115.119L119.507 115.196L119.372 115.273L137.004 148.333ZM147.421 137.422L114.744 120.541L114.674 120.686L114.606 120.83L147.421 137.422ZM147.421 104.541L113.809 119.333L113.97 119.724L114.141 120.112L147.421 104.541ZM137.004 91.7129L116.596 123.021L116.737 123.119L116.878 123.217L137.004 91.7129ZM83.058 86.8471V49.1003H46.524V86.8471H83.058ZM83.058 264.228V301.974H119.592V264.228H83.058ZM36.5343 264.228H0V301.974H36.5343V264.228ZM36.5343 49.5427V11.7959H0V49.5427H36.5343ZM160.979 58.8319L144.43 92.4844L144.483 92.5121L144.536 92.5396L160.979 58.8319ZM188.237 84.3405L156.909 103.761L157.01 103.935L157.112 104.107L188.237 84.3405ZM188.237 157.327L157.524 136.885L157.457 136.993L157.39 137.102L188.237 157.327ZM160.979 181.214L176.238 215.511L176.297 215.483L176.356 215.454L160.979 181.214ZM118.451 151.872H66.2183V227.366H118.451V151.872ZM102.753 189.619V152.314H29.6841V189.619H102.753ZM66.2183 190.061H118.451V114.568H66.2183V190.061ZM118.451 190.061C129.742 190.061 142.691 188.193 154.635 181.393L119.372 115.273C120.765 114.48 121.607 114.324 121.439 114.361C121.366 114.377 121.092 114.43 120.582 114.479C120.072 114.528 119.369 114.568 118.451 114.568V190.061ZM154.363 181.547C165.216 175.491 174.409 166.318 180.237 154.014L114.606 120.83C115.235 119.502 116.111 118.212 117.167 117.106C118.202 116.022 119.129 115.407 119.644 115.119L154.363 181.547ZM180.099 154.303C185.205 143.752 187.381 132.556 187.381 121.498H114.312C114.312 121.923 114.272 121.964 114.326 121.714C114.383 121.448 114.51 121.026 114.744 120.541L180.099 154.303ZM187.381 121.498C187.381 110.391 185.268 99.3887 180.702 88.9701L114.141 120.112C114.141 120.113 114.312 120.415 114.312 121.498H187.381ZM181.034 89.7494C175.974 77.4751 167.74 67.4454 157.128 60.2091L116.878 123.217C116.474 122.941 115.842 122.421 115.188 121.616C114.531 120.806 114.079 119.989 113.809 119.333L181.034 89.7494ZM157.412 60.4043C144.859 51.6705 130.807 49.1003 118.451 49.1003V124.594C119.877 124.594 120.259 124.749 119.88 124.65C119.444 124.536 118.186 124.128 116.596 123.021L157.412 60.4043ZM118.451 49.1003H83.058V124.594H118.451V49.1003ZM46.524 86.8471V264.228H119.592V86.8471H46.524ZM83.058 226.481H36.5343V301.974H83.058V226.481ZM73.0685 264.228V49.5427H0V264.228H73.0685ZM36.5343 87.2895H118.451V11.7959H36.5343V87.2895ZM118.451 87.2895C130.666 87.2895 138.886 89.574 144.43 92.4844L177.527 25.1794C159.477 15.7043 139.345 11.7959 118.451 11.7959V87.2895ZM144.536 92.5396C150.844 95.824 154.507 99.6235 156.909 103.761L219.565 64.92C209.409 47.4317 194.9 34.2255 177.422 25.1243L144.536 92.5396ZM157.112 104.107C159.595 108.279 161.265 113.586 161.265 121.203H234.333C234.333 101.099 229.628 81.8307 219.361 64.574L157.112 104.107ZM161.265 121.203C161.265 128.853 159.587 133.576 157.524 136.885L218.949 177.77C229.636 160.632 234.333 141.273 234.333 121.203H161.265ZM157.39 137.102C155.296 140.511 151.924 143.943 145.602 146.974L176.356 215.454C193.82 207.083 208.619 194.59 219.084 177.553L157.39 137.102ZM145.72 146.917C139.834 149.713 131.136 151.872 118.451 151.872V227.366C138.875 227.366 158.529 223.922 176.238 215.511L145.72 146.917ZM268.441 141.846H304.975V140.424L304.872 139.007L268.441 141.846ZM268.441 264.228V301.974H304.975V264.228H268.441ZM223.915 264.228H187.381V301.974H223.915V264.228ZM223.915 104.688V66.9416H187.381V104.688H223.915ZM265.729 104.688L302.16 101.85L299.613 66.9416H265.729V104.688ZM314.537 103.509L351.066 104.157L351.518 76.9653L326.696 67.9139L314.537 103.509ZM313.824 146.416L308.404 183.745L349.636 190.136L350.352 147.065L313.824 146.416ZM306.402 145.679L302.992 183.261L303.557 183.316L304.124 183.352L306.402 145.679ZM283.711 147.448L295.022 183.341L295.261 183.26L295.5 183.176L283.711 147.448ZM273.436 153.642L248.06 126.486L247.829 126.716L247.602 126.95L273.436 153.642ZM267.442 163.963L302.016 176.16L302.06 176.03L302.101 175.899L267.442 163.963ZM265.444 177.97L249.328 211.846L301.978 238.584V177.97H265.444ZM257.024 173.694H220.49V197.201L240.908 207.57L257.024 173.694ZM268.726 122.087L299.841 141.871L299.906 141.761L299.971 141.652L268.726 122.087ZM282.712 107.048L301.979 139.119L282.712 107.048ZM231.907 141.846V264.228H304.975V141.846H231.907ZM268.441 226.481H223.915V301.974H268.441V226.481ZM260.449 264.228V104.688H187.381V264.228H260.449ZM223.915 142.435H265.729V66.9416H223.915V142.435ZM229.299 107.526L232.01 144.683L304.872 139.007L302.16 101.85L229.299 107.526ZM278.008 102.86L277.294 145.768L350.352 147.065L351.066 104.157L278.008 102.86ZM319.243 109.087C315.88 108.566 312.246 108.236 308.681 108.006L304.124 183.352C306.648 183.515 307.961 183.677 308.404 183.745L319.243 109.087ZM309.813 108.097C306.042 107.732 302.227 107.49 298.553 107.49V182.984C299.256 182.984 300.673 183.036 302.992 183.261L309.813 108.097ZM298.553 107.49C289.939 107.49 280.825 108.585 271.922 111.721L295.5 183.176C294.97 183.363 295.751 182.984 298.553 182.984V107.49ZM272.401 111.556C263.688 114.487 255.267 119.296 248.06 126.486L298.812 180.797C297.123 182.482 295.553 183.162 295.022 183.341L272.401 111.556ZM247.602 126.95C240.475 134.314 235.694 143.001 232.783 152.026L302.101 175.899C301.854 176.666 301.069 178.474 299.27 180.332L247.602 126.95ZM232.868 151.765C229.964 160.553 228.91 169.492 228.91 177.97H301.978C301.978 175.832 302.257 175.433 302.016 176.16L232.868 151.765ZM281.56 144.095L273.14 139.819L240.908 207.57L249.328 211.846L281.56 144.095ZM293.558 173.694C293.558 165.615 294.328 158.938 295.579 153.463L224.463 136.125C221.718 148.147 220.49 160.738 220.49 173.694H293.558ZM295.579 153.463C296.852 147.887 298.441 144.221 299.841 141.871L237.612 102.304C231.401 112.732 227.186 124.205 224.463 136.125L295.579 153.463ZM299.971 141.652C301.186 139.579 301.957 139.133 301.979 139.119L263.445 74.9764C252.431 82.0396 243.878 91.6195 237.482 102.523L299.971 141.652ZM301.979 139.119C301.874 139.186 301.738 139.261 301.58 139.332C301.423 139.403 301.281 139.453 301.173 139.483C301.066 139.514 301.026 139.516 301.072 139.51C301.119 139.504 301.273 139.486 301.55 139.486V63.9926C288.295 63.9926 275.233 67.4169 263.445 74.9764L301.979 139.119ZM301.55 139.486C302.309 139.486 303.186 139.535 304.19 139.659L312.896 64.7038C309.144 64.2386 305.358 63.9926 301.55 63.9926V139.486ZM304.19 139.659C304.454 139.693 304.43 139.701 304.171 139.644C303.921 139.588 303.289 139.436 302.377 139.104L326.696 67.9139C321.777 66.1201 316.974 65.2093 312.896 64.7038L304.19 139.659ZM326.382 150.692L360.972 162.843L360.989 162.789L361.007 162.735L326.382 150.692ZM363.772 107.932L378.122 142.646L378.269 142.581L378.416 142.515L363.772 107.932ZM426.851 107.932L412.207 142.515L412.417 142.609L412.628 142.701L426.851 107.932ZM464.384 150.692L429.759 162.735L429.777 162.789L429.795 162.843L464.384 150.692ZM464.384 218.371L498.974 230.522L498.992 230.468L499.009 230.414L464.384 218.371ZM450.113 244.175L477.379 269.299L477.46 269.206L477.54 269.111L450.113 244.175ZM340.653 244.175L313.227 269.111L313.307 269.206L313.388 269.299L340.653 244.175ZM326.382 218.371L291.757 230.414L291.774 230.468L291.793 230.522L326.382 218.371ZM367.626 203.774L331.66 210.409L331.716 210.73L331.776 211.049L367.626 203.774ZM381.611 227.955L362.464 260.103L362.928 260.398L363.401 260.678L381.611 227.955ZM409.155 227.955L427.714 260.469L428.01 260.289L428.302 260.103L409.155 227.955ZM422.998 203.774L387.149 196.498L387.088 196.818L387.032 197.138L422.998 203.774ZM422.998 165.585L387.032 172.22L387.099 172.605L387.173 172.988L422.998 165.585ZM409.012 141.108L389.864 173.256L390.04 173.366L390.215 173.476L409.012 141.108ZM367.626 165.585L331.776 158.309L331.727 158.57L331.681 158.832L367.626 165.585ZM358.064 186.08V182.984H284.996V186.08H358.064ZM358.064 182.984C358.064 174.901 359.176 168.299 360.972 162.843L291.793 138.541C287.118 152.745 284.996 167.67 284.996 182.984H358.064ZM361.007 162.735C362.787 157.271 365.161 153.207 367.918 150.013L313.388 99.7639C303.586 111.118 296.446 124.257 291.757 138.649L361.007 162.735ZM367.918 150.013C370.438 147.095 373.656 144.616 378.122 142.646L349.423 73.2188C335.621 79.3089 323.427 88.1347 313.388 99.7639L367.918 150.013ZM378.416 142.515C382.165 140.82 387.501 139.486 395.169 139.486V63.9926C379.243 63.9926 363.648 66.7876 349.129 73.3503L378.416 142.515ZM395.169 139.486C403.118 139.486 408.528 140.851 412.207 142.515L441.495 73.3503C426.907 66.7564 411.197 63.9926 395.169 63.9926V139.486ZM412.628 142.701C417.187 144.692 420.392 147.169 422.848 150.013L477.379 99.7639C467.275 88.0603 454.973 79.2329 441.075 73.1637L412.628 142.701ZM422.848 150.013C425.605 153.207 427.979 157.271 429.759 162.735L499.009 138.649C494.32 124.257 487.18 111.118 477.379 99.7639L422.848 150.013ZM429.795 162.843C431.59 168.299 432.702 174.901 432.702 182.984H505.771C505.771 167.67 503.648 152.745 498.974 138.541L429.795 162.843ZM432.702 182.984V186.08H505.771V182.984H432.702ZM432.702 186.08C432.702 194.021 431.602 200.673 429.759 206.329L499.009 230.414C503.636 216.212 505.771 201.338 505.771 186.08H432.702ZM429.795 206.221C428.019 211.616 425.607 215.809 422.687 219.238L477.54 269.111C487.179 257.795 494.28 244.786 498.974 230.522L429.795 206.221ZM422.848 219.05C420.328 221.968 417.11 224.447 412.644 226.417L441.343 295.844C455.145 289.754 467.34 280.929 477.379 269.299L422.848 219.05ZM412.644 226.417C408.85 228.093 403.37 229.43 395.454 229.43V304.923C411.325 304.923 426.871 302.23 441.343 295.844L412.644 226.417ZM395.454 229.43C387.689 229.43 382.142 228.111 378.139 226.363L349.691 295.899C364.147 302.212 379.625 304.923 395.454 304.923V229.43ZM378.139 226.363C373.579 224.371 370.374 221.895 367.918 219.05L313.388 269.299C323.491 281.003 335.794 289.83 349.691 295.899L378.139 226.363ZM368.08 219.238C365.16 215.809 362.747 211.616 360.972 206.221L291.793 230.522C296.487 244.786 303.588 257.795 313.227 269.111L368.08 219.238ZM361.007 206.329C359.165 200.673 358.064 194.021 358.064 186.08H284.996C284.996 201.338 287.13 216.212 291.757 230.414L361.007 206.329ZM329.664 182.984V186.08H402.733V182.984H329.664ZM329.664 186.08C329.664 194.325 330.287 202.462 331.66 210.409L403.591 197.138C403.061 194.075 402.733 190.417 402.733 186.08H329.664ZM331.776 211.049C333.454 219.873 336.33 228.688 340.9 236.951L404.342 199.496C404.341 199.496 404.23 199.295 404.065 198.819C403.899 198.338 403.682 197.584 403.475 196.498L331.776 211.049ZM340.9 236.951C346.043 246.251 353.245 254.241 362.464 260.103L400.759 195.808C401.563 196.319 402.334 196.96 403.008 197.69C403.675 198.411 404.101 199.062 404.342 199.496L340.9 236.951ZM363.401 260.678C373.91 266.922 385.132 269.093 395.454 269.093V193.6C394.932 193.6 396.924 193.51 399.823 195.232L363.401 260.678ZM395.454 269.093C405.736 269.093 417.099 266.937 427.714 260.469L390.596 195.442C393.79 193.495 396.019 193.6 395.454 193.6V269.093ZM428.302 260.103C437.521 254.241 444.723 246.251 449.866 236.951L386.425 199.496C386.665 199.062 387.092 198.411 387.758 197.69C388.432 196.96 389.204 196.319 390.008 195.808L428.302 260.103ZM449.866 236.951C454.553 228.478 457.403 219.434 458.963 210.409L387.032 197.138C386.69 199.123 386.305 199.712 386.425 199.496L449.866 236.951ZM458.847 211.049C460.4 202.879 461.102 194.524 461.102 186.08H388.033C388.033 190.218 387.689 193.658 387.149 196.498L458.847 211.049ZM461.102 186.08V182.984H388.033V186.08H461.102ZM461.102 182.984C461.102 174.604 460.395 166.303 458.823 158.182L387.173 172.988C387.694 175.68 388.033 178.977 388.033 182.984H461.102ZM458.963 158.949C457.408 149.947 454.589 140.996 450.047 132.591L386.244 169.383C386.27 169.432 386.686 170.213 387.032 172.22L458.963 158.949ZM450.047 132.591C444.832 122.937 437.398 114.685 427.809 108.741L390.215 173.476C389.336 172.931 388.482 172.232 387.732 171.42C386.989 170.617 386.514 169.883 386.244 169.383L450.047 132.591ZM428.16 108.961C417.341 102.082 405.665 99.8226 395.169 99.8226V175.316C395.71 175.316 393.262 175.416 389.864 173.256L428.16 108.961ZM395.169 99.8226C384.588 99.8226 373.095 102.202 362.464 108.961L400.759 173.256C397.55 175.296 395.094 175.316 395.169 175.316V99.8226ZM362.464 108.961C353.036 114.956 345.81 123.167 340.719 132.591L404.522 169.383C404.307 169.781 403.889 170.444 403.197 171.205C402.495 171.976 401.663 172.681 400.759 173.256L362.464 108.961ZM340.719 132.591C336.291 140.788 333.449 149.512 331.776 158.309L403.475 172.86C403.896 170.648 404.384 169.64 404.522 169.383L340.719 132.591ZM331.681 158.832C330.292 166.726 329.664 174.806 329.664 182.984H402.733C402.733 178.775 403.057 175.256 403.571 172.337L331.681 158.832ZM582.55 228.545H546.016V231.03L546.331 233.493L582.55 228.545ZM582.55 37.7468V0H546.016V37.7468H582.55ZM627.361 37.7468H663.895V0H627.361V37.7468ZM627.361 264.228V301.974H663.895V264.228H627.361ZM587.117 264.228L550.898 269.176L555.096 301.974H587.117V264.228ZM490.215 150.25L454.985 140.258L454.952 140.38L454.92 140.502L490.215 150.25ZM501.775 124.447L472.263 102.196L472.211 102.27L501.775 124.447ZM520.756 107.637L504.252 73.9613L520.756 107.637ZM569.991 107.932L551.195 140.3L551.36 140.402L551.527 140.503L569.991 107.932ZM586.974 125.036L556.389 145.681L556.543 145.927L556.702 146.169L586.974 125.036ZM598.533 150.84L563.607 161.916L563.637 162.017L598.533 150.84ZM605.241 182.836H641.775V180.267L641.438 177.722L605.241 182.836ZM605.241 188.144L641.452 193.155L641.775 190.661V188.144H605.241ZM598.533 218.961L563.838 207.136L563.785 207.302L563.733 207.47L598.533 218.961ZM586.974 244.175L556.702 223.042L556.671 223.09L556.64 223.137L586.974 244.175ZM569.848 261.131L588.313 293.703L588.381 293.661L588.449 293.619L569.848 261.131ZM520.47 261.131L503.471 294.544L503.556 294.589L503.641 294.635L520.47 261.131ZM501.775 244.175L472.073 266.153L501.775 244.175ZM490.215 218.518L454.944 228.358L454.988 228.527L455.034 228.696L490.215 218.518ZM532.173 203.921L496.118 210.017L496.17 210.346L496.227 210.673L532.173 203.921ZM545.017 227.955L524.751 259.363L525.047 259.567L525.347 259.764L545.017 227.955ZM573.987 226.628L595.16 257.39L595.377 257.23L595.592 257.068L573.987 226.628ZM587.117 193.305L623.648 193.795L623.651 193.55V193.305H587.117ZM579.696 148.186L549.966 170.126L550.164 170.412L550.368 170.695L579.696 148.186ZM570.705 140.371L554.366 174.133L554.714 174.312L555.065 174.484L570.705 140.371ZM545.445 141.108L565.114 172.917L565.414 172.72L565.71 172.516L545.445 141.108ZM537.024 150.692L504.981 132.562L504.819 132.868L504.662 133.177L537.024 150.692ZM532.315 165.289L496.443 158.137L496.395 158.395L496.35 158.654L532.315 165.289ZM619.084 228.545V37.7468H546.016V228.545H619.084ZM582.55 75.4936H627.361V0H582.55V75.4936ZM590.827 37.7468V264.228H663.895V37.7468H590.827ZM627.361 226.481H587.117V301.974H627.361V226.481ZM623.336 259.279L618.769 223.597L546.331 233.493L550.898 269.176L623.336 259.279ZM522.897 186.375V183.278H449.828V186.375H522.897ZM522.897 183.278C522.897 173.916 523.894 166.246 525.51 159.998L454.92 140.502C451.399 154.11 449.828 168.459 449.828 183.278H522.897ZM525.446 160.242C527.143 153.855 529.284 149.548 531.339 146.623L472.211 102.27C464.182 113.696 458.615 126.591 454.985 140.258L525.446 160.242ZM531.287 146.697C533.144 144.067 535.073 142.457 537.259 141.313L504.252 73.9613C491.406 80.6813 480.681 90.2772 472.263 102.196L531.287 146.697ZM537.259 141.313C538.933 140.438 541.742 139.486 546.586 139.486V63.9926C532.021 63.9926 517.61 66.9731 504.252 73.9613L537.259 141.313ZM546.586 139.486C549.928 139.486 551.028 140.197 551.195 140.3L588.788 75.5646C575.635 67.4107 561.131 63.9926 546.586 63.9926V139.486ZM551.527 140.503C552.816 141.284 554.492 142.683 556.389 145.681L617.559 104.391C610.132 92.6451 600.486 82.6413 588.456 75.3612L551.527 140.503ZM556.702 146.169C559.104 149.842 561.531 154.925 563.607 161.916L633.459 139.764C629.638 126.898 624.358 114.779 617.246 103.903L556.702 146.169ZM563.637 162.017C565.923 169.634 567.759 178.248 569.044 187.95L641.438 177.722C639.678 164.422 637.043 151.705 633.429 139.663L563.637 162.017ZM568.707 182.836V188.144H641.775V182.836H568.707ZM569.03 183.134C567.872 192.069 566.105 200.038 563.838 207.136L633.229 230.787C637.052 218.814 639.756 206.239 641.452 193.155L569.03 183.134ZM563.733 207.47C561.697 214.055 559.263 219.125 556.702 223.042L617.246 265.307C624.199 254.675 629.472 242.937 633.334 230.452L563.733 207.47ZM556.64 223.137C554.81 225.955 553.009 227.566 551.247 228.643L588.449 293.619C600.198 286.438 609.814 276.747 617.308 265.212L556.64 223.137ZM551.384 228.56C551.219 228.66 549.97 229.43 546.301 229.43V304.923C560.709 304.923 575.158 301.663 588.313 293.703L551.384 228.56ZM546.301 229.43C541.594 229.43 538.902 228.487 537.3 227.627L503.641 294.635C517.07 301.835 531.599 304.923 546.301 304.923V229.43ZM537.469 227.719C535.255 226.517 533.318 224.851 531.477 222.196L472.073 266.153C480.317 278.047 490.843 287.685 503.471 294.544L537.469 227.719ZM531.477 222.196C529.235 218.961 527.072 214.526 525.396 208.341L455.034 228.696C458.685 242.171 464.23 254.84 472.073 266.153L531.477 222.196ZM525.486 208.679C523.863 202.466 522.897 195.103 522.897 186.375H449.828C449.828 200.845 451.43 214.911 454.944 228.358L525.486 208.679ZM494.354 183.278V186.375H567.422V183.278H494.354ZM494.354 186.375C494.354 194.415 494.9 202.325 496.118 210.017L568.228 197.826C567.733 194.704 567.422 190.917 567.422 186.375H494.354ZM496.227 210.673C497.724 219.181 500.295 227.688 504.376 235.739L569.102 200.709C568.998 200.502 568.523 199.474 568.117 197.169L496.227 210.673ZM504.376 235.739C509.033 244.922 515.753 253.165 524.751 259.363L565.282 196.548C566.267 197.226 567.126 198.018 567.822 198.836C568.507 199.641 568.906 200.321 569.102 200.709L504.376 235.739ZM525.347 259.764C535.81 266.67 547.181 269.093 557.575 269.093V193.6C558.075 193.6 561.073 193.761 564.686 196.146L525.347 259.764ZM557.575 269.093C569.784 269.093 583.217 266.165 595.16 257.39L552.815 195.867C554.393 194.706 555.867 194.092 556.879 193.802C557.827 193.529 558.15 193.6 557.575 193.6V269.093ZM595.592 257.068C606.052 249.142 613.24 238.622 617.653 227.125L549.73 199.296C549.708 199.353 549.868 198.924 550.359 198.246C550.866 197.544 551.556 196.816 552.382 196.189L595.592 257.068ZM617.653 227.125C621.817 216.277 623.508 204.923 623.648 193.795L550.585 192.814C550.535 196.825 549.943 198.741 549.73 199.296L617.653 227.125ZM623.651 193.305V177.823H550.582V193.305H623.651ZM623.651 177.823C623.651 169.038 622.793 160.175 620.664 151.543L549.859 170.19C550.203 171.584 550.582 174.026 550.582 177.823H623.651ZM620.664 151.543C618.489 142.73 614.856 133.787 609.023 125.676L550.368 170.695C549.483 169.465 549.559 168.976 549.859 170.19L620.664 151.543ZM609.425 126.246C603.516 117.699 595.716 110.844 586.345 106.258L555.065 174.484C554.101 174.013 553.096 173.363 552.144 172.537C551.197 171.712 550.477 170.865 549.966 170.126L609.425 126.246ZM587.043 106.609C577.344 101.599 567.23 99.8226 557.861 99.8226V175.316C558.386 175.316 556.834 175.408 554.366 174.133L587.043 106.609ZM557.861 99.8226C547.111 99.8226 535.614 102.513 525.179 109.701L565.71 172.516C562.126 174.984 558.905 175.316 557.861 175.316V99.8226ZM525.775 109.299C516.578 115.37 509.754 123.557 504.981 132.562L569.069 168.823C568.905 169.132 568.52 169.776 567.823 170.569C567.113 171.379 566.202 172.199 565.114 172.917L525.775 109.299ZM504.662 133.177C500.595 141.199 498.019 149.7 496.443 158.137L568.187 172.442C568.705 169.673 569.269 168.442 569.388 168.207L504.662 133.177ZM496.35 158.654C494.965 166.663 494.354 174.91 494.354 183.278H567.422C567.422 178.671 567.762 174.925 568.281 171.925L496.35 158.654ZM747.665 225.743H711.133V227.187L711.24 228.628L747.665 225.743ZM747.665 104.688V66.9416H711.133V104.688H747.665ZM792.478 104.688H829.013V66.9416H792.478V104.688ZM792.478 264.228V301.974H829.013V264.228H792.478ZM750.522 264.228L714.094 267.111L716.68 301.974H750.522V264.228ZM752.378 193.157L751.531 155.421L715.843 156.279V193.157H752.378ZM764.647 192.863H801.181V154.227L763.799 155.126L764.647 192.863ZM760.942 222.5L725.782 212.234L725.732 212.418L725.684 212.601L760.942 222.5ZM750.091 246.092L720.866 223.444L720.762 223.586L720.66 223.731L750.091 246.092ZM732.255 261.721L748.593 295.483L748.681 295.438L748.769 295.392L732.255 261.721ZM686.587 263.932L674.564 299.577L674.876 299.689L675.189 299.796L686.587 263.932ZM670.317 253.464L644.219 279.878L644.351 280.017L644.484 280.155L670.317 253.464ZM659.757 235.033L625.143 247.109L625.166 247.18L625.19 247.251L659.757 235.033ZM656.046 104.688V66.9416H619.512V104.688H656.046ZM700.573 104.688H737.107V66.9416H700.573V104.688ZM702 218.814L667.341 230.75L667.576 231.481L667.84 232.2L702 218.814ZM706.138 225.891L679.616 251.851L679.956 252.221L680.304 252.582L706.138 225.891ZM712.703 230.02L701.15 265.83L701.336 265.894L701.523 265.956L712.703 230.02ZM739.964 226.334L761.373 256.917L761.432 256.875L761.483 256.833L739.964 226.334ZM749.521 212.621L714.923 200.503L714.862 200.686L714.804 200.87L749.521 212.621ZM784.2 225.743V104.688H711.133V225.743H784.2ZM747.665 142.435H792.478V66.9416H747.665V142.435ZM755.944 104.688V264.228H829.013V104.688H755.944ZM792.478 226.481H750.522V301.974H792.478V226.481ZM786.947 261.344L784.097 222.859L711.24 228.628L714.094 267.111L786.947 261.344ZM753.226 230.894L765.501 230.599L763.799 155.126L751.531 155.421L753.226 230.894ZM728.116 192.863C728.116 200.582 727.225 206.96 725.782 212.234L796.095 232.765C799.603 219.952 801.181 206.572 801.181 192.863H728.116ZM725.684 212.601C724.37 217.597 722.63 221.014 720.866 223.444L779.319 268.74C787.261 257.801 792.749 245.489 796.198 232.398L725.684 212.601ZM720.66 223.731C719.279 225.67 717.752 226.997 715.743 228.049L748.769 295.392C761.03 288.974 771.391 279.881 779.531 268.452L720.66 223.731ZM715.916 227.959C714.852 228.509 712.417 229.43 707.565 229.43V304.923C721.552 304.923 735.58 302.207 748.593 295.483L715.916 227.959ZM707.565 229.43C703.313 229.43 700.223 228.829 697.985 228.07L675.189 299.796C685.7 303.361 696.595 304.923 707.565 304.923V229.43ZM698.609 228.288C697.369 227.842 696.709 227.349 696.151 226.773L644.484 280.155C653.06 289.016 663.246 295.502 674.564 299.577L698.609 228.288ZM696.416 227.049C696.26 226.885 695.335 225.865 694.324 222.815L625.19 247.251C629.126 259.142 635.242 270.409 644.219 279.878L696.416 227.049ZM694.372 222.957C693.499 220.289 692.581 215.536 692.581 207.903H619.512C619.512 221.303 621.067 234.639 625.143 247.109L694.372 222.957ZM692.581 207.903V104.688H619.512V207.903H692.581ZM656.046 142.435H700.573V66.9416H656.046V142.435ZM664.039 104.688V208.197H737.107V104.688H664.039ZM664.039 208.197C664.039 215.135 664.815 222.924 667.341 230.75L736.661 206.877C736.99 207.893 737.092 208.565 737.114 208.755C737.144 208.947 737.107 208.785 737.107 208.197H664.039ZM667.84 232.2C670.29 238.874 674.022 245.75 679.616 251.851L732.66 199.931C734.83 202.296 735.799 204.455 736.157 205.426L667.84 232.2ZM680.304 252.582C686.36 258.838 693.528 263.204 701.15 265.83L724.257 194.21C726.742 195.066 729.532 196.68 731.972 199.2L680.304 252.582ZM701.523 265.956C708.211 268.177 714.931 269.093 721.408 269.093V193.6C721.606 193.6 722.523 193.632 723.883 194.083L701.523 265.956ZM721.408 269.093C733.801 269.093 748.506 266.535 761.373 256.917L718.548 195.75C720.509 194.284 722.123 193.738 722.725 193.575C723.261 193.43 722.938 193.6 721.408 193.6V269.093ZM761.483 256.833C772.421 248.593 780.115 237.377 784.244 224.371L714.804 200.87C714.993 200.273 715.394 199.321 716.133 198.26C716.88 197.192 717.714 196.378 718.436 195.833L761.483 256.833ZM784.127 224.739C787.502 214.43 788.913 203.763 788.913 193.157H715.843C715.843 196.903 715.346 199.211 714.923 200.503L784.127 224.739ZM899.94 104.688H936.474V66.9416H899.94V104.688ZM899.94 136.979V174.726H936.474V136.979H899.94ZM808.32 136.979H771.785V174.726H808.32V136.979ZM808.32 104.688V66.9416H771.785V104.688H808.32ZM829.298 65.1722V27.4254H792.763V65.1722H829.298ZM873.964 65.1722H910.499V27.4254H873.964V65.1722ZM880.672 229.43L867.103 264.477L867.702 264.722L868.302 264.945L880.672 229.43ZM901.942 229.725H938.476V184.734L895.593 192.552L901.942 229.725ZM901.942 263.048L913.231 298.946L938.476 290.471V263.048H901.942ZM889.806 265.997L884.194 228.699L883.799 228.761L883.412 228.833L889.806 265.997ZM850.845 262.311L835.801 296.706L835.881 296.746L835.969 296.785L850.845 262.311ZM834.865 246.976L802.737 264.955L802.788 265.052L802.839 265.149L834.865 246.976ZM863.406 104.688V136.979H936.474V104.688H863.406ZM899.94 99.2328H808.32V174.726H899.94V99.2328ZM844.854 136.979V104.688H771.785V136.979H844.854ZM808.32 142.435H899.94V66.9416H808.32V142.435ZM829.298 102.919H873.964V27.4254H829.298V102.919ZM837.43 65.1722V214.242H910.499V65.1722H837.43ZM837.43 214.242C837.43 220.79 838.066 230.538 842.326 240.144L908.752 208.689C909.972 211.439 910.338 213.496 910.44 214.161C910.55 214.896 910.499 214.999 910.499 214.242H837.43ZM842.326 240.144C847.36 251.502 856.216 259.976 867.103 264.477L894.241 194.382C896.944 195.5 899.926 197.296 902.695 199.997C905.471 202.707 907.452 205.756 908.752 208.689L842.326 240.144ZM868.302 264.945C876.039 267.824 883.668 268.503 889.806 268.503V193.01C889.323 193.01 889.367 192.978 889.828 193.046C890.281 193.111 891.435 193.314 893.05 193.914L868.302 264.945ZM889.806 268.503C893.254 268.503 896.82 268.38 900.291 268.021L893.021 192.903C892.692 192.937 891.691 193.01 889.806 193.01V268.503ZM900.291 268.021C902.965 267.746 905.64 267.38 908.285 266.897L895.593 192.552C895.001 192.659 894.16 192.785 893.021 192.903L900.291 268.021ZM865.408 229.725V263.048H938.476V229.725H865.408ZM890.646 227.15C888.841 227.757 886.707 228.295 884.194 228.699L895.425 303.295C901.475 302.323 907.43 300.896 913.231 298.946L890.646 227.15ZM883.412 228.833C881.549 229.176 879.05 229.43 875.82 229.43V304.923C882.681 304.923 889.506 304.391 896.206 303.161L883.412 228.833ZM875.82 229.43C870.114 229.43 867.081 228.46 865.729 227.837L835.969 296.785C848.697 302.649 862.31 304.923 875.82 304.923V229.43ZM865.898 227.915C865.854 227.893 865.912 227.918 866.044 228.008C866.175 228.099 866.336 228.226 866.504 228.383C866.665 228.541 866.789 228.684 866.862 228.787C866.942 228.887 866.942 228.906 866.884 228.803L802.839 265.149C810.314 279.205 821.56 290.055 835.801 296.706L865.898 227.915ZM866.986 228.998C867.103 229.222 865.832 226.827 865.832 219.403H792.763C792.763 234.589 795.204 250.575 802.737 264.955L866.986 228.998ZM865.832 219.403V65.1722H792.763V219.403H865.832ZM915.781 150.692L950.372 162.843L950.387 162.789L950.409 162.735L915.781 150.692ZM953.171 107.932L967.521 142.646L967.667 142.581L967.813 142.515L953.171 107.932ZM1016.25 107.932L1001.61 142.515L1001.82 142.609L1002.02 142.701L1016.25 107.932ZM1053.79 150.692L1019.16 162.735L1019.18 162.789L1019.2 162.843L1053.79 150.692ZM1053.79 218.371L1088.38 230.522L1088.39 230.468L1088.41 230.414L1053.79 218.371ZM1039.52 244.175L1066.78 269.299L1066.86 269.206L1066.94 269.111L1039.52 244.175ZM930.052 244.175L902.629 269.111L902.709 269.206L902.79 269.299L930.052 244.175ZM915.781 218.371L881.154 230.414L881.176 230.468L881.191 230.522L915.781 218.371ZM957.029 203.774L921.057 210.409L921.115 210.73L921.174 211.049L957.029 203.774ZM971.014 227.955L951.863 260.103L952.33 260.398L952.798 260.678L971.014 227.955ZM998.553 227.955L1017.11 260.469L1017.41 260.289L1017.7 260.103L998.553 227.955ZM1012.4 203.774L976.545 196.498L976.487 196.818L976.436 197.138L1012.4 203.774ZM1012.4 165.585L976.436 172.22L976.501 172.605L976.574 172.988L1012.4 165.585ZM998.415 141.108L979.263 173.256L979.439 173.366L979.614 173.476L998.415 141.108ZM957.029 165.585L921.174 158.309L921.13 158.57L921.079 158.832L957.029 165.585ZM947.464 186.08V182.984H874.395V186.08H947.464ZM947.464 182.984C947.464 174.901 948.575 168.299 950.372 162.843L881.191 138.541C876.522 152.745 874.395 167.67 874.395 182.984H947.464ZM950.409 162.735C952.184 157.271 954.559 153.207 957.321 150.013L902.79 99.7639C892.984 111.118 885.845 124.257 881.154 138.649L950.409 162.735ZM957.321 150.013C959.842 147.095 963.057 144.616 967.521 142.646L938.82 73.2188C925.025 79.3089 912.829 88.1347 902.79 99.7639L957.321 150.013ZM967.813 142.515C971.562 140.82 976.903 139.486 984.568 139.486V63.9926C968.639 63.9926 953.046 66.7876 938.528 73.3503L967.813 142.515ZM984.568 139.486C992.518 139.486 997.925 140.851 1001.61 142.515L1030.89 73.3503C1016.31 66.7564 1000.6 63.9926 984.568 63.9926V139.486ZM1002.02 142.701C1006.58 144.692 1009.79 147.169 1012.25 150.013L1066.78 99.7639C1056.67 88.0603 1044.37 79.2329 1030.48 73.1637L1002.02 142.701ZM1012.25 150.013C1015.01 153.207 1017.38 157.271 1019.16 162.735L1088.41 138.649C1083.72 124.257 1076.58 111.118 1066.78 99.7639L1012.25 150.013ZM1019.2 162.843C1020.99 168.299 1022.1 174.901 1022.1 182.984H1095.17C1095.17 167.67 1093.05 152.745 1088.38 138.541L1019.2 162.843ZM1022.1 182.984V186.08H1095.17V182.984H1022.1ZM1022.1 186.08C1022.1 194.021 1021 200.673 1019.16 206.329L1088.41 230.414C1093.04 216.212 1095.17 201.338 1095.17 186.08H1022.1ZM1019.2 206.221C1017.42 211.616 1015.01 215.809 1012.09 219.238L1066.94 269.111C1076.58 257.795 1083.68 244.786 1088.38 230.522L1019.2 206.221ZM1012.25 219.05C1009.73 221.968 1006.51 224.447 1002.05 226.417L1030.74 295.844C1044.54 289.754 1056.74 280.929 1066.78 269.299L1012.25 219.05ZM1002.05 226.417C998.246 228.093 992.766 229.43 984.853 229.43V304.923C1000.72 304.923 1016.27 302.23 1030.74 295.844L1002.05 226.417ZM984.853 229.43C977.086 229.43 971.54 228.111 967.536 226.363L939.09 295.899C953.543 302.212 969.026 304.923 984.853 304.923V229.43ZM967.536 226.363C962.976 224.371 959.776 221.895 957.321 219.05L902.79 269.299C912.888 281.003 925.193 289.83 939.09 295.899L967.536 226.363ZM957.482 219.238C954.559 215.809 952.148 211.616 950.372 206.221L881.191 230.522C885.889 244.786 892.991 257.795 902.629 269.111L957.482 219.238ZM950.409 206.329C948.567 200.673 947.464 194.021 947.464 186.08H874.395C874.395 201.338 876.529 216.212 881.154 230.414L950.409 206.329ZM919.062 182.984V186.08H992.131V182.984H919.062ZM919.062 186.08C919.062 194.325 919.691 202.462 921.057 210.409L992.993 197.138C992.459 194.075 992.131 190.417 992.131 186.08H919.062ZM921.174 211.049C922.854 219.873 925.733 228.688 930.3 236.951L993.738 199.496C993.738 199.496 993.629 199.295 993.468 198.819C993.3 198.338 993.081 197.584 992.876 196.498L921.174 211.049ZM930.3 236.951C935.444 246.251 942.649 254.241 951.863 260.103L990.158 195.808C990.962 196.319 991.736 196.96 992.408 197.69C993.073 198.411 993.504 199.062 993.738 199.496L930.3 236.951ZM952.798 260.678C963.312 266.922 974.528 269.093 984.853 269.093V193.6C984.334 193.6 986.322 193.51 989.223 195.232L952.798 260.678ZM984.853 269.093C995.134 269.093 1006.5 266.937 1017.11 260.469L979.994 195.442C983.187 193.495 985.416 193.6 984.853 193.6V269.093ZM1017.7 260.103C1026.92 254.241 1034.12 246.251 1039.27 236.951L975.822 199.496C976.063 199.062 976.494 198.411 977.159 197.69C977.831 196.96 978.606 196.319 979.409 195.808L1017.7 260.103ZM1039.27 236.951C1043.95 228.478 1046.8 219.434 1048.36 210.409L976.436 197.138C976.092 199.123 975.705 199.712 975.822 199.496L1039.27 236.951ZM1048.25 211.049C1049.8 202.879 1050.51 194.524 1050.51 186.08H977.437C977.437 190.218 977.086 193.658 976.545 196.498L1048.25 211.049ZM1050.51 186.08V182.984H977.437V186.08H1050.51ZM1050.51 182.984C1050.51 174.604 1049.8 166.303 1048.23 158.182L976.574 172.988C977.093 175.68 977.437 178.977 977.437 182.984H1050.51ZM1048.36 158.949C1046.81 149.947 1043.99 140.996 1039.45 132.591L975.646 169.383C975.668 169.432 976.085 170.213 976.436 172.22L1048.36 158.949ZM1039.45 132.591C1034.23 122.937 1026.79 114.685 1017.21 108.741L979.614 173.476C978.737 172.931 977.882 172.232 977.13 171.42C976.392 170.617 975.917 169.883 975.646 169.383L1039.45 132.591ZM1017.56 108.961C1006.74 102.082 995.068 99.8226 984.568 99.8226V175.316C985.109 175.316 982.661 175.416 979.263 173.256L1017.56 108.961ZM984.568 99.8226C973.988 99.8226 962.494 102.202 951.863 108.961L990.158 173.256C986.95 175.296 984.495 175.316 984.568 175.316V99.8226ZM951.863 108.961C942.437 114.956 935.21 123.167 930.117 132.591L993.921 169.383C993.709 169.781 993.292 170.444 992.598 171.205C991.897 171.976 991.064 172.681 990.158 173.256L951.863 108.961ZM930.117 132.591C925.689 140.788 922.847 149.512 921.174 158.309L992.876 172.86C993.292 170.648 993.782 169.64 993.921 169.383L930.117 132.591ZM921.079 158.832C919.691 166.726 919.062 174.806 919.062 182.984H992.131C992.131 178.775 992.46 175.256 992.971 172.337L921.079 158.832ZM1161.53 212.031L1132.76 235.295L1133.06 235.687L1133.36 236.071L1161.53 212.031ZM1152.11 205.838L1138.42 240.834L1138.55 240.885L1138.67 240.936L1152.11 205.838ZM1133.13 200.235L1141.01 163.377L1140.83 163.334L1140.64 163.293L1133.13 200.235ZM1111.58 193.747L1098.01 228.794L1098.23 228.881L1098.44 228.965L1111.58 193.747ZM1094.17 183.868L1071.9 213.787L1072.07 213.928L1072.25 214.066L1094.17 183.868ZM1082.61 170.008L1050.29 187.614L1050.36 187.74L1050.42 187.867L1082.61 170.008ZM1082.61 132.556L1049.83 115.898L1049.72 116.123L1049.61 116.349L1082.61 132.556ZM1094.89 116.632L1071.64 87.5085L1071.52 87.613L1071.4 87.7186L1094.89 116.632ZM1114.58 105.721L1103.15 69.8673L1103.09 69.8889L1103.03 69.9108L1114.58 105.721ZM1176.37 108.375L1161.87 143.017L1162 143.078L1162.14 143.138L1176.37 108.375ZM1199.21 126.658L1169.28 148.305L1169.34 148.396L1169.4 148.488L1199.21 126.658ZM1207.2 153.346V191.093H1243.73V153.346H1207.2ZM1162.67 153.346H1126.14V191.093H1162.67V153.346ZM1153.4 135.505L1135.9 168.643L1136.28 168.857L1136.67 169.061L1153.4 135.505ZM1130.42 135.063L1145.46 169.464L1145.69 169.354L1145.93 169.241L1130.42 135.063ZM1123.43 140.813L1093.78 118.757L1093.49 119.169L1093.21 119.588L1123.43 140.813ZM1122.43 155.558L1090.1 173.139L1090.64 174.209L1091.26 175.241L1122.43 155.558ZM1127.14 160.571L1105.65 191.098L1106.4 191.664L1107.18 192.189L1127.14 160.571ZM1135.56 164.553L1124 200.362L1124.14 200.411L1124.29 200.458L1135.56 164.553ZM1148.4 167.944L1140.98 204.903L1141.35 204.983L1141.72 205.055L1148.4 167.944ZM1177.8 176.643L1163.98 211.586L1164.05 211.612L1164.11 211.639L1177.8 176.643ZM1199.21 192.125L1171.18 216.333L1171.28 216.459L1171.38 216.584L1199.21 192.125ZM1202.63 237.687L1170.62 219.496L1170.51 219.709L1170.4 219.923L1202.63 237.687ZM1081.33 238.719L1050.43 258.861L1050.56 259.083L1050.7 259.304L1081.33 238.719ZM1073.76 213.358V175.611H1037.23V213.358H1073.76ZM1115.58 213.358L1152.08 211.961L1150.78 175.611H1115.58V213.358ZM1119.43 226.334L1090 248.694L1090.2 248.98L1090.41 249.262L1119.43 226.334ZM1129 233.705L1115.71 268.87L1116.08 269.016L1116.44 269.154L1129 233.705ZM1161.67 228.25L1190.9 250.898L1191.12 250.604L1191.32 250.306L1161.67 228.25ZM1200.78 219.846C1200.78 208.176 1196.95 197.058 1189.7 187.99L1133.36 236.071C1131.74 234.037 1130.23 231.467 1129.18 228.418C1128.12 225.372 1127.71 222.426 1127.71 219.846H1200.78ZM1190.3 188.767C1182.58 178.571 1172.15 173.437 1165.56 170.741L1138.67 240.936C1139.44 241.25 1139.17 241.215 1138.27 240.633C1137.46 240.094 1135.17 238.47 1132.76 235.295L1190.3 188.767ZM1165.81 170.843C1158.57 167.819 1149.96 165.419 1141.01 163.377L1125.25 237.093C1132.67 238.786 1136.71 240.121 1138.42 240.834L1165.81 170.843ZM1140.64 163.293C1134.66 161.997 1129.38 160.382 1124.73 158.53L1098.44 228.965C1107.1 232.42 1116.19 235.131 1125.63 237.177L1140.64 163.293ZM1125.15 158.7C1121.01 156.987 1118.1 155.229 1116.09 153.671L1072.25 214.066C1080.13 220.175 1088.84 225.003 1098.01 228.794L1125.15 158.7ZM1116.45 153.949C1115.3 153.036 1114.94 152.434 1114.8 152.149L1050.42 187.867C1055.8 198.198 1063.15 206.836 1071.9 213.787L1116.45 153.949ZM1114.93 152.403C1114.99 152.517 1115.03 152.623 1115.06 152.71C1115.1 152.796 1115.1 152.836 1115.1 152.815C1115.09 152.781 1115.01 152.404 1115.01 151.577H1041.94C1041.94 163.811 1044.43 176.128 1050.29 187.614L1114.93 152.403ZM1115.01 151.577C1115.01 150.46 1115.19 149.66 1115.61 148.763L1049.61 116.349C1044.51 127.444 1041.94 139.325 1041.94 151.577H1115.01ZM1115.4 149.215C1115.84 148.274 1116.64 147.05 1118.37 145.545L1071.4 87.7186C1062.48 95.4535 1055.09 104.846 1049.83 115.898L1115.4 149.215ZM1118.13 145.755C1119.59 144.509 1122.03 142.942 1126.13 141.53L1103.03 69.9108C1091.72 73.8071 1081.03 79.5145 1071.64 87.5085L1118.13 145.755ZM1126.01 141.574C1129.46 140.401 1134.34 139.486 1141.12 139.486V63.9926C1128.12 63.9926 1115.31 65.7325 1103.15 69.8673L1126.01 141.574ZM1141.12 139.486C1151 139.486 1157.58 141.103 1161.87 143.017L1190.88 73.7317C1175.38 66.7997 1158.46 63.9926 1141.12 63.9926V139.486ZM1162.14 143.138C1166.72 145.142 1168.47 147.111 1169.28 148.305L1229.14 105.012C1219.29 90.4776 1205.81 80.2581 1190.61 73.611L1162.14 143.138ZM1169.4 148.488C1170.11 149.52 1170.67 150.698 1170.67 153.346H1243.73C1243.73 135.941 1238.96 119.327 1229.01 104.829L1169.4 148.488ZM1207.2 115.6H1162.67V191.093H1207.2V115.6ZM1199.21 153.346C1199.21 144.412 1197.54 134.656 1192.86 125.27L1127.93 159.895C1126.28 156.603 1126.14 154.024 1126.14 153.346H1199.21ZM1192.86 125.27C1187.62 114.792 1179.56 106.97 1170.13 101.949L1136.67 169.061C1135.26 168.31 1133.58 167.162 1131.93 165.493C1130.27 163.807 1128.92 161.886 1127.93 159.895L1192.86 125.27ZM1170.89 102.367C1160.55 96.5401 1149.73 95.1042 1140.98 95.1042V170.598C1141.58 170.598 1141.36 170.654 1140.54 170.478C1139.7 170.3 1138.01 169.83 1135.9 168.643L1170.89 102.367ZM1140.98 95.1042C1132.63 95.1042 1123.64 96.6582 1114.91 100.885L1145.93 169.241C1143.29 170.518 1141.34 170.598 1140.98 170.598V95.1042ZM1115.38 100.661C1107.22 104.469 1099.61 110.388 1093.78 118.757L1153.08 162.869C1150.67 166.324 1147.72 168.41 1145.46 169.464L1115.38 100.661ZM1093.21 119.588C1087.11 128.879 1084.47 139.276 1084.47 149.366H1157.54C1157.54 152.967 1156.52 157.662 1153.64 162.039L1093.21 119.588ZM1084.47 149.366C1084.47 157.304 1086.19 165.467 1090.1 173.139L1154.76 137.977C1156.76 141.914 1157.54 145.948 1157.54 149.366H1084.47ZM1091.26 175.241C1095.42 182.282 1100.75 187.413 1105.65 191.098L1148.63 130.044C1149.34 130.584 1151.53 132.373 1153.6 135.875L1091.26 175.241ZM1107.18 192.189C1112.77 195.953 1118.66 198.52 1124 200.362L1147.11 128.743C1146.78 128.63 1146.53 128.535 1146.36 128.465C1146.18 128.394 1146.1 128.353 1146.09 128.349C1146.08 128.344 1146.16 128.384 1146.33 128.476C1146.49 128.568 1146.75 128.723 1147.09 128.954L1107.18 192.189ZM1124.29 200.458C1129.45 202.188 1135.1 203.642 1140.98 204.903L1155.83 130.984C1151.62 130.083 1148.71 129.276 1146.83 128.647L1124.29 200.458ZM1141.72 205.055C1150.38 206.715 1157.74 208.95 1163.98 211.586L1191.62 141.701C1180.17 136.865 1167.93 133.301 1155.08 130.833L1141.72 205.055ZM1164.11 211.639C1168.39 213.426 1170.28 215.22 1171.18 216.333L1227.24 167.918C1217.48 155.859 1205.1 147.331 1191.49 141.648L1164.11 211.639ZM1171.38 216.584C1171.13 216.275 1170.91 215.949 1170.75 215.648C1170.67 215.504 1170.62 215.384 1170.59 215.296C1170.55 215.207 1170.53 215.16 1170.53 215.16C1170.53 215.161 1170.55 215.216 1170.58 215.331C1170.6 215.447 1170.64 215.626 1170.67 215.875C1170.74 216.376 1170.81 217.144 1170.81 218.223H1243.87C1243.87 200.764 1239.38 182.657 1227.03 167.666L1171.38 216.584ZM1170.81 218.223C1170.81 218.856 1170.74 219.162 1170.72 219.242C1170.7 219.313 1170.69 219.375 1170.62 219.496L1234.64 255.878C1240.91 244.117 1243.87 231.323 1243.87 218.223H1170.81ZM1170.4 219.923C1170.2 220.314 1169.6 221.323 1167.67 222.793L1211.05 283.545C1220.73 276.168 1228.98 266.855 1234.87 255.45L1170.4 219.923ZM1167.67 222.793C1165.83 224.199 1162.88 225.858 1158.22 227.277L1178.84 299.703C1190.34 296.207 1201.29 290.986 1211.05 283.545L1167.67 222.793ZM1158.22 227.277C1154.09 228.533 1148.51 229.43 1141.12 229.43V304.923C1154.09 304.923 1166.79 303.363 1178.84 299.703L1158.22 227.277ZM1141.12 229.43C1130.82 229.43 1124.62 227.508 1120.99 225.562L1087.34 292.572C1103.87 301.438 1122.31 304.923 1141.12 304.923V229.43ZM1120.99 225.562C1115.35 222.541 1113 219.804 1111.95 218.134L1050.7 259.304C1059.93 273.952 1072.8 284.78 1087.34 292.572L1120.99 225.562ZM1112.23 218.577C1110.38 215.552 1110.3 213.991 1110.3 213.358H1037.23C1037.23 230.025 1042.19 245.372 1050.43 258.861L1112.23 218.577ZM1073.76 251.104H1115.58V175.611H1073.76V251.104ZM1079.07 214.755C1079.45 225.514 1082.21 237.75 1090 248.694L1148.86 203.972C1151.89 208.233 1152.08 211.818 1152.08 211.961L1079.07 214.755ZM1090.41 249.262C1097.06 258.256 1105.77 264.859 1115.71 268.87L1142.27 198.541C1143.22 198.923 1144.35 199.528 1145.53 200.432C1146.71 201.339 1147.69 202.37 1148.45 203.404L1090.41 249.262ZM1116.44 269.154C1124.98 272.381 1133.69 273.664 1142.13 273.664V198.171C1141.48 198.171 1141.15 198.122 1141.08 198.109C1141.01 198.099 1141.19 198.123 1141.55 198.257L1116.44 269.154ZM1142.13 273.664C1150.02 273.664 1159.17 272.585 1168.17 268.757L1140.34 198.95C1141.68 198.381 1142.6 198.201 1142.86 198.156C1143.12 198.113 1142.91 198.171 1142.13 198.171V273.664ZM1168.17 268.757C1176.11 265.376 1184.44 259.797 1190.9 250.898L1132.44 205.602C1135.48 201.421 1138.87 199.578 1140.34 198.95L1168.17 268.757ZM1191.32 250.306C1197.69 241.163 1200.78 230.58 1200.78 219.846H1127.71C1127.71 217.834 1127.99 215.467 1128.76 212.939C1129.54 210.398 1130.68 208.12 1132.03 206.195L1191.32 250.306Z" fill="url(#paint0_linear_238_202)"/>
<path d="M118.451 189.619H66.2183V152.314H118.451C126.157 152.314 132.341 150.987 137.004 148.333C141.76 145.679 145.233 142.042 147.421 137.422C149.704 132.703 150.847 127.395 150.847 121.498C150.847 115.403 149.704 109.751 147.421 104.541C145.233 99.2328 141.76 94.9568 137.004 91.713C132.341 88.4691 126.157 86.8472 118.451 86.8472H83.058V264.228H36.5342V49.5427H118.451C135.005 49.5427 149.181 52.6391 160.979 58.832C172.872 65.0248 181.958 73.5276 188.237 84.3406C194.612 95.0551 197.799 107.342 197.799 121.203C197.799 135.063 194.612 147.105 188.237 157.327C181.958 167.55 172.872 175.513 160.979 181.214C149.181 186.817 135.005 189.619 118.451 189.619ZM268.441 141.846V264.228H223.915V104.688H265.729L268.441 141.846ZM314.537 103.509L313.824 146.416C311.921 146.122 309.447 145.876 306.402 145.679C303.358 145.384 300.741 145.237 298.553 145.237C292.845 145.237 287.897 145.974 283.711 147.448C279.62 148.824 276.195 150.889 273.436 153.642C270.772 156.393 268.774 159.834 267.442 163.963C266.11 167.993 265.444 172.662 265.444 177.97L257.024 173.694C257.024 163.176 258.023 153.543 260.021 144.794C262.019 136.046 264.921 128.477 268.726 122.087C272.532 115.6 277.194 110.586 282.712 107.048C288.231 103.509 294.509 101.739 301.55 101.739C303.834 101.739 306.165 101.887 308.543 102.182C310.921 102.477 312.92 102.919 314.537 103.509ZM321.53 186.08V182.984C321.53 171.286 323.147 160.522 326.382 150.692C329.617 140.764 334.374 132.163 340.653 124.889C346.932 117.615 354.639 111.963 363.772 107.932C372.906 103.804 383.372 101.739 395.169 101.739C407.157 101.739 417.717 103.804 426.851 107.932C436.08 111.963 443.834 117.615 450.113 124.889C456.393 132.163 461.149 140.764 464.384 150.692C467.62 160.522 469.237 171.286 469.237 182.984V186.08C469.237 197.679 467.62 208.443 464.384 218.371C461.149 228.201 456.393 236.802 450.113 244.175C443.834 251.449 436.128 257.101 426.994 261.131C417.861 265.161 407.348 267.176 395.454 267.176C383.657 267.176 373.144 265.161 363.915 261.131C354.686 257.101 346.932 251.449 340.653 244.175C334.374 236.802 329.617 228.201 326.382 218.371C323.147 208.443 321.53 197.679 321.53 186.08ZM366.198 182.984V186.08C366.198 192.371 366.674 198.269 367.626 203.774C368.672 209.279 370.337 214.095 372.62 218.223C374.904 222.352 377.901 225.596 381.611 227.955C385.418 230.216 390.032 231.346 395.454 231.346C400.877 231.346 405.444 230.216 409.155 227.955C412.866 225.596 415.862 222.352 418.146 218.223C420.429 214.095 422.047 209.279 422.998 203.774C424.044 198.269 424.568 192.371 424.568 186.08V182.984C424.568 176.791 424.044 170.991 422.998 165.585C422.047 160.08 420.429 155.214 418.146 150.987C415.862 146.76 412.818 143.467 409.012 141.108C405.302 138.749 400.687 137.57 395.169 137.57C389.841 137.57 385.322 138.749 381.611 141.108C377.901 143.467 374.904 146.76 372.62 150.987C370.337 155.214 368.672 160.08 367.626 165.585C366.674 170.991 366.198 176.791 366.198 182.984ZM582.55 228.545V37.7468H627.361V264.228H587.117L582.55 228.545ZM486.362 186.375V183.278C486.362 171.188 487.646 160.178 490.215 150.25C492.879 140.223 496.732 131.622 501.775 124.447C506.913 117.172 513.239 111.569 520.756 107.637C528.272 103.705 536.882 101.739 546.586 101.739C555.53 101.739 563.331 103.804 569.991 107.932C576.651 111.963 582.312 117.664 586.974 125.036C591.731 132.31 595.584 140.912 598.533 150.84C601.483 160.67 603.719 171.335 605.241 182.836V188.144C603.814 199.154 601.578 209.426 598.533 218.961C595.584 228.496 591.731 236.9 586.974 244.175C582.312 251.351 576.603 257.003 569.848 261.131C563.189 265.161 555.34 267.176 546.301 267.176C536.597 267.176 527.987 265.161 520.47 261.131C513.049 257.101 506.817 251.449 501.775 244.175C496.732 236.9 492.879 228.348 490.215 218.518C487.646 208.688 486.362 197.974 486.362 186.375ZM530.888 183.278V186.375C530.888 192.666 531.316 198.515 532.173 203.921C533.124 209.328 534.646 214.095 536.739 218.223C538.832 222.352 541.591 225.596 545.017 227.955C548.441 230.216 552.628 231.346 557.575 231.346C564.235 231.346 569.706 229.774 573.987 226.628C578.269 223.384 581.503 218.912 583.692 213.211C585.879 207.509 587.022 200.874 587.117 193.305V177.823C587.117 171.532 586.498 165.88 585.261 160.866C584.024 155.853 582.169 151.626 579.696 148.186C577.317 144.745 574.32 142.14 570.705 140.371C567.089 138.504 562.808 137.57 557.861 137.57C553.008 137.57 548.869 138.749 545.445 141.108C542.019 143.369 539.213 146.564 537.024 150.692C534.932 154.821 533.361 159.686 532.315 165.289C531.364 170.794 530.888 176.791 530.888 183.278ZM747.665 225.743V104.688H792.478V264.228H750.522L747.665 225.743ZM752.378 193.157L764.647 192.863C764.647 203.577 763.412 213.456 760.942 222.5C758.56 231.543 754.943 239.407 750.091 246.092C745.335 252.776 739.387 257.986 732.255 261.721C725.214 265.358 716.985 267.176 707.565 267.176C699.954 267.176 692.961 266.095 686.587 263.932C680.307 261.672 674.884 258.182 670.317 253.464C665.751 248.647 662.231 242.504 659.757 235.033C657.283 227.464 656.046 218.42 656.046 207.903V104.688H700.573V208.197C700.573 212.326 701.048 215.865 702 218.814C703.046 221.664 704.426 224.023 706.138 225.891C707.946 227.759 710.135 229.135 712.703 230.02C715.367 230.904 718.269 231.346 721.408 231.346C729.306 231.346 735.492 229.676 739.964 226.334C744.531 222.893 747.717 218.322 749.521 212.621C751.428 206.821 752.378 200.334 752.378 193.157ZM899.94 104.688V136.979H808.32V104.688H899.94ZM829.298 65.1722H873.964V214.243C873.964 218.666 874.49 222.058 875.535 224.417C876.587 226.776 878.297 228.447 880.672 229.43C883.054 230.314 886.101 230.757 889.806 230.757C892.473 230.757 894.752 230.659 896.659 230.462C898.559 230.265 900.32 230.02 901.942 229.725V263.048C898.135 264.326 894.087 265.309 889.806 265.997C885.524 266.783 880.862 267.176 875.82 267.176C866.212 267.176 857.889 265.555 850.845 262.311C843.904 259.067 838.577 253.955 834.865 246.976C831.153 239.898 829.298 230.708 829.298 219.403V65.1722ZM910.93 186.08V182.984C910.93 171.286 912.544 160.522 915.781 150.692C919.018 140.764 923.775 132.163 930.052 124.889C936.336 117.615 944.037 111.963 953.171 107.932C962.304 103.804 972.775 101.739 984.568 101.739C996.559 101.739 1007.12 103.804 1016.25 107.932C1025.48 111.963 1033.23 117.615 1039.52 124.889C1045.79 132.163 1050.55 140.764 1053.79 150.692C1057.02 160.522 1058.64 171.286 1058.64 182.984V186.08C1058.64 197.679 1057.02 208.443 1053.79 218.371C1050.55 228.201 1045.79 236.802 1039.52 244.175C1033.23 251.449 1025.53 257.101 1016.4 261.131C1007.26 265.161 996.749 267.176 984.853 267.176C973.06 267.176 962.545 265.161 953.317 261.131C944.088 257.101 936.336 251.449 930.052 244.175C923.775 236.802 919.018 228.201 915.781 218.371C912.544 208.443 910.93 197.679 910.93 186.08ZM955.596 182.984V186.08C955.596 192.371 956.071 198.269 957.029 203.774C958.073 209.279 959.739 214.095 962.019 218.223C964.306 222.352 967.302 225.596 971.014 227.955C974.821 230.216 979.431 231.346 984.853 231.346C990.275 231.346 994.841 230.216 998.553 227.955C1002.27 225.596 1005.26 222.352 1007.55 218.223C1009.83 214.095 1011.45 209.279 1012.4 203.774C1013.44 198.269 1013.97 192.371 1013.97 186.08V182.984C1013.97 176.791 1013.44 170.991 1012.4 165.585C1011.45 160.08 1009.83 155.214 1007.55 150.987C1005.26 146.76 1002.22 143.467 998.415 141.108C994.703 138.749 990.085 137.57 984.568 137.57C979.241 137.57 974.718 138.749 971.014 141.108C967.302 143.467 964.306 146.76 962.019 150.987C959.739 155.214 958.073 160.08 957.029 165.585C956.071 170.991 955.596 176.791 955.596 182.984ZM1164.24 219.846C1164.24 216.897 1163.34 214.292 1161.53 212.031C1159.82 209.77 1156.68 207.706 1152.11 205.838C1147.64 203.97 1141.31 202.102 1133.13 200.235C1125.42 198.564 1118.24 196.401 1111.58 193.748C1104.93 190.995 1099.12 187.702 1094.17 183.868C1089.22 179.936 1085.37 175.317 1082.61 170.008C1079.86 164.602 1078.48 158.458 1078.48 151.577C1078.48 144.893 1079.86 138.553 1082.61 132.556C1085.47 126.56 1089.56 121.252 1094.89 116.632C1100.31 112.012 1106.87 108.375 1114.58 105.721C1122.38 103.066 1131.23 101.739 1141.12 101.739C1154.73 101.739 1166.48 103.951 1176.37 108.375C1186.27 112.7 1193.88 118.794 1199.21 126.658C1204.53 134.424 1207.2 143.32 1207.2 153.346H1162.67C1162.67 149.218 1161.91 145.63 1160.39 142.582C1158.87 139.536 1156.53 137.176 1153.4 135.505C1150.26 133.735 1146.12 132.851 1140.98 132.851C1136.99 132.851 1133.47 133.588 1130.42 135.063C1127.47 136.439 1125.14 138.356 1123.43 140.813C1121.81 143.271 1121 146.122 1121 149.366C1121 151.626 1121.48 153.691 1122.43 155.558C1123.48 157.327 1125.04 158.999 1127.14 160.571C1129.32 162.045 1132.13 163.373 1135.56 164.553C1139.08 165.732 1143.36 166.863 1148.4 167.944C1159.15 170.008 1168.96 172.908 1177.8 176.643C1186.74 180.378 1193.88 185.539 1199.21 192.125C1204.63 198.711 1207.34 207.411 1207.34 218.223C1207.34 225.302 1205.78 231.789 1202.63 237.687C1199.59 243.585 1195.17 248.745 1189.36 253.169C1183.56 257.592 1176.61 261.033 1168.53 263.49C1160.44 265.948 1151.3 267.176 1141.12 267.176C1126.57 267.176 1114.25 264.474 1104.16 259.067C1094.08 253.661 1086.46 246.878 1081.33 238.719C1076.28 230.462 1073.76 222.009 1073.76 213.358H1115.58C1115.77 218.666 1117.06 222.991 1119.43 226.334C1121.91 229.676 1125.09 232.133 1129 233.706C1132.9 235.18 1137.27 235.917 1142.13 235.917C1146.98 235.917 1151.02 235.23 1154.26 233.853C1157.49 232.477 1159.96 230.61 1161.67 228.25C1163.39 225.793 1164.24 222.991 1164.24 219.846Z" fill="white"/>
</g>
<defs>
<filter id="filter0_i_238_202" x="0" y="0" width="1243.87" height="308.923" filterUnits="userSpaceOnUse" color-interpolation-filters="sRGB">
<feFlood flood-opacity="0" result="BackgroundImageFix"/>
<feBlend mode="normal" in="SourceGraphic" in2="BackgroundImageFix" result="shape"/>
<feColorMatrix in="SourceAlpha" type="matrix" values="0 0 0 0 0 0 0 0 0 0 0 0 0 0 0 0 0 0 127 0" result="hardAlpha"/>
<feOffset dy="4"/>
<feGaussianBlur stdDeviation="2"/>
<feComposite in2="hardAlpha" operator="arithmetic" k2="-1" k3="1"/>
<feColorMatrix type="matrix" values="0 0 0 0 0 0 0 0 0 0 0 0 0 0 0 0 0 0 0.25 0"/>
<feBlend mode="normal" in2="shape" result="effect1_innerShadow_238_202"/>
</filter>
<linearGradient id="paint0_linear_238_202" x1="619.903" y1="37.7468" x2="619.903" y2="286.876" gradientUnits="userSpaceOnUse">
<stop stop-color="#0078D6"/>
<stop offset="1" stop-color="#00A4EB"/>
</linearGradient>
</defs>
</svg>
