<svg width="87" height="22" viewBox="0 0 87 22" fill="none" xmlns="http://www.w3.org/2000/svg">
<path d="M3.72168 7.61133V21.4688H0.62793V5.37695H3.49609L3.72168 7.61133ZM11.0801 11.0596V11.2852C11.0801 12.1302 10.9798 12.9144 10.7793 13.6377C10.5859 14.361 10.2995 14.9912 9.91992 15.5283C9.54036 16.0583 9.06771 16.4736 8.50195 16.7744C7.94336 17.068 7.29883 17.2148 6.56836 17.2148C5.85938 17.2148 5.24349 17.0716 4.7207 16.7852C4.19792 16.4987 3.75749 16.0977 3.39941 15.582C3.0485 15.0592 2.76562 14.4541 2.55078 13.7666C2.33594 13.0791 2.17122 12.3415 2.05664 11.5537V10.9629C2.17122 10.1178 2.33594 9.3444 2.55078 8.64258C2.76562 7.93359 3.0485 7.32129 3.39941 6.80566C3.75749 6.28288 4.19434 5.87826 4.70996 5.5918C5.23275 5.30534 5.84505 5.16211 6.54688 5.16211C7.28451 5.16211 7.93262 5.30176 8.49121 5.58105C9.05697 5.86035 9.52962 6.26139 9.90918 6.78418C10.2959 7.30697 10.5859 7.93001 10.7793 8.65332C10.9798 9.37663 11.0801 10.1787 11.0801 11.0596ZM7.97559 11.2852V11.0596C7.97559 10.5654 7.93262 10.1107 7.84668 9.69531C7.7679 9.27279 7.639 8.90397 7.45996 8.58887C7.28809 8.27376 7.05892 8.03027 6.77246 7.8584C6.49316 7.67936 6.15299 7.58984 5.75195 7.58984C5.32943 7.58984 4.96777 7.65788 4.66699 7.79395C4.37337 7.93001 4.13346 8.12695 3.94727 8.38477C3.76107 8.64258 3.62142 8.95052 3.52832 9.30859C3.43522 9.66667 3.37793 10.0713 3.35645 10.5225V12.0156C3.39225 12.5456 3.49251 13.0218 3.65723 13.4443C3.82194 13.8597 4.07617 14.1891 4.41992 14.4326C4.76367 14.6761 5.21484 14.7979 5.77344 14.7979C6.18164 14.7979 6.52539 14.7083 6.80469 14.5293C7.08398 14.3431 7.30957 14.0889 7.48145 13.7666C7.66048 13.4443 7.78581 13.0719 7.85742 12.6494C7.9362 12.2269 7.97559 11.7721 7.97559 11.2852ZM16.0967 7.91211V17H13.0029V5.37695H15.9141L16.0967 7.91211ZM19.5986 5.30176L19.5449 8.16992C19.3945 8.14844 19.2119 8.13053 18.9971 8.11621C18.7894 8.09473 18.5996 8.08398 18.4277 8.08398C17.9909 8.08398 17.6113 8.14128 17.2891 8.25586C16.974 8.36328 16.709 8.52441 16.4941 8.73926C16.2865 8.9541 16.1289 9.21549 16.0215 9.52344C15.9212 9.83138 15.8639 10.1823 15.8496 10.5762L15.2266 10.3828C15.2266 9.63086 15.3018 8.93978 15.4521 8.30957C15.6025 7.6722 15.821 7.11719 16.1074 6.64453C16.401 6.17188 16.7591 5.80664 17.1816 5.54883C17.6042 5.29102 18.0876 5.16211 18.6318 5.16211C18.8037 5.16211 18.9792 5.17643 19.1582 5.20508C19.3372 5.22656 19.484 5.25879 19.5986 5.30176ZM20.2432 11.3066V11.0811C20.2432 10.2288 20.3649 9.44466 20.6084 8.72852C20.8519 8.00521 21.2064 7.37858 21.6719 6.84863C22.1374 6.31868 22.7103 5.9069 23.3906 5.61328C24.071 5.3125 24.8516 5.16211 25.7324 5.16211C26.6133 5.16211 27.3975 5.3125 28.085 5.61328C28.7725 5.9069 29.349 6.31868 29.8145 6.84863C30.2871 7.37858 30.6452 8.00521 30.8887 8.72852C31.1322 9.44466 31.2539 10.2288 31.2539 11.0811V11.3066C31.2539 12.1517 31.1322 12.9359 30.8887 13.6592C30.6452 14.3753 30.2871 15.002 29.8145 15.5391C29.349 16.069 28.776 16.4808 28.0957 16.7744C27.4154 17.068 26.6348 17.2148 25.7539 17.2148C24.873 17.2148 24.0889 17.068 23.4014 16.7744C22.721 16.4808 22.1445 16.069 21.6719 15.5391C21.2064 15.002 20.8519 14.3753 20.6084 13.6592C20.3649 12.9359 20.2432 12.1517 20.2432 11.3066ZM23.3369 11.0811V11.3066C23.3369 11.7936 23.3799 12.2484 23.4658 12.6709C23.5518 13.0934 23.6878 13.4658 23.874 13.7881C24.0674 14.1032 24.318 14.3503 24.626 14.5293C24.9339 14.7083 25.3099 14.7979 25.7539 14.7979C26.1836 14.7979 26.5524 14.7083 26.8604 14.5293C27.1683 14.3503 27.4154 14.1032 27.6016 13.7881C27.7878 13.4658 27.9238 13.0934 28.0098 12.6709C28.1029 12.2484 28.1494 11.7936 28.1494 11.3066V11.0811C28.1494 10.6084 28.1029 10.1644 28.0098 9.74902C27.9238 9.3265 27.7842 8.9541 27.5908 8.63184C27.4046 8.30241 27.1576 8.0446 26.8496 7.8584C26.5417 7.6722 26.1693 7.5791 25.7324 7.5791C25.2956 7.5791 24.9232 7.6722 24.6152 7.8584C24.3145 8.0446 24.0674 8.30241 23.874 8.63184C23.6878 8.9541 23.5518 9.3265 23.4658 9.74902C23.3799 10.1644 23.3369 10.6084 23.3369 11.0811ZM40.0195 14.4648V0.5H43.1348V17H40.3311L40.0195 14.4648ZM32.6719 11.3281V11.1025C32.6719 10.2145 32.7721 9.40885 32.9727 8.68555C33.1732 7.95508 33.4668 7.32845 33.8535 6.80566C34.2402 6.28288 34.7165 5.87826 35.2822 5.5918C35.848 5.30534 36.4925 5.16211 37.2158 5.16211C37.8962 5.16211 38.4906 5.30534 38.999 5.5918C39.5146 5.87826 39.9515 6.28646 40.3096 6.81641C40.6748 7.33919 40.9684 7.95866 41.1904 8.6748C41.4124 9.38379 41.5736 10.1608 41.6738 11.0059V11.5C41.5736 12.3092 41.4124 13.0612 41.1904 13.7559C40.9684 14.4505 40.6748 15.0592 40.3096 15.582C39.9515 16.0977 39.5146 16.4987 38.999 16.7852C38.4834 17.0716 37.8818 17.2148 37.1943 17.2148C36.471 17.2148 35.8265 17.068 35.2607 16.7744C34.7021 16.4808 34.2295 16.069 33.8428 15.5391C33.4632 15.0091 33.1732 14.3861 32.9727 13.6699C32.7721 12.9538 32.6719 12.1732 32.6719 11.3281ZM35.7656 11.1025V11.3281C35.7656 11.8079 35.8014 12.2555 35.873 12.6709C35.9518 13.0863 36.0771 13.4551 36.249 13.7773C36.4281 14.0924 36.6572 14.3395 36.9365 14.5186C37.223 14.6904 37.5703 14.7764 37.9785 14.7764C38.5085 14.7764 38.9453 14.6582 39.2891 14.4219C39.6328 14.1784 39.8942 13.8454 40.0732 13.4229C40.2594 13.0003 40.3669 12.5133 40.3955 11.9619V10.5547C40.374 10.1035 40.3096 9.69889 40.2021 9.34082C40.1019 8.97559 39.9515 8.66406 39.751 8.40625C39.5576 8.14844 39.3141 7.94792 39.0205 7.80469C38.734 7.66146 38.3939 7.58984 38 7.58984C37.599 7.58984 37.2552 7.68294 36.9688 7.86914C36.6823 8.04818 36.4495 8.29525 36.2705 8.61035C36.0986 8.92546 35.9697 9.29785 35.8838 9.72754C35.805 10.1501 35.7656 10.6084 35.7656 11.1025ZM52.4268 14.2178V5.37695H55.5205V17H52.6094L52.4268 14.2178ZM52.7705 11.833L53.6836 11.8115C53.6836 12.585 53.5941 13.3047 53.415 13.9707C53.236 14.6296 52.9674 15.2025 52.6094 15.6895C52.2513 16.1693 51.8001 16.5452 51.2559 16.8174C50.7116 17.0824 50.0706 17.2148 49.333 17.2148C48.7673 17.2148 48.2445 17.1361 47.7646 16.9785C47.292 16.8138 46.8838 16.5596 46.54 16.2158C46.2035 15.8649 45.9385 15.4173 45.7451 14.873C45.5589 14.3216 45.4658 13.6592 45.4658 12.8857V5.37695H48.5596V12.9072C48.5596 13.251 48.599 13.541 48.6777 13.7773C48.7637 14.0137 48.8818 14.207 49.0322 14.3574C49.1826 14.5078 49.3581 14.6152 49.5586 14.6797C49.7663 14.7441 49.9954 14.7764 50.2461 14.7764C50.8835 14.7764 51.3848 14.6475 51.75 14.3896C52.1224 14.1318 52.3838 13.7809 52.5342 13.3369C52.6917 12.8857 52.7705 12.3844 52.7705 11.833ZM63.5771 5.37695V7.56836H56.8096V5.37695H63.5771ZM58.4854 2.50879H61.5791V13.498C61.5791 13.8346 61.6221 14.0924 61.708 14.2715C61.8011 14.4505 61.9372 14.5758 62.1162 14.6475C62.2952 14.7119 62.5208 14.7441 62.793 14.7441C62.9863 14.7441 63.1582 14.737 63.3086 14.7227C63.4661 14.7012 63.5986 14.6797 63.7061 14.6582L63.7168 16.9355C63.4518 17.0215 63.1654 17.0895 62.8574 17.1396C62.5495 17.1898 62.2093 17.2148 61.8369 17.2148C61.1566 17.2148 60.5622 17.1038 60.0537 16.8818C59.5524 16.6527 59.1657 16.2874 58.8936 15.7861C58.6214 15.2848 58.4854 14.626 58.4854 13.8096V2.50879ZM64.5654 11.3066V11.0811C64.5654 10.2288 64.6872 9.44466 64.9307 8.72852C65.1742 8.00521 65.5286 7.37858 65.9941 6.84863C66.4596 6.31868 67.0326 5.9069 67.7129 5.61328C68.3932 5.3125 69.1738 5.16211 70.0547 5.16211C70.9355 5.16211 71.7197 5.3125 72.4072 5.61328C73.0947 5.9069 73.6712 6.31868 74.1367 6.84863C74.6094 7.37858 74.9674 8.00521 75.2109 8.72852C75.4544 9.44466 75.5762 10.2288 75.5762 11.0811V11.3066C75.5762 12.1517 75.4544 12.9359 75.2109 13.6592C74.9674 14.3753 74.6094 15.002 74.1367 15.5391C73.6712 16.069 73.0983 16.4808 72.418 16.7744C71.7376 17.068 70.957 17.2148 70.0762 17.2148C69.1953 17.2148 68.4111 17.068 67.7236 16.7744C67.0433 16.4808 66.4668 16.069 65.9941 15.5391C65.5286 15.002 65.1742 14.3753 64.9307 13.6592C64.6872 12.9359 64.5654 12.1517 64.5654 11.3066ZM67.6592 11.0811V11.3066C67.6592 11.7936 67.7021 12.2484 67.7881 12.6709C67.874 13.0934 68.0101 13.4658 68.1963 13.7881C68.3896 14.1032 68.6403 14.3503 68.9482 14.5293C69.2562 14.7083 69.6322 14.7979 70.0762 14.7979C70.5059 14.7979 70.8747 14.7083 71.1826 14.5293C71.4906 14.3503 71.7376 14.1032 71.9238 13.7881C72.11 13.4658 72.2461 13.0934 72.332 12.6709C72.4251 12.2484 72.4717 11.7936 72.4717 11.3066V11.0811C72.4717 10.6084 72.4251 10.1644 72.332 9.74902C72.2461 9.3265 72.1064 8.9541 71.9131 8.63184C71.7269 8.30241 71.4798 8.0446 71.1719 7.8584C70.8639 7.6722 70.4915 7.5791 70.0547 7.5791C69.6178 7.5791 69.2454 7.6722 68.9375 7.8584C68.6367 8.0446 68.3896 8.30241 68.1963 8.63184C68.0101 8.9541 67.874 9.3265 67.7881 9.74902C67.7021 10.1644 67.6592 10.6084 67.6592 11.0811ZM83.7617 13.7881C83.7617 13.5661 83.6973 13.3656 83.5684 13.1865C83.4395 13.0075 83.1995 12.8428 82.8486 12.6924C82.5049 12.5348 82.0072 12.3916 81.3555 12.2627C80.7682 12.1338 80.2204 11.9727 79.7119 11.7793C79.2106 11.5788 78.7738 11.3389 78.4014 11.0596C78.0361 10.7803 77.7497 10.4508 77.542 10.0713C77.3343 9.68457 77.2305 9.24414 77.2305 8.75C77.2305 8.26302 77.3343 7.80469 77.542 7.375C77.7568 6.94531 78.0612 6.56576 78.4551 6.23633C78.8561 5.89974 79.3431 5.63835 79.916 5.45215C80.4961 5.25879 81.1478 5.16211 81.8711 5.16211C82.8809 5.16211 83.7474 5.32324 84.4707 5.64551C85.2012 5.96777 85.7598 6.41178 86.1465 6.97754C86.5404 7.53613 86.7373 8.1735 86.7373 8.88965H83.6436C83.6436 8.58887 83.5791 8.32031 83.4502 8.08398C83.3285 7.84049 83.1351 7.65072 82.8701 7.51465C82.6123 7.37142 82.2757 7.2998 81.8604 7.2998C81.5166 7.2998 81.2194 7.36068 80.9688 7.48242C80.7181 7.59701 80.5247 7.75456 80.3887 7.95508C80.2598 8.14844 80.1953 8.36328 80.1953 8.59961C80.1953 8.77865 80.2311 8.93978 80.3027 9.08301C80.3815 9.21908 80.5068 9.3444 80.6787 9.45898C80.8506 9.57357 81.0726 9.68099 81.3447 9.78125C81.624 9.87435 81.9678 9.96029 82.376 10.0391C83.2139 10.2109 83.9622 10.4365 84.6211 10.7158C85.2799 10.988 85.8027 11.3604 86.1895 11.833C86.5762 12.2985 86.7695 12.9108 86.7695 13.6699C86.7695 14.1855 86.6549 14.6582 86.4258 15.0879C86.1966 15.5176 85.8672 15.8936 85.4375 16.2158C85.0078 16.5309 84.4922 16.778 83.8906 16.957C83.2962 17.1289 82.6266 17.2148 81.8818 17.2148C80.8005 17.2148 79.8838 17.0215 79.1318 16.6348C78.387 16.248 77.8213 15.7575 77.4346 15.1631C77.055 14.5615 76.8652 13.9456 76.8652 13.3154H79.7979C79.8122 13.738 79.9196 14.0781 80.1201 14.3359C80.3278 14.5938 80.5892 14.7799 80.9043 14.8945C81.2266 15.0091 81.5739 15.0664 81.9463 15.0664C82.3473 15.0664 82.6803 15.0127 82.9453 14.9053C83.2103 14.7907 83.4108 14.6403 83.5469 14.4541C83.6901 14.2607 83.7617 14.0387 83.7617 13.7881Z" fill="white"/>
<path d="M3.72168 7.61133H7.72168V7.40992L7.70145 7.20952L3.72168 7.61133ZM3.72168 21.4688V25.4688H7.72168V21.4688H3.72168ZM0.62793 21.4688H-3.37207V25.4688H0.62793V21.4688ZM0.62793 5.37695V1.37695H-3.37207V5.37695H0.62793ZM3.49609 5.37695L7.47586 4.97515L7.11258 1.37695H3.49609V5.37695ZM10.7793 13.6377L6.92468 12.5691L6.91975 12.5869L6.91499 12.6047L10.7793 13.6377ZM9.91992 15.5283L13.1719 17.8574L13.1793 17.8471L13.1866 17.8368L9.91992 15.5283ZM8.50195 16.7744L10.3631 20.3151L10.3714 20.3107L10.3797 20.3063L8.50195 16.7744ZM3.39941 15.582L0.0782288 17.8113L0.0958745 17.8376L0.113934 17.8636L3.39941 15.582ZM2.05664 11.5537H-1.94336V11.8431L-1.90171 12.1295L2.05664 11.5537ZM2.05664 10.9629L-1.90709 10.4254L-1.94336 10.6929V10.9629H2.05664ZM2.55078 8.64258L6.3756 9.81344L6.37888 9.80261L2.55078 8.64258ZM3.39941 6.80566L0.0992796 4.5453L0.0925625 4.55517L3.39941 6.80566ZM4.70996 5.5918L2.78782 2.08389L2.77759 2.0895L2.76739 2.09517L4.70996 5.5918ZM8.49121 5.58105L6.70236 9.15876L6.71144 9.1633L6.72054 9.1678L8.49121 5.58105ZM9.90918 6.78418L6.67232 9.13423L6.68279 9.14865L6.69339 9.16298L9.90918 6.78418ZM10.7793 8.65332L6.91499 9.68635L6.91975 9.70416L6.92468 9.72193L10.7793 8.65332ZM7.84668 9.69531L3.91444 10.4284L3.92166 10.4672L3.92964 10.5057L7.84668 9.69531ZM7.45996 8.58887L3.94838 10.5043L3.96499 10.5347L3.98213 10.5649L7.45996 8.58887ZM6.77246 7.8584L4.6138 11.2259L4.66367 11.2579L4.71448 11.2884L6.77246 7.8584ZM4.66699 7.79395L3.01832 4.14951L3.0017 4.15703L2.98515 4.1647L4.66699 7.79395ZM3.35645 10.5225L-0.639027 10.3322L-0.643555 10.4273V10.5225H3.35645ZM3.35645 12.0156H-0.643555V12.1506L-0.634455 12.2853L3.35645 12.0156ZM3.65723 13.4443L-0.0696054 14.8972L-0.0653768 14.908L-0.0610851 14.9188L3.65723 13.4443ZM4.41992 14.4326L2.10785 17.6967L4.41992 14.4326ZM6.80469 14.5293L8.96335 17.8968L8.9936 17.8774L9.02349 17.8575L6.80469 14.5293ZM7.48145 13.7666L3.98482 11.824L3.96817 11.854L3.95203 11.8842L7.48145 13.7666ZM7.85742 12.6494L3.92518 11.9163L3.91916 11.9486L3.91367 11.981L7.85742 12.6494ZM-0.27832 7.61133V21.4688H7.72168V7.61133H-0.27832ZM3.72168 17.4688H0.62793V25.4688H3.72168V17.4688ZM4.62793 21.4688V5.37695H-3.37207V21.4688H4.62793ZM0.62793 9.37695H3.49609V1.37695H0.62793V9.37695ZM-0.483674 5.77876L-0.258088 8.01313L7.70145 7.20952L7.47586 4.97515L-0.483674 5.77876ZM7.08008 11.0596V11.2852H15.0801V11.0596H7.08008ZM7.08008 11.2852C7.08008 11.8137 7.01748 12.2343 6.92468 12.5691L14.6339 14.7063C14.9422 13.5945 15.0801 12.4467 15.0801 11.2852H7.08008ZM6.91499 12.6047C6.82712 12.9334 6.72471 13.1188 6.65326 13.2199L13.1866 17.8368C13.8742 16.8637 14.3448 15.7886 14.6436 14.6707L6.91499 12.6047ZM6.66796 13.1992C6.65803 13.2131 6.65086 13.2215 6.64686 13.226C6.6429 13.2303 6.64077 13.2322 6.6403 13.2326C6.63985 13.233 6.63928 13.2335 6.63788 13.2345C6.63645 13.2355 6.63228 13.2383 6.62424 13.2425L10.3797 20.3063C11.4998 19.7108 12.4396 18.8799 13.1719 17.8574L6.66796 13.1992ZM6.64084 13.2338C6.66061 13.2234 6.67813 13.2159 6.69185 13.2109C6.70545 13.2059 6.71251 13.2043 6.71125 13.2046C6.70907 13.2051 6.66553 13.2148 6.56836 13.2148V21.2148C7.84467 21.2148 9.14609 20.9548 10.3631 20.3151L6.64084 13.2338ZM6.56836 13.2148C6.48265 13.2148 6.45832 13.2062 6.48076 13.2114C6.49204 13.214 6.51337 13.2198 6.54248 13.2307C6.57176 13.2418 6.60589 13.257 6.64284 13.2773L2.79856 20.2931C4.01281 20.9584 5.31462 21.2148 6.56836 21.2148V13.2148ZM6.64284 13.2773C6.64987 13.2811 6.65852 13.2864 6.66786 13.2931C6.67721 13.2997 6.68519 13.3063 6.69137 13.3119C6.69753 13.3175 6.70019 13.3207 6.69955 13.3199C6.69885 13.3191 6.69373 13.3132 6.68489 13.3004L0.113934 17.8636C0.806091 18.8603 1.70363 19.6931 2.79856 20.2931L6.64284 13.2773ZM6.7206 13.3527C6.61256 13.1918 6.48489 12.9453 6.3687 12.5735L-1.26714 14.9597C-0.953643 15.9629 -0.515558 16.9267 0.0782288 17.8113L6.7206 13.3527ZM6.3687 12.5735C6.22307 12.1075 6.10228 11.5781 6.01499 10.978L-1.90171 12.1295C-1.75983 13.1049 -1.5512 14.0507 -1.26714 14.9597L6.3687 12.5735ZM6.05664 11.5537V10.9629H-1.94336V11.5537H6.05664ZM6.02037 11.5003C6.1104 10.8363 6.23329 10.2782 6.37558 9.81344L-1.27402 7.47172C-1.56142 8.41056 -1.76796 9.39934 -1.90709 10.4254L6.02037 11.5003ZM6.37888 9.80261C6.49761 9.41078 6.62144 9.1808 6.70627 9.05616L0.0925625 4.55517C-0.524434 5.46178 -0.966364 6.4564 -1.27732 7.48255L6.37888 9.80261ZM6.69953 9.06602C6.721 9.03468 6.72729 9.03213 6.71372 9.04471C6.70746 9.0505 6.6985 9.05809 6.68708 9.06637C6.67565 9.07467 6.66386 9.08213 6.65253 9.08843L2.76739 2.09517C1.6698 2.70494 0.781293 3.54959 0.0992943 4.54531L6.69953 9.06602ZM6.6321 9.0997C6.59684 9.11902 6.56383 9.13381 6.53496 9.14474C6.50624 9.15561 6.48466 9.16151 6.47236 9.16439C6.44767 9.17017 6.46777 9.16211 6.54688 9.16211V1.16211C5.29261 1.16211 3.99636 1.42168 2.78782 2.08389L6.6321 9.0997ZM6.54688 9.16211C6.66371 9.16211 6.72543 9.17318 6.74364 9.1771C6.75969 9.18056 6.74117 9.17817 6.70236 9.15876L10.2801 2.00335C9.07398 1.4003 7.79363 1.16211 6.54688 1.16211V9.16211ZM6.72054 9.1678C6.71914 9.16711 6.71385 9.16436 6.70597 9.1592C6.69805 9.15401 6.68983 9.1479 6.68211 9.14135C6.67441 9.13481 6.66932 9.12964 6.66697 9.12709C6.66467 9.1246 6.66664 9.12641 6.67232 9.13423L13.146 4.43413C12.3948 3.39936 11.4237 2.56789 10.2619 1.99431L6.72054 9.1678ZM6.69339 9.16298C6.73969 9.22557 6.83197 9.37578 6.91499 9.68635L14.6436 7.62029C14.3399 6.48425 13.8521 5.38836 13.125 4.40538L6.69339 9.16298ZM6.92468 9.72193C7.01373 10.0431 7.08008 10.479 7.08008 11.0596H15.0801C15.0801 9.87838 14.9459 8.71012 14.6339 7.58471L6.92468 9.72193ZM11.9756 11.2852V11.0596H3.97559V11.2852H11.9756ZM11.9756 11.0596C11.9756 10.3366 11.913 9.60626 11.7637 8.88489L3.92964 10.5057C3.95226 10.6151 3.97559 10.7943 3.97559 11.0596H11.9756ZM11.7789 8.96218C11.6335 8.18207 11.3727 7.37836 10.9378 6.61283L3.98213 10.5649C3.90525 10.4296 3.90233 10.3635 3.91444 10.4284L11.7789 8.96218ZM10.9715 6.67346C10.4849 5.78128 9.77305 4.99399 8.83044 4.42843L4.71448 11.2884C4.34479 11.0666 4.09127 10.7662 3.94838 10.5043L10.9715 6.67346ZM8.93113 4.49088C7.88414 3.81974 6.75706 3.58984 5.75195 3.58984V11.5898C5.54893 11.5898 5.10219 11.539 4.6138 11.2259L8.93113 4.49088ZM5.75195 3.58984C4.91411 3.58984 3.96064 3.72323 3.01832 4.14951L6.31566 11.4384C6.14451 11.5158 6.00059 11.5536 5.90332 11.5719C5.80763 11.5899 5.75316 11.5898 5.75195 11.5898V3.58984ZM2.98515 4.1647C2.08097 4.58371 1.29945 5.21909 0.704549 6.0428L7.18998 10.7267C6.96747 11.0348 6.66577 11.2763 6.34884 11.4232L2.98515 4.1647ZM0.704549 6.0428C0.184467 6.76292 -0.145085 7.54096 -0.34297 8.30206L7.39961 10.3151C7.38792 10.3601 7.33767 10.5222 7.18998 10.7267L0.704549 6.0428ZM-0.34297 8.30206C-0.518738 8.97809 -0.607179 9.66339 -0.639027 10.3322L7.35192 10.7127C7.36304 10.4792 7.38918 10.3552 7.39961 10.3151L-0.34297 8.30206ZM-0.643555 10.5225V12.0156H7.35645V10.5225H-0.643555ZM-0.634455 12.2853C-0.575819 13.1531 -0.404702 14.0376 -0.0696054 14.8972L7.38406 11.9915C7.38973 12.006 7.36032 11.9381 7.34735 11.746L-0.634455 12.2853ZM-0.0610851 14.9188C0.370994 16.0084 1.09284 16.9777 2.10785 17.6967L6.73199 11.1685C6.88006 11.2734 7.01962 11.4056 7.13809 11.5591C7.25542 11.7111 7.3303 11.8558 7.37554 11.9698L-0.0610851 14.9188ZM2.10785 17.6967C3.31681 18.5531 4.65348 18.7979 5.77344 18.7979V10.7979C5.77621 10.7979 6.21053 10.7992 6.73199 11.1685L2.10785 17.6967ZM5.77344 18.7979C6.77004 18.7979 7.90556 18.5749 8.96335 17.8968L4.64602 11.1618C5.14522 10.8418 5.59324 10.7979 5.77344 10.7979V18.7979ZM9.02349 17.8575C9.89984 17.2733 10.5562 16.5014 11.0109 15.649L3.95203 11.8842C4.06293 11.6763 4.26813 11.4129 4.58589 11.2011L9.02349 17.8575ZM10.9781 15.7092C11.4098 14.932 11.6659 14.1161 11.8012 13.3178L3.91367 11.981C3.90574 12.0277 3.91115 11.9566 3.98482 11.824L10.9781 15.7092ZM11.7897 13.3825C11.919 12.6888 11.9756 11.9862 11.9756 11.2852H3.97559C3.97559 11.558 3.9534 11.7649 3.92518 11.9163L11.7897 13.3825ZM16.0967 7.91211H20.0967V7.76823L20.0863 7.62472L16.0967 7.91211ZM16.0967 17V21H20.0967V17H16.0967ZM13.0029 17H9.00293V21H13.0029V17ZM13.0029 5.37695V1.37695H9.00293V5.37695H13.0029ZM15.9141 5.37695L19.9037 5.08956L19.6363 1.37695H15.9141V5.37695ZM19.5986 5.30176L23.5979 5.37665L23.6509 2.54935L21.0031 1.55644L19.5986 5.30176ZM19.5449 8.16992L18.9792 12.1297L23.4595 12.7698L23.5442 8.24482L19.5449 8.16992ZM18.9971 8.11621L18.5855 12.095L18.6581 12.1025L18.731 12.1074L18.9971 8.11621ZM17.2891 8.25586L18.5798 12.0419L18.6045 12.0335L18.6291 12.0247L17.2891 8.25586ZM16.4941 8.73926L13.6657 5.91083L13.6417 5.9348L13.6182 5.95917L16.4941 8.73926ZM16.0215 9.52344L12.2447 8.20595L12.2309 8.24538L12.218 8.28509L16.0215 9.52344ZM15.8496 10.5762L14.664 14.3964L19.657 15.946L19.847 10.7215L15.8496 10.5762ZM15.2266 10.3828H11.2266V13.3296L14.041 14.2031L15.2266 10.3828ZM15.4521 8.30957L19.3429 9.23805L19.3452 9.22817L15.4521 8.30957ZM16.1074 6.64453L12.7097 4.5338L12.698 4.5525L12.6866 4.57132L16.1074 6.64453ZM17.1816 5.54883L15.0982 2.13427L17.1816 5.54883ZM19.1582 5.20508L18.5262 9.15484L18.6037 9.16724L18.6816 9.17659L19.1582 5.20508ZM12.0967 7.91211V17H20.0967V7.91211H12.0967ZM16.0967 13H13.0029V21H16.0967V13ZM17.0029 17V5.37695H9.00293V17H17.0029ZM13.0029 9.37695H15.9141V1.37695H13.0029V9.37695ZM11.9244 5.66434L12.107 8.1995L20.0863 7.62472L19.9037 5.08956L11.9244 5.66434ZM15.5993 5.22686L15.5456 8.09503L23.5442 8.24482L23.5979 5.37665L15.5993 5.22686ZM20.1106 4.21012C19.8294 4.16995 19.5406 4.14357 19.2631 4.12507L18.731 12.1074C18.8832 12.1175 18.9597 12.1269 18.9792 12.1297L20.1106 4.21012ZM19.4087 4.13744C19.0921 4.1047 18.7625 4.08398 18.4277 4.08398V12.084C18.4367 12.084 18.4867 12.0848 18.5855 12.095L19.4087 4.13744ZM18.4277 4.08398C17.6548 4.08398 16.802 4.18371 15.949 4.487L18.6291 12.0247C18.5219 12.0628 18.4455 12.0772 18.4124 12.0821C18.3798 12.0871 18.3824 12.084 18.4277 12.084V4.08398ZM15.9984 4.46982C15.1605 4.75547 14.3533 5.22322 13.6657 5.91083L19.3226 11.5677C19.0646 11.8256 18.7874 11.9711 18.5798 12.0419L15.9984 4.46982ZM13.6182 5.95917C12.9722 6.62747 12.5253 7.40164 12.2447 8.20595L19.7983 10.8409C19.7326 11.0294 19.6008 11.2807 19.3701 11.5193L13.6182 5.95917ZM12.218 8.28509C11.9809 9.01338 11.8773 9.74279 11.8523 10.4308L19.847 10.7215C19.8487 10.6741 19.8521 10.6558 19.8511 10.6621C19.85 10.6687 19.8438 10.704 19.825 10.7618L12.218 8.28509ZM17.0352 6.75592L16.4122 6.56256L14.041 14.2031L14.664 14.3964L17.0352 6.75592ZM19.2266 10.3828C19.2266 9.89485 19.2756 9.52011 19.3429 9.23804L11.5614 7.3811C11.3279 8.35945 11.2266 9.36687 11.2266 10.3828H19.2266ZM19.3452 9.22817C19.4168 8.92483 19.4944 8.77352 19.5282 8.71774L12.6866 4.57132C12.1475 5.46085 11.7883 6.41957 11.5591 7.39098L19.3452 9.22817ZM19.5052 8.75526C19.5107 8.74634 19.4957 8.77229 19.4525 8.8164C19.408 8.86177 19.3451 8.91457 19.2651 8.96339L15.0982 2.13427C14.0785 2.75648 13.292 3.59638 12.7097 4.5338L19.5052 8.75526ZM19.2651 8.96339C19.1453 9.03649 19.0167 9.0904 18.8917 9.12373C18.7691 9.15642 18.6774 9.16211 18.6318 9.16211V1.16211C17.4281 1.16211 16.2097 1.45603 15.0982 2.13427L19.2651 8.96339ZM18.6318 9.16211C18.5808 9.16211 18.5448 9.15781 18.5262 9.15484L19.7902 1.25532C19.4135 1.19505 19.0266 1.16211 18.6318 1.16211V9.16211ZM18.6816 9.17659C18.6675 9.17489 18.6193 9.16866 18.545 9.15234C18.4726 9.13647 18.3498 9.10546 18.1941 9.04707L21.0031 1.55644C20.4847 1.36204 19.9966 1.27698 19.6348 1.23357L18.6816 9.17659ZM20.6084 8.72852L24.3955 10.0161L24.3994 10.0047L20.6084 8.72852ZM21.6719 6.84863L18.6666 4.20887L21.6719 6.84863ZM23.3906 5.61328L24.9756 9.28585L24.9919 9.27885L25.008 9.2717L23.3906 5.61328ZM28.085 5.61328L26.4817 9.27791L26.4978 9.28495L26.5139 9.29184L28.085 5.61328ZM29.8145 6.84863L26.8092 9.4884L26.8192 9.49978L26.8293 9.51109L29.8145 6.84863ZM30.8887 8.72852L27.0977 10.0047L27.1016 10.0161L30.8887 8.72852ZM30.8887 13.6592L34.6758 14.9468L34.6796 14.9353L30.8887 13.6592ZM29.8145 15.5391L26.8116 12.8965L26.8092 12.8993L29.8145 15.5391ZM28.0957 16.7744L26.5107 13.1018L28.0957 16.7744ZM23.4014 16.7744L21.8164 20.447L21.8233 20.45L21.8303 20.453L23.4014 16.7744ZM21.6719 15.5391L18.6491 18.1588L18.6678 18.1803L18.6867 18.2015L21.6719 15.5391ZM20.6084 13.6592L16.8174 14.9354L16.8213 14.9468L20.6084 13.6592ZM23.874 13.7881L20.4106 15.7892L20.437 15.835L20.4647 15.8802L23.874 13.7881ZM27.6016 13.7881L31.0453 15.823L31.0552 15.8061L31.065 15.7892L27.6016 13.7881ZM28.0098 12.6709L24.1035 11.8102L24.0965 11.8419L24.09 11.8737L28.0098 12.6709ZM28.0098 9.74902L24.09 10.5463L24.0979 10.5851L24.1066 10.6239L28.0098 9.74902ZM27.5908 8.63184L24.1086 10.6001L24.1341 10.6453L24.1608 10.6898L27.5908 8.63184ZM24.6152 7.8584L22.5456 4.43547L22.5276 4.44631L22.5098 4.45734L24.6152 7.8584ZM23.874 8.63184L20.4244 6.60703L20.4174 6.61886L20.4106 6.63073L23.874 8.63184ZM23.4658 9.74902L27.3829 10.5595L27.3856 10.5463L23.4658 9.74902ZM24.2432 11.3066V11.0811H16.2432V11.3066H24.2432ZM24.2432 11.0811C24.2432 10.612 24.3096 10.2687 24.3955 10.0161L16.8213 7.4409C16.4202 8.6206 16.2432 9.84569 16.2432 11.0811H24.2432ZM24.3994 10.0047C24.4878 9.74192 24.5891 9.58867 24.6771 9.4884L18.6666 4.20887C17.8237 5.16849 17.216 6.2685 16.8174 7.45235L24.3994 10.0047ZM24.6771 9.4884C24.7318 9.42616 24.8112 9.35681 24.9756 9.28585L21.8056 1.94071C20.6094 2.45699 19.5429 3.21121 18.6666 4.20887L24.6771 9.4884ZM25.008 9.2717C25.0939 9.23374 25.3075 9.16211 25.7324 9.16211V1.16211C24.3957 1.16211 23.0481 1.39126 21.7732 1.95487L25.008 9.2717ZM25.7324 9.16211C26.1562 9.16211 26.3799 9.23338 26.4817 9.27791L29.6882 1.94865C28.415 1.39162 27.0703 1.16211 25.7324 1.16211V9.16211ZM26.5139 9.29184C26.6854 9.36507 26.7616 9.43423 26.8092 9.4884L32.8197 4.20887C31.9363 3.20314 30.8595 2.44873 29.656 1.93472L26.5139 9.29184ZM26.8293 9.51109C26.9163 9.60866 27.0135 9.75441 27.0977 10.0047L34.6796 7.45235C34.2769 6.25601 33.6579 5.1485 32.7996 4.18617L26.8293 9.51109ZM27.1016 10.0161C27.1875 10.2687 27.2539 10.612 27.2539 11.0811H35.2539C35.2539 9.84569 35.0769 8.6206 34.6758 7.4409L27.1016 10.0161ZM27.2539 11.0811V11.3066H35.2539V11.0811H27.2539ZM27.2539 11.3066C27.2539 11.764 27.1888 12.1126 27.0977 12.383L34.6796 14.9353C35.0756 13.7592 35.2539 12.5394 35.2539 11.3066H27.2539ZM27.1016 12.3716C27.0179 12.6178 26.9165 12.7774 26.8116 12.8966L32.8173 18.1816C33.6577 17.2265 34.2725 16.1328 34.6758 14.9468L27.1016 12.3716ZM26.8092 12.8993C26.7545 12.9615 26.6751 13.0309 26.5107 13.1018L29.6807 20.447C30.877 19.9307 31.9434 19.1765 32.8197 18.1788L26.8092 12.8993ZM26.5107 13.1018C26.4161 13.1427 26.1908 13.2148 25.7539 13.2148V21.2148C27.0787 21.2148 28.4146 20.9934 29.6807 20.447L26.5107 13.1018ZM25.7539 13.2148C25.3182 13.2148 25.0829 13.143 24.9724 13.0959L21.8303 20.453C23.0948 20.993 24.4279 21.2148 25.7539 21.2148V13.2148ZM24.9864 13.1018C24.8169 13.0287 24.7252 12.953 24.6571 12.8766L18.6867 18.2015C19.5639 19.1851 20.6252 19.9329 21.8164 20.447L24.9864 13.1018ZM24.6946 12.9193C24.5889 12.7973 24.4835 12.6303 24.3955 12.3716L16.8213 14.9468C17.2203 16.1204 17.8239 17.2066 18.6491 18.1588L24.6946 12.9193ZM24.3994 12.383C24.3083 12.1126 24.2432 11.764 24.2432 11.3066H16.2432C16.2432 12.5394 16.4215 13.7592 16.8174 14.9353L24.3994 12.383ZM19.3369 11.0811V11.3066H27.3369V11.0811H19.3369ZM19.3369 11.3066C19.3369 12.0276 19.4004 12.7521 19.5461 13.4681L27.3856 11.8737C27.3593 11.7447 27.3369 11.5596 27.3369 11.3066H19.3369ZM19.5461 13.4681C19.7047 14.2482 19.9771 15.039 20.4106 15.7892L27.3375 11.787C27.3986 11.8927 27.3988 11.9386 27.3856 11.8737L19.5461 13.4681ZM20.4647 15.8802C20.9906 16.7371 21.7134 17.4629 22.6155 17.9873L26.6365 11.0713C26.9227 11.2377 27.1442 11.4693 27.2833 11.696L20.4647 15.8802ZM22.6155 17.9873C23.6674 18.5989 24.7759 18.7979 25.7539 18.7979V10.7979C25.8439 10.7979 26.2004 10.8177 26.6365 11.0713L22.6155 17.9873ZM25.7539 18.7979C26.7442 18.7979 27.8376 18.588 28.8708 17.9873L24.8499 11.0713C25.2672 10.8286 25.623 10.7979 25.7539 10.7979V18.7979ZM28.8708 17.9873C29.7871 17.4546 30.5209 16.7104 31.0453 15.823L24.1579 11.7532C24.3098 11.496 24.5494 11.2459 24.8499 11.0713L28.8708 17.9873ZM31.065 15.7892C31.4985 15.039 31.7708 14.2482 31.9295 13.4681L24.09 11.8737C24.0768 11.9386 24.077 11.8927 24.1381 11.787L31.065 15.7892ZM31.9161 13.5316C32.0787 12.7937 32.1494 12.0476 32.1494 11.3066H24.1494C24.1494 11.5397 24.1271 11.703 24.1035 11.8102L31.9161 13.5316ZM32.1494 11.3066V11.0811H24.1494V11.3066H32.1494ZM32.1494 11.0811C32.1494 10.346 32.077 9.60623 31.9129 8.87418L24.1066 10.6239C24.1287 10.7225 24.1494 10.8708 24.1494 11.0811H32.1494ZM31.9295 8.95179C31.7662 8.14878 31.4794 7.33824 31.0208 6.57385L24.1608 10.6898C24.0889 10.57 24.0815 10.5042 24.09 10.5463L31.9295 8.95179ZM31.0731 6.66361C30.5669 5.768 29.8459 4.99574 28.9193 4.43547L24.7799 11.2813C24.4692 11.0935 24.2424 10.8368 24.1086 10.6001L31.0731 6.66361ZM28.9193 4.43547C27.8655 3.79832 26.7425 3.5791 25.7324 3.5791V11.5791C25.596 11.5791 25.2178 11.5461 24.7799 11.2813L28.9193 4.43547ZM25.7324 3.5791C24.7223 3.5791 23.5993 3.79832 22.5456 4.43547L26.6849 11.2813C26.2471 11.5461 25.8689 11.5791 25.7324 11.5791V3.5791ZM22.5098 4.45734C21.6121 5.01306 20.9202 5.76224 20.4244 6.60703L27.3237 10.6566C27.2145 10.8426 27.0168 11.0761 26.7207 11.2595L22.5098 4.45734ZM20.4106 6.63073C19.9771 7.38097 19.7047 8.17169 19.5461 8.95179L27.3856 10.5463C27.3988 10.4813 27.3986 10.5272 27.3375 10.6329L20.4106 6.63073ZM19.5488 8.9386C19.4018 9.64885 19.3369 10.3666 19.3369 11.0811H27.3369C27.3369 10.8502 27.3579 10.6799 27.3829 10.5594L19.5488 8.9386ZM40.0195 14.4648H36.0195V14.7097L36.0494 14.9527L40.0195 14.4648ZM40.0195 0.5V-3.5H36.0195V0.5H40.0195ZM43.1348 0.5H47.1348V-3.5H43.1348V0.5ZM43.1348 17V21H47.1348V17H43.1348ZM40.3311 17L36.3609 17.4879L36.7925 21H40.3311V17ZM32.9727 8.68555L36.8273 9.75416L36.83 9.74441L32.9727 8.68555ZM38.999 5.5918L37.0356 9.07679L37.046 9.08264L37.0565 9.08843L38.999 5.5918ZM40.3096 6.81641L36.9952 9.05584L37.0127 9.08168L37.0305 9.10724L40.3096 6.81641ZM41.1904 8.6748L37.3698 9.8592L37.3732 9.8701L41.1904 8.6748ZM41.6738 11.0059H45.6738V10.7694L45.646 10.5346L41.6738 11.0059ZM41.6738 11.5L45.6435 11.9918L45.6738 11.7468V11.5H41.6738ZM40.3096 15.582L37.0305 13.2912L37.0241 13.3004L40.3096 15.582ZM35.2607 16.7744L33.3996 20.3151L33.4089 20.3199L33.4182 20.3248L35.2607 16.7744ZM33.8428 15.5391L30.5908 17.8682L30.6011 17.8826L30.6116 17.8969L33.8428 15.5391ZM32.9727 13.6699L29.1208 14.7484L32.9727 13.6699ZM35.873 12.6709L31.9312 13.3505L31.9369 13.3834L31.9431 13.4162L35.873 12.6709ZM36.249 13.7773L32.7196 15.6597L32.7448 15.7069L32.7712 15.7534L36.249 13.7773ZM36.9365 14.5186L34.7779 17.8861L34.8277 17.918L34.8785 17.9485L36.9365 14.5186ZM39.2891 14.4219L41.5552 17.718L41.5783 17.7022L41.6011 17.686L39.2891 14.4219ZM40.0732 13.4229L36.4129 11.8098L36.4014 11.836L36.3902 11.8623L40.0732 13.4229ZM40.3955 11.9619L44.3901 12.1694L44.3955 12.0657V11.9619H40.3955ZM40.3955 10.5547H44.3955V10.4595L44.391 10.3644L40.3955 10.5547ZM40.2021 9.34082L36.3448 10.3997L36.3573 10.4451L36.3708 10.4902L40.2021 9.34082ZM39.751 8.40625L36.551 10.8063L36.572 10.8343L36.5936 10.862L39.751 8.40625ZM39.0205 7.80469L37.2317 11.3824L37.2492 11.3912L37.2668 11.3998L39.0205 7.80469ZM36.9688 7.86914L39.0887 11.2611L39.1189 11.2423L39.1487 11.2229L36.9688 7.86914ZM36.2705 8.61035L32.7927 6.63431L32.7755 6.66448L32.7589 6.69494L36.2705 8.61035ZM35.8838 9.72754L31.9615 8.94307L31.9563 8.96871L31.9515 8.99441L35.8838 9.72754ZM44.0195 14.4648V0.5H36.0195V14.4648H44.0195ZM40.0195 4.5H43.1348V-3.5H40.0195V4.5ZM39.1348 0.5V17H47.1348V0.5H39.1348ZM43.1348 13H40.3311V21H43.1348V13ZM44.3012 16.5121L43.9897 13.977L36.0494 14.9527L36.3609 17.4879L44.3012 16.5121ZM36.6719 11.3281V11.1025H28.6719V11.3281H36.6719ZM36.6719 11.1025C36.6719 10.5117 36.7389 10.0728 36.8273 9.75415L29.118 7.61694C28.8053 8.74495 28.6719 9.91737 28.6719 11.1025H36.6719ZM36.83 9.74441C36.9211 9.41254 37.0201 9.25098 37.0693 9.18447L30.6377 4.42686C29.9135 5.40592 29.4253 6.49762 29.1154 7.62668L36.83 9.74441ZM37.0693 9.18447C37.0791 9.17122 37.0857 9.16376 37.0887 9.16057C37.0916 9.15743 37.0922 9.15709 37.0907 9.15843C37.0891 9.15978 37.0871 9.16123 37.0856 9.16228C37.084 9.16331 37.0848 9.16261 37.0891 9.16043L33.4753 2.02317C32.3392 2.59841 31.3852 3.41634 30.6377 4.42686L37.0693 9.18447ZM37.0891 9.16043C37.0622 9.17408 37.0478 9.17647 37.0577 9.17428C37.0694 9.17167 37.1186 9.16211 37.2158 9.16211V1.16211C35.9535 1.16211 34.6754 1.41555 33.4753 2.02317L37.0891 9.16043ZM37.2158 9.16211C37.2753 9.16211 37.2767 9.16832 37.2348 9.15823C37.1901 9.14744 37.1183 9.12333 37.0356 9.07679L40.9624 2.10681C39.7619 1.43048 38.4691 1.16211 37.2158 1.16211V9.16211ZM37.0565 9.08843C37.042 9.0804 37.0276 9.07119 37.014 9.06126C37.0004 9.05134 36.9898 9.04231 36.9824 9.03542C36.9666 9.0207 36.9727 9.02256 36.9952 9.05584L43.6239 4.57698C42.9441 3.57079 42.0524 2.71227 40.9416 2.09517L37.0565 9.08843ZM37.0305 9.10724C37.1219 9.23796 37.2492 9.47013 37.3698 9.8592L45.0111 7.49041C44.6877 6.44719 44.2277 5.44042 43.5886 4.52557L37.0305 9.10724ZM37.3732 9.8701C37.5115 10.3119 37.6265 10.843 37.7017 11.4771L45.646 10.5346C45.5207 9.47857 45.3133 8.45564 45.0077 7.47951L37.3732 9.8701ZM37.6738 11.0059V11.5H45.6738V11.0059H37.6738ZM37.7042 11.0082C37.6309 11.5995 37.5185 12.1058 37.3803 12.5382L45.0006 14.9735C45.3064 14.0166 45.5162 13.019 45.6435 11.9918L37.7042 11.0082ZM37.3803 12.5382C37.2633 12.9043 37.1356 13.1408 37.0305 13.2912L43.5886 17.8729C44.214 16.9777 44.6736 15.9967 45.0006 14.9735L37.3803 12.5382ZM37.0241 13.3004C37.0135 13.3158 37.0066 13.3239 37.0043 13.3266C37.002 13.3293 37.0032 13.3276 37.0083 13.3229C37.0134 13.3182 37.0207 13.3121 37.0299 13.3055C37.0391 13.2988 37.0482 13.2931 37.0565 13.2885L40.9416 20.2818C42.026 19.6794 42.9111 18.8485 43.5951 17.8636L37.0241 13.3004ZM37.0565 13.2885C37.1328 13.2461 37.1975 13.225 37.2347 13.2162C37.269 13.208 37.2603 13.2148 37.1943 13.2148V21.2148C38.4483 21.2148 39.74 20.9493 40.9416 20.2818L37.0565 13.2885ZM37.1943 13.2148C37.1038 13.2148 37.0618 13.2058 37.0568 13.2046C37.054 13.204 37.0582 13.2048 37.0677 13.2083C37.0773 13.2118 37.0896 13.217 37.1033 13.2241L33.4182 20.3248C34.6259 20.9515 35.9169 21.2148 37.1943 21.2148V13.2148ZM37.1219 13.2338C37.1197 13.2326 37.1183 13.2318 37.1175 13.2313C37.1167 13.2309 37.1163 13.2306 37.1162 13.2305C37.1161 13.2305 37.1161 13.2304 37.116 13.2304C37.1159 13.2303 37.1155 13.23 37.1148 13.2294C37.1139 13.2286 37.0995 13.2162 37.0739 13.1812L30.6116 17.8969C31.3439 18.9005 32.2783 19.7257 33.3996 20.3151L37.1219 13.2338ZM37.0947 13.21C37.0218 13.1081 36.9169 12.9213 36.8245 12.5914L29.1208 14.7484C29.4295 15.8508 29.9047 16.9102 30.5908 17.8682L37.0947 13.21ZM36.8245 12.5914C36.7346 12.2703 36.6719 11.8573 36.6719 11.3281H28.6719C28.6719 12.4891 28.8097 13.6372 29.1208 14.7484L36.8245 12.5914ZM31.7656 11.1025V11.3281H39.7656V11.1025H31.7656ZM31.7656 11.3281C31.7656 12.0051 31.816 12.6824 31.9312 13.3505L39.8149 11.9913C39.7868 11.8286 39.7656 11.6108 39.7656 11.3281H31.7656ZM31.9431 13.4162C32.0856 14.1675 32.3303 14.9298 32.7196 15.6597L39.7784 11.895C39.824 11.9804 39.8181 12.005 39.803 11.9256L31.9431 13.4162ZM32.7712 15.7534C33.2404 16.5792 33.9032 17.3254 34.7779 17.8861L39.0952 11.151C39.4112 11.3536 39.6157 11.6057 39.7268 11.8013L32.7712 15.7534ZM34.8785 17.9485C35.9113 18.5682 37.006 18.7764 37.9785 18.7764V10.7764C38.1346 10.7764 38.5346 10.8127 38.9945 11.0886L34.8785 17.9485ZM37.9785 18.7764C39.0989 18.7764 40.3846 18.5228 41.5552 17.718L37.0229 11.1257C37.506 10.7936 37.918 10.7764 37.9785 10.7764V18.7764ZM41.6011 17.686C42.605 16.9749 43.3142 16.0268 43.7562 14.9834L36.3902 11.8623C36.4271 11.7752 36.4915 11.6535 36.5965 11.5197C36.7029 11.3841 36.8323 11.2603 36.977 11.1578L41.6011 17.686ZM43.7336 15.0359C44.1498 14.0914 44.3411 13.1131 44.3901 12.1694L36.4009 11.7544C36.3926 11.9136 36.3691 11.9093 36.4129 11.8098L43.7336 15.0359ZM44.3955 11.9619V10.5547H36.3955V11.9619H44.3955ZM44.391 10.3644C44.3571 9.653 44.2514 8.918 44.0335 8.19143L36.3708 10.4902C36.3677 10.4798 36.3909 10.554 36.4 10.7449L44.391 10.3644ZM44.0595 8.28195C43.842 7.48963 43.4791 6.68424 42.9084 5.95049L36.5936 10.862C36.4239 10.6439 36.3618 10.4615 36.3448 10.3997L44.0595 8.28195ZM42.951 6.00625C42.3717 5.23385 41.6297 4.62693 40.7742 4.20961L37.2668 11.3998C36.9985 11.2689 36.7436 11.063 36.551 10.8063L42.951 6.00625ZM40.8094 4.22698C39.8544 3.7495 38.8747 3.58984 38 3.58984V11.5898C37.9131 11.5898 37.6137 11.5734 37.2317 11.3824L40.8094 4.22698ZM38 3.58984C36.9622 3.58984 35.8302 3.83845 34.7888 4.51537L39.1487 11.2229C38.6802 11.5274 38.2357 11.5898 38 11.5898V3.58984ZM34.8488 4.47715C33.9584 5.0336 33.2752 5.7851 32.7927 6.63431L39.7483 10.5864C39.6239 10.8054 39.4062 11.0628 39.0887 11.2611L34.8488 4.47715ZM32.7589 6.69494C32.3568 7.43224 32.1097 8.20185 31.9615 8.94307L39.8061 10.512C39.8174 10.4554 39.8258 10.4316 39.8249 10.4344C39.8238 10.4375 39.812 10.4709 39.7821 10.5258L32.7589 6.69494ZM31.9515 8.99441C31.8216 9.69141 31.7656 10.3981 31.7656 11.1025H39.7656C39.7656 10.8187 39.7884 10.6087 39.816 10.4607L31.9515 8.99441ZM52.4268 14.2178H48.4268V14.3489L48.4353 14.4798L52.4268 14.2178ZM52.4268 5.37695V1.37695H48.4268V5.37695H52.4268ZM55.5205 5.37695H59.5205V1.37695H55.5205V5.37695ZM55.5205 17V21H59.5205V17H55.5205ZM52.6094 17L48.618 17.262L48.8633 21H52.6094V17ZM52.7705 11.833L52.6764 7.83411L48.7705 7.92602V11.833H52.7705ZM53.6836 11.8115H57.6836V7.7163L53.5895 7.81263L53.6836 11.8115ZM53.415 13.9707L57.2751 15.0196L57.2779 15.0091L53.415 13.9707ZM52.6094 15.6895L55.8151 18.0818L55.8236 18.0704L55.832 18.059L52.6094 15.6895ZM51.2559 16.8174L53.0068 20.4138L53.0258 20.4046L53.0447 20.3951L51.2559 16.8174ZM47.7646 16.9785L46.4483 20.7557L46.4825 20.7676L46.5168 20.7789L47.7646 16.9785ZM46.54 16.2158L43.6533 18.9847L43.6822 19.0148L43.7116 19.0442L46.54 16.2158ZM45.7451 14.873L41.9553 16.1527L41.9654 16.1825L41.9759 16.2121L45.7451 14.873ZM45.4658 5.37695V1.37695H41.4658V5.37695H45.4658ZM48.5596 5.37695H52.5596V1.37695H48.5596V5.37695ZM48.6777 13.7773L44.883 15.0423L44.9001 15.0935L44.9186 15.1443L48.6777 13.7773ZM49.5586 14.6797L48.3346 18.4878L48.3537 18.494L48.373 18.4999L49.5586 14.6797ZM51.75 14.3896L49.4732 11.1009L49.4582 11.1113L49.4433 11.1218L51.75 14.3896ZM52.5342 13.3369L48.7578 12.0182L48.7516 12.0359L48.7456 12.0537L52.5342 13.3369ZM56.4268 14.2178V5.37695H48.4268V14.2178H56.4268ZM52.4268 9.37695H55.5205V1.37695H52.4268V9.37695ZM51.5205 5.37695V17H59.5205V5.37695H51.5205ZM55.5205 13H52.6094V21H55.5205V13ZM56.6008 16.738L56.4182 13.9558L48.4353 14.4798L48.618 17.262L56.6008 16.738ZM52.8646 15.8319L53.7777 15.8104L53.5895 7.81263L52.6764 7.83411L52.8646 15.8319ZM49.6836 11.8115C49.6836 12.2762 49.6299 12.6431 49.5522 12.9323L57.2779 15.0091C57.5582 13.9663 57.6836 12.8938 57.6836 11.8115H49.6836ZM49.555 12.9218C49.4886 13.1661 49.4175 13.2781 49.3868 13.3199L55.832 18.059C56.5174 17.1268 56.9834 16.093 57.2751 15.0196L49.555 12.9218ZM49.4036 13.2971C49.4085 13.2906 49.4217 13.2751 49.4417 13.2584C49.4615 13.2419 49.4732 13.2366 49.467 13.2397L53.0447 20.3951C54.1378 19.8485 55.0774 19.0703 55.8151 18.0818L49.4036 13.2971ZM49.505 13.2209C49.6124 13.1687 49.5943 13.2148 49.333 13.2148V21.2148C50.547 21.2148 51.8108 20.9961 53.0068 20.4138L49.505 13.2209ZM49.333 13.2148C49.1408 13.2148 49.0444 13.1886 49.0125 13.1781L46.5168 20.7789C47.4446 21.0835 48.3937 21.2148 49.333 21.2148V13.2148ZM49.081 13.2013C49.1126 13.2123 49.1615 13.2334 49.2186 13.269C49.2761 13.3048 49.3272 13.3461 49.3685 13.3874L43.7116 19.0442C44.4943 19.827 45.424 20.3988 46.4483 20.7557L49.081 13.2013ZM49.4268 13.4469C49.4853 13.5079 49.5178 13.5571 49.5309 13.5792C49.5432 13.6 49.5341 13.5895 49.5143 13.534L41.9759 16.2121C42.3238 17.1912 42.858 18.1556 43.6533 18.9847L49.4268 13.4469ZM49.5349 13.5934C49.5252 13.5646 49.4658 13.3582 49.4658 12.8857H41.4658C41.4658 13.9601 41.5927 15.0786 41.9553 16.1527L49.5349 13.5934ZM49.4658 12.8857V5.37695H41.4658V12.8857H49.4658ZM45.4658 9.37695H48.5596V1.37695H45.4658V9.37695ZM44.5596 5.37695V12.9072H52.5596V5.37695H44.5596ZM44.5596 12.9072C44.5596 13.5298 44.6276 14.2759 44.883 15.0423L52.4725 12.5124C52.5241 12.6674 52.5445 12.784 52.5527 12.8443C52.561 12.9052 52.5596 12.9292 52.5596 12.9072H44.5596ZM44.9186 15.1443C45.1682 15.8308 45.5715 16.5536 46.2038 17.1858L51.8607 11.529C52.1922 11.8605 52.3591 12.1965 52.4369 12.4104L44.9186 15.1443ZM46.2038 17.1858C46.799 17.781 47.5229 18.2269 48.3346 18.4878L50.7826 10.8716C51.1933 11.0036 51.5662 11.2346 51.8607 11.529L46.2038 17.1858ZM48.373 18.4999C49.018 18.7001 49.6535 18.7764 50.2461 18.7764V10.7764C50.3374 10.7764 50.5145 10.7882 50.7442 10.8594L48.373 18.4999ZM50.2461 18.7764C51.3711 18.7764 52.7847 18.5554 54.0567 17.6575L49.4433 11.1218C49.9848 10.7395 50.3959 10.7764 50.2461 10.7764V18.7764ZM54.0268 17.6784C55.1314 16.9137 55.9072 15.8471 56.3228 14.6201L48.7456 12.0537C48.7952 11.9071 48.8806 11.7274 49.0175 11.5436C49.1553 11.3586 49.3149 11.2104 49.4732 11.1009L54.0268 17.6784ZM56.3105 14.6556C56.637 13.7209 56.7705 12.7656 56.7705 11.833H48.7705C48.7705 12.0033 48.7465 12.0506 48.7578 12.0182L56.3105 14.6556ZM63.5771 5.37695H67.5771V1.37695H63.5771V5.37695ZM63.5771 7.56836V11.5684H67.5771V7.56836H63.5771ZM56.8096 7.56836H52.8096V11.5684H56.8096V7.56836ZM56.8096 5.37695V1.37695H52.8096V5.37695H56.8096ZM58.4854 2.50879V-1.49121H54.4854V2.50879H58.4854ZM61.5791 2.50879H65.5791V-1.49121H61.5791V2.50879ZM61.708 14.2715L58.1019 16.0024L58.1296 16.0601L58.1591 16.1169L61.708 14.2715ZM62.1162 14.6475L60.6306 18.3614L60.6956 18.3873L60.7613 18.411L62.1162 14.6475ZM63.3086 14.7227L63.6878 18.7046L63.7686 18.6969L63.849 18.686L63.3086 14.7227ZM63.7061 14.6582L67.706 14.6393L67.6831 9.78358L62.9216 10.7359L63.7061 14.6582ZM63.7168 16.9355L64.9508 20.7404L67.7305 19.8389L67.7168 16.9167L63.7168 16.9355ZM62.8574 17.1396L62.2147 13.1916L62.8574 17.1396ZM60.0537 16.8818L58.3907 20.5197L58.4218 20.534L58.4531 20.5476L60.0537 16.8818ZM58.8936 15.7861L55.3781 17.6945L58.8936 15.7861ZM59.5771 5.37695V7.56836H67.5771V5.37695H59.5771ZM63.5771 3.56836H56.8096V11.5684H63.5771V3.56836ZM60.8096 7.56836V5.37695H52.8096V7.56836H60.8096ZM56.8096 9.37695H63.5771V1.37695H56.8096V9.37695ZM58.4854 6.50879H61.5791V-1.49121H58.4854V6.50879ZM57.5791 2.50879V13.498H65.5791V2.50879H57.5791ZM57.5791 13.498C57.5791 14.0722 57.6359 15.0315 58.1019 16.0024L65.3141 12.5406C65.4764 12.8788 65.5347 13.1533 65.5569 13.2863C65.5691 13.3596 65.5744 13.4147 65.5767 13.4473C65.5791 13.4803 65.5791 13.498 65.5791 13.498H57.5791ZM58.1591 16.1169C58.6717 17.1027 59.5183 17.9164 60.6306 18.3614L63.6018 10.9336C63.9445 11.0706 64.285 11.2768 64.5898 11.5576C64.8925 11.8364 65.1089 12.1415 65.2569 12.4261L58.1591 16.1169ZM60.7613 18.411C61.5183 18.6835 62.2409 18.7441 62.793 18.7441V10.7441C62.8111 10.7441 62.879 10.745 62.9854 10.7602C63.0907 10.7752 63.2606 10.8082 63.4711 10.8839L60.7613 18.411ZM62.793 18.7441C63.0799 18.7441 63.3823 18.7337 63.6878 18.7046L62.9294 10.7407C62.9338 10.7403 62.9248 10.7412 62.9004 10.7422C62.8762 10.7432 62.8408 10.7441 62.793 10.7441V18.7441ZM63.849 18.686C64.0554 18.6578 64.2751 18.6236 64.4905 18.5805L62.9216 10.7359C62.925 10.7352 62.9141 10.7374 62.8858 10.742C62.8582 10.7465 62.8195 10.7523 62.7681 10.7593L63.849 18.686ZM59.7061 14.6771L59.7168 16.9544L67.7168 16.9167L67.706 14.6393L59.7061 14.6771ZM62.4828 13.1307C62.4323 13.147 62.3457 13.1703 62.2147 13.1916L63.5001 21.0877C63.9851 21.0087 64.4713 20.896 64.9508 20.7404L62.4828 13.1307ZM62.2147 13.1916C62.1553 13.2013 62.0339 13.2148 61.8369 13.2148V21.2148C62.3847 21.2148 62.9437 21.1783 63.5001 21.0877L62.2147 13.1916ZM61.8369 13.2148C61.586 13.2148 61.5574 13.1737 61.6543 13.216L58.4531 20.5476C59.567 21.034 60.7272 21.2148 61.8369 21.2148V13.2148ZM61.7167 13.2439C61.8502 13.3049 61.9974 13.3988 62.1342 13.528C62.2699 13.6561 62.3578 13.7835 62.409 13.8778L55.3781 17.6945C56.0485 18.9293 57.0718 19.9168 58.3907 20.5197L61.7167 13.2439ZM62.409 13.8778C62.4901 14.0272 62.5073 14.1192 62.5047 14.107C62.5037 14.1019 62.4986 14.0757 62.494 14.025C62.4893 13.9743 62.4854 13.9032 62.4854 13.8096H54.4854C54.4854 15.023 54.6803 16.4091 55.3781 17.6945L62.409 13.8778ZM62.4854 13.8096V2.50879H54.4854V13.8096H62.4854ZM64.9307 8.72852L68.7178 10.0161L68.7216 10.0047L64.9307 8.72852ZM65.9941 6.84863L62.9889 4.20887L65.9941 6.84863ZM67.7129 5.61328L69.2979 9.28585L69.3141 9.27885L69.3303 9.2717L67.7129 5.61328ZM72.4072 5.61328L70.804 9.27791L70.82 9.28495L70.8362 9.29184L72.4072 5.61328ZM74.1367 6.84863L71.1314 9.4884L71.1415 9.49978L71.1515 9.51109L74.1367 6.84863ZM75.2109 8.72852L71.42 10.0047L71.4238 10.0161L75.2109 8.72852ZM75.2109 13.6592L78.998 14.9468L79.0019 14.9353L75.2109 13.6592ZM74.1367 15.5391L71.1339 12.8965L71.1314 12.8993L74.1367 15.5391ZM72.418 16.7744L70.833 13.1018L72.418 16.7744ZM67.7236 16.7744L66.1386 20.447L66.1456 20.45L66.1526 20.453L67.7236 16.7744ZM65.9941 15.5391L62.9714 18.1588L62.99 18.1803L63.009 18.2015L65.9941 15.5391ZM64.9307 13.6592L61.1397 14.9354L61.1436 14.9468L64.9307 13.6592ZM68.1963 13.7881L64.7328 15.7892L64.7593 15.835L64.787 15.8802L68.1963 13.7881ZM71.9238 13.7881L75.3675 15.823L75.3775 15.8061L75.3873 15.7892L71.9238 13.7881ZM72.332 12.6709L68.4257 11.8102L68.4188 11.8419L68.4123 11.8737L72.332 12.6709ZM72.332 9.74902L68.4123 10.5463L68.4202 10.5851L68.4289 10.6239L72.332 9.74902ZM71.9131 8.63184L68.4308 10.6001L68.4564 10.6453L68.4831 10.6898L71.9131 8.63184ZM68.9375 7.8584L66.8678 4.43547L66.8499 4.44631L66.8321 4.45734L68.9375 7.8584ZM68.1963 8.63184L64.7466 6.60703L64.7397 6.61886L64.7328 6.63073L68.1963 8.63184ZM67.7881 9.74902L71.7051 10.5595L71.7078 10.5463L67.7881 9.74902ZM68.5654 11.3066V11.0811H60.5654V11.3066H68.5654ZM68.5654 11.0811C68.5654 10.612 68.6319 10.2687 68.7178 10.0161L61.1436 7.4409C60.7425 8.6206 60.5654 9.84569 60.5654 11.0811H68.5654ZM68.7216 10.0047C68.8101 9.74192 68.9113 9.58867 68.9994 9.4884L62.9889 4.20887C62.146 5.16849 61.5382 6.2685 61.1397 7.45235L68.7216 10.0047ZM68.9994 9.4884C69.0541 9.42616 69.1335 9.35681 69.2979 9.28585L66.1279 1.94071C64.9316 2.45699 63.8652 3.21121 62.9889 4.20887L68.9994 9.4884ZM69.3303 9.2717C69.4161 9.23374 69.6297 9.16211 70.0547 9.16211V1.16211C68.7179 1.16211 67.3703 1.39126 66.0955 1.95487L69.3303 9.2717ZM70.0547 9.16211C70.4785 9.16211 70.7022 9.23338 70.804 9.27791L74.0105 1.94865C72.7373 1.39162 71.3926 1.16211 70.0547 1.16211V9.16211ZM70.8362 9.29184C71.0076 9.36507 71.0839 9.43423 71.1314 9.4884L77.142 4.20887C76.2586 3.20314 75.1818 2.44873 73.9783 1.93472L70.8362 9.29184ZM71.1515 9.51109C71.2386 9.60866 71.3357 9.75441 71.42 10.0047L79.0019 7.45235C78.5992 6.25601 77.9802 5.1485 77.1219 4.18617L71.1515 9.51109ZM71.4238 10.0161C71.5097 10.2687 71.5762 10.612 71.5762 11.0811H79.5762C79.5762 9.84569 79.3991 8.6206 78.998 7.4409L71.4238 10.0161ZM71.5762 11.0811V11.3066H79.5762V11.0811H71.5762ZM71.5762 11.3066C71.5762 11.764 71.511 12.1126 71.42 12.383L79.0019 14.9353C79.3978 13.7592 79.5762 12.5394 79.5762 11.3066H71.5762ZM71.4238 12.3716C71.3401 12.6178 71.2388 12.7774 71.1339 12.8966L77.1396 18.1816C77.98 17.2265 78.5948 16.1328 78.998 14.9468L71.4238 12.3716ZM71.1314 12.8993C71.0768 12.9615 70.9974 13.0309 70.833 13.1018L74.003 20.447C75.1992 19.9307 76.2657 19.1765 77.142 18.1788L71.1314 12.8993ZM70.833 13.1018C70.7384 13.1427 70.5131 13.2148 70.0762 13.2148V21.2148C71.401 21.2148 72.7369 20.9934 74.003 20.447L70.833 13.1018ZM70.0762 13.2148C69.6404 13.2148 69.4052 13.143 69.2947 13.0959L66.1526 20.453C67.4171 20.993 68.7502 21.2148 70.0762 21.2148V13.2148ZM69.3086 13.1018C69.1391 13.0287 69.0474 12.953 68.9793 12.8766L63.009 18.2015C63.8862 19.1851 64.9474 19.9329 66.1386 20.447L69.3086 13.1018ZM69.0169 12.9193C68.9112 12.7973 68.8057 12.6303 68.7178 12.3716L61.1436 14.9468C61.5426 16.1204 62.1461 17.2066 62.9714 18.1588L69.0169 12.9193ZM68.7216 12.383C68.6306 12.1126 68.5654 11.764 68.5654 11.3066H60.5654C60.5654 12.5394 60.7438 13.7592 61.1397 14.9353L68.7216 12.383ZM63.6592 11.0811V11.3066H71.6592V11.0811H63.6592ZM63.6592 11.3066C63.6592 12.0276 63.7227 12.7521 63.8683 13.4681L71.7078 11.8737C71.6816 11.7447 71.6592 11.5596 71.6592 11.3066H63.6592ZM63.8683 13.4681C64.027 14.2482 64.2994 15.039 64.7328 15.7892L71.6597 11.787C71.7208 11.8927 71.721 11.9386 71.7078 11.8737L63.8683 13.4681ZM64.787 15.8802C65.3129 16.7371 66.0357 17.4629 66.9378 17.9873L70.9587 11.0713C71.2449 11.2377 71.4664 11.4693 71.6056 11.696L64.787 15.8802ZM66.9378 17.9873C67.9897 18.5989 69.0982 18.7979 70.0762 18.7979V10.7979C70.1661 10.7979 70.5227 10.8177 70.9587 11.0713L66.9378 17.9873ZM70.0762 18.7979C71.0664 18.7979 72.1599 18.588 73.1931 17.9873L69.1721 11.0713C69.5895 10.8286 69.9453 10.7979 70.0762 10.7979V18.7979ZM73.1931 17.9873C74.1094 17.4546 74.8432 16.7104 75.3675 15.823L68.4801 11.7532C68.6321 11.496 68.8717 11.2459 69.1721 11.0713L73.1931 17.9873ZM75.3873 15.7892C75.8208 15.039 76.0931 14.2482 76.2518 13.4681L68.4123 11.8737C68.3991 11.9386 68.3993 11.8927 68.4604 11.787L75.3873 15.7892ZM76.2383 13.5316C76.4009 12.7937 76.4717 12.0476 76.4717 11.3066H68.4717C68.4717 11.5397 68.4493 11.703 68.4257 11.8102L76.2383 13.5316ZM76.4717 11.3066V11.0811H68.4717V11.3066H76.4717ZM76.4717 11.0811C76.4717 10.346 76.3993 9.60623 76.2352 8.87418L68.4289 10.6239C68.451 10.7225 68.4717 10.8708 68.4717 11.0811H76.4717ZM76.2518 8.95179C76.0885 8.14878 75.8017 7.33824 75.3431 6.57385L68.4831 10.6898C68.4112 10.57 68.4037 10.5042 68.4123 10.5463L76.2518 8.95179ZM75.3953 6.66361C74.8891 5.768 74.1681 4.99574 73.2416 4.43547L69.1022 11.2813C68.7915 11.0935 68.5647 10.8368 68.4308 10.6001L75.3953 6.66361ZM73.2416 4.43547C72.1878 3.79832 71.0648 3.5791 70.0547 3.5791V11.5791C69.9183 11.5791 69.5401 11.5461 69.1022 11.2813L73.2416 4.43547ZM70.0547 3.5791C69.0446 3.5791 67.9216 3.79832 66.8678 4.43547L71.0072 11.2813C70.5693 11.5461 70.1911 11.5791 70.0547 11.5791V3.5791ZM66.8321 4.45734C65.9344 5.01306 65.2425 5.76224 64.7466 6.60703L71.646 10.6566C71.5368 10.8426 71.3391 11.0761 71.0429 11.2595L66.8321 4.45734ZM64.7328 6.63073C64.2994 7.38097 64.027 8.17169 63.8683 8.95179L71.7078 10.5463C71.721 10.4813 71.7208 10.5272 71.6597 10.6329L64.7328 6.63073ZM63.871 8.9386C63.7241 9.64885 63.6592 10.3666 63.6592 11.0811H71.6592C71.6592 10.8502 71.6802 10.6799 71.7051 10.5594L63.871 8.9386ZM82.8486 12.6924L81.182 16.3286L81.2272 16.3494L81.273 16.369L82.8486 12.6924ZM81.3555 12.2627L80.4978 16.1697L80.5385 16.1786L80.5793 16.1867L81.3555 12.2627ZM79.7119 11.7793L78.2264 15.4932L78.2581 15.5059L78.2901 15.5181L79.7119 11.7793ZM78.4014 11.0596L75.9716 14.237L75.9864 14.2484L76.0014 14.2596L78.4014 11.0596ZM77.542 10.0713L74.018 11.9638L74.0254 11.9776L74.0329 11.9913L77.542 10.0713ZM77.542 7.375L73.9643 5.58615L73.9523 5.61016L73.9406 5.63433L77.542 7.375ZM78.4551 6.23633L81.0213 9.30464L81.0266 9.30023L78.4551 6.23633ZM79.916 5.45215L81.1524 9.25628L81.1667 9.25164L81.1809 9.24688L79.916 5.45215ZM84.4707 5.64551L82.8428 9.29926L82.8495 9.30223L82.8561 9.30518L84.4707 5.64551ZM86.1465 6.97754L82.8442 9.23478L82.8607 9.25882L82.8775 9.28263L86.1465 6.97754ZM86.7373 8.88965V12.8896H90.7373V8.88965H86.7373ZM83.6436 8.88965H79.6436V12.8896H83.6436V8.88965ZM83.4502 8.08398L79.8725 9.87284L79.9044 9.93671L79.9386 9.99939L83.4502 8.08398ZM82.8701 7.51465L80.9275 11.0113L80.9847 11.043L81.0429 11.0729L82.8701 7.51465ZM80.9688 7.48242L82.6318 11.1203L82.6743 11.1009L82.7164 11.0805L80.9688 7.48242ZM80.3887 7.95508L77.0788 5.70907L77.0696 5.72264L77.0605 5.73628L80.3887 7.95508ZM80.3027 9.08301L76.725 10.8719L76.7797 10.9813L76.841 11.0872L80.3027 9.08301ZM81.3447 9.78125L79.9619 13.5346L80.0205 13.5562L80.0798 13.576L81.3447 9.78125ZM82.376 10.0391L83.1798 6.12065L83.1569 6.11596L83.1339 6.11153L82.376 10.0391ZM84.6211 10.7158L83.0599 14.3986L83.077 14.4058L83.0941 14.4129L84.6211 10.7158ZM86.1895 11.833L83.0936 14.366L83.1031 14.3776L83.1127 14.3891L86.1895 11.833ZM85.4375 16.2158L87.803 19.4414L87.8203 19.4287L87.8375 19.4158L85.4375 16.2158ZM83.8906 16.957L85.0017 20.7996L85.0167 20.7953L85.0316 20.7908L83.8906 16.957ZM79.1318 16.6348L77.2886 20.1847L77.2955 20.1883L77.3024 20.1919L79.1318 16.6348ZM77.4346 15.1631L74.0517 17.2975L74.0665 17.3211L74.0817 17.3445L77.4346 15.1631ZM76.8652 13.3154V9.31543H72.8652V13.3154H76.8652ZM79.7979 13.3154L83.7956 13.1799L83.6646 9.31543H79.7979V13.3154ZM80.1201 14.3359L76.9627 16.7917L76.9837 16.8187L77.0051 16.8453L80.1201 14.3359ZM80.9043 14.8945L79.5373 18.6537L79.5508 18.6586L79.5643 18.6634L80.9043 14.8945ZM82.9453 14.9053L84.4481 18.6122L84.4907 18.595L84.533 18.5767L82.9453 14.9053ZM83.5469 14.4541L80.3326 12.0732L80.3249 12.0836L80.3173 12.094L83.5469 14.4541ZM87.7617 13.7881C87.7617 12.7329 87.4369 11.7137 86.8145 10.8493L80.3222 15.5237C79.9577 15.0174 79.7617 14.3992 79.7617 13.7881H87.7617ZM86.8145 10.8493C86.0531 9.79188 85.016 9.26938 84.4243 9.0158L81.273 16.369C81.2706 16.3679 81.2476 16.358 81.2087 16.3373C81.1701 16.3167 81.1072 16.2809 81.0277 16.2263C80.8817 16.1261 80.5979 15.9067 80.3222 15.5237L86.8145 10.8493ZM84.5153 9.05612C83.7508 8.70577 82.8968 8.49007 82.1316 8.33872L80.5793 16.1867C80.8233 16.2349 80.9966 16.2778 81.1113 16.3108C81.2332 16.3459 81.2439 16.357 81.182 16.3286L84.5153 9.05612ZM82.2131 8.35572C81.798 8.26461 81.4405 8.15719 81.1337 8.04051L78.2901 15.5181C79.0002 15.7881 79.7384 16.003 80.4978 16.1697L82.2131 8.35572ZM81.1975 8.06539C80.9715 7.975 80.8523 7.89774 80.8014 7.85957L76.0014 14.2596C76.6953 14.78 77.4497 15.1825 78.2264 15.4932L81.1975 8.06539ZM80.8312 7.88214C80.8516 7.89773 80.8881 7.92891 80.931 7.97831C80.9744 8.02824 81.0159 8.08694 81.051 8.15124L74.0329 11.9913C74.5252 12.8911 75.191 13.6401 75.9716 14.237L80.8312 7.88214ZM81.066 8.17878C81.2083 8.44386 81.2305 8.6679 81.2305 8.75H73.2305C73.2305 9.82038 73.4603 10.9253 74.018 11.9638L81.066 8.17878ZM81.2305 8.75C81.2305 8.79311 81.2256 8.85368 81.2095 8.92487C81.1933 8.99634 81.1696 9.06148 81.1434 9.11567L73.9406 5.63433C73.4651 6.61812 73.2305 7.67288 73.2305 8.75H81.2305ZM81.1197 9.16385C81.0988 9.20558 81.0748 9.24206 81.052 9.27044C81.0297 9.29825 81.0162 9.30886 81.0213 9.30464L75.8889 3.16802C75.103 3.82531 74.4414 4.63183 73.9643 5.58615L81.1197 9.16385ZM81.0266 9.30023C81.0056 9.31783 80.9978 9.32032 81.0129 9.31222C81.0289 9.30363 81.0722 9.28232 81.1524 9.25628L78.6797 1.64801C77.6911 1.9693 76.7327 2.45979 75.8836 3.17243L81.0266 9.30023ZM81.1809 9.24688C81.2864 9.21174 81.5012 9.16211 81.8711 9.16211V1.16211C80.7944 1.16211 79.7058 1.30584 78.6511 1.65742L81.1809 9.24688ZM81.8711 9.16211C82.4687 9.16211 82.7522 9.25889 82.8428 9.29926L86.0986 1.99175C84.7426 1.38759 83.2931 1.16211 81.8711 1.16211V9.16211ZM82.8561 9.30518C82.9451 9.34441 82.9665 9.36578 82.9485 9.35151C82.9398 9.34456 82.9239 9.33088 82.9041 9.30975C82.8842 9.28849 82.8637 9.26321 82.8442 9.23478L89.4487 4.7203C88.5757 3.44315 87.3835 2.5586 86.0853 1.98584L82.8561 9.30518ZM82.8775 9.28263C82.8383 9.22708 82.7965 9.14801 82.7679 9.05538C82.7398 8.96449 82.7373 8.90252 82.7373 8.88965H90.7373C90.7373 7.39 90.3086 5.93902 89.4155 4.67245L82.8775 9.28263ZM86.7373 4.88965H83.6436V12.8896H86.7373V4.88965ZM87.6436 8.88965C87.6436 7.99951 87.4474 7.05883 86.9618 6.16858L79.9386 9.99939C79.7108 9.58179 79.6436 9.17823 79.6436 8.88965H87.6436ZM87.0279 6.29513C86.4896 5.21846 85.644 4.4425 84.6973 3.95638L81.0429 11.0729C80.6262 10.8589 80.1673 10.4625 79.8725 9.87284L87.0279 6.29513ZM84.8127 4.01802C83.7672 3.43717 82.6932 3.2998 81.8604 3.2998V11.2998C81.8583 11.2998 81.4575 11.3057 80.9275 11.0113L84.8127 4.01802ZM81.8604 3.2998C81.0496 3.2998 80.1286 3.44362 79.2211 3.88439L82.7164 11.0805C82.3102 11.2777 81.9836 11.2998 81.8604 11.2998V3.2998ZM79.3057 3.84452C78.4825 4.22085 77.6801 4.82284 77.0788 5.70907L83.6986 10.2011C83.3693 10.6863 82.9537 10.9732 82.6318 11.1203L79.3057 3.84452ZM77.0605 5.73628C76.4857 6.59845 76.1953 7.58782 76.1953 8.59961H84.1953C84.1953 9.13874 84.0338 9.69842 83.7169 10.1739L77.0605 5.73628ZM76.1953 8.59961C76.1953 9.32553 76.3444 10.1105 76.725 10.8719L83.8804 7.29415C84.1179 7.76902 84.1953 8.23176 84.1953 8.59961H76.1953ZM76.841 11.0872C77.3079 11.8936 77.9314 12.4349 78.4599 12.7872L82.8975 6.13078C83.0822 6.25393 83.4551 6.54452 83.7644 7.07886L76.841 11.0872ZM78.4599 12.7872C78.974 13.1299 79.5037 13.3658 79.9619 13.5346L82.7275 6.02788C82.6931 6.01519 82.6919 6.01301 82.7164 6.02485C82.7397 6.03615 82.8052 6.06923 82.8975 6.13078L78.4599 12.7872ZM80.0798 13.576C80.577 13.7417 81.102 13.867 81.618 13.9666L83.1339 6.11153C82.8335 6.05356 82.671 6.00698 82.6096 5.98652L80.0798 13.576ZM81.5722 13.9575C82.199 14.0861 82.6869 14.2405 83.0599 14.3986L86.1823 7.03306C85.2376 6.6326 84.2287 6.33582 83.1798 6.12065L81.5722 13.9575ZM83.0941 14.4129C83.1736 14.4457 83.1977 14.4651 83.1866 14.4572C83.1811 14.4533 83.1685 14.4437 83.1512 14.4277C83.1338 14.4115 83.114 14.3909 83.0936 14.366L89.2853 9.30006C88.4148 8.23616 87.3155 7.50095 86.1481 7.01877L83.0941 14.4129ZM83.1127 14.3891C82.9551 14.1994 82.8599 14.0032 82.8102 13.8459C82.7638 13.6989 82.7695 13.6266 82.7695 13.6699H90.7695C90.7695 12.2211 90.3888 10.6282 89.2662 9.27693L83.1127 14.3891ZM82.7695 13.6699C82.7695 13.6293 82.7743 13.5589 82.7962 13.4687C82.8183 13.3775 82.8528 13.2873 82.8964 13.2055L89.9552 16.9702C90.5115 15.9271 90.7695 14.8023 90.7695 13.6699H82.7695ZM82.8964 13.2055C82.9298 13.1429 82.9665 13.0924 82.9983 13.0561C83.0293 13.0207 83.0468 13.0088 83.0375 13.0158L87.8375 19.4158C88.6868 18.7788 89.4232 17.9677 89.9552 16.9702L82.8964 13.2055ZM83.072 12.9902C83.0719 12.9903 82.9876 13.0524 82.7496 13.1232L85.0316 20.7908C85.9967 20.5036 86.9437 20.0715 87.803 19.4414L83.072 12.9902ZM82.7795 13.1144C82.6109 13.1632 82.3245 13.2148 81.8818 13.2148V21.2148C82.9288 21.2148 83.9816 21.0946 85.0017 20.7996L82.7795 13.1144ZM81.8818 13.2148C81.2644 13.2148 81.0116 13.1035 80.9612 13.0776L77.3024 20.1919C78.7559 20.9394 80.3365 21.2148 81.8818 21.2148V13.2148ZM80.9751 13.0848C80.8486 13.0191 80.7883 12.9711 80.7694 12.9547C80.7529 12.9404 80.766 12.9488 80.7874 12.9817L74.0817 17.3445C74.9088 18.6157 76.0437 19.5384 77.2886 20.1847L80.9751 13.0848ZM80.8175 13.0286C80.7965 12.9954 80.8112 13.0104 80.8302 13.0721C80.8502 13.137 80.8652 13.2222 80.8652 13.3154H72.8652C72.8652 14.7952 73.3223 16.1416 74.0517 17.2975L80.8175 13.0286ZM76.8652 17.3154H79.7979V9.31543H76.8652V17.3154ZM75.8001 13.4509C75.8346 14.4682 76.1106 15.6962 76.9627 16.7917L83.2775 11.8802C83.7286 12.4601 83.7897 13.0077 83.7956 13.1799L75.8001 13.4509ZM77.0051 16.8453C77.6767 17.6789 78.5457 18.2931 79.5373 18.6537L82.2713 11.1354C82.6327 11.2668 82.9789 11.5086 83.2351 11.8266L77.0051 16.8453ZM79.5643 18.6634C80.3533 18.9439 81.1578 19.0664 81.9463 19.0664V11.0664C81.99 11.0664 82.0998 11.0743 82.2443 11.1257L79.5643 18.6634ZM81.9463 19.0664C82.6701 19.0664 83.5551 18.9743 84.4481 18.6122L81.4425 11.1983C81.6331 11.121 81.781 11.0899 81.8599 11.0772C81.939 11.0644 81.9721 11.0664 81.9463 11.0664V19.0664ZM84.533 18.5767C85.2893 18.2496 86.126 17.7042 86.7764 16.8142L80.3173 12.094C80.6956 11.5764 81.1312 11.3318 81.3577 11.2338L84.533 18.5767ZM86.7611 16.835C87.4369 15.9227 87.7617 14.8579 87.7617 13.7881H79.7617C79.7617 13.2196 79.9433 12.5988 80.3326 12.0732L86.7611 16.835Z" fill="url(#paint0_linear_154_128)"/>
<defs>
<linearGradient id="paint0_linear_154_128" x1="43.9845" y1="-9.5" x2="43.9845" y2="25.5" gradientUnits="userSpaceOnUse">
<stop stop-color="#0078D6"/>
<stop offset="1" stop-color="#00A4EB"/>
</linearGradient>
</defs>
</svg>
