<svg width="1041" height="266" viewBox="0 0 1041 266" fill="none" xmlns="http://www.w3.org/2000/svg">
<rect width="1041" height="266" fill="white"/>
<path d="M180.357 104.123H214.391V102.399L214.219 100.684L180.357 104.123ZM180.357 222.756V257H214.391V222.756H180.357ZM154.034 222.756H120V257H154.034V222.756ZM154.034 84.995V50.7513H120V84.995H154.034ZM178.437 84.995L212.299 81.5552L209.208 50.7513H178.437V84.995ZM240.406 155.715L207.61 146.567L207.568 146.719L207.527 146.871L240.406 155.715ZM233.094 171.9L260.764 191.839L260.827 191.751L260.889 191.663L233.094 171.9ZM221.03 182.568L236.865 212.88L236.936 212.842L237.006 212.804L221.03 182.568ZM177.615 172.36L149.357 191.445L149.507 191.67L149.661 191.892L177.615 172.36ZM166.19 137.874H132.156V140.351L132.511 142.803L166.19 137.874ZM166.19 132.816L132.465 128.214L132.156 130.504V132.816H166.19ZM170.394 112.952L202.938 122.975L202.966 122.883L170.394 112.952ZM177.615 97.2261L149.536 77.8753L149.479 77.9598L177.615 97.2261ZM188.766 86.8343L172.411 56.8033L172.324 56.8513L172.237 56.8999L188.766 86.8343ZM220.938 86.7423L205.718 117.371L205.795 117.41L205.873 117.448L220.938 86.7423ZM233.003 97.0422L205.462 117.161L205.551 117.284L205.642 117.407L233.003 97.0422ZM240.406 113.044L207.527 121.887L207.568 122.04L207.61 122.192L240.406 113.044ZM215.454 121.964L181.997 128.24L182.058 128.572L182.126 128.902L215.454 121.964ZM212.164 112.492L182.286 128.89L182.427 129.15L182.573 129.409L212.164 112.492ZM206.314 106.239L187.947 135.067L188.372 135.341L188.804 135.603L206.314 106.239ZM188.4 105.687L174.372 74.487L174.231 74.5513L174.09 74.617L188.4 105.687ZM177.249 129.046L143.254 127.417L143.215 128.231V129.046H177.249ZM177.249 141.828H143.215V142.984L143.293 144.137L177.249 141.828ZM179.809 154.059L148.099 166.497L148.135 166.59L148.171 166.682L179.809 154.059ZM186.298 162.52L166.626 190.464L186.298 162.52ZM206.589 163.348L224.955 192.177L225.213 192.011L225.467 191.84L206.589 163.348ZM212.347 156.818L182.596 140.188L182.454 140.445L182.317 140.703L212.347 156.818ZM215.546 147.254L182.088 140.978L182.037 141.254L181.99 141.532L215.546 147.254ZM146.323 104.123V222.756H214.391V104.123H146.323ZM180.357 188.513H154.034V257H180.357V188.513ZM188.068 222.756V84.995H120V222.756H188.068ZM154.034 119.239H178.437V50.7513H154.034V119.239ZM144.576 88.4349L146.495 107.563L214.219 100.684L212.299 81.5552L144.576 88.4349ZM208.932 133.644V135.575H277V133.644H208.932ZM208.932 135.575C208.932 140.1 208.399 143.7 207.61 146.567L273.203 164.863C275.826 155.345 277 145.519 277 135.575H208.932ZM207.527 146.871C206.779 149.685 205.908 151.272 205.3 152.138L260.889 191.663C266.739 183.332 270.743 174.128 273.286 164.558L207.527 146.871ZM205.425 151.961C205.341 152.08 205.28 152.152 205.246 152.19C205.212 152.227 205.194 152.243 205.19 152.247C205.186 152.25 205.181 152.254 205.169 152.263C205.157 152.272 205.122 152.296 205.053 152.331L237.006 212.804C246.537 207.706 254.533 200.593 260.764 191.839L205.425 151.961ZM205.194 152.257C205.363 152.168 205.512 152.104 205.628 152.061C205.744 152.018 205.804 152.004 205.794 152.007C205.775 152.011 205.405 152.094 204.578 152.094V220.582C215.437 220.582 226.51 218.356 236.865 212.88L205.194 152.257ZM204.578 152.094C203.849 152.094 203.641 152.021 203.832 152.065C203.928 152.087 204.11 152.137 204.358 152.23C204.607 152.325 204.897 152.456 205.211 152.629L172.503 212.691C182.834 218.387 193.91 220.582 204.578 220.582V152.094ZM205.211 152.629C205.271 152.662 205.345 152.707 205.424 152.765C205.504 152.821 205.572 152.878 205.624 152.926C205.677 152.974 205.699 153.001 205.694 152.994C205.688 152.987 205.644 152.937 205.569 152.827L149.661 191.892C155.55 200.425 163.186 207.555 172.503 212.691L205.211 152.629ZM205.873 153.275C204.954 151.897 203.868 149.787 202.879 146.604L137.91 167.032C140.577 175.621 144.305 183.872 149.357 191.445L205.873 153.275ZM202.879 146.604C201.64 142.615 200.612 138.083 199.869 132.945L132.511 142.803C133.718 151.153 135.493 159.25 137.91 167.032L202.879 146.604ZM200.224 137.874V132.816H132.156V137.874H200.224ZM199.915 137.417C200.681 131.732 201.727 126.954 202.938 122.975L137.851 102.928C135.406 110.966 133.649 119.43 132.465 128.214L199.915 137.417ZM202.966 122.883C203.976 119.528 205.029 117.56 205.751 116.492L149.479 77.9598C144.229 85.7212 140.469 94.2361 137.823 103.021L202.966 122.883ZM205.694 116.577C205.877 116.309 205.93 116.287 205.815 116.394C205.761 116.444 205.685 116.509 205.588 116.58C205.491 116.651 205.39 116.715 205.294 116.769L172.237 56.8999C162.899 62.1201 155.339 69.3511 149.536 77.8754L205.694 116.577ZM205.12 116.865C204.82 117.031 204.539 117.157 204.294 117.251C204.049 117.344 203.866 117.394 203.761 117.419C203.551 117.468 203.722 117.4 204.395 117.4V48.912C193.723 48.912 182.694 51.1342 172.411 56.8033L205.12 116.865ZM204.395 117.4C205.389 117.4 205.914 117.494 206.069 117.528C206.206 117.557 206.048 117.537 205.718 117.371L236.159 56.1138C225.897 50.9512 215.003 48.912 204.395 48.912V117.4ZM205.873 117.448C205.861 117.442 205.816 117.419 205.749 117.375C205.681 117.33 205.611 117.278 205.546 117.222C205.48 117.166 205.437 117.122 205.417 117.1C205.397 117.078 205.414 117.094 205.462 117.161L260.543 76.9236C254.152 68.065 245.889 60.9468 236.004 56.0364L205.873 117.448ZM205.642 117.407C206.036 117.943 206.821 119.229 207.527 121.887L273.286 104.2C270.702 94.4745 266.551 85.0927 260.365 76.6774L205.642 117.407ZM207.61 122.192C208.367 124.942 208.932 128.673 208.932 133.644H277C277 123.531 275.858 113.53 273.203 103.895L207.61 122.192ZM250.585 135.575V133.644H182.517V135.575H250.585ZM250.585 133.644C250.585 127.454 250.052 121.202 248.782 115.026L182.126 128.902C182.319 129.838 182.517 131.373 182.517 133.644H250.585ZM248.911 115.688C247.674 109.009 245.455 102.129 241.755 95.5753L182.573 129.409C181.919 128.25 181.894 127.685 181.997 128.24L248.911 115.688ZM242.042 96.0943C237.902 88.4564 231.845 81.7165 223.825 76.8748L188.804 135.603C185.659 133.704 183.502 131.132 182.286 128.89L242.042 96.0943ZM224.681 77.4094C215.773 71.6638 206.183 69.6957 197.631 69.6957V138.183C195.904 138.183 192.103 137.748 187.947 135.067L224.681 77.4094ZM197.631 69.6957C190.503 69.6957 182.39 70.8376 174.372 74.487L202.428 136.887C200.971 137.549 199.747 137.873 198.919 138.03C198.105 138.184 197.642 138.183 197.631 138.183V69.6957ZM174.09 74.617C166.397 78.2041 159.747 83.6436 154.686 90.6953L209.867 130.794C207.974 133.431 205.407 135.499 202.71 136.757L174.09 74.617ZM154.686 90.6953C150.261 96.8602 147.457 103.521 145.773 110.037L211.65 127.27C211.551 127.655 211.123 129.043 209.867 130.794L154.686 90.6953ZM145.773 110.037C144.277 115.824 143.525 121.691 143.254 127.417L211.245 130.674C211.339 128.675 211.562 127.613 211.65 127.27L145.773 110.037ZM143.215 129.046V141.828H211.283V129.046H143.215ZM143.293 144.137C143.792 151.566 145.248 159.138 148.099 166.497L211.518 141.622C211.566 141.746 211.316 141.165 211.206 139.52L143.293 144.137ZM148.171 166.682C151.848 176.01 157.99 184.308 166.626 190.464L205.97 134.576C207.23 135.474 208.417 136.606 209.425 137.92C210.424 139.221 211.061 140.46 211.446 141.436L148.171 166.682ZM166.626 190.464C176.912 197.795 188.285 199.891 197.814 199.891V131.403C197.838 131.403 201.533 131.415 205.97 134.576L166.626 190.464ZM197.814 199.891C206.294 199.891 215.955 197.982 224.955 192.177L188.222 134.519C192.469 131.779 196.281 131.403 197.814 131.403V199.891ZM225.467 191.84C232.924 186.839 238.508 180.231 242.377 172.933L182.317 140.703C183.26 138.923 185.006 136.668 187.71 134.855L225.467 191.84ZM242.098 173.449C245.771 166.795 247.95 159.81 249.101 152.976L181.99 141.532C181.923 141.932 181.969 141.323 182.596 140.188L242.098 173.449ZM249.003 153.53C250.103 147.591 250.585 141.576 250.585 135.575H182.517C182.517 137.911 182.328 139.682 182.088 140.978L249.003 153.53ZM285.649 106.698H319.683V105.467L319.595 104.238L285.649 106.698ZM285.649 184.499V218.743H319.683V184.499H285.649ZM259.326 184.499H225.292V218.743H259.326V184.499ZM259.326 84.995V50.7513H225.292V84.995H259.326ZM284.096 84.995L318.041 82.5347L315.766 50.7513H284.096V84.995ZM315.445 84.3513L349.473 84.9924L349.924 60.7881L327.395 52.2879L315.445 84.3513ZM314.988 108.905L310.175 142.805L348.295 148.285L349.016 109.547L314.988 108.905ZM310.327 108.446L306.825 142.508L307.443 142.572L308.063 142.614L310.327 108.446ZM295.795 109.641L306.777 142.053L306.987 141.981L307.196 141.906L295.795 109.641ZM289.031 113.78L264.965 89.5655L264.761 89.7707L264.561 89.9793L289.031 113.78ZM285.009 120.493L252.875 109.214L252.757 109.551L252.648 109.891L285.009 120.493ZM283.547 129.505L273.459 162.21L315.942 175.476L317.559 130.749L283.547 129.505ZM278.246 127.85H244.212V153.077L268.158 160.555L278.246 127.85ZM280.165 110.101L313.269 118.05L313.289 117.965L280.165 110.101ZM285.74 95.8467L256.831 77.7768L256.732 77.9369L256.635 78.098L285.74 95.8467ZM294.88 86.4664L277.154 57.2346L294.88 86.4664ZM311.698 83.5236L306.321 117.337L306.98 117.443L307.643 117.523L311.698 83.5236ZM251.615 106.698V184.499H319.683V106.698H251.615ZM285.649 150.255H259.326V218.743H285.649V150.255ZM293.36 184.499V84.995H225.292V184.499H293.36ZM259.326 119.239H284.096V50.7513H259.326V119.239ZM250.149 87.4553L251.703 109.159L319.595 104.238L318.041 82.5347L250.149 87.4553ZM281.417 83.7101L280.96 108.264L349.016 109.547L349.473 84.9924L281.417 83.7101ZM319.801 75.0058C317.409 74.6619 314.952 74.4361 312.59 74.2777L308.063 142.614C309.358 142.7 310.009 142.781 310.175 142.805L319.801 75.0058ZM313.829 74.3836C311.136 74.1033 308.331 73.926 305.483 73.926V142.414C305.559 142.414 305.985 142.42 306.825 142.508L313.829 74.3836ZM305.483 73.926C298.906 73.926 291.65 74.7797 284.393 77.3762L307.196 141.906C306.284 142.232 305.634 142.355 305.352 142.397C305.075 142.44 305.097 142.414 305.483 142.414V73.926ZM284.813 77.2291C277.684 79.6745 270.816 83.6789 264.965 89.5655L313.097 137.994C310.902 140.201 308.543 141.447 306.777 142.053L284.813 77.2291ZM264.561 89.9793C259.065 95.7006 255.262 102.328 252.875 109.214L317.144 131.772C316.585 133.385 315.464 135.537 313.501 137.579L264.561 89.9793ZM252.648 109.891C250.63 116.126 249.749 122.371 249.536 128.261L317.559 130.749C317.573 130.344 317.602 130.187 317.593 130.241C317.584 130.297 317.531 130.6 317.371 131.094L252.648 109.891ZM293.634 96.8003L288.334 95.1449L268.158 160.555L273.459 162.21L293.634 96.8003ZM312.28 127.85C312.28 123.672 312.697 120.464 313.269 118.05L247.061 102.152C245.074 110.528 244.212 119.152 244.212 127.85H312.28ZM313.289 117.965C313.898 115.368 314.558 114.073 314.846 113.595L256.635 78.098C252.048 85.7133 248.991 93.9208 247.041 102.237L313.289 117.965ZM314.65 113.916C314.697 113.84 314.57 114.062 314.202 114.44C313.823 114.828 313.288 115.28 312.608 115.698L277.154 57.2346C268.478 62.5613 261.786 69.7516 256.831 77.7768L314.65 113.916ZM312.608 115.698C311.588 116.324 310.494 116.786 309.43 117.071C308.387 117.351 307.607 117.4 307.219 117.4V48.912C296.977 48.912 286.611 51.4282 277.154 57.2346L312.608 115.698ZM307.219 117.4C306.785 117.4 306.479 117.363 306.321 117.337L317.075 49.71C313.87 49.194 310.578 48.912 307.219 48.912V117.4ZM307.643 117.523C307.523 117.509 307.113 117.456 306.481 117.316C305.865 117.18 304.82 116.915 303.495 116.415L327.395 52.2879C322.984 50.6236 318.831 49.8954 315.753 49.5238L307.643 117.523ZM324.037 113.688L356.259 124.71L356.293 124.613L324.037 113.688ZM333.086 97.5939L307.515 74.9951L333.086 97.5939ZM347.709 87.0182L361.195 118.459L361.334 118.399L361.471 118.338L347.709 87.0182ZM387.651 87.0182L374.01 118.391L374.147 118.451L374.284 118.51L387.651 87.0182ZM402.367 97.5939L376.796 120.193L376.881 120.29L376.967 120.387L402.367 97.5939ZM411.506 113.688L379.251 124.613L379.284 124.71L411.506 113.688ZM411.506 155.899L443.729 166.922L443.761 166.823L411.506 155.899ZM402.367 171.993L376.817 149.369L376.796 149.393L402.367 171.993ZM387.742 182.568L374.256 151.127L387.742 182.568ZM347.801 182.568L334.315 214.009L334.374 214.034L334.433 214.06L347.801 182.568ZM333.086 171.993L307.366 194.42L307.525 194.604L307.686 194.785L333.086 171.993ZM324.037 155.899L291.781 166.824L291.815 166.922L324.037 155.899ZM351.822 157.002L322.354 174.134L322.579 174.526L322.814 174.913L351.822 157.002ZM383.538 157.002L412.839 174.423L412.923 174.278L413.006 174.134L383.538 157.002ZM387.011 147.438L353.775 140.07L353.715 140.341L353.66 140.613L387.011 147.438ZM387.011 122.424L353.66 129.249L353.727 129.582L353.801 129.914L387.011 122.424ZM383.446 112.86L353.818 129.71L354.035 130.097L354.262 130.478L383.446 112.86ZM358.129 106.239L340.52 76.935L340.366 77.0278L340.215 77.1223L358.129 106.239ZM351.822 112.86L322.471 95.5256L322.412 95.6269L322.354 95.7285L351.822 112.86ZM348.349 122.424L381.677 129.362L381.7 129.249L348.349 122.424ZM354.963 135.758V133.828H286.896V135.758H354.963ZM354.963 133.828C354.963 129.812 355.528 126.873 356.259 124.71L291.815 102.664C288.402 112.764 286.896 123.252 286.896 133.828H354.963ZM356.293 124.613C357.045 122.363 357.907 121.051 358.655 120.193L307.515 74.9951C300.343 83.2104 295.173 92.6275 291.781 102.762L356.293 124.613ZM358.655 120.193C359.121 119.66 359.796 119.066 361.195 118.459L334.223 55.5776C324.045 59.9974 314.971 66.4542 307.515 74.9951L358.655 120.193ZM361.471 118.338C362.202 118.013 364.019 117.4 367.634 117.4V48.912C356.261 48.912 344.795 50.8738 333.948 55.6988L361.471 118.338ZM367.634 117.4C371.24 117.4 373.144 118.01 374.01 118.391L401.292 55.6455C390.459 50.8768 379.018 48.912 367.634 48.912V117.4ZM374.284 118.51C375.743 119.137 376.391 119.729 376.796 120.193L427.936 74.9951C420.42 66.3851 411.258 59.9267 401.018 55.5263L374.284 118.51ZM376.967 120.387C377.707 121.222 378.534 122.47 379.251 124.613L443.761 102.762C440.335 92.5206 435.068 83.0392 427.765 74.8008L376.967 120.387ZM379.284 124.71C380.015 126.873 380.58 129.812 380.58 133.828H448.648C448.648 123.252 447.142 112.764 443.729 102.664L379.284 124.71ZM380.58 133.828V135.758H448.648V133.828H380.58ZM380.58 135.758C380.58 139.674 380.026 142.658 379.251 144.973L443.761 166.823C447.131 156.755 448.648 146.312 448.648 135.758H380.58ZM379.284 144.876C378.572 146.983 377.709 148.35 376.817 149.37L427.916 194.615C435.066 186.438 440.297 177.075 443.729 166.922L379.284 144.876ZM376.796 149.393C376.331 149.926 375.655 150.52 374.256 151.127L401.228 214.009C411.407 209.589 420.48 203.132 427.936 194.591L376.796 149.393ZM374.256 151.127C373.452 151.477 371.535 152.094 367.817 152.094V220.582C379.089 220.582 390.456 218.686 401.228 214.009L374.256 151.127ZM367.817 152.094C364.11 152.094 362.108 151.48 361.168 151.076L334.433 214.06C345.192 218.683 356.535 220.582 367.817 220.582V152.094ZM361.287 151.127C359.845 150.501 359.065 149.853 358.485 149.199L307.686 194.785C315.15 203.206 324.18 209.608 334.315 214.009L361.287 151.127ZM358.804 149.565C357.905 148.52 357.008 147.09 356.259 144.876L291.815 166.922C295.209 176.969 300.345 186.268 307.366 194.42L358.804 149.565ZM356.293 144.973C355.517 142.658 354.963 139.674 354.963 135.758H286.896C286.896 146.312 288.413 156.755 291.781 166.823L356.293 144.973ZM313.218 133.828V135.758H381.286V133.828H313.218ZM313.218 135.758C313.218 141.931 313.759 148.133 314.998 154.263L381.7 140.613C381.477 139.509 381.286 137.924 381.286 135.758H313.218ZM314.998 154.263C316.348 160.941 318.666 167.711 322.354 174.134L381.291 139.871C381.811 140.776 381.813 141.169 381.7 140.613L314.998 154.263ZM322.814 174.913C327.289 182.248 333.439 188.462 341.114 192.951L375.327 133.744C377.762 135.168 379.647 137.151 380.83 139.092L322.814 174.913ZM341.114 192.951C350.064 198.187 359.496 199.891 367.817 199.891V131.403C368.583 131.403 371.616 131.573 375.327 133.744L341.114 192.951ZM367.817 199.891C376.243 199.891 385.546 198.094 394.337 192.951L360.126 133.744C363.676 131.666 366.703 131.403 367.817 131.403V199.891ZM394.337 192.951C402.134 188.391 408.377 182.02 412.839 174.423L354.238 139.582C355.53 137.38 357.569 135.239 360.126 133.744L394.337 192.951ZM413.006 174.134C416.695 167.711 419.012 160.941 420.362 154.263L353.66 140.613C353.548 141.169 353.549 140.776 354.069 139.871L413.006 174.134ZM420.248 154.806C421.632 148.489 422.233 142.102 422.233 135.758H354.165C354.165 137.754 353.976 139.152 353.775 140.07L420.248 154.806ZM422.233 135.758V133.828H354.165V135.758H422.233ZM422.233 133.828C422.233 127.535 421.617 121.202 420.221 114.935L353.801 129.914C353.989 130.758 354.165 132.027 354.165 133.828H422.233ZM420.362 115.599C418.973 108.724 416.532 101.785 412.63 95.2416L354.262 130.478C353.651 129.452 353.588 128.889 353.66 129.249L420.362 115.599ZM413.075 96.01C408.768 88.3427 402.634 81.7315 394.75 76.935L359.53 135.542C356.886 133.934 354.957 131.736 353.818 129.71L413.075 96.01ZM394.75 76.935C385.784 71.4804 376.229 69.6037 367.634 69.6037V138.091C366.474 138.091 363.256 137.809 359.53 135.542L394.75 76.935ZM367.634 69.6037C359.04 69.6037 349.485 71.4804 340.52 76.935L375.739 135.542C372.014 137.809 368.796 138.091 367.634 138.091V69.6037ZM340.215 77.1223C332.577 81.8798 326.69 88.2934 322.471 95.5256L381.174 130.194C380.245 131.786 378.563 133.785 376.043 135.355L340.215 77.1223ZM322.354 95.7285C318.666 102.151 316.348 108.921 314.998 115.599L381.7 129.249C381.813 128.693 381.811 129.086 381.291 129.991L322.354 95.7285ZM315.021 115.486C313.771 121.566 313.218 127.711 313.218 133.828H381.286C381.286 131.851 381.465 130.393 381.677 129.362L315.021 115.486ZM489.196 162.795H455.162V164.892L455.416 166.972L489.196 162.795ZM489.196 43.2437V9H455.162V43.2437H489.196ZM515.702 43.2437H549.736V9H515.702V43.2437ZM515.702 184.499V218.743H549.736V184.499H515.702ZM491.847 184.499L458.066 188.676L461.739 218.743H491.847V184.499ZM429.238 113.32L462.035 122.468L462.058 122.385L429.238 113.32ZM480.513 86.8343L463.807 116.669L463.896 116.719L463.985 116.769L480.513 86.8343ZM491.664 97.3181L463.463 116.49L463.612 116.711L463.764 116.93L491.664 97.3181ZM499.158 113.228L466.651 123.367L466.68 123.461L499.158 113.228ZM503.271 133.184H537.305V131.159L537.068 129.149L503.271 133.184ZM503.271 137.414L537.047 141.624L537.305 139.527V137.414H503.271ZM491.664 172.36L463.764 152.748L463.709 152.827L491.664 172.36ZM448.705 182.568L432.87 212.88L432.949 212.921L433.029 212.963L448.705 182.568ZM436.641 171.993L408.972 191.932L409.059 192.055L409.149 192.177L436.641 171.993ZM429.238 155.99L396.464 165.223L429.238 155.99ZM453.915 147.438L420.377 153.256L420.425 153.538L420.478 153.818L453.915 147.438ZM457.114 156.91L427.085 173.025L427.299 173.429L427.524 173.827L457.114 156.91ZM462.964 163.256L444.598 192.085L445.021 192.358L445.454 192.619L462.964 163.256ZM482.981 162.428L502.262 190.646L502.459 190.511L502.653 190.372L482.981 162.428ZM489.652 153.876L458.509 140.066L458.411 140.291L458.316 140.516L489.652 153.876ZM492.395 141.368L526.383 143.145L526.429 142.257V141.368H492.395ZM492.395 129.321H526.429V128.506L526.39 127.692L492.395 129.321ZM490.749 118.929L457.929 127.994L458.036 128.383L458.151 128.769L490.749 118.929ZM486.911 110.929L459.684 131.475L459.863 131.715L460.046 131.952L486.911 110.929ZM480.696 105.779L465.476 136.407L465.625 136.483L465.774 136.556L480.696 105.779ZM463.239 106.33L481.276 135.369L481.533 135.208L481.786 135.042L463.239 106.33ZM457.297 112.676L427.707 95.7592L427.56 96.0175L427.419 96.2782L457.297 112.676ZM454.007 122.24L420.634 115.524L420.59 115.744L420.549 115.964L454.007 122.24ZM523.229 162.795V43.2437H455.162V162.795H523.229ZM489.196 77.4875H515.702V9H489.196V77.4875ZM481.668 43.2437V184.499H549.736V43.2437H481.668ZM515.702 150.255H491.847V218.743H515.702V150.255ZM525.626 180.322L522.976 158.619L455.416 166.972L458.066 188.676L525.626 180.322ZM460.713 135.942V134.011H392.645V135.942H460.713ZM460.713 134.011C460.713 128.953 461.283 125.196 462.035 122.468L396.441 104.171C393.78 113.828 392.645 123.865 392.645 134.011H460.713ZM462.058 122.385C462.833 119.543 463.675 118.16 464.094 117.591L409.371 76.8613C403.209 85.243 399.055 94.589 396.418 104.255L462.058 122.385ZM464.094 117.591C464.177 117.477 464.233 117.414 464.259 117.386C464.284 117.359 464.289 117.357 464.276 117.368C464.262 117.38 464.245 117.392 464.233 117.401C464.219 117.41 464.226 117.404 464.262 117.385L433.514 56.2835C423.848 61.2081 415.731 68.2103 409.371 76.8613L464.094 117.591ZM464.262 117.385C464.033 117.502 463.911 117.522 463.995 117.504C464.095 117.481 464.513 117.4 465.34 117.4V48.912C454.6 48.912 443.725 51.0817 433.514 56.2835L464.262 117.385ZM465.34 117.4C465.847 117.4 465.859 117.453 465.502 117.366C465.122 117.274 464.511 117.068 463.807 116.669L497.218 56.9995C487.004 51.2095 476.004 48.912 465.34 48.912V117.4ZM463.985 116.769C463.862 116.7 463.739 116.621 463.623 116.536C463.508 116.451 463.417 116.374 463.354 116.315C463.22 116.189 463.272 116.205 463.463 116.49L519.863 78.1465C514.079 69.5326 506.492 62.1828 497.041 56.8999L463.985 116.769ZM463.764 116.93C464.541 118.049 465.625 120.036 466.651 123.367L531.666 103.088C528.915 94.1572 525.001 85.5384 519.563 77.7064L463.764 116.93ZM466.68 123.461C467.856 127.243 468.835 131.789 469.475 137.218L537.068 129.149C536.002 120.109 534.238 111.351 531.637 102.995L466.68 123.461ZM469.237 133.184V137.414H537.305V133.184H469.237ZM469.496 133.204C468.872 138.266 467.916 142.6 466.74 146.302L531.577 167.15C534.179 158.958 535.964 150.418 537.047 141.624L469.496 133.204ZM466.74 146.302C465.744 149.436 464.658 151.461 463.764 152.748L519.563 191.972C524.884 184.308 528.795 175.91 531.577 167.15L466.74 146.302ZM463.709 152.827C463.619 152.959 463.56 153.028 463.541 153.051C463.521 153.075 463.531 153.06 463.575 153.02C463.618 152.98 463.68 152.927 463.759 152.871C463.837 152.813 463.914 152.765 463.985 152.725L497.041 212.594C506.268 207.437 513.799 200.324 519.618 191.892L463.709 152.827ZM463.985 152.725C464.634 152.362 465.185 152.182 465.501 152.106C465.793 152.036 465.719 152.094 465.157 152.094V220.582C475.827 220.582 486.817 218.309 497.041 212.594L463.985 152.725ZM465.157 152.094C464.387 152.094 464.03 152.017 463.988 152.007C463.964 152.002 463.999 152.009 464.08 152.039C464.162 152.069 464.267 152.113 464.383 152.174L433.029 212.963C443.304 218.328 454.289 220.582 465.157 220.582V152.094ZM464.541 152.257C464.523 152.247 464.511 152.24 464.504 152.236C464.497 152.232 464.494 152.23 464.493 152.229C464.492 152.229 464.492 152.228 464.491 152.228C464.49 152.227 464.487 152.224 464.481 152.219C464.473 152.212 464.351 152.106 464.133 151.807L409.149 192.177C415.38 200.769 423.33 207.834 432.87 212.88L464.541 152.257ZM464.31 152.053C463.69 151.181 462.797 149.582 462.011 146.757L396.464 165.223C399.091 174.661 403.134 183.73 408.972 191.932L464.31 152.053ZM462.011 146.757C461.246 144.009 460.713 140.473 460.713 135.942H392.645C392.645 145.882 393.817 155.71 396.464 165.223L462.011 146.757ZM418.968 134.011V135.942H487.035V134.011H418.968ZM418.968 135.942C418.968 141.738 419.396 147.536 420.377 153.256L487.455 141.62C487.216 140.227 487.035 138.363 487.035 135.942H418.968ZM420.478 153.818C421.69 160.25 423.772 166.776 427.085 173.025L487.144 140.796C487.532 141.527 487.482 141.737 487.353 141.058L420.478 153.818ZM427.524 173.827C431.516 180.897 437.155 187.285 444.598 192.085L481.331 134.426C484.02 136.161 485.76 138.319 486.705 139.993L427.524 173.827ZM445.454 192.619C454.241 197.924 463.555 199.707 471.83 199.707V131.219C473.158 131.219 476.561 131.53 480.474 133.892L445.454 192.619ZM471.83 199.707C481.363 199.707 492.302 197.536 502.262 190.646L463.699 134.21C467.81 131.367 471.315 131.219 471.83 131.219V199.707ZM502.653 190.372C511.194 184.284 517.228 176.168 520.989 167.235L458.316 140.516C458.63 139.77 459.178 138.728 460.071 137.583C460.976 136.422 462.077 135.362 463.309 134.484L502.653 190.372ZM520.797 167.685C524.338 159.599 525.966 151.224 526.383 143.145L458.407 139.592C458.336 140.955 458.136 140.918 458.509 140.066L520.797 167.685ZM526.429 141.368V129.321H458.361V141.368H526.429ZM526.39 127.692C526.102 121.602 525.202 115.31 523.348 109.09L458.151 128.769C458.124 128.68 458.322 129.315 458.399 130.95L526.39 127.692ZM523.57 109.865C521.719 103.082 518.631 96.1866 513.776 89.905L460.046 131.952C458.603 130.085 458.074 128.523 457.929 127.994L523.57 109.865ZM514.138 90.3824C509.209 83.7699 502.896 78.5741 495.617 75.0015L465.774 136.556C463.491 135.436 461.323 133.673 459.684 131.475L514.138 90.3824ZM495.916 75.1502C487.791 71.0625 479.455 69.6957 472.013 69.6957V138.183C471.273 138.183 468.726 138.042 465.476 136.407L495.916 75.1502ZM472.013 69.6957C463.183 69.6957 453.551 71.824 444.69 77.6191L481.786 135.042C477.8 137.649 474.018 138.183 472.013 138.183V69.6957ZM445.201 77.2919C437.625 82.0556 431.812 88.4891 427.707 95.7592L486.888 129.593C485.83 131.468 483.977 133.671 481.276 135.369L445.201 77.2919ZM427.419 96.2782C423.998 102.59 421.895 109.179 420.634 115.524L487.38 128.956C487.476 128.471 487.547 128.268 487.54 128.291C487.53 128.318 487.43 128.604 487.176 129.074L427.419 96.2782ZM420.549 115.964C419.444 121.931 418.968 127.981 418.968 134.011H487.035C487.035 131.581 487.229 129.784 487.464 128.517L420.549 115.964ZM594.763 160.681H560.729V161.803L560.801 162.924L594.763 160.681ZM594.763 84.995V50.7513H560.729V84.995H594.763ZM621.085 84.995H655.119V50.7513H621.085V84.995ZM621.085 184.499V218.743H655.119V184.499H621.085ZM596.316 184.499L562.356 186.742L564.443 218.743H596.316V184.499ZM597.687 140.265L596.886 106.031L563.653 106.817V140.265H597.687ZM605.456 140.081H639.49V105.022L604.655 105.847L605.456 140.081ZM603.171 158.566L636.014 167.545L636.038 167.455L603.171 158.566ZM596.316 173.28L623.592 193.76L623.664 193.663L623.736 193.565L596.316 173.28ZM584.8 182.936L599.697 213.724L599.859 213.646L600.02 213.564L584.8 182.936ZM555.094 184.315L543.895 216.651L544.186 216.753L544.478 216.85L555.094 184.315ZM544.675 177.786L520.114 201.49L520.359 201.748L520.61 201.999L544.675 177.786ZM537.912 166.29L505.666 177.245L505.752 177.501L505.841 177.754L537.912 166.29ZM535.535 84.995V50.7513H501.501V84.995H535.535ZM561.859 84.995H595.892V50.7513H561.859V84.995ZM562.863 156.91L530.576 167.739L530.722 168.178L530.879 168.613L562.863 156.91ZM570.359 164.635L559.944 197.236L560.107 197.289L560.271 197.34L570.359 164.635ZM589.004 162.152L569.632 133.997L569.504 134.086L569.378 134.176L589.004 162.152ZM595.676 153.14L563.545 141.85L563.492 142.002L563.441 142.154L595.676 153.14ZM628.796 160.681V84.995H560.729V160.681H628.796ZM594.763 119.239H621.085V50.7513H594.763V119.239ZM587.051 84.995V184.499H655.119V84.995H587.051ZM621.085 150.255H596.316V218.743H621.085V150.255ZM630.277 182.256L628.723 158.438L560.801 162.924L562.356 186.742L630.277 182.256ZM598.488 174.499L606.257 174.315L604.655 105.847L596.886 106.031L598.488 174.499ZM571.422 140.081C571.422 144.059 570.965 147.2 570.304 149.676L636.038 167.455C638.423 158.528 639.49 149.346 639.49 140.081H571.422ZM570.328 149.586C569.763 151.677 569.158 152.636 568.897 152.994L623.736 193.565C629.567 185.585 633.532 176.734 636.014 167.545L570.328 149.586ZM569.04 152.799C569.081 152.743 569.194 152.611 569.364 152.468C569.532 152.326 569.632 152.281 569.579 152.307L600.02 213.564C609.321 208.885 617.315 202.223 623.592 193.76L569.04 152.799ZM569.903 152.147C570.816 151.7 570.662 152.094 568.439 152.094V220.582C578.768 220.582 589.521 218.71 599.697 213.724L569.903 152.147ZM568.439 152.094C566.804 152.094 565.984 151.87 565.712 151.78L544.478 216.85C552.372 219.458 560.447 220.582 568.439 220.582V152.094ZM566.295 151.979C566.564 152.073 566.98 152.254 567.466 152.558C567.955 152.865 568.39 153.218 568.741 153.572L520.61 201.999C527.269 208.701 535.18 213.596 543.895 216.651L566.295 151.979ZM569.237 154.081C569.735 154.604 570.011 155.025 570.123 155.214C570.228 155.392 570.15 155.302 569.982 154.827L505.841 177.754C508.802 186.136 513.347 194.392 520.114 201.49L569.237 154.081ZM570.157 155.335C570.074 155.089 569.569 153.322 569.569 149.277H501.501C501.501 158.475 502.581 168.05 505.666 177.245L570.157 155.335ZM569.569 149.277V84.995H501.501V149.277H569.569ZM535.535 119.239H561.859V50.7513H535.535V119.239ZM527.825 84.995V149.461H595.892V84.995H527.825ZM527.825 149.461C527.825 154.791 528.403 161.178 530.576 167.739L595.151 146.081C595.59 147.408 595.764 148.406 595.834 148.922C595.904 149.444 595.892 149.649 595.892 149.461H527.825ZM530.879 168.613C533.003 174.49 536.435 180.678 541.814 186.09L589.946 137.662C592.766 140.5 594.187 143.377 594.849 145.208L530.879 168.613ZM541.814 186.09C546.879 191.185 553.038 195.003 559.944 197.236L580.773 132.034C584.267 133.164 587.44 135.142 589.946 137.662L541.814 186.09ZM560.271 197.34C565.759 199.054 571.166 199.707 576.208 199.707V131.219C576.985 131.219 578.492 131.32 580.446 131.93L560.271 197.34ZM576.208 199.707C585.78 199.707 597.808 197.815 608.631 190.128L569.378 134.176C573.985 130.903 577.483 131.219 576.208 131.219V199.707ZM608.376 190.307C617.775 183.76 624.375 174.629 627.912 164.125L563.441 142.154C563.863 140.899 564.59 139.361 565.755 137.787C566.927 136.204 568.285 134.935 569.632 133.997L608.376 190.307ZM627.807 164.429C630.585 156.427 631.721 148.249 631.721 140.265H563.653C563.653 141.723 563.449 142.128 563.545 141.85L627.807 164.429ZM689.634 84.995H723.668V50.7513H689.634V84.995ZM689.634 103.756V138H723.668V103.756H689.634ZM632.053 103.756H598.02V138H632.053V103.756ZM632.053 84.995V50.7513H598.02V84.995H632.053ZM646.312 60.4409V26.1971H612.278V60.4409H646.312ZM672.635 60.4409H706.668V26.1971H672.635V60.4409ZM673.731 161.141L643.049 175.959L643.285 176.453L643.536 176.939L673.731 161.141ZM677.204 164.36L664.564 196.154L665.117 196.376L665.676 196.579L677.204 164.36ZM687.35 165.003L690.576 199.092L691.264 199.026L691.948 198.933L687.35 165.003ZM690.732 164.451L724.765 164.289L724.57 122.72L684.057 130.873L690.732 164.451ZM690.823 183.947L701.323 216.52L724.974 208.803L724.857 183.786L690.823 183.947ZM683.511 185.694L678.043 151.896L683.511 185.694ZM659.656 183.487L645.506 214.631L645.771 214.754L646.037 214.87L659.656 183.487ZM649.785 174.107L619.874 190.445L649.785 174.107ZM655.601 84.995V103.756H723.668V84.995H655.601ZM689.634 69.5118H632.053V138H689.634V69.5118ZM666.087 103.756V84.995H598.02V103.756H666.087ZM632.053 119.239H689.634V50.7513H632.053V119.239ZM646.312 94.6846H672.635V26.1971H646.312V94.6846ZM638.601 60.4409V154.519H706.668V60.4409H638.601ZM638.601 154.519C638.601 159.434 639.084 167.647 643.049 175.959L704.414 146.323C705.795 149.218 706.291 151.568 706.48 152.706C706.583 153.334 706.628 153.806 706.648 154.085C706.668 154.367 706.668 154.519 706.668 154.519H638.601ZM643.536 176.939C647.897 185.378 655.1 192.344 664.564 196.154L689.845 132.565C692.76 133.738 695.658 135.503 698.251 137.907C700.826 140.294 702.668 142.906 703.927 145.342L643.536 176.939ZM665.676 196.579C672.117 198.911 678.265 199.43 682.963 199.43V130.943C683.117 130.943 683.695 130.951 684.6 131.081C685.496 131.209 686.942 131.492 688.733 132.14L665.676 196.579ZM682.963 199.43C685.404 199.43 687.977 199.341 690.576 199.092L684.124 130.914C684.161 130.91 684.084 130.918 683.877 130.927C683.671 130.935 683.37 130.943 682.963 130.943V199.43ZM691.948 198.933C693.704 198.691 695.573 198.399 697.406 198.03L684.057 130.873C684.086 130.867 683.993 130.885 683.753 130.925C683.518 130.963 683.188 131.013 682.751 131.073L691.948 198.933ZM656.698 164.613L656.789 184.109L724.857 183.786L724.765 164.289L656.698 164.613ZM680.324 151.374C679.894 151.514 679.157 151.713 678.043 151.896L688.979 219.494C693.106 218.817 697.243 217.853 701.323 216.52L680.324 151.374ZM678.043 151.896C677.537 151.979 676.504 152.094 674.828 152.094V220.582C679.489 220.582 684.245 220.269 688.979 219.494L678.043 151.896ZM674.828 152.094C672.693 152.094 672.45 151.742 673.274 152.105L646.037 214.87C655.515 219.034 665.386 220.582 674.828 220.582V152.094ZM673.805 152.343C674.941 152.866 676.194 153.67 677.358 154.776C678.512 155.872 679.26 156.963 679.696 157.77L619.874 190.445C625.578 201.016 634.284 209.47 645.506 214.631L673.805 152.343ZM679.696 157.77C680.386 159.049 680.532 159.837 680.51 159.732C680.501 159.689 680.458 159.464 680.419 159.03C680.379 158.596 680.346 157.988 680.346 157.186H612.278C612.278 167.574 613.936 179.441 619.874 190.445L679.696 157.77ZM680.346 157.186V60.4409H612.278V157.186H680.346ZM701.152 113.688L733.374 124.71L733.406 124.613L701.152 113.688ZM710.199 97.5939L684.63 74.9951L710.199 97.5939ZM724.824 87.0182L738.31 118.459L738.448 118.399L738.585 118.338L724.824 87.0182ZM764.765 87.0182L751.124 118.391L751.26 118.451L751.398 118.51L764.765 87.0182ZM779.48 97.5939L753.91 120.193L753.996 120.29L754.081 120.387L779.48 97.5939ZM788.62 113.688L756.365 124.613L756.398 124.71L788.62 113.688ZM788.62 155.899L820.843 166.922L820.876 166.823L788.62 155.899ZM779.48 171.993L753.931 149.369L753.91 149.393L779.48 171.993ZM764.857 182.568L751.371 151.127L764.857 182.568ZM724.915 182.568L711.429 214.009L711.488 214.034L711.548 214.06L724.915 182.568ZM710.199 171.993L684.481 194.42L684.639 194.604L684.801 194.785L710.199 171.993ZM701.152 155.899L668.896 166.824L668.929 166.922L701.152 155.899ZM728.937 157.002L699.468 174.134L699.693 174.526L699.929 174.913L728.937 157.002ZM760.652 157.002L789.953 174.423L790.038 174.278L790.121 174.134L760.652 157.002ZM764.125 147.438L730.889 140.07L730.83 140.341L730.775 140.613L764.125 147.438ZM764.125 122.424L730.775 129.249L730.842 129.582L730.916 129.914L764.125 122.424ZM760.561 112.86L730.932 129.71L731.15 130.097L731.377 130.478L760.561 112.86ZM735.243 106.239L717.633 76.935L717.481 77.0278L717.33 77.1223L735.243 106.239ZM728.937 112.86L699.585 95.5256L699.526 95.6269L699.468 95.7285L728.937 112.86ZM725.464 122.424L758.791 129.362L758.814 129.249L725.464 122.424ZM732.077 135.758V133.828H664.01V135.758H732.077ZM732.077 133.828C732.077 129.812 732.643 126.873 733.374 124.71L668.929 102.664C665.516 112.764 664.01 123.252 664.01 133.828H732.077ZM733.406 124.613C734.159 122.363 735.02 121.051 735.77 120.193L684.63 74.9951C677.458 83.2104 672.287 92.6275 668.896 102.762L733.406 124.613ZM735.77 120.193C736.235 119.66 736.911 119.066 738.31 118.459L711.338 55.5776C701.159 59.9974 692.086 66.4542 684.63 74.9951L735.77 120.193ZM738.585 118.338C739.315 118.013 741.133 117.4 744.749 117.4V48.912C733.375 48.912 721.909 50.8738 711.062 55.6988L738.585 118.338ZM744.749 117.4C748.355 117.4 750.258 118.01 751.124 118.391L778.407 55.6455C767.574 50.8768 756.132 48.912 744.749 48.912V117.4ZM751.398 118.51C752.857 119.137 753.506 119.729 753.91 120.193L805.051 74.9951C797.535 66.3851 788.373 59.9267 778.133 55.5263L751.398 118.51ZM754.081 120.387C754.822 121.222 755.648 122.47 756.365 124.613L820.876 102.762C817.449 92.5206 812.183 83.0392 804.88 74.8008L754.081 120.387ZM756.398 124.71C757.129 126.873 757.695 129.812 757.695 133.828H825.762C825.762 123.252 824.255 112.764 820.843 102.664L756.398 124.71ZM757.695 133.828V135.758H825.762V133.828H757.695ZM757.695 135.758C757.695 139.674 757.14 142.658 756.365 144.973L820.876 166.823C824.244 156.755 825.762 146.312 825.762 135.758H757.695ZM756.398 144.876C755.686 146.983 754.824 148.35 753.931 149.37L805.031 194.615C812.181 186.438 817.412 177.075 820.843 166.922L756.398 144.876ZM753.91 149.393C753.445 149.926 752.77 150.52 751.371 151.127L778.343 214.009C788.521 209.589 797.595 203.132 805.051 194.591L753.91 149.393ZM751.371 151.127C750.566 151.477 748.649 152.094 744.932 152.094V220.582C756.204 220.582 767.57 218.686 778.343 214.009L751.371 151.127ZM744.932 152.094C741.224 152.094 739.223 151.48 738.282 151.076L711.548 214.06C722.307 218.683 733.65 220.582 744.932 220.582V152.094ZM738.401 151.127C736.959 150.501 736.178 149.853 735.599 149.199L684.801 194.785C692.264 203.206 701.294 209.608 711.429 214.009L738.401 151.127ZM735.919 149.565C735.019 148.52 734.122 147.09 733.374 144.876L668.929 166.922C672.324 176.969 677.459 186.268 684.481 194.42L735.919 149.565ZM733.406 144.973C732.632 142.658 732.077 139.674 732.077 135.758H664.01C664.01 146.312 665.527 156.755 668.896 166.823L733.406 144.973ZM690.333 133.828V135.758H758.401V133.828H690.333ZM690.333 135.758C690.333 141.931 690.873 148.133 692.112 154.263L758.814 140.613C758.591 139.509 758.401 137.924 758.401 135.758H690.333ZM692.112 154.263C693.462 160.941 695.78 167.711 699.468 174.134L758.405 139.871C758.925 140.776 758.927 141.169 758.814 140.613L692.112 154.263ZM699.929 174.913C704.403 182.248 710.553 188.462 718.229 192.951L752.441 133.744C754.876 135.168 756.76 137.151 757.945 139.092L699.929 174.913ZM718.229 192.951C727.179 198.187 736.611 199.891 744.932 199.891V131.403C745.697 131.403 748.731 131.573 752.441 133.744L718.229 192.951ZM744.932 199.891C753.357 199.891 762.661 198.094 771.452 192.951L737.239 133.744C740.791 131.666 743.818 131.403 744.932 131.403V199.891ZM771.452 192.951C779.248 188.391 785.492 182.02 789.953 174.423L731.351 139.582C732.645 137.38 734.683 135.239 737.239 133.744L771.452 192.951ZM790.121 174.134C793.81 167.711 796.126 160.941 797.477 154.263L730.775 140.613C730.662 141.169 730.664 140.776 731.184 139.871L790.121 174.134ZM797.362 154.806C798.745 148.489 799.348 142.102 799.348 135.758H731.28C731.28 137.754 731.089 139.152 730.889 140.07L797.362 154.806ZM799.348 135.758V133.828H731.28V135.758H799.348ZM799.348 133.828C799.348 127.535 798.732 121.202 797.335 114.935L730.916 129.914C731.104 130.758 731.28 132.027 731.28 133.828H799.348ZM797.477 115.599C796.087 108.724 793.647 101.785 789.745 95.2416L731.377 130.478C730.765 129.452 730.701 128.889 730.775 129.249L797.477 115.599ZM790.189 96.01C785.882 88.3427 779.748 81.7315 771.864 76.935L736.645 135.542C734.001 133.934 732.071 131.736 730.932 129.71L790.189 96.01ZM771.864 76.935C762.898 71.4804 753.343 69.6037 744.749 69.6037V138.091C743.588 138.091 740.37 137.809 736.645 135.542L771.864 76.935ZM744.749 69.6037C736.155 69.6037 726.599 71.4804 717.633 76.935L752.853 135.542C749.127 137.809 745.909 138.091 744.749 138.091V69.6037ZM717.33 77.1223C709.691 81.8798 703.804 88.2934 699.585 95.5256L758.288 130.194C757.359 131.786 755.677 133.785 753.157 135.355L717.33 77.1223ZM699.468 95.7285C695.78 102.151 693.462 108.921 692.112 115.599L758.814 129.249C758.927 128.693 758.925 129.086 758.405 129.991L699.468 95.7285ZM692.135 115.486C690.885 121.566 690.333 127.711 690.333 133.828H758.401C758.401 131.851 758.579 130.393 758.791 129.362L692.135 115.486ZM853.605 147.622L839.425 178.751L839.81 178.929L840.199 179.097L853.605 147.622ZM840.901 143.943L833.604 177.391L833.95 177.467L834.297 177.537L840.901 143.943ZM826.917 139.805L814.277 171.6L814.547 171.708L814.819 171.813L826.917 139.805ZM815.766 133.644L795.093 160.845L795.218 160.943L795.346 161.039L815.766 133.644ZM808.454 125.183L778.47 141.385L778.533 141.503L778.597 141.62L808.454 125.183ZM808.454 102.1L778.014 86.7859L777.911 86.9915L777.812 87.1984L808.454 102.1ZM816.223 92.3521L838.058 118.62L838.103 118.582L816.223 92.3521ZM828.653 85.6388L839.173 118.206L839.295 118.166L839.416 118.125L828.653 85.6388ZM867.407 87.2941L853.556 118.574L853.613 118.599L853.669 118.624L867.407 87.2941ZM881.665 98.6975L853.568 118.022L853.708 118.227L853.851 118.431L881.665 98.6975ZM886.692 115.067V149.31H920.726V115.067H886.692ZM860.37 115.067H826.336V149.31H860.37V115.067ZM858.724 108.17L828.283 123.484L828.555 124.031L828.846 124.567L858.724 108.17ZM853.788 103.296L837.26 133.23L837.746 133.502L838.242 133.758L853.788 103.296ZM837.611 103.02L851.761 134.163L852.122 133.997L852.48 133.823L837.611 103.02ZM832.675 107.066L804.513 87.8383L804.435 87.9544L804.357 88.0712L832.675 107.066ZM831.944 116.722L801.503 132.037L801.968 132.973L802.49 133.88L831.944 116.722ZM840.809 122.7L829.044 154.832L829.543 155.017L830.047 155.187L840.809 122.7ZM849.584 124.907L856.423 91.3618L856.228 91.3216L856.033 91.2837L849.584 124.907ZM868.687 130.701L855.403 162.229L855.549 162.29L855.694 162.351L868.687 130.701ZM882.031 140.265L855.69 161.95L855.771 162.049L855.852 162.147L882.031 140.265ZM875.633 177.786L895.76 205.4L895.907 205.291L896.053 205.181L875.633 177.786ZM862.471 184.131L871.925 217.027L872.052 216.99L872.179 216.952L862.471 184.131ZM821.981 181.373L806.298 211.763L806.357 211.794L806.416 211.825L821.981 181.373ZM807.54 168.774L778.757 187.046L778.883 187.248L779.012 187.448L807.54 168.774ZM802.696 152.956V118.712H768.662V152.956H802.696ZM827.649 152.956L861.663 151.796L860.548 118.712H827.649V152.956ZM830.39 161.692L803.525 182.716L803.704 182.947L803.886 183.175L830.39 161.692ZM837.062 166.474L825.431 198.656L825.546 198.698L825.661 198.739L837.062 166.474ZM854.428 166.567L867.215 198.301L867.577 198.154L867.937 197.997L854.428 166.567ZM859.547 162.704L832.198 142.321L832.132 142.41L832.068 142.499L859.547 162.704ZM895.408 157.002C895.408 147.969 892.645 139.244 887.349 131.843L832.109 171.861C829.008 167.526 827.341 162.234 827.341 157.002H895.408ZM887.349 131.843C880.871 122.791 872.047 118.318 867.012 116.147L840.199 179.097C840.179 179.088 839.983 179.003 839.652 178.826C839.324 178.649 838.789 178.343 838.112 177.876C836.87 177.018 834.455 175.14 832.109 171.861L887.349 131.843ZM867.786 116.492C861.282 113.493 854.015 111.646 847.505 110.351L834.297 177.537C836.373 177.949 837.848 178.316 838.824 178.599C839.861 178.899 839.952 178.994 839.425 178.751L867.786 116.492ZM848.198 110.496C844.666 109.716 841.625 108.796 839.014 107.798L814.819 171.813C820.861 174.124 827.142 175.964 833.604 177.391L848.198 110.496ZM839.557 108.011C837.634 107.237 836.62 106.575 836.187 106.249L795.346 161.039C801.25 165.494 807.669 168.94 814.277 171.6L839.557 108.011ZM836.44 106.442C836.614 106.575 836.924 106.842 837.289 107.265C837.659 107.693 838.012 108.195 838.311 108.746L778.597 141.62C782.786 149.323 788.451 155.735 795.093 160.845L836.44 106.442ZM838.438 108.981C839.649 111.251 839.838 113.169 839.838 113.871H771.77C771.77 123.035 773.725 132.494 778.47 141.385L838.438 108.981ZM839.838 113.871C839.838 114.241 839.796 114.759 839.659 115.369C839.521 115.98 839.32 116.538 839.097 117.002L777.812 87.1984C773.766 95.6206 771.77 104.65 771.77 113.871H839.838ZM838.895 117.414C838.717 117.772 838.513 118.084 838.319 118.327C838.129 118.565 838.014 118.656 838.058 118.62L794.389 66.0845C787.702 71.7115 782.073 78.6161 778.014 86.7859L838.895 117.414ZM838.103 118.582C837.924 118.733 837.858 118.754 837.986 118.685C838.122 118.611 838.491 118.429 839.173 118.206L818.134 53.0718C809.723 55.8223 801.568 60.0214 794.344 66.1222L838.103 118.582ZM839.416 118.125C840.313 117.824 842.141 117.4 845.288 117.4V48.912C836.127 48.912 826.865 50.1425 817.891 53.1523L839.416 118.125ZM845.288 117.4C850.373 117.4 852.785 118.228 853.556 118.574L881.258 56.0145C869.72 50.8423 857.387 48.912 845.288 48.912V117.4ZM853.669 118.624C854.426 118.96 854.608 119.143 854.455 119.021C854.381 118.961 854.246 118.844 854.077 118.663C853.908 118.481 853.734 118.265 853.568 118.022L909.762 79.3735C902.334 68.4399 892.19 60.8673 881.145 55.9639L853.669 118.624ZM853.851 118.431C853.518 117.956 853.162 117.279 852.919 116.486C852.68 115.708 852.658 115.177 852.658 115.067H920.726C920.726 102.229 917.078 89.8068 909.479 78.9638L853.851 118.431ZM886.692 80.8233H860.37V149.31H886.692V80.8233ZM894.403 115.067C894.403 107.447 892.734 99.3935 888.602 91.7721L828.846 124.567C826.907 120.992 826.336 117.538 826.336 115.067H894.403ZM889.165 92.8555C884.585 83.6382 877.39 76.9952 869.335 72.8336L838.242 133.758C834.696 131.926 830.792 128.532 828.283 123.484L889.165 92.8555ZM870.317 73.3613C861.421 68.3887 852.283 67.2126 845.197 67.2126V135.7C845.179 135.7 841.769 135.751 837.26 133.23L870.317 73.3613ZM845.197 67.2126C838.299 67.2126 830.462 68.4439 822.741 72.2173L852.48 133.823C849.024 135.511 846.245 135.7 845.197 135.7V67.2126ZM823.461 71.876C816.457 75.0977 809.629 80.2513 804.513 87.8383L860.837 126.294C858.036 130.448 854.5 132.904 851.761 134.163L823.461 71.876ZM804.357 88.0712C799.467 95.4522 796.996 103.922 796.996 112.584H865.064C865.064 117.199 863.69 121.991 860.993 126.061L804.357 88.0712ZM796.996 112.584C796.996 118.799 798.265 125.519 801.503 132.037L862.384 101.408C864.405 105.473 865.064 109.435 865.064 112.584H796.996ZM802.49 133.88C806.462 140.784 811.767 145.418 816.264 148.434L854.021 91.4485C855.593 92.5028 858.766 94.9905 861.397 99.5649L802.49 133.88ZM816.264 148.434C820.638 151.368 825.145 153.387 829.044 154.832L852.575 90.5676C852.282 90.4589 852.272 90.4403 852.48 90.5416C852.679 90.6384 853.236 90.9216 854.021 91.4485L816.264 148.434ZM830.047 155.187C834.278 156.605 838.744 157.678 843.135 158.53L856.033 91.2837C853.477 90.7874 852.094 90.3886 851.572 90.2135L830.047 155.187ZM842.745 158.453C848.078 159.553 852.229 160.875 855.403 162.229L881.97 99.1728C873.932 95.7445 865.348 93.2038 856.423 91.3618L842.745 158.453ZM855.694 162.351C856.371 162.632 856.576 162.798 856.481 162.73C856.434 162.697 856.327 162.615 856.18 162.478C856.032 162.339 855.863 162.163 855.69 161.95L908.372 118.58C900.965 109.473 891.612 103.178 881.679 99.0505L855.694 162.351ZM855.852 162.147C854.511 160.523 853.701 158.844 853.279 157.497C852.884 156.239 852.932 155.62 852.932 155.99H921C921 143.587 917.761 129.951 908.209 118.382L855.852 162.147ZM852.932 155.99C852.932 155.643 852.973 155.04 853.159 154.268C853.348 153.487 853.641 152.715 854.012 152.015L914.072 184.244C918.805 175.314 921 165.685 921 155.99H852.932ZM854.012 152.015C854.296 151.479 854.608 151.046 854.879 150.736C855.143 150.433 855.292 150.331 855.213 150.391L896.053 205.181C903.279 199.727 909.545 192.784 914.072 184.244L854.012 152.015ZM855.506 150.172C855.505 150.172 854.788 150.704 852.763 151.31L872.179 216.952C880.391 214.493 888.448 210.794 895.76 205.4L855.506 150.172ZM853.017 151.235C851.583 151.653 849.146 152.094 845.379 152.094V220.582C854.288 220.582 863.245 219.553 871.925 217.027L853.017 151.235ZM845.379 152.094C840.126 152.094 837.975 151.141 837.546 150.92L806.416 211.825C818.783 218.224 832.231 220.582 845.379 220.582V152.094ZM837.665 150.981C836.588 150.419 836.075 150.008 835.915 149.868C835.774 149.745 835.886 149.817 836.068 150.099L779.012 187.448C786.05 198.331 795.706 206.23 806.298 211.763L837.665 150.981ZM836.324 150.5C836.145 150.216 836.27 150.344 836.432 150.873C836.602 151.428 836.73 152.158 836.73 152.956H768.662C768.662 165.624 772.551 177.15 778.757 187.046L836.324 150.5ZM802.696 187.199H827.649V118.712H802.696V187.199ZM793.633 154.116C793.927 162.825 796.275 173.337 803.525 182.716L857.255 140.669C861.093 145.633 861.613 150.321 861.663 151.796L793.633 154.116ZM803.886 183.175C809.6 190.311 816.994 195.569 825.431 198.656L848.693 134.293C851.768 135.418 854.714 137.488 856.894 140.21L803.886 183.175ZM825.661 198.739C832.374 201.141 839.219 202.189 845.928 202.189V133.702C846.3 133.702 847.234 133.77 848.464 134.21L825.661 198.739ZM845.928 202.189C852.087 202.189 859.616 201.401 867.215 198.301L841.642 134.831C843.263 134.169 844.522 133.903 845.193 133.794C845.866 133.685 846.148 133.702 845.928 133.702V202.189ZM867.937 197.997C874.372 195.197 881.491 190.528 887.025 182.909L832.068 142.499C835.287 138.068 838.993 135.974 840.92 135.135L867.937 197.997ZM886.895 183.087C892.645 175.276 895.408 166.161 895.408 157.002H827.341C827.341 152.135 828.886 146.821 832.198 142.321L886.895 183.087Z" fill="url(#paint0_linear_240_209)"/>
<path d="M181.254 103.045V222H155V83.8646H179.339L181.254 103.045ZM243.697 132.646V134.582C243.697 141.836 242.846 148.567 241.145 154.776C239.504 160.985 237.073 166.395 233.852 171.006C230.631 175.555 226.62 179.12 221.819 181.702C217.079 184.223 211.609 185.483 205.411 185.483C199.394 185.483 194.168 184.254 189.731 181.795C185.295 179.336 181.558 175.894 178.519 171.467C175.541 166.979 173.141 161.785 171.317 155.883C169.494 149.981 168.096 143.65 167.124 136.887V131.815C168.096 124.561 169.494 117.922 171.317 111.897C173.141 105.811 175.541 100.555 178.519 96.1289C181.558 91.6413 185.265 88.168 189.64 85.7089C194.077 83.2499 199.273 82.0204 205.228 82.0204C211.488 82.0204 216.988 83.2192 221.728 85.6167C226.529 88.0142 230.54 91.4568 233.761 95.9446C237.043 100.432 239.504 105.781 241.145 111.99C242.846 118.199 243.697 125.084 243.697 132.646ZM217.352 134.582V132.646C217.352 128.403 216.988 124.5 216.259 120.934C215.59 117.307 214.496 114.141 212.977 111.436C211.518 108.731 209.574 106.641 207.143 105.166C204.773 103.629 201.886 102.86 198.483 102.86C194.897 102.86 191.828 103.445 189.276 104.613C186.784 105.781 184.748 107.471 183.168 109.684C181.588 111.897 180.403 114.541 179.613 117.615C178.823 120.688 178.337 124.162 178.154 128.035V140.852C178.458 145.402 179.309 149.489 180.707 153.116C182.104 156.682 184.262 159.51 187.179 161.6C190.096 163.69 193.925 164.736 198.665 164.736C202.129 164.736 205.046 163.967 207.416 162.43C209.786 160.832 211.701 158.65 213.159 155.883C214.678 153.116 215.742 149.919 216.35 146.293C217.018 142.666 217.352 138.762 217.352 134.582ZM286.268 105.627V183.639H260.014V83.8646H284.719L286.268 105.627ZM315.986 83.2192L315.53 107.84C314.254 107.656 312.704 107.502 310.881 107.379C309.119 107.195 307.508 107.102 306.049 107.102C302.343 107.102 299.121 107.594 296.387 108.578C293.713 109.5 291.464 110.883 289.641 112.727C287.879 114.572 286.542 116.815 285.63 119.459C284.779 122.102 284.293 125.115 284.172 128.496L278.885 126.836C278.885 120.381 279.523 114.449 280.798 109.039C282.075 103.567 283.929 98.8032 286.359 94.7458C288.851 90.6885 291.89 87.5532 295.475 85.3401C299.061 83.127 303.163 82.0204 307.781 82.0204C309.24 82.0204 310.729 82.1433 312.248 82.3893C313.767 82.5737 315.013 82.8503 315.986 83.2192ZM321.456 134.766V132.83C321.456 125.514 322.489 118.783 324.555 112.635C326.621 106.426 329.63 101.047 333.58 96.4978C337.53 91.9486 342.392 88.4138 348.165 85.8933C353.939 83.3114 360.563 82.0204 368.037 82.0204C375.513 82.0204 382.167 83.3114 388.002 85.8933C393.836 88.4138 398.728 91.9486 402.678 96.4978C406.689 101.047 409.727 106.426 411.794 112.635C413.86 118.783 414.893 125.514 414.893 132.83V134.766C414.893 142.02 413.86 148.752 411.794 154.961C409.727 161.108 406.689 166.488 402.678 171.098C398.728 175.647 393.865 179.182 388.092 181.702C382.319 184.223 375.695 185.483 368.22 185.483C360.744 185.483 354.091 184.223 348.256 181.702C342.482 179.182 337.59 175.647 333.58 171.098C329.63 166.488 326.621 161.108 324.555 154.961C322.489 148.752 321.456 142.02 321.456 134.766ZM347.709 132.83V134.766C347.709 138.946 348.074 142.85 348.803 146.477C349.533 150.104 350.687 153.301 352.267 156.067C353.908 158.772 356.035 160.894 358.648 162.43C361.261 163.967 364.452 164.736 368.22 164.736C371.866 164.736 374.996 163.967 377.61 162.43C380.222 160.894 382.319 158.772 383.899 156.067C385.479 153.301 386.634 150.104 387.363 146.477C388.153 142.85 388.548 138.946 388.548 134.766V132.83C388.548 128.772 388.153 124.961 387.363 121.395C386.634 117.768 385.449 114.572 383.808 111.805C382.228 108.977 380.132 106.764 377.518 105.166C374.905 103.567 371.745 102.768 368.037 102.768C364.331 102.768 361.17 103.567 358.557 105.166C356.005 106.764 353.908 108.977 352.267 111.805C350.687 114.572 349.533 117.768 348.803 121.395C348.074 124.961 347.709 128.772 347.709 132.83ZM489.278 161.876V42H515.715V183.639H491.922L489.278 161.876ZM426.926 134.95V133.014C426.926 125.391 427.776 118.475 429.479 112.266C431.18 105.996 433.672 100.617 436.953 96.1289C440.235 91.6413 444.277 88.168 449.077 85.7089C453.879 83.2499 459.348 82.0204 465.486 82.0204C471.26 82.0204 476.304 83.2499 480.618 85.7089C484.993 88.168 488.701 91.672 491.74 96.2212C494.839 100.709 497.33 106.026 499.214 112.174C501.098 118.26 502.466 124.93 503.317 132.185V136.426C502.466 143.372 501.098 149.828 499.214 155.791C497.33 161.754 494.839 166.979 491.74 171.467C488.701 175.894 484.993 179.336 480.618 181.795C476.243 184.254 471.137 185.483 465.303 185.483C459.165 185.483 453.696 184.223 448.895 181.702C444.154 179.182 440.144 175.647 436.862 171.098C433.641 166.549 431.18 161.201 429.479 155.053C427.776 148.906 426.926 142.205 426.926 134.95ZM453.179 133.014V134.95C453.179 139.069 453.483 142.911 454.091 146.477C454.759 150.043 455.823 153.209 457.281 155.975C458.801 158.68 460.745 160.801 463.116 162.338C465.547 163.813 468.494 164.551 471.958 164.551C476.456 164.551 480.162 163.537 483.08 161.508C485.997 159.418 488.215 156.559 489.734 152.933C491.314 149.305 492.226 145.124 492.469 140.391V128.311C492.286 124.438 491.74 120.965 490.828 117.891C489.977 114.756 488.701 112.082 487 109.869C485.358 107.656 483.292 105.934 480.801 104.705C478.369 103.475 475.483 102.86 472.141 102.86C468.738 102.86 465.82 103.66 463.39 105.258C460.958 106.795 458.983 108.916 457.464 111.621C456.005 114.326 454.911 117.522 454.182 121.211C453.514 124.838 453.179 128.772 453.179 133.014ZM594.567 159.756V83.8646H620.82V183.639H596.116L594.567 159.756ZM597.483 139.285L605.232 139.1C605.232 145.74 604.473 151.918 602.953 157.635C601.434 163.291 599.154 168.209 596.116 172.389C593.078 176.508 589.249 179.735 584.631 182.072C580.012 184.346 574.572 185.483 568.313 185.483C563.512 185.483 559.076 184.807 555.003 183.454C550.993 182.041 547.529 179.859 544.611 176.907C541.756 173.895 539.507 170.053 537.866 165.38C536.286 160.647 535.496 154.961 535.496 148.321V83.8646H561.75V148.506C561.75 151.457 562.084 153.946 562.752 155.975C563.482 158.004 564.484 159.663 565.76 160.954C567.036 162.246 568.526 163.167 570.227 163.721C571.99 164.274 573.934 164.551 576.061 164.551C581.47 164.551 585.724 163.445 588.823 161.231C591.984 159.018 594.202 156.006 595.478 152.194C596.815 148.321 597.483 144.018 597.483 139.285ZM689.189 83.8646V102.676H631.759V83.8646H689.189ZM645.98 59.2438H672.234V153.577C672.234 156.467 672.598 158.68 673.327 160.217C674.117 161.754 675.272 162.829 676.791 163.445C678.31 163.998 680.225 164.274 682.535 164.274C684.175 164.274 685.634 164.213 686.91 164.09C688.247 163.906 689.371 163.721 690.283 163.537L690.374 183.085C688.125 183.824 685.695 184.407 683.081 184.837C680.468 185.268 677.581 185.483 674.421 185.483C668.648 185.483 663.604 184.53 659.289 182.624C655.035 180.658 651.753 177.522 649.444 173.219C647.134 168.915 645.98 163.26 645.98 156.252V59.2438ZM697.575 134.766V132.83C697.575 125.514 698.609 118.783 700.675 112.635C702.742 106.426 705.749 101.047 709.699 96.4978C713.65 91.9486 718.512 88.4138 724.285 85.8933C730.058 83.3114 736.682 82.0204 744.158 82.0204C751.632 82.0204 758.287 83.3114 764.121 85.8933C769.955 88.4138 774.847 91.9486 778.798 96.4978C782.809 101.047 785.847 106.426 787.913 112.635C789.98 118.783 791.013 125.514 791.013 132.83V134.766C791.013 142.02 789.98 148.752 787.913 154.961C785.847 161.108 782.809 166.488 778.798 171.098C774.847 175.647 769.986 179.182 764.213 181.702C758.439 184.223 751.815 185.483 744.34 185.483C736.865 185.483 730.21 184.223 724.376 181.702C718.603 179.182 713.711 175.647 709.699 171.098C705.749 166.488 702.742 161.108 700.675 154.961C698.609 148.752 697.575 142.02 697.575 134.766ZM723.829 132.83V134.766C723.829 138.946 724.193 142.85 724.923 146.477C725.652 150.104 726.807 153.301 728.387 156.067C730.028 158.772 732.155 160.894 734.768 162.43C737.382 163.967 740.572 164.736 744.34 164.736C747.987 164.736 751.116 163.967 753.729 162.43C756.343 160.894 758.439 158.772 760.019 156.067C761.599 153.301 762.754 150.104 763.483 146.477C764.273 142.85 764.668 138.946 764.668 134.766V132.83C764.668 128.772 764.273 124.961 763.483 121.395C762.754 117.768 761.568 114.572 759.928 111.805C758.348 108.977 756.251 106.764 753.638 105.166C751.025 103.567 747.864 102.768 744.158 102.768C740.45 102.768 737.29 103.567 734.677 105.166C732.125 106.764 730.028 108.977 728.387 111.805C726.807 114.572 725.652 117.768 724.923 121.395C724.193 124.961 723.829 128.772 723.829 132.83ZM860.476 156.067C860.476 154.162 859.929 152.441 858.835 150.903C857.741 149.367 855.705 147.953 852.727 146.662C849.81 145.309 845.587 144.08 840.057 142.973C835.073 141.867 830.424 140.484 826.109 138.824C821.855 137.102 818.148 135.043 814.988 132.646C811.888 130.248 809.458 127.419 807.695 124.162C805.933 120.842 805.052 117.061 805.052 112.82C805.052 108.639 805.933 104.705 807.695 101.016C809.518 97.3277 812.101 94.0696 815.444 91.2417C818.847 88.3524 822.979 86.1085 827.841 84.5102C832.764 82.8503 838.294 82.0204 844.432 82.0204C853.001 82.0204 860.354 83.4036 866.492 86.17C872.691 88.9363 877.432 92.7478 880.713 97.6044C884.056 102.399 885.727 107.871 885.727 114.018H859.474C859.474 111.436 858.926 109.131 857.832 107.102C856.8 105.012 855.158 103.383 852.91 102.215C850.722 100.986 847.865 100.371 844.341 100.371C841.424 100.371 838.902 100.893 836.775 101.938C834.648 102.922 833.006 104.274 831.852 105.996C830.759 107.656 830.211 109.5 830.211 111.529C830.211 113.065 830.515 114.449 831.123 115.678C831.791 116.846 832.855 117.922 834.313 118.906C835.772 119.889 837.656 120.811 839.965 121.672C842.335 122.471 845.253 123.209 848.717 123.885C855.827 125.36 862.177 127.297 867.769 129.694C873.359 132.031 877.796 135.228 881.078 139.285C884.36 143.28 886 148.537 886 155.053C886 159.479 885.027 163.537 883.083 167.225C881.138 170.914 878.343 174.141 874.697 176.907C871.05 179.612 866.675 181.733 861.57 183.27C856.525 184.746 850.843 185.483 844.523 185.483C835.347 185.483 827.568 183.824 821.186 180.504C814.866 177.184 810.065 172.973 806.784 167.871C803.562 162.706 801.952 157.419 801.952 152.01H826.839C826.96 155.637 827.872 158.557 829.573 160.77C831.336 162.984 833.554 164.581 836.228 165.565C838.963 166.549 841.91 167.041 845.07 167.041C848.473 167.041 851.299 166.58 853.548 165.658C855.796 164.674 857.498 163.383 858.653 161.785C859.868 160.124 860.476 158.219 860.476 156.067Z" fill="white"/>
<defs>
<linearGradient id="paint0_linear_240_209" x1="520.98" y1="9" x2="520.98" y2="218.22" gradientUnits="userSpaceOnUse">
<stop stop-color="#0078D6"/>
<stop offset="1" stop-color="#00A4EB"/>
</linearGradient>
</defs>
</svg>
